<svg version="1.1" viewBox="0.0 0.0 600.0 371.0" fill="none" stroke="none" stroke-linecap="square" stroke-miterlimit="10" width="600" height="371" xmlns:xlink="http://www.w3.org/1999/xlink" xmlns="http://www.w3.org/2000/svg"><path fill="#ffffff" d="M0 0L600.0 0L600.0 371.0L0 371.0L0 0Z" fill-rule="nonzero"/><path fill="#4285f4" d="M300.0 81.28333C312.6412 81.28333 325.2203 83.05121 337.37183 86.5356L300.0 216.86667Z" fill-rule="nonzero"/><path fill="#ea4335" d="M337.37183 86.5356C361.79428 93.53863 383.7577 107.26288 400.75806 126.14371L300.0 216.86667Z" fill-rule="nonzero"/><path fill="#fbbc04" d="M400.75806 126.14371C435.4439 164.66624 445.12924 219.59447 425.71066 267.65707L300.0 216.86667Z" fill-rule="nonzero"/><path fill="#ff6d01" d="M271.81064 349.48718C203.93298 335.05933 157.90575 271.70828 165.15941 202.69435C172.41307 133.6804 230.60591 81.28333 300.0 81.28333L300.0 216.86667Z" fill-rule="nonzero"/><path fill="#34a853" d="M425.71066 267.65707C401.0624 328.66367 336.17053 363.1673 271.81064 349.48718L300.0 216.86667Z" fill-rule="nonzero"/><path fill="#4285f4" d="M76.5 61.916668C76.5 65.23038 73.813705 67.916664 70.5 67.916664C67.186295 67.916664 64.5 65.23038 64.5 61.916668C64.5 58.60296 67.186295 55.916668 70.5 55.916668C73.813705 55.916668 76.5 58.60296 76.5 61.916668Z" fill-rule="nonzero"/><path fill="#1a1a1a" d="M85.0 61.68229Q85.0 60.15104 85.3125 59.229164Q85.625 58.291664 86.234375 57.791664Q86.859375 57.291664 87.796875 57.291664Q88.484375 57.291664 89.0 57.572914Q89.53125 57.854164 89.875 58.385414Q90.21875 58.90104 90.40625 59.65104Q90.59375 60.40104 90.59375 61.68229Q90.59375 63.197914 90.28125 64.11979Q89.984375 65.041664 89.359375 65.55729Q88.75 66.05729 87.796875 66.05729Q86.5625 66.05729 85.84375 65.166664Q85.0 64.104164 85.0 61.68229ZM86.078125 61.68229Q86.078125 63.791664 86.578125 64.49479Q87.078125 65.197914 87.796875 65.197914Q88.53125 65.197914 89.015625 64.49479Q89.515625 63.791664 89.515625 61.68229Q89.515625 59.55729 89.015625 58.86979Q88.53125 58.166664 87.78125 58.166664Q87.0625 58.166664 86.625 58.77604Q86.078125 59.55729 86.078125 61.68229ZM91.875 63.33854L91.875 62.27604L95.125 62.27604L95.125 63.33854L91.875 63.33854ZM101.546875 64.90104L101.546875 65.916664L95.859375 65.916664Q95.859375 65.541664 95.984375 65.18229Q96.203125 64.604164 96.671875 64.041664Q97.15625 63.479164 98.0625 62.74479Q99.46875 61.58854 99.953125 60.916664Q100.453125 60.24479 100.453125 59.65104Q100.453125 59.02604 100.0 58.604164Q99.546875 58.166664 98.828125 58.166664Q98.0625 58.166664 97.609375 58.61979Q97.15625 59.072914 97.140625 59.885414L96.0625 59.77604Q96.171875 58.55729 96.890625 57.93229Q97.625 57.291664 98.859375 57.291664Q100.09375 57.291664 100.8125 57.979164Q101.53125 58.666664 101.53125 59.68229Q101.53125 60.197914 101.3125 60.697914Q101.109375 61.18229 100.609375 61.74479Q100.125 62.291664 99.0 63.24479Q98.046875 64.041664 97.765625 64.33854Q97.5 64.61979 97.328125 64.90104L101.546875 64.90104ZM106.296875 65.916664L106.296875 57.322914L107.34375 57.322914L107.34375 60.40104Q108.078125 59.55729 109.203125 59.55729Q109.90625 59.55729 110.40625 59.83854Q110.921875 60.104164 111.140625 60.58854Q111.359375 61.05729 111.359375 61.979164L111.359375 65.916664L110.3125 65.916664L110.3125 61.979164Q110.3125 61.18229 109.96875 60.822914Q109.625 60.46354 109.0 60.46354Q108.53125 60.46354 108.109375 60.71354Q107.703125 60.947914 107.515625 61.36979Q107.34375 61.77604 107.34375 62.510414L107.34375 65.916664L106.296875 65.916664ZM112.90625 62.80729Q112.90625 61.072914 113.859375 60.24479Q114.65625 59.55729 115.8125 59.55729Q117.09375 59.55729 117.90625 60.40104Q118.734375 61.229164 118.734375 62.71354Q118.734375 63.916664 118.375 64.604164Q118.015625 65.291664 117.3125 65.68229Q116.625 66.05729 115.8125 66.05729Q114.515625 66.05729 113.703125 65.229164Q112.90625 64.385414 112.90625 62.80729ZM113.984375 62.80729Q113.984375 63.99479 114.5 64.58854Q115.03125 65.18229 115.8125 65.18229Q116.609375 65.18229 117.125 64.58854Q117.640625 63.99479 117.640625 62.77604Q117.640625 61.61979 117.109375 61.02604Q116.59375 60.43229 115.8125 60.43229Q115.03125 60.43229 114.5 61.02604Q113.984375 61.604164 113.984375 62.80729ZM124.375 65.916664L124.375 64.99479Q123.640625 66.05729 122.390625 66.05729Q121.84375 66.05729 121.359375 65.854164Q120.890625 65.635414 120.65625 65.322914Q120.421875 64.99479 120.328125 64.52604Q120.265625 64.229164 120.265625 63.541664L120.265625 59.697914L121.328125 59.697914L121.328125 63.15104Q121.328125 63.96354 121.390625 64.260414Q121.484375 64.666664 121.796875 64.916664Q122.125 65.15104 122.609375 65.15104Q123.078125 65.15104 123.484375 64.916664Q123.90625 64.666664 124.078125 64.24479Q124.265625 63.822914 124.265625 63.02604L124.265625 59.697914L125.3125 59.697914L125.3125 65.916664L124.375 65.916664ZM127.28125 65.916664L127.28125 59.697914L128.23438 59.697914L128.23438 60.635414Q128.59375 59.979164 128.89062 59.77604Q129.20312 59.55729 129.57812 59.55729Q130.10938 59.55729 130.65625 59.885414L130.29688 60.86979Q129.90625 60.635414 129.53125 60.635414Q129.17188 60.635414 128.89062 60.854164Q128.625 61.05729 128.51562 61.43229Q128.32812 61.99479 128.32812 62.65104L128.32812 65.916664L127.28125 65.916664ZM130.875 64.05729L131.90625 63.90104Q132.0 64.52604 132.39062 64.854164Q132.79688 65.18229 133.53125 65.18229Q134.25 65.18229 134.59375 64.90104Q134.95312 64.604164 134.95312 64.197914Q134.95312 63.83854 134.64062 63.635414Q134.42188 63.49479 133.5625 63.27604Q132.40625 62.979164 131.95312 62.77604Q131.51562 62.55729 131.28125 62.18229Q131.04688 61.80729 131.04688 61.33854Q131.04688 60.93229 131.23438 60.572914Q131.42188 60.21354 131.75 59.979164Q132.0 59.80729 132.42188 59.68229Q132.84375 59.55729 133.34375 59.55729Q134.0625 59.55729 134.60938 59.77604Q135.17188 59.979164 135.4375 60.33854Q135.70312 60.697914 135.79688 61.291664L134.76562 61.43229Q134.70312 60.96354 134.35938 60.697914Q134.03125 60.416664 133.40625 60.416664Q132.6875 60.416664 132.375 60.666664Q132.0625 60.90104 132.0625 61.229164Q132.0625 61.43229 132.1875 61.58854Q132.32812 61.760414 132.59375 61.86979Q132.75 61.93229 133.53125 62.135414Q134.65625 62.447914 135.09375 62.635414Q135.53125 62.822914 135.78125 63.18229Q136.03125 63.541664 136.03125 64.08854Q136.03125 64.61979 135.71875 65.08854Q135.42188 65.541664 134.84375 65.80729Q134.26562 66.05729 133.53125 66.05729Q132.3125 66.05729 131.67188 65.55729Q131.04688 65.041664 130.875 64.05729Z" fill-rule="nonzero"/><path fill="#ea4335" d="M164.5 61.916668C164.5 65.23038 161.8137 67.916664 158.5 67.916664C155.1863 67.916664 152.5 65.23038 152.5 61.916668C152.5 58.60296 155.1863 55.916668 158.5 55.916668C161.8137 55.916668 164.5 58.60296 164.5 61.916668Z" fill-rule="nonzero"/><path fill="#1a1a1a" d="M178.54688 64.90104L178.54688 65.916664L172.85938 65.916664Q172.85938 65.541664 172.98438 65.18229Q173.20312 64.604164 173.67188 64.041664Q174.15625 63.479164 175.0625 62.74479Q176.46875 61.58854 176.95312 60.916664Q177.45312 60.24479 177.45312 59.65104Q177.45312 59.02604 177.0 58.604164Q176.54688 58.166664 175.82812 58.166664Q175.0625 58.166664 174.60938 58.61979Q174.15625 59.072914 174.14062 59.885414L173.0625 59.77604Q173.17188 58.55729 173.89062 57.93229Q174.625 57.291664 175.85938 57.291664Q177.09375 57.291664 177.8125 57.979164Q178.53125 58.666664 178.53125 59.68229Q178.53125 60.197914 178.3125 60.697914Q178.10938 61.18229 177.60938 61.74479Q177.125 62.291664 176.0 63.24479Q175.04688 64.041664 174.76562 64.33854Q174.5 64.61979 174.32812 64.90104L178.54688 64.90104ZM179.875 63.33854L179.875 62.27604L183.125 62.27604L183.125 63.33854L179.875 63.33854ZM187.375 65.916664L187.375 63.854164L183.65625 63.854164L183.65625 62.885414L187.57812 57.322914L188.4375 57.322914L188.4375 62.885414L189.59375 62.885414L189.59375 63.854164L188.4375 63.854164L188.4375 65.916664L187.375 65.916664ZM187.375 62.885414L187.375 59.02604L184.6875 62.885414L187.375 62.885414ZM194.29688 65.916664L194.29688 57.322914L195.34375 57.322914L195.34375 60.40104Q196.07812 59.55729 197.20312 59.55729Q197.90625 59.55729 198.40625 59.83854Q198.92188 60.104164 199.14062 60.58854Q199.35938 61.05729 199.35938 61.979164L199.35938 65.916664L198.3125 65.916664L198.3125 61.979164Q198.3125 61.18229 197.96875 60.822914Q197.625 60.46354 197.0 60.46354Q196.53125 60.46354 196.10938 60.71354Q195.70312 60.947914 195.51562 61.36979Q195.34375 61.77604 195.34375 62.510414L195.34375 65.916664L194.29688 65.916664ZM200.90625 62.80729Q200.90625 61.072914 201.85938 60.24479Q202.65625 59.55729 203.8125 59.55729Q205.09375 59.55729 205.90625 60.40104Q206.73438 61.229164 206.73438 62.71354Q206.73438 63.916664 206.375 64.604164Q206.01562 65.291664 205.3125 65.68229Q204.625 66.05729 203.8125 66.05729Q202.51562 66.05729 201.70312 65.229164Q200.90625 64.385414 200.90625 62.80729ZM201.98438 62.80729Q201.98438 63.99479 202.5 64.58854Q203.03125 65.18229 203.8125 65.18229Q204.60938 65.18229 205.125 64.58854Q205.64062 63.99479 205.64062 62.77604Q205.64062 61.61979 205.10938 61.02604Q204.59375 60.43229 203.8125 60.43229Q203.03125 60.43229 202.5 61.02604Q201.98438 61.604164 201.98438 62.80729ZM212.375 65.916664L212.375 64.99479Q211.64062 66.05729 210.39062 66.05729Q209.84375 66.05729 209.35938 65.854164Q208.89062 65.635414 208.65625 65.322914Q208.42188 64.99479 208.32812 64.52604Q208.26562 64.229164 208.26562 63.541664L208.26562 59.697914L209.32812 59.697914L209.32812 63.15104Q209.32812 63.96354 209.39062 64.260414Q209.48438 64.666664 209.79688 64.916664Q210.125 65.15104 210.60938 65.15104Q211.07812 65.15104 211.48438 64.916664Q211.90625 64.666664 212.07812 64.24479Q212.26562 63.822914 212.26562 63.02604L212.26562 59.697914L213.3125 59.697914L213.3125 65.916664L212.375 65.916664ZM215.28125 65.916664L215.28125 59.697914L216.23438 59.697914L216.23438 60.635414Q216.59375 59.979164 216.89062 59.77604Q217.20312 59.55729 217.57812 59.55729Q218.10938 59.55729 218.65625 59.885414L218.29688 60.86979Q217.90625 60.635414 217.53125 60.635414Q217.17188 60.635414 216.89062 60.854164Q216.625 61.05729 216.51562 61.43229Q216.32812 61.99479 216.32812 62.65104L216.32812 65.916664L215.28125 65.916664ZM218.875 64.05729L219.90625 63.90104Q220.0 64.52604 220.39062 64.854164Q220.79688 65.18229 221.53125 65.18229Q222.25 65.18229 222.59375 64.90104Q222.95312 64.604164 222.95312 64.197914Q222.95312 63.83854 222.64062 63.635414Q222.42188 63.49479 221.5625 63.27604Q220.40625 62.979164 219.95312 62.77604Q219.51562 62.55729 219.28125 62.18229Q219.04688 61.80729 219.04688 61.33854Q219.04688 60.93229 219.23438 60.572914Q219.42188 60.21354 219.75 59.979164Q220.0 59.80729 220.42188 59.68229Q220.84375 59.55729 221.34375 59.55729Q222.0625 59.55729 222.60938 59.77604Q223.17188 59.979164 223.4375 60.33854Q223.70312 60.697914 223.79688 61.291664L222.76562 61.43229Q222.70312 60.96354 222.35938 60.697914Q222.03125 60.416664 221.40625 60.416664Q220.6875 60.416664 220.375 60.666664Q220.0625 60.90104 220.0625 61.229164Q220.0625 61.43229 220.1875 61.58854Q220.32812 61.760414 220.59375 61.86979Q220.75 61.93229 221.53125 62.135414Q222.65625 62.447914 223.09375 62.635414Q223.53125 62.822914 223.78125 63.18229Q224.03125 63.541664 224.03125 64.08854Q224.03125 64.61979 223.71875 65.08854Q223.42188 65.541664 222.84375 65.80729Q222.26562 66.05729 221.53125 66.05729Q220.3125 66.05729 219.67188 65.55729Q219.04688 65.041664 218.875 64.05729Z" fill-rule="nonzero"/><path fill="#fbbc04" d="M252.5 61.916668C252.5 65.23038 249.8137 67.916664 246.5 67.916664C243.1863 67.916664 240.5 65.23038 240.5 61.916668C240.5 58.60296 243.1863 55.916668 246.5 55.916668C249.8137 55.916668 252.5 58.60296 252.5 61.916668Z" fill-rule="nonzero"/><path fill="#1a1a1a" d="M264.375 65.916664L264.375 63.854164L260.65625 63.854164L260.65625 62.885414L264.57812 57.322914L265.4375 57.322914L265.4375 62.885414L266.59375 62.885414L266.59375 63.854164L265.4375 63.854164L265.4375 65.916664L264.375 65.916664ZM264.375 62.885414L264.375 59.02604L261.6875 62.885414L264.375 62.885414ZM267.875 63.33854L267.875 62.27604L271.125 62.27604L271.125 63.33854L267.875 63.33854ZM277.46875 59.43229L276.42188 59.510414Q276.28125 58.885414 276.03125 58.604164Q275.59375 58.15104 274.96875 58.15104Q274.46875 58.15104 274.07812 58.43229Q273.59375 58.80729 273.29688 59.510414Q273.01562 60.197914 273.0 61.479164Q273.375 60.90104 273.92188 60.61979Q274.48438 60.33854 275.09375 60.33854Q276.14062 60.33854 276.875 61.11979Q277.625 61.90104 277.625 63.11979Q277.625 63.93229 277.26562 64.635414Q276.92188 65.322914 276.3125 65.697914Q275.70312 66.05729 274.9375 66.05729Q273.60938 66.05729 272.78125 65.08854Q271.95312 64.11979 271.95312 61.90104Q271.95312 59.40104 272.875 58.27604Q273.67188 57.291664 275.03125 57.291664Q276.04688 57.291664 276.6875 57.86979Q277.34375 58.43229 277.46875 59.43229ZM273.17188 63.135414Q273.17188 63.68229 273.39062 64.18229Q273.625 64.666664 274.03125 64.93229Q274.45312 65.197914 274.92188 65.197914Q275.57812 65.197914 276.0625 64.666664Q276.54688 64.11979 276.54688 63.197914Q276.54688 62.30729 276.0625 61.791664Q275.59375 61.27604 274.875 61.27604Q274.15625 61.27604 273.65625 61.791664Q273.17188 62.30729 273.17188 63.135414ZM282.29688 65.916664L282.29688 57.322914L283.34375 57.322914L283.34375 60.40104Q284.07812 59.55729 285.20312 59.55729Q285.90625 59.55729 286.40625 59.83854Q286.92188 60.104164 287.14062 60.58854Q287.35938 61.05729 287.35938 61.979164L287.35938 65.916664L286.3125 65.916664L286.3125 61.979164Q286.3125 61.18229 285.96875 60.822914Q285.625 60.46354 285.0 60.46354Q284.53125 60.46354 284.10938 60.71354Q283.70312 60.947914 283.51562 61.36979Q283.34375 61.77604 283.34375 62.510414L283.34375 65.916664L282.29688 65.916664ZM288.90625 62.80729Q288.90625 61.072914 289.85938 60.24479Q290.65625 59.55729 291.8125 59.55729Q293.09375 59.55729 293.90625 60.40104Q294.73438 61.229164 294.73438 62.71354Q294.73438 63.916664 294.375 64.604164Q294.01562 65.291664 293.3125 65.68229Q292.625 66.05729 291.8125 66.05729Q290.51562 66.05729 289.70312 65.229164Q288.90625 64.385414 288.90625 62.80729ZM289.98438 62.80729Q289.98438 63.99479 290.5 64.58854Q291.03125 65.18229 291.8125 65.18229Q292.60938 65.18229 293.125 64.58854Q293.64062 63.99479 293.64062 62.77604Q293.64062 61.61979 293.10938 61.02604Q292.59375 60.43229 291.8125 60.43229Q291.03125 60.43229 290.5 61.02604Q289.98438 61.604164 289.98438 62.80729ZM300.375 65.916664L300.375 64.99479Q299.64062 66.05729 298.39062 66.05729Q297.84375 66.05729 297.35938 65.854164Q296.89062 65.635414 296.65625 65.322914Q296.42188 64.99479 296.32812 64.52604Q296.26562 64.229164 296.26562 63.541664L296.26562 59.697914L297.32812 59.697914L297.32812 63.15104Q297.32812 63.96354 297.39062 64.260414Q297.48438 64.666664 297.79688 64.916664Q298.125 65.15104 298.60938 65.15104Q299.07812 65.15104 299.48438 64.916664Q299.90625 64.666664 300.07812 64.24479Q300.26562 63.822914 300.26562 63.02604L300.26562 59.697914L301.3125 59.697914L301.3125 65.916664L300.375 65.916664ZM303.28125 65.916664L303.28125 59.697914L304.23438 59.697914L304.23438 60.635414Q304.59375 59.979164 304.89062 59.77604Q305.20312 59.55729 305.57812 59.55729Q306.10938 59.55729 306.65625 59.885414L306.29688 60.86979Q305.90625 60.635414 305.53125 60.635414Q305.17188 60.635414 304.89062 60.854164Q304.625 61.05729 304.51562 61.43229Q304.32812 61.99479 304.32812 62.65104L304.32812 65.916664L303.28125 65.916664ZM306.875 64.05729L307.90625 63.90104Q308.0 64.52604 308.39062 64.854164Q308.79688 65.18229 309.53125 65.18229Q310.25 65.18229 310.59375 64.90104Q310.95312 64.604164 310.95312 64.197914Q310.95312 63.83854 310.64062 63.635414Q310.42188 63.49479 309.5625 63.27604Q308.40625 62.979164 307.95312 62.77604Q307.51562 62.55729 307.28125 62.18229Q307.04688 61.80729 307.04688 61.33854Q307.04688 60.93229 307.23438 60.572914Q307.42188 60.21354 307.75 59.979164Q308.0 59.80729 308.42188 59.68229Q308.84375 59.55729 309.34375 59.55729Q310.0625 59.55729 310.60938 59.77604Q311.17188 59.979164 311.4375 60.33854Q311.70312 60.697914 311.79688 61.291664L310.76562 61.43229Q310.70312 60.96354 310.35938 60.697914Q310.03125 60.416664 309.40625 60.416664Q308.6875 60.416664 308.375 60.666664Q308.0625 60.90104 308.0625 61.229164Q308.0625 61.43229 308.1875 61.58854Q308.32812 61.760414 308.59375 61.86979Q308.75 61.93229 309.53125 62.135414Q310.65625 62.447914 311.09375 62.635414Q311.53125 62.822914 311.78125 63.18229Q312.03125 63.541664 312.03125 64.08854Q312.03125 64.61979 311.71875 65.08854Q311.42188 65.541664 310.84375 65.80729Q310.26562 66.05729 309.53125 66.05729Q308.3125 66.05729 307.67188 65.55729Q307.04688 65.041664 306.875 64.05729Z" fill-rule="nonzero"/><path fill="#34a853" d="M340.5 61.916668C340.5 65.23038 337.81372 67.916664 334.5 67.916664C331.18628 67.916664 328.5 65.23038 328.5 61.916668C328.5 58.60296 331.18628 55.916668 334.5 55.916668C337.81372 55.916668 340.5 58.60296 340.5 61.916668Z" fill-rule="nonzero"/><path fill="#1a1a1a" d="M354.46875 59.43229L353.42188 59.510414Q353.28125 58.885414 353.03125 58.604164Q352.59375 58.15104 351.96875 58.15104Q351.46875 58.15104 351.07812 58.43229Q350.59375 58.80729 350.29688 59.510414Q350.01562 60.197914 350.0 61.479164Q350.375 60.90104 350.92188 60.61979Q351.48438 60.33854 352.09375 60.33854Q353.14062 60.33854 353.875 61.11979Q354.625 61.90104 354.625 63.11979Q354.625 63.93229 354.26562 64.635414Q353.92188 65.322914 353.3125 65.697914Q352.70312 66.05729 351.9375 66.05729Q350.60938 66.05729 349.78125 65.08854Q348.95312 64.11979 348.95312 61.90104Q348.95312 59.40104 349.875 58.27604Q350.67188 57.291664 352.03125 57.291664Q353.04688 57.291664 353.6875 57.86979Q354.34375 58.43229 354.46875 59.43229ZM350.17188 63.135414Q350.17188 63.68229 350.39062 64.18229Q350.625 64.666664 351.03125 64.93229Q351.45312 65.197914 351.92188 65.197914Q352.57812 65.197914 353.0625 64.666664Q353.54688 64.11979 353.54688 63.197914Q353.54688 62.30729 353.0625 61.791664Q352.59375 61.27604 351.875 61.27604Q351.15625 61.27604 350.65625 61.791664Q350.17188 62.30729 350.17188 63.135414ZM355.875 63.33854L355.875 62.27604L359.125 62.27604L359.125 63.33854L355.875 63.33854ZM361.625 61.260414Q360.96875 61.010414 360.64062 60.572914Q360.32812 60.11979 360.32812 59.510414Q360.32812 58.572914 361.0 57.93229Q361.6875 57.291664 362.79688 57.291664Q363.92188 57.291664 364.60938 57.947914Q365.29688 58.604164 365.29688 59.541664Q365.29688 60.135414 364.98438 60.572914Q364.67188 61.010414 364.03125 61.260414Q364.82812 61.510414 365.23438 62.08854Q365.64062 62.666664 365.64062 63.46354Q365.64062 64.55729 364.85938 65.30729Q364.09375 66.05729 362.8125 66.05729Q361.54688 66.05729 360.76562 65.30729Q359.98438 64.55729 359.98438 63.43229Q359.98438 62.58854 360.40625 62.02604Q360.84375 61.46354 361.625 61.260414ZM361.40625 59.46354Q361.40625 60.072914 361.79688 60.46354Q362.20312 60.854164 362.82812 60.854164Q363.4375 60.854164 363.82812 60.479164Q364.21875 60.08854 364.21875 59.52604Q364.21875 58.947914 363.8125 58.55729Q363.40625 58.15104 362.8125 58.15104Q362.20312 58.15104 361.79688 58.541664Q361.40625 58.93229 361.40625 59.46354ZM361.07812 63.43229Q361.07812 63.885414 361.28125 64.30729Q361.5 64.729164 361.92188 64.96354Q362.34375 65.197914 362.82812 65.197914Q363.57812 65.197914 364.0625 64.71354Q364.5625 64.229164 364.5625 63.479164Q364.5625 62.71354 364.0625 62.21354Q363.5625 61.71354 362.79688 61.71354Q362.04688 61.71354 361.5625 62.21354Q361.07812 62.697914 361.07812 63.43229ZM370.29688 65.916664L370.29688 57.322914L371.34375 57.322914L371.34375 60.40104Q372.07812 59.55729 373.20312 59.55729Q373.90625 59.55729 374.40625 59.83854Q374.92188 60.104164 375.14062 60.58854Q375.35938 61.05729 375.35938 61.979164L375.35938 65.916664L374.3125 65.916664L374.3125 61.979164Q374.3125 61.18229 373.96875 60.822914Q373.625 60.46354 373.0 60.46354Q372.53125 60.46354 372.10938 60.71354Q371.70312 60.947914 371.51562 61.36979Q371.34375 61.77604 371.34375 62.510414L371.34375 65.916664L370.29688 65.916664ZM376.90625 62.80729Q376.90625 61.072914 377.85938 60.24479Q378.65625 59.55729 379.8125 59.55729Q381.09375 59.55729 381.90625 60.40104Q382.73438 61.229164 382.73438 62.71354Q382.73438 63.916664 382.375 64.604164Q382.01562 65.291664 381.3125 65.68229Q380.625 66.05729 379.8125 66.05729Q378.51562 66.05729 377.70312 65.229164Q376.90625 64.385414 376.90625 62.80729ZM377.98438 62.80729Q377.98438 63.99479 378.5 64.58854Q379.03125 65.18229 379.8125 65.18229Q380.60938 65.18229 381.125 64.58854Q381.64062 63.99479 381.64062 62.77604Q381.64062 61.61979 381.10938 61.02604Q380.59375 60.43229 379.8125 60.43229Q379.03125 60.43229 378.5 61.02604Q377.98438 61.604164 377.98438 62.80729ZM388.375 65.916664L388.375 64.99479Q387.64062 66.05729 386.39062 66.05729Q385.84375 66.05729 385.35938 65.854164Q384.89062 65.635414 384.65625 65.322914Q384.42188 64.99479 384.32812 64.52604Q384.26562 64.229164 384.26562 63.541664L384.26562 59.697914L385.32812 59.697914L385.32812 63.15104Q385.32812 63.96354 385.39062 64.260414Q385.48438 64.666664 385.79688 64.916664Q386.125 65.15104 386.60938 65.15104Q387.07812 65.15104 387.48438 64.916664Q387.90625 64.666664 388.07812 64.24479Q388.26562 63.822914 388.26562 63.02604L388.26562 59.697914L389.3125 59.697914L389.3125 65.916664L388.375 65.916664ZM391.28125 65.916664L391.28125 59.697914L392.23438 59.697914L392.23438 60.635414Q392.59375 59.979164 392.89062 59.77604Q393.20312 59.55729 393.57812 59.55729Q394.10938 59.55729 394.65625 59.885414L394.29688 60.86979Q393.90625 60.635414 393.53125 60.635414Q393.17188 60.635414 392.89062 60.854164Q392.625 61.05729 392.51562 61.43229Q392.32812 61.99479 392.32812 62.65104L392.32812 65.916664L391.28125 65.916664ZM394.875 64.05729L395.90625 63.90104Q396.0 64.52604 396.39062 64.854164Q396.79688 65.18229 397.53125 65.18229Q398.25 65.18229 398.59375 64.90104Q398.95312 64.604164 398.95312 64.197914Q398.95312 63.83854 398.64062 63.635414Q398.42188 63.49479 397.5625 63.27604Q396.40625 62.979164 395.95312 62.77604Q395.51562 62.55729 395.28125 62.18229Q395.04688 61.80729 395.04688 61.33854Q395.04688 60.93229 395.23438 60.572914Q395.42188 60.21354 395.75 59.979164Q396.0 59.80729 396.42188 59.68229Q396.84375 59.55729 397.34375 59.55729Q398.0625 59.55729 398.60938 59.77604Q399.17188 59.979164 399.4375 60.33854Q399.70312 60.697914 399.79688 61.291664L398.76562 61.43229Q398.70312 60.96354 398.35938 60.697914Q398.03125 60.416664 397.40625 60.416664Q396.6875 60.416664 396.375 60.666664Q396.0625 60.90104 396.0625 61.229164Q396.0625 61.43229 396.1875 61.58854Q396.32812 61.760414 396.59375 61.86979Q396.75 61.93229 397.53125 62.135414Q398.65625 62.447914 399.09375 62.635414Q399.53125 62.822914 399.78125 63.18229Q400.03125 63.541664 400.03125 64.08854Q400.03125 64.61979 399.71875 65.08854Q399.42188 65.541664 398.84375 65.80729Q398.26562 66.05729 397.53125 66.05729Q396.3125 66.05729 395.67188 65.55729Q395.04688 65.041664 394.875 64.05729Z" fill-rule="nonzero"/><path fill="#ff6d01" d="M428.5 61.916668C428.5 65.23038 425.81372 67.916664 422.5 67.916664C419.18628 67.916664 416.5 65.23038 416.5 61.916668C416.5 58.60296 419.18628 55.916668 422.5 55.916668C425.81372 55.916668 428.5 58.60296 428.5 61.916668Z" fill-rule="nonzero"/><path fill="#1a1a1a" d="M437.39062 65.916664L437.39062 57.322914L439.10938 57.322914L441.14062 63.40104Q441.42188 64.260414 441.54688 64.68229Q441.6875 64.21354 442.0 63.30729L444.0625 57.322914L445.59375 57.322914L445.59375 65.916664L444.5 65.916664L444.5 58.729164L442.0 65.916664L440.96875 65.916664L438.48438 58.604164L438.48438 65.916664L437.39062 65.916664ZM446.90625 62.80729Q446.90625 61.072914 447.85938 60.24479Q448.65625 59.55729 449.8125 59.55729Q451.09375 59.55729 451.90625 60.40104Q452.73438 61.229164 452.73438 62.71354Q452.73438 63.916664 452.375 64.604164Q452.01562 65.291664 451.3125 65.68229Q450.625 66.05729 449.8125 66.05729Q448.51562 66.05729 447.70312 65.229164Q446.90625 64.385414 446.90625 62.80729ZM447.98438 62.80729Q447.98438 63.99479 448.5 64.58854Q449.03125 65.18229 449.8125 65.18229Q450.60938 65.18229 451.125 64.58854Q451.64062 63.99479 451.64062 62.77604Q451.64062 61.61979 451.10938 61.02604Q450.59375 60.43229 449.8125 60.43229Q449.03125 60.43229 448.5 61.02604Q447.98438 61.604164 447.98438 62.80729ZM454.28125 65.916664L454.28125 59.697914L455.23438 59.697914L455.23438 60.635414Q455.59375 59.979164 455.89062 59.77604Q456.20312 59.55729 456.57812 59.55729Q457.10938 59.55729 457.65625 59.885414L457.29688 60.86979Q456.90625 60.635414 456.53125 60.635414Q456.17188 60.635414 455.89062 60.854164Q455.625 61.05729 455.51562 61.43229Q455.32812 61.99479 455.32812 62.65104L455.32812 65.916664L454.28125 65.916664ZM462.54688 63.916664L463.64062 64.041664Q463.39062 64.99479 462.6875 65.52604Q461.98438 66.05729 460.90625 66.05729Q459.54688 66.05729 458.73438 65.21354Q457.9375 64.36979 457.9375 62.854164Q457.9375 61.291664 458.75 60.43229Q459.5625 59.55729 460.84375 59.55729Q462.09375 59.55729 462.875 60.40104Q463.67188 61.24479 463.67188 62.791664Q463.67188 62.885414 463.67188 63.072914L459.03125 63.072914Q459.09375 64.104164 459.60938 64.65104Q460.125 65.18229 460.90625 65.18229Q461.48438 65.18229 461.89062 64.885414Q462.3125 64.572914 462.54688 63.916664ZM459.09375 62.21354L462.5625 62.21354Q462.5 61.416664 462.17188 61.02604Q461.65625 60.416664 460.85938 60.416664Q460.125 60.416664 459.625 60.90104Q459.14062 61.385414 459.09375 62.21354ZM470.59375 64.979164L470.75 65.90104Q470.29688 65.99479 469.95312 65.99479Q469.375 65.99479 469.0625 65.822914Q468.75 65.635414 468.60938 65.33854Q468.48438 65.041664 468.48438 64.08854L468.48438 60.510414L467.71875 60.510414L467.71875 59.697914L468.48438 59.697914L468.48438 58.15104L469.53125 57.52604L469.53125 59.697914L470.59375 59.697914L470.59375 60.510414L469.53125 60.510414L469.53125 64.15104Q469.53125 64.604164 469.57812 64.729164Q469.64062 64.854164 469.76562 64.93229Q469.89062 65.010414 470.125 65.010414Q470.3125 65.010414 470.59375 64.979164ZM471.29688 65.916664L471.29688 57.322914L472.34375 57.322914L472.34375 60.40104Q473.07812 59.55729 474.20312 59.55729Q474.90625 59.55729 475.40625 59.83854Q475.92188 60.104164 476.14062 60.58854Q476.35938 61.05729 476.35938 61.979164L476.35938 65.916664L475.3125 65.916664L475.3125 61.979164Q475.3125 61.18229 474.96875 60.822914Q474.625 60.46354 474.0 60.46354Q473.53125 60.46354 473.10938 60.71354Q472.70312 60.947914 472.51562 61.36979Q472.34375 61.77604 472.34375 62.510414L472.34375 65.916664L471.29688 65.916664ZM482.35938 65.15104Q481.76562 65.65104 481.21875 65.854164Q480.6875 66.05729 480.0625 66.05729Q479.03125 66.05729 478.48438 65.55729Q477.9375 65.05729 477.9375 64.27604Q477.9375 63.822914 478.14062 63.447914Q478.34375 63.05729 478.6875 62.83854Q479.03125 62.604164 479.45312 62.49479Q479.75 62.40104 480.39062 62.322914Q481.65625 62.18229 482.26562 61.96354Q482.26562 61.74479 482.26562 61.697914Q482.26562 61.041664 481.96875 60.77604Q481.5625 60.43229 480.76562 60.43229Q480.03125 60.43229 479.67188 60.697914Q479.3125 60.947914 479.14062 61.604164L478.10938 61.46354Q478.25 60.80729 478.57812 60.40104Q478.90625 59.99479 479.51562 59.77604Q480.125 59.55729 480.92188 59.55729Q481.71875 59.55729 482.21875 59.74479Q482.71875 59.93229 482.95312 60.21354Q483.1875 60.49479 483.28125 60.93229Q483.32812 61.197914 483.32812 61.90104L483.32812 63.30729Q483.32812 64.77604 483.39062 65.166664Q483.46875 65.55729 483.67188 65.916664L482.5625 65.916664Q482.40625 65.58854 482.35938 65.15104ZM482.26562 62.791664Q481.6875 63.02604 480.54688 63.197914Q479.89062 63.291664 479.625 63.416664Q479.35938 63.52604 479.20312 63.74479Q479.0625 63.96354 479.0625 64.24479Q479.0625 64.666664 479.375 64.947914Q479.70312 65.229164 480.3125 65.229164Q480.92188 65.229164 481.39062 64.96354Q481.875 64.697914 482.09375 64.229164Q482.26562 63.86979 482.26562 63.18229L482.26562 62.791664ZM485.29688 65.916664L485.29688 59.697914L486.23438 59.697914L486.23438 60.572914Q486.92188 59.55729 488.21875 59.55729Q488.78125 59.55729 489.25 59.760414Q489.73438 59.96354 489.96875 60.291664Q490.20312 60.61979 490.29688 61.05729Q490.34375 61.354164 490.34375 62.08854L490.34375 65.916664L489.29688 65.916664L489.29688 62.135414Q489.29688 61.479164 489.17188 61.166664Q489.04688 60.854164 488.73438 60.666664Q488.42188 60.46354 488.0 60.46354Q487.32812 60.46354 486.82812 60.90104Q486.34375 61.322914 486.34375 62.510414L486.34375 65.916664L485.29688 65.916664ZM496.625 61.260414Q495.96875 61.010414 495.64062 60.572914Q495.32812 60.11979 495.32812 59.510414Q495.32812 58.572914 496.0 57.93229Q496.6875 57.291664 497.79688 57.291664Q498.92188 57.291664 499.60938 57.947914Q500.29688 58.604164 500.29688 59.541664Q500.29688 60.135414 499.98438 60.572914Q499.67188 61.010414 499.03125 61.260414Q499.82812 61.510414 500.23438 62.08854Q500.64062 62.666664 500.64062 63.46354Q500.64062 64.55729 499.85938 65.30729Q499.09375 66.05729 497.8125 66.05729Q496.54688 66.05729 495.76562 65.30729Q494.98438 64.55729 494.98438 63.43229Q494.98438 62.58854 495.40625 62.02604Q495.84375 61.46354 496.625 61.260414ZM496.40625 59.46354Q496.40625 60.072914 496.79688 60.46354Q497.20312 60.854164 497.82812 60.854164Q498.4375 60.854164 498.82812 60.479164Q499.21875 60.08854 499.21875 59.52604Q499.21875 58.947914 498.8125 58.55729Q498.40625 58.15104 497.8125 58.15104Q497.20312 58.15104 496.79688 58.541664Q496.40625 58.93229 496.40625 59.46354ZM496.07812 63.43229Q496.07812 63.885414 496.28125 64.30729Q496.5 64.729164 496.92188 64.96354Q497.34375 65.197914 497.82812 65.197914Q498.57812 65.197914 499.0625 64.71354Q499.5625 64.229164 499.5625 63.479164Q499.5625 62.71354 499.0625 62.21354Q498.5625 61.71354 497.79688 61.71354Q497.04688 61.71354 496.5625 62.21354Q496.07812 62.697914 496.07812 63.43229ZM505.29688 65.916664L505.29688 57.322914L506.34375 57.322914L506.34375 60.40104Q507.07812 59.55729 508.20312 59.55729Q508.90625 59.55729 509.40625 59.83854Q509.92188 60.104164 510.14062 60.58854Q510.35938 61.05729 510.35938 61.979164L510.35938 65.916664L509.3125 65.916664L509.3125 61.979164Q509.3125 61.18229 508.96875 60.822914Q508.625 60.46354 508.0 60.46354Q507.53125 60.46354 507.10938 60.71354Q506.70312 60.947914 506.51562 61.36979Q506.34375 61.77604 506.34375 62.510414L506.34375 65.916664L505.29688 65.916664ZM511.90625 62.80729Q511.90625 61.072914 512.8594 60.24479Q513.65625 59.55729 514.8125 59.55729Q516.09375 59.55729 516.90625 60.40104Q517.7344 61.229164 517.7344 62.71354Q517.7344 63.916664 517.375 64.604164Q517.0156 65.291664 516.3125 65.68229Q515.625 66.05729 514.8125 66.05729Q513.5156 66.05729 512.7031 65.229164Q511.90625 64.385414 511.90625 62.80729ZM512.9844 62.80729Q512.9844 63.99479 513.5 64.58854Q514.03125 65.18229 514.8125 65.18229Q515.6094 65.18229 516.125 64.58854Q516.6406 63.99479 516.6406 62.77604Q516.6406 61.61979 516.1094 61.02604Q515.59375 60.43229 514.8125 60.43229Q514.03125 60.43229 513.5 61.02604Q512.9844 61.604164 512.9844 62.80729ZM523.375 65.916664L523.375 64.99479Q522.6406 66.05729 521.3906 66.05729Q520.84375 66.05729 520.3594 65.854164Q519.8906 65.635414 519.65625 65.322914Q519.4219 64.99479 519.3281 64.52604Q519.2656 64.229164 519.2656 63.541664L519.2656 59.697914L520.3281 59.697914L520.3281 63.15104Q520.3281 63.96354 520.3906 64.260414Q520.4844 64.666664 520.7969 64.916664Q521.125 65.15104 521.6094 65.15104Q522.0781 65.15104 522.4844 64.916664Q522.90625 64.666664 523.0781 64.24479Q523.2656 63.822914 523.2656 63.02604L523.2656 59.697914L524.3125 59.697914L524.3125 65.916664L523.375 65.916664ZM526.28125 65.916664L526.28125 59.697914L527.2344 59.697914L527.2344 60.635414Q527.59375 59.979164 527.8906 59.77604Q528.2031 59.55729 528.5781 59.55729Q529.1094 59.55729 529.65625 59.885414L529.2969 60.86979Q528.90625 60.635414 528.53125 60.635414Q528.1719 60.635414 527.8906 60.854164Q527.625 61.05729 527.5156 61.43229Q527.3281 61.99479 527.3281 62.65104L527.3281 65.916664L526.28125 65.916664ZM529.875 64.05729L530.90625 63.90104Q531.0 64.52604 531.3906 64.854164Q531.7969 65.18229 532.53125 65.18229Q533.25 65.18229 533.59375 64.90104Q533.9531 64.604164 533.9531 64.197914Q533.9531 63.83854 533.6406 63.635414Q533.4219 63.49479 532.5625 63.27604Q531.40625 62.979164 530.9531 62.77604Q530.5156 62.55729 530.28125 62.18229Q530.0469 61.80729 530.0469 61.33854Q530.0469 60.93229 530.2344 60.572914Q530.4219 60.21354 530.75 59.979164Q531.0 59.80729 531.4219 59.68229Q531.84375 59.55729 532.34375 59.55729Q533.0625 59.55729 533.6094 59.77604Q534.1719 59.979164 534.4375 60.33854Q534.7031 60.697914 534.7969 61.291664L533.7656 61.43229Q533.7031 60.96354 533.3594 60.697914Q533.03125 60.416664 532.40625 60.416664Q531.6875 60.416664 531.375 60.666664Q531.0625 60.90104 531.0625 61.229164Q531.0625 61.43229 531.1875 61.58854Q531.3281 61.760414 531.59375 61.86979Q531.75 61.93229 532.53125 62.135414Q533.65625 62.447914 534.09375 62.635414Q534.53125 62.822914 534.78125 63.18229Q535.03125 63.541664 535.03125 64.08854Q535.03125 64.61979 534.71875 65.08854Q534.4219 65.541664 533.84375 65.80729Q533.2656 66.05729 532.53125 66.05729Q531.3125 66.05729 530.6719 65.55729Q530.0469 65.041664 529.875 64.05729Z" fill-rule="nonzero"/><path fill="#000000" d="M121.359375 37.55L118.21875 37.55L116.96875 34.3L111.25 34.3L110.0625 37.55L107.0 37.55L112.578125 23.2375L115.640625 23.2375L121.359375 37.55ZM116.046875 31.878124L114.078125 26.565624L112.140625 31.878124L116.046875 31.878124ZM125.28125 37.55L121.109375 27.175L123.984375 27.175L125.9375 32.471874L126.515625 34.2375Q126.734375 33.565624 126.796875 33.346874Q126.921875 32.909374 127.078125 32.471874L129.0625 27.175L131.875 27.175L127.765625 37.55L125.28125 37.55ZM139.4375 34.253124L142.17188 34.70625Q141.65625 36.20625 140.51562 37.003124Q139.375 37.784374 137.67188 37.784374Q134.95312 37.784374 133.65625 36.01875Q132.64062 34.596874 132.64062 32.440624Q132.64062 29.8625 133.98438 28.409374Q135.32812 26.940624 137.39062 26.940624Q139.70312 26.940624 141.03125 28.471874Q142.375 30.003124 142.32812 33.159374L135.45312 33.159374Q135.48438 34.378124 136.10938 35.065624Q136.75 35.7375 137.6875 35.7375Q138.34375 35.7375 138.78125 35.39375Q139.21875 35.034374 139.4375 34.253124ZM139.59375 31.471874Q139.5625 30.284374 138.96875 29.675Q138.39062 29.05 137.5625 29.05Q136.65625 29.05 136.07812 29.690624Q135.48438 30.346874 135.5 31.471874L139.59375 31.471874ZM147.0625 37.55L144.3125 37.55L144.3125 27.175L146.875 27.175L146.875 28.659374Q147.51562 27.6125 148.03125 27.284374Q148.5625 26.940624 149.23438 26.940624Q150.17188 26.940624 151.03125 27.45625L150.1875 29.846874Q149.5 29.409374 148.90625 29.409374Q148.32812 29.409374 147.92188 29.721874Q147.51562 30.034374 147.28125 30.878124Q147.0625 31.70625 147.0625 34.346874L147.0625 37.55ZM154.48438 30.346874L152.0 29.89375Q152.42188 28.39375 153.4375 27.675Q154.46875 26.940624 156.48438 26.940624Q158.32812 26.940624 159.21875 27.378124Q160.125 27.815624 160.48438 28.4875Q160.85938 29.14375 160.85938 30.940624L160.82812 34.14375Q160.82812 35.503124 160.95312 36.159374Q161.09375 36.8 161.45312 37.55L158.73438 37.55Q158.625 37.26875 158.46875 36.7375Q158.40625 36.4875 158.375 36.409374Q157.67188 37.096874 156.85938 37.440624Q156.0625 37.784374 155.15625 37.784374Q153.5625 37.784374 152.64062 36.925Q151.71875 36.05 151.71875 34.721874Q151.71875 33.83125 152.125 33.14375Q152.54688 32.45625 153.29688 32.096874Q154.0625 31.721874 155.5 31.45625Q157.42188 31.096874 158.15625 30.784374L158.15625 30.503124Q158.15625 29.721874 157.76562 29.39375Q157.375 29.05 156.29688 29.05Q155.5625 29.05 155.14062 29.33125Q154.73438 29.6125 154.48438 30.346874ZM158.15625 32.565624Q157.625 32.7375 156.48438 32.9875Q155.34375 33.2375 155.0 33.471874Q154.45312 33.846874 154.45312 34.440624Q154.45312 35.003124 154.875 35.425Q155.3125 35.846874 155.98438 35.846874Q156.71875 35.846874 157.39062 35.3625Q157.89062 34.9875 158.04688 34.45625Q158.15625 34.096874 158.15625 33.1125L158.15625 32.565624ZM163.1875 38.2375L166.3125 38.6125Q166.39062 39.159374 166.67188 39.3625Q167.0625 39.659374 167.90625 39.659374Q168.98438 39.659374 169.51562 39.33125Q169.875 39.128124 170.0625 38.64375Q170.1875 38.3 170.1875 37.378124L170.1875 35.8625Q168.96875 37.55 167.09375 37.55Q165.0 37.55 163.78125 35.784374Q162.82812 34.378124 162.82812 32.3Q162.82812 29.690624 164.07812 28.315624Q165.32812 26.940624 167.20312 26.940624Q169.125 26.940624 170.375 28.628124L170.375 27.175L172.9375 27.175L172.9375 36.4875Q172.9375 38.315624 172.625 39.221874Q172.32812 40.14375 171.78125 40.659374Q171.23438 41.175 170.3125 41.45625Q169.40625 41.753124 168.01562 41.753124Q165.375 41.753124 164.26562 40.846874Q163.17188 39.95625 163.17188 38.565624Q163.17188 38.425 163.1875 38.2375ZM165.64062 32.14375Q165.64062 33.8 166.26562 34.565624Q166.90625 35.33125 167.84375 35.33125Q168.85938 35.33125 169.54688 34.55Q170.25 33.753124 170.25 32.221874Q170.25 30.6125 169.57812 29.83125Q168.92188 29.05 167.90625 29.05Q166.90625 29.05 166.26562 29.815624Q165.64062 30.58125 165.64062 32.14375ZM181.4375 34.253124L184.17188 34.70625Q183.65625 36.20625 182.51562 37.003124Q181.375 37.784374 179.67188 37.784374Q176.95312 37.784374 175.65625 36.01875Q174.64062 34.596874 174.64062 32.440624Q174.64062 29.8625 175.98438 28.409374Q177.32812 26.940624 179.39062 26.940624Q181.70312 26.940624 183.03125 28.471874Q184.375 30.003124 184.32812 33.159374L177.45312 33.159374Q177.48438 34.378124 178.10938 35.065624Q178.75 35.7375 179.6875 35.7375Q180.34375 35.7375 180.78125 35.39375Q181.21875 35.034374 181.4375 34.253124ZM181.59375 31.471874Q181.5625 30.284374 180.96875 29.675Q180.39062 29.05 179.5625 29.05Q178.65625 29.05 178.07812 29.690624Q177.48438 30.346874 177.5 31.471874L181.59375 31.471874ZM195.17188 23.2375L195.17188 28.503124Q196.5 26.940624 198.34375 26.940624Q199.29688 26.940624 200.04688 27.3Q200.8125 27.64375 201.20312 28.190624Q201.59375 28.7375 201.73438 29.409374Q201.875 30.065624 201.875 31.471874L201.875 37.55L199.125 37.55L199.125 32.065624Q199.125 30.440624 198.96875 30.003124Q198.8125 29.565624 198.40625 29.315624Q198.01562 29.05 197.42188 29.05Q196.75 29.05 196.20312 29.378124Q195.67188 29.70625 195.42188 30.378124Q195.17188 31.05 195.17188 32.346874L195.17188 37.55L192.42188 37.55L192.42188 23.2375L195.17188 23.2375ZM203.79688 32.221874Q203.79688 30.846874 204.46875 29.565624Q205.15625 28.284374 206.39062 27.6125Q207.625 26.940624 209.14062 26.940624Q211.5 26.940624 213.0 28.471874Q214.5 30.003124 214.5 32.33125Q214.5 34.690624 212.98438 36.2375Q211.46875 37.784374 209.15625 37.784374Q207.73438 37.784374 206.4375 37.14375Q205.15625 36.4875 204.46875 35.253124Q203.79688 34.003124 203.79688 32.221874ZM206.60938 32.3625Q206.60938 33.909374 207.34375 34.7375Q208.07812 35.55 209.15625 35.55Q210.23438 35.55 210.95312 34.7375Q211.6875 33.909374 211.6875 32.346874Q211.6875 30.815624 210.95312 30.003124Q210.23438 29.175 209.15625 29.175Q208.07812 29.175 207.34375 30.003124Q206.60938 30.815624 206.60938 32.3625ZM223.26562 37.55L223.26562 36.003124Q222.70312 36.83125 221.76562 37.315624Q220.84375 37.784374 219.82812 37.784374Q218.78125 37.784374 217.95312 37.33125Q217.125 36.8625 216.75 36.034374Q216.375 35.20625 216.375 33.7375L216.375 27.175L219.125 27.175L219.125 31.940624Q219.125 34.128124 219.26562 34.628124Q219.42188 35.1125 219.8125 35.409374Q220.21875 35.690624 220.84375 35.690624Q221.54688 35.690624 222.09375 35.315624Q222.65625 34.925 222.85938 34.3625Q223.0625 33.784374 223.0625 31.55L223.0625 27.175L225.8125 27.175L225.8125 37.55L223.26562 37.55ZM231.0625 37.55L228.3125 37.55L228.3125 27.175L230.875 27.175L230.875 28.659374Q231.51562 27.6125 232.03125 27.284374Q232.5625 26.940624 233.23438 26.940624Q234.17188 26.940624 235.03125 27.45625L234.1875 29.846874Q233.5 29.409374 232.90625 29.409374Q232.32812 29.409374 231.92188 29.721874Q231.51562 30.034374 231.28125 30.878124Q231.0625 31.70625 231.0625 34.346874L231.0625 37.55ZM235.46875 34.596874L238.21875 34.175Q238.40625 34.971874 238.9375 35.39375Q239.46875 35.8 240.4375 35.8Q241.5 35.8 242.04688 35.409374Q242.40625 35.14375 242.40625 34.675Q242.40625 34.3625 242.20312 34.159374Q242.0 33.971874 241.29688 33.8Q237.96875 33.065624 237.07812 32.45625Q235.84375 31.628124 235.84375 30.128124Q235.84375 28.784374 236.90625 27.8625Q237.98438 26.940624 240.21875 26.940624Q242.34375 26.940624 243.375 27.64375Q244.42188 28.33125 244.8125 29.690624L242.21875 30.159374Q242.04688 29.565624 241.57812 29.2375Q241.125 28.909374 240.26562 28.909374Q239.1875 28.909374 238.71875 29.221874Q238.40625 29.440624 238.40625 29.76875Q238.40625 30.065624 238.67188 30.26875Q239.04688 30.55 241.23438 31.05Q243.42188 31.55 244.29688 32.26875Q245.15625 33.003124 245.15625 34.3Q245.15625 35.7375 243.96875 36.76875Q242.78125 37.784374 240.4375 37.784374Q238.32812 37.784374 237.07812 36.925Q235.84375 36.065624 235.46875 34.596874ZM252.46875 34.596874L255.21875 34.175Q255.40625 34.971874 255.9375 35.39375Q256.46875 35.8 257.4375 35.8Q258.5 35.8 259.04688 35.409374Q259.40625 35.14375 259.40625 34.675Q259.40625 34.3625 259.20312 34.159374Q259.0 33.971874 258.29688 33.8Q254.96875 33.065624 254.07812 32.45625Q252.84375 31.628124 252.84375 30.128124Q252.84375 28.784374 253.90625 27.8625Q254.98438 26.940624 257.21875 26.940624Q259.34375 26.940624 260.375 27.64375Q261.42188 28.33125 261.8125 29.690624L259.21875 30.159374Q259.04688 29.565624 258.57812 29.2375Q258.125 28.909374 257.26562 28.909374Q256.1875 28.909374 255.71875 29.221874Q255.40625 29.440624 255.40625 29.76875Q255.40625 30.065624 255.67188 30.26875Q256.04688 30.55 258.23438 31.05Q260.42188 31.55 261.29688 32.26875Q262.15625 33.003124 262.15625 34.3Q262.15625 35.7375 260.96875 36.76875Q259.78125 37.784374 257.4375 37.784374Q255.32812 37.784374 254.07812 36.925Q252.84375 36.065624 252.46875 34.596874ZM264.35938 27.175L266.92188 27.175L266.92188 28.70625Q267.42188 27.925 268.26562 27.440624Q269.10938 26.940624 270.15625 26.940624Q271.95312 26.940624 273.20312 28.3625Q274.46875 29.76875 274.46875 32.3Q274.46875 34.909374 273.20312 36.346874Q271.9375 37.784374 270.125 37.784374Q269.26562 37.784374 268.5625 37.440624Q267.875 37.096874 267.10938 36.26875L267.10938 41.503124L264.35938 41.503124L264.35938 27.175ZM267.07812 32.190624Q267.07812 33.940624 267.76562 34.784374Q268.45312 35.6125 269.45312 35.6125Q270.40625 35.6125 271.04688 34.846874Q271.6875 34.065624 271.6875 32.33125Q271.6875 30.690624 271.03125 29.909374Q270.375 29.1125 269.40625 29.1125Q268.40625 29.1125 267.73438 29.89375Q267.07812 30.659374 267.07812 32.190624ZM282.4375 34.253124L285.17188 34.70625Q284.65625 36.20625 283.51562 37.003124Q282.375 37.784374 280.67188 37.784374Q277.95312 37.784374 276.65625 36.01875Q275.64062 34.596874 275.64062 32.440624Q275.64062 29.8625 276.98438 28.409374Q278.32812 26.940624 280.39062 26.940624Q282.70312 26.940624 284.03125 28.471874Q285.375 30.003124 285.32812 33.159374L278.45312 33.159374Q278.48438 34.378124 279.10938 35.065624Q279.75 35.7375 280.6875 35.7375Q281.34375 35.7375 281.78125 35.39375Q282.21875 35.034374 282.4375 34.253124ZM282.59375 31.471874Q282.5625 30.284374 281.96875 29.675Q281.39062 29.05 280.5625 29.05Q279.65625 29.05 279.07812 29.690624Q278.48438 30.346874 278.5 31.471874L282.59375 31.471874ZM296.875 37.55L294.125 37.55L294.125 32.253124Q294.125 30.58125 293.95312 30.096874Q293.78125 29.596874 293.375 29.33125Q292.98438 29.05 292.42188 29.05Q291.71875 29.05 291.14062 29.440624Q290.57812 29.83125 290.35938 30.471874Q290.15625 31.1125 290.15625 32.846874L290.15625 37.55L287.42188 37.55L287.42188 27.175L289.96875 27.175L289.96875 28.70625Q291.32812 26.940624 293.39062 26.940624Q294.29688 26.940624 295.04688 27.26875Q295.79688 27.596874 296.17188 28.1125Q296.5625 28.6125 296.71875 29.26875Q296.875 29.909374 296.875 31.096874L296.875 37.55ZM304.1875 27.175L304.1875 29.3625L302.3125 29.3625L302.3125 33.55Q302.3125 34.815624 302.35938 35.034374Q302.42188 35.2375 302.60938 35.378124Q302.8125 35.503124 303.07812 35.503124Q303.45312 35.503124 304.1875 35.2375L304.42188 37.378124Q303.45312 37.784374 302.25 37.784374Q301.5 37.784374 300.90625 37.534374Q300.3125 37.284374 300.03125 36.89375Q299.76562 36.4875 299.65625 35.815624Q299.5625 35.346874 299.5625 33.89375L299.5625 29.3625L298.29688 29.3625L298.29688 27.175L299.5625 27.175L299.5625 25.1125L302.3125 23.51875L302.3125 27.175L304.1875 27.175ZM312.4375 25.76875L312.4375 23.2375L315.1875 23.2375L315.1875 25.76875L312.4375 25.76875ZM312.4375 37.55L312.4375 27.175L315.1875 27.175L315.1875 37.55L312.4375 37.55ZM327.875 37.55L325.125 37.55L325.125 32.253124Q325.125 30.58125 324.95312 30.096874Q324.78125 29.596874 324.375 29.33125Q323.98438 29.05 323.42188 29.05Q322.71875 29.05 322.14062 29.440624Q321.57812 29.83125 321.35938 30.471874Q321.15625 31.1125 321.15625 32.846874L321.15625 37.55L318.42188 37.55L318.42188 27.175L320.96875 27.175L320.96875 28.70625Q322.32812 26.940624 324.39062 26.940624Q325.29688 26.940624 326.04688 27.26875Q326.79688 27.596874 327.17188 28.1125Q327.5625 28.6125 327.71875 29.26875Q327.875 29.909374 327.875 31.096874L327.875 37.55ZM335.23438 27.175L336.76562 27.175L336.76562 26.39375Q336.76562 25.08125 337.03125 24.440624Q337.3125 23.8 338.0625 23.39375Q338.8125 22.9875 339.95312 22.9875Q341.125 22.9875 342.25 23.346874L341.875 25.253124Q341.21875 25.096874 340.60938 25.096874Q340.01562 25.096874 339.75 25.378124Q339.5 25.659374 339.5 26.440624L339.5 27.175L341.54688 27.175L341.54688 29.33125L339.5 29.33125L339.5 37.55L336.76562 37.55L336.76562 29.33125L335.23438 29.33125L335.23438 27.175ZM346.0625 37.55L343.3125 37.55L343.3125 27.175L345.875 27.175L345.875 28.659374Q346.51562 27.6125 347.03125 27.284374Q347.5625 26.940624 348.23438 26.940624Q349.17188 26.940624 350.03125 27.45625L349.1875 29.846874Q348.5 29.409374 347.90625 29.409374Q347.32812 29.409374 346.92188 29.721874Q346.51562 30.034374 346.28125 30.878124Q346.0625 31.70625 346.0625 34.346874L346.0625 37.55ZM350.79688 32.221874Q350.79688 30.846874 351.46875 29.565624Q352.15625 28.284374 353.39062 27.6125Q354.625 26.940624 356.14062 26.940624Q358.5 26.940624 360.0 28.471874Q361.5 30.003124 361.5 32.33125Q361.5 34.690624 359.98438 36.2375Q358.46875 37.784374 356.15625 37.784374Q354.73438 37.784374 353.4375 37.14375Q352.15625 36.4875 351.46875 35.253124Q350.79688 34.003124 350.79688 32.221874ZM353.60938 32.3625Q353.60938 33.909374 354.34375 34.7375Q355.07812 35.55 356.15625 35.55Q357.23438 35.55 357.95312 34.7375Q358.6875 33.909374 358.6875 32.346874Q358.6875 30.815624 357.95312 30.003124Q357.23438 29.175 356.15625 29.175Q355.07812 29.175 354.34375 30.003124Q353.60938 30.815624 353.60938 32.3625ZM372.875 37.55L370.125 37.55L370.125 32.253124Q370.125 30.58125 369.95312 30.096874Q369.78125 29.596874 369.375 29.33125Q368.98438 29.05 368.42188 29.05Q367.71875 29.05 367.14062 29.440624Q366.57812 29.83125 366.35938 30.471874Q366.15625 31.1125 366.15625 32.846874L366.15625 37.55L363.42188 37.55L363.42188 27.175L365.96875 27.175L365.96875 28.70625Q367.32812 26.940624 369.39062 26.940624Q370.29688 26.940624 371.04688 27.26875Q371.79688 27.596874 372.17188 28.1125Q372.5625 28.6125 372.71875 29.26875Q372.875 29.909374 372.875 31.096874L372.875 37.55ZM380.1875 27.175L380.1875 29.3625L378.3125 29.3625L378.3125 33.55Q378.3125 34.815624 378.35938 35.034374Q378.42188 35.2375 378.60938 35.378124Q378.8125 35.503124 379.07812 35.503124Q379.45312 35.503124 380.1875 35.2375L380.42188 37.378124Q379.45312 37.784374 378.25 37.784374Q377.5 37.784374 376.90625 37.534374Q376.3125 37.284374 376.03125 36.89375Q375.76562 36.4875 375.65625 35.815624Q375.5625 35.346874 375.5625 33.89375L375.5625 29.3625L374.29688 29.3625L374.29688 27.175L375.5625 27.175L375.5625 25.1125L378.3125 23.51875L378.3125 27.175L380.1875 27.175ZM387.79688 32.221874Q387.79688 30.846874 388.46875 29.565624Q389.15625 28.284374 390.39062 27.6125Q391.625 26.940624 393.14062 26.940624Q395.5 26.940624 397.0 28.471874Q398.5 30.003124 398.5 32.33125Q398.5 34.690624 396.98438 36.2375Q395.46875 37.784374 393.15625 37.784374Q391.73438 37.784374 390.4375 37.14375Q389.15625 36.4875 388.46875 35.253124Q387.79688 34.003124 387.79688 32.221874ZM390.60938 32.3625Q390.60938 33.909374 391.34375 34.7375Q392.07812 35.55 393.15625 35.55Q394.23438 35.55 394.95312 34.7375Q395.6875 33.909374 395.6875 32.346874Q395.6875 30.815624 394.95312 30.003124Q394.23438 29.175 393.15625 29.175Q392.07812 29.175 391.34375 30.003124Q390.60938 30.815624 390.60938 32.3625ZM399.23438 27.175L400.76562 27.175L400.76562 26.39375Q400.76562 25.08125 401.03125 24.440624Q401.3125 23.8 402.0625 23.39375Q402.8125 22.9875 403.95312 22.9875Q405.125 22.9875 406.25 23.346874L405.875 25.253124Q405.21875 25.096874 404.60938 25.096874Q404.01562 25.096874 403.75 25.378124Q403.5 25.659374 403.5 26.440624L403.5 27.175L405.54688 27.175L405.54688 29.33125L403.5 29.33125L403.5 37.55L400.76562 37.55L400.76562 29.33125L399.23438 29.33125L399.23438 27.175ZM415.48438 30.346874L413.0 29.89375Q413.42188 28.39375 414.4375 27.675Q415.46875 26.940624 417.48438 26.940624Q419.32812 26.940624 420.21875 27.378124Q421.125 27.815624 421.48438 28.4875Q421.85938 29.14375 421.85938 30.940624L421.82812 34.14375Q421.82812 35.503124 421.95312 36.159374Q422.09375 36.8 422.45312 37.55L419.73438 37.55Q419.625 37.26875 419.46875 36.7375Q419.40625 36.4875 419.375 36.409374Q418.67188 37.096874 417.85938 37.440624Q417.0625 37.784374 416.15625 37.784374Q414.5625 37.784374 413.64062 36.925Q412.71875 36.05 412.71875 34.721874Q412.71875 33.83125 413.125 33.14375Q413.54688 32.45625 414.29688 32.096874Q415.0625 31.721874 416.5 31.45625Q418.42188 31.096874 419.15625 30.784374L419.15625 30.503124Q419.15625 29.721874 418.76562 29.39375Q418.375 29.05 417.29688 29.05Q416.5625 29.05 416.14062 29.33125Q415.73438 29.6125 415.48438 30.346874ZM419.15625 32.565624Q418.625 32.7375 417.48438 32.9875Q416.34375 33.2375 416.0 33.471874Q415.45312 33.846874 415.45312 34.440624Q415.45312 35.003124 415.875 35.425Q416.3125 35.846874 416.98438 35.846874Q417.71875 35.846874 418.39062 35.3625Q418.89062 34.9875 419.04688 34.45625Q419.15625 34.096874 419.15625 33.1125L419.15625 32.565624ZM429.46875 34.596874L432.21875 34.175Q432.40625 34.971874 432.9375 35.39375Q433.46875 35.8 434.4375 35.8Q435.5 35.8 436.04688 35.409374Q436.40625 35.14375 436.40625 34.675Q436.40625 34.3625 436.20312 34.159374Q436.0 33.971874 435.29688 33.8Q431.96875 33.065624 431.07812 32.45625Q429.84375 31.628124 429.84375 30.128124Q429.84375 28.784374 430.90625 27.8625Q431.98438 26.940624 434.21875 26.940624Q436.34375 26.940624 437.375 27.64375Q438.42188 28.33125 438.8125 29.690624L436.21875 30.159374Q436.04688 29.565624 435.57812 29.2375Q435.125 28.909374 434.26562 28.909374Q433.1875 28.909374 432.71875 29.221874Q432.40625 29.440624 432.40625 29.76875Q432.40625 30.065624 432.67188 30.26875Q433.04688 30.55 435.23438 31.05Q437.42188 31.55 438.29688 32.26875Q439.15625 33.003124 439.15625 34.3Q439.15625 35.7375 437.96875 36.76875Q436.78125 37.784374 434.4375 37.784374Q432.32812 37.784374 431.07812 36.925Q429.84375 36.065624 429.46875 34.596874ZM450.48438 30.2375L447.78125 30.7375Q447.64062 29.925 447.15625 29.51875Q446.67188 29.096874 445.90625 29.096874Q444.875 29.096874 444.26562 29.815624Q443.65625 30.51875 443.65625 32.175Q443.65625 34.01875 444.26562 34.784374Q444.89062 35.55 445.9375 35.55Q446.71875 35.55 447.21875 35.1125Q447.71875 34.659374 447.92188 33.58125L450.60938 34.034374Q450.20312 35.89375 449.0 36.846874Q447.8125 37.784374 445.8125 37.784374Q443.53125 37.784374 442.17188 36.346874Q440.82812 34.909374 440.82812 32.378124Q440.82812 29.8 442.1875 28.378124Q443.54688 26.940624 445.85938 26.940624Q447.75 26.940624 448.85938 27.76875Q449.98438 28.58125 450.48438 30.2375ZM455.0625 37.55L452.3125 37.55L452.3125 27.175L454.875 27.175L454.875 28.659374Q455.51562 27.6125 456.03125 27.284374Q456.5625 26.940624 457.23438 26.940624Q458.17188 26.940624 459.03125 27.45625L458.1875 29.846874Q457.5 29.409374 456.90625 29.409374Q456.32812 29.409374 455.92188 29.721874Q455.51562 30.034374 455.28125 30.878124Q455.0625 31.70625 455.0625 34.346874L455.0625 37.55ZM466.4375 34.253124L469.17188 34.70625Q468.65625 36.20625 467.51562 37.003124Q466.375 37.784374 464.67188 37.784374Q461.95312 37.784374 460.65625 36.01875Q459.64062 34.596874 459.64062 32.440624Q459.64062 29.8625 460.98438 28.409374Q462.32812 26.940624 464.39062 26.940624Q466.70312 26.940624 468.03125 28.471874Q469.375 30.003124 469.32812 33.159374L462.45312 33.159374Q462.48438 34.378124 463.10938 35.065624Q463.75 35.7375 464.6875 35.7375Q465.34375 35.7375 465.78125 35.39375Q466.21875 35.034374 466.4375 34.253124ZM466.59375 31.471874Q466.5625 30.284374 465.96875 29.675Q465.39062 29.05 464.5625 29.05Q463.65625 29.05 463.07812 29.690624Q462.48438 30.346874 462.5 31.471874L466.59375 31.471874ZM477.4375 34.253124L480.17188 34.70625Q479.65625 36.20625 478.51562 37.003124Q477.375 37.784374 475.67188 37.784374Q472.95312 37.784374 471.65625 36.01875Q470.64062 34.596874 470.64062 32.440624Q470.64062 29.8625 471.98438 28.409374Q473.32812 26.940624 475.39062 26.940624Q477.70312 26.940624 479.03125 28.471874Q480.375 30.003124 480.32812 33.159374L473.45312 33.159374Q473.48438 34.378124 474.10938 35.065624Q474.75 35.7375 475.6875 35.7375Q476.34375 35.7375 476.78125 35.39375Q477.21875 35.034374 477.4375 34.253124ZM477.59375 31.471874Q477.5625 30.284374 476.96875 29.675Q476.39062 29.05 475.5625 29.05Q474.65625 29.05 474.07812 29.690624Q473.48438 30.346874 473.5 31.471874L477.59375 31.471874ZM491.875 37.55L489.125 37.55L489.125 32.253124Q489.125 30.58125 488.95312 30.096874Q488.78125 29.596874 488.375 29.33125Q487.98438 29.05 487.42188 29.05Q486.71875 29.05 486.14062 29.440624Q485.57812 29.83125 485.35938 30.471874Q485.15625 31.1125 485.15625 32.846874L485.15625 37.55L482.42188 37.55L482.42188 27.175L484.96875 27.175L484.96875 28.70625Q486.32812 26.940624 488.39062 26.940624Q489.29688 26.940624 490.04688 27.26875Q490.79688 27.596874 491.17188 28.1125Q491.5625 28.6125 491.71875 29.26875Q491.875 29.909374 491.875 31.096874L491.875 37.55Z" fill-rule="nonzero"/></svg>