<svg version="1.1" viewBox="0.0 0.0 600.0 371.0" fill="none" stroke="none" stroke-linecap="square" stroke-miterlimit="10" width="600" height="371" xmlns:xlink="http://www.w3.org/1999/xlink" xmlns="http://www.w3.org/2000/svg"><path fill="#ffffff" d="M0 0L600.0 0L600.0 371.0L0 371.0L0 0Z" fill-rule="nonzero"/><path stroke="#333333" stroke-width="1.0" stroke-linecap="butt" d="M45.5 332.5L581.5 332.5" fill-rule="nonzero"/><path stroke="#cccccc" stroke-width="1.0" stroke-linecap="butt" d="M45.5 270.5L581.5 270.5" fill-rule="nonzero"/><path stroke="#cccccc" stroke-width="1.0" stroke-linecap="butt" d="M45.5 209.5L581.5 209.5" fill-rule="nonzero"/><path stroke="#cccccc" stroke-width="1.0" stroke-linecap="butt" d="M45.5 147.5L581.5 147.5" fill-rule="nonzero"/><path stroke="#cccccc" stroke-width="1.0" stroke-linecap="butt" d="M45.5 85.5L581.5 85.5" fill-rule="nonzero"/><clipPath id="id_0"><path d="M45.55 85.916664L581.45 85.916664L581.45 332.45L45.55 332.45L45.55 85.916664Z" clip-rule="nonzero"/></clipPath><path stroke="#000000" stroke-width="2.0" stroke-linecap="butt" stroke-opacity="0.0" clip-path="url(#id_0)" d="M146.0 332.0L81.0 332.0L81.0 297.0C81.0 295.89542 81.89543 295.0 83.0 295.0L144.0 295.0C145.10457 295.0 146.0 295.89542 146.0 297.0Z" fill-rule="nonzero"/><path fill="#fbbc04" clip-path="url(#id_0)" d="M146.0 332.0L81.0 332.0L81.0 297.0C81.0 295.89542 81.89543 295.0 83.0 295.0L144.0 295.0C145.10457 295.0 146.0 295.89542 146.0 297.0Z" fill-rule="nonzero"/><path stroke="#000000" stroke-width="2.0" stroke-linecap="butt" stroke-opacity="0.0" clip-path="url(#id_0)" d="M246.0 332.0L181.0 332.0L181.0 273.0C181.0 271.89542 181.89543 271.0 183.0 271.0L244.0 271.0C245.10457 271.0 246.0 271.89542 246.0 273.0Z" fill-rule="nonzero"/><path fill="#46bdc6" clip-path="url(#id_0)" d="M246.0 332.0L181.0 332.0L181.0 273.0C181.0 271.89542 181.89543 271.0 183.0 271.0L244.0 271.0C245.10457 271.0 246.0 271.89542 246.0 273.0Z" fill-rule="nonzero"/><path stroke="#000000" stroke-width="2.0" stroke-linecap="butt" stroke-opacity="0.0" clip-path="url(#id_0)" d="M347.0 332.0L282.0 332.0L282.0 199.0C282.0 197.89543 282.89542 197.0 284.0 197.0L345.0 197.0C346.10458 197.0 347.0 197.89543 347.0 199.0Z" fill-rule="nonzero"/><path fill="#4285f4" clip-path="url(#id_0)" d="M347.0 332.0L282.0 332.0L282.0 199.0C282.0 197.89543 282.89542 197.0 284.0 197.0L345.0 197.0C346.10458 197.0 347.0 197.89543 347.0 199.0Z" fill-rule="nonzero"/><path stroke="#000000" stroke-width="2.0" stroke-linecap="butt" stroke-opacity="0.0" clip-path="url(#id_0)" d="M447.0 332.0L382.0 332.0L382.0 100.0C382.0 98.89543 382.89542 98.0 384.0 98.0L445.0 98.0C446.10458 98.0 447.0 98.89543 447.0 100.0Z" fill-rule="nonzero"/><path fill="#ea4335" clip-path="url(#id_0)" d="M447.0 332.0L382.0 332.0L382.0 100.0C382.0 98.89543 382.89542 98.0 384.0 98.0L445.0 98.0C446.10458 98.0 447.0 98.89543 447.0 100.0Z" fill-rule="nonzero"/><path stroke="#000000" stroke-width="2.0" stroke-linecap="butt" stroke-opacity="0.0" clip-path="url(#id_0)" d="M547.0 332.0L482.0 332.0L482.0 248.0C482.0 246.89543 482.89542 246.0 484.0 246.0L545.0 246.0C546.10455 246.0 547.0 246.89543 547.0 248.0Z" fill-rule="nonzero"/><path fill="#4c1130" clip-path="url(#id_0)" d="M547.0 332.0L482.0 332.0L482.0 248.0C482.0 246.89543 482.89542 246.0 484.0 246.0L545.0 246.0C546.10455 246.0 547.0 246.89543 547.0 248.0Z" fill-rule="nonzero"/><path fill="#000000" d="M33.05 332.21564Q33.05 330.6844 33.3625 329.7625Q33.675 328.825 34.284374 328.325Q34.909374 327.825 35.846874 327.825Q36.534374 327.825 37.05 328.10626Q37.58125 328.3875 37.925 328.91876Q38.26875 329.4344 38.45625 330.1844Q38.64375 330.9344 38.64375 332.21564Q38.64375 333.73126 38.33125 334.65314Q38.034374 335.575 37.409374 336.09064Q36.8 336.59064 35.846874 336.59064Q34.6125 336.59064 33.89375 335.7Q33.05 334.6375 33.05 332.21564ZM34.128124 332.21564Q34.128124 334.325 34.628124 335.02814Q35.128124 335.73126 35.846874 335.73126Q36.58125 335.73126 37.065624 335.02814Q37.565624 334.325 37.565624 332.21564Q37.565624 330.09064 37.065624 329.40314Q36.58125 328.7 35.83125 328.7Q35.1125 328.7 34.675 329.3094Q34.128124 330.09064 34.128124 332.21564Z" fill-rule="nonzero"/><path fill="#000000" d="M33.05 272.56668L34.159374 272.47293Q34.284374 273.28543 34.721874 273.69168Q35.175 274.09793 35.815624 274.09793Q36.565624 274.09793 37.096874 273.5198Q37.628124 272.94168 37.628124 272.00418Q37.628124 271.09793 37.1125 270.5823Q36.6125 270.05106 35.784374 270.05106Q35.284374 270.05106 34.8625 270.28543Q34.45625 270.5198 34.221874 270.87918L33.2375 270.75418L34.065624 266.34793L38.346874 266.34793L38.346874 267.34793L34.909374 267.34793L34.45625 269.66043Q35.221874 269.11356 36.065624 269.11356Q37.190624 269.11356 37.95625 269.8948Q38.7375 270.67606 38.7375 271.91043Q38.7375 273.06668 38.065624 273.92606Q37.2375 274.9573 35.815624 274.9573Q34.64375 274.9573 33.89375 274.30106Q33.159374 273.6448 33.05 272.56668Z" fill-rule="nonzero"/><path fill="#000000" d="M30.01875 213.18333L28.971874 213.18333L28.971874 206.46458Q28.58125 206.82396 27.95625 207.19896Q27.346874 207.55833 26.8625 207.73021L26.8625 206.71458Q27.7375 206.29271 28.39375 205.71458Q29.065624 205.12083 29.346874 204.55833L30.01875 204.55833L30.01875 213.18333ZM33.05 208.94896Q33.05 207.41771 33.3625 206.49583Q33.675 205.55833 34.284374 205.05833Q34.909374 204.55833 35.846874 204.55833Q36.534374 204.55833 37.05 204.83958Q37.58125 205.12083 37.925 205.65208Q38.26875 206.16771 38.45625 206.91771Q38.64375 207.66771 38.64375 208.94896Q38.64375 210.46458 38.33125 211.38646Q38.034374 212.30833 37.409374 212.82396Q36.8 213.32396 35.846874 213.32396Q34.6125 213.32396 33.89375 212.43333Q33.05 211.37083 33.05 208.94896ZM34.128124 208.94896Q34.128124 211.05833 34.628124 211.76146Q35.128124 212.46458 35.846874 212.46458Q36.58125 212.46458 37.065624 211.76146Q37.565624 211.05833 37.565624 208.94896Q37.565624 206.82396 37.065624 206.13646Q36.58125 205.43333 35.83125 205.43333Q35.1125 205.43333 34.675 206.04271Q34.128124 206.82396 34.128124 208.94896Z" fill-rule="nonzero"/><path fill="#000000" d="M30.01875 151.55L28.971874 151.55L28.971874 144.83125Q28.58125 145.19063 27.95625 145.56563Q27.346874 145.925 26.8625 146.09688L26.8625 145.08125Q27.7375 144.65938 28.39375 144.08125Q29.065624 143.4875 29.346874 142.925L30.01875 142.925L30.01875 151.55ZM33.05 149.3L34.159374 149.20625Q34.284374 150.01875 34.721874 150.425Q35.175 150.83125 35.815624 150.83125Q36.565624 150.83125 37.096874 150.25313Q37.628124 149.675 37.628124 148.7375Q37.628124 147.83125 37.1125 147.31563Q36.6125 146.78438 35.784374 146.78438Q35.284374 146.78438 34.8625 147.01875Q34.45625 147.25313 34.221874 147.6125L33.2375 147.4875L34.065624 143.08125L38.346874 143.08125L38.346874 144.08125L34.909374 144.08125L34.45625 146.39375Q35.221874 145.84688 36.065624 145.84688Q37.190624 145.84688 37.95625 146.62813Q38.7375 147.40938 38.7375 148.64375Q38.7375 149.8 38.065624 150.65938Q37.2375 151.69063 35.815624 151.69063Q34.64375 151.69063 33.89375 151.03438Q33.159374 150.37813 33.05 149.3Z" fill-rule="nonzero"/><path fill="#000000" d="M31.596874 88.90104L31.596874 89.916664L25.909374 89.916664Q25.909374 89.541664 26.034374 89.18229Q26.253124 88.604164 26.721874 88.041664Q27.20625 87.479164 28.1125 86.74479Q29.51875 85.58854 30.003124 84.916664Q30.503124 84.24479 30.503124 83.65104Q30.503124 83.02604 30.05 82.604164Q29.596874 82.166664 28.878124 82.166664Q28.1125 82.166664 27.659374 82.61979Q27.20625 83.072914 27.190624 83.885414L26.1125 83.77604Q26.221874 82.55729 26.940624 81.93229Q27.675 81.291664 28.909374 81.291664Q30.14375 81.291664 30.8625 81.979164Q31.58125 82.666664 31.58125 83.68229Q31.58125 84.197914 31.3625 84.697914Q31.159374 85.18229 30.659374 85.74479Q30.175 86.291664 29.05 87.24479Q28.096874 88.041664 27.815624 88.33854Q27.55 88.61979 27.378124 88.90104L31.596874 88.90104ZM33.05 85.68229Q33.05 84.15104 33.3625 83.229164Q33.675 82.291664 34.284374 81.791664Q34.909374 81.291664 35.846874 81.291664Q36.534374 81.291664 37.05 81.572914Q37.58125 81.854164 37.925 82.385414Q38.26875 82.90104 38.45625 83.65104Q38.64375 84.40104 38.64375 85.68229Q38.64375 87.197914 38.33125 88.11979Q38.034374 89.041664 37.409374 89.55729Q36.8 90.05729 35.846874 90.05729Q34.6125 90.05729 33.89375 89.166664Q33.05 88.104164 33.05 85.68229ZM34.128124 85.68229Q34.128124 87.791664 34.628124 88.49479Q35.128124 89.197914 35.846874 89.197914Q36.58125 89.197914 37.065624 88.49479Q37.565624 87.791664 37.565624 85.68229Q37.565624 83.55729 37.065624 82.86979Q36.58125 82.166664 35.83125 82.166664Q35.1125 82.166664 34.675 82.77604Q34.128124 83.55729 34.128124 85.68229Z" fill-rule="nonzero"/><path fill="#000000" d="M90.08543 349.45L90.08543 340.85626L91.24168 340.85626L95.7573 347.60626L95.7573 340.85626L96.85105 340.85626L96.85105 349.45L95.67918 349.45L91.16355 342.7L91.16355 349.45L90.08543 349.45ZM98.5698 346.34064Q98.5698 344.60626 99.52293 343.77814Q100.3198 343.09064 101.47605 343.09064Q102.7573 343.09064 103.5698 343.9344Q104.39793 344.7625 104.39793 346.2469Q104.39793 347.45 104.03855 348.1375Q103.67918 348.825 102.97605 349.21564Q102.28855 349.59064 101.47605 349.59064Q100.17918 349.59064 99.36668 348.7625Q98.5698 347.91876 98.5698 346.34064ZM99.64793 346.34064Q99.64793 347.52814 100.16355 348.1219Q100.6948 348.71564 101.47605 348.71564Q102.27293 348.71564 102.78855 348.1219Q103.30418 347.52814 103.30418 346.3094Q103.30418 345.15314 102.77293 344.5594Q102.2573 343.96564 101.47605 343.96564Q100.6948 343.96564 100.16355 344.5594Q99.64793 345.1375 99.64793 346.34064ZM108.2573 348.5125L108.41355 349.4344Q107.96043 349.52814 107.61668 349.52814Q107.03855 349.52814 106.72605 349.35626Q106.41355 349.16876 106.27293 348.8719Q106.14793 348.575 106.14793 347.6219L106.14793 344.04376L105.3823 344.04376L105.3823 343.23126L106.14793 343.23126L106.14793 341.6844L107.1948 341.0594L107.1948 343.23126L108.2573 343.23126L108.2573 344.04376L107.1948 344.04376L107.1948 347.6844Q107.1948 348.1375 107.24168 348.2625Q107.30418 348.3875 107.42918 348.46564Q107.55418 348.54376 107.78855 348.54376Q107.97605 348.54376 108.2573 348.5125ZM116.02293 348.6844Q115.42918 349.1844 114.8823 349.3875Q114.35105 349.59064 113.72605 349.59064Q112.6948 349.59064 112.14793 349.09064Q111.60105 348.59064 111.60105 347.8094Q111.60105 347.35626 111.80418 346.98126Q112.0073 346.59064 112.35105 346.3719Q112.6948 346.1375 113.11668 346.02814Q113.41355 345.9344 114.05418 345.85626Q115.3198 345.71564 115.92918 345.4969Q115.92918 345.27814 115.92918 345.23126Q115.92918 344.575 115.6323 344.3094Q115.22605 343.96564 114.42918 343.96564Q113.6948 343.96564 113.33543 344.23126Q112.97605 344.48126 112.80418 345.1375L111.77293 344.9969Q111.91355 344.34064 112.24168 343.9344Q112.5698 343.52814 113.17918 343.3094Q113.78855 343.09064 114.58543 343.09064Q115.3823 343.09064 115.8823 343.27814Q116.3823 343.46564 116.61668 343.7469Q116.85105 344.02814 116.9448 344.46564Q116.99168 344.73126 116.99168 345.4344L116.99168 346.84064Q116.99168 348.3094 117.05418 348.7Q117.1323 349.09064 117.33543 349.45L116.22605 349.45Q116.0698 349.1219 116.02293 348.6844ZM115.92918 346.325Q115.35105 346.5594 114.21043 346.73126Q113.55418 346.825 113.28855 346.95Q113.02293 347.0594 112.86668 347.27814Q112.72605 347.4969 112.72605 347.77814Q112.72605 348.2 113.03855 348.48126Q113.36668 348.7625 113.97605 348.7625Q114.58543 348.7625 115.05418 348.4969Q115.53855 348.23126 115.7573 347.7625Q115.92918 347.40314 115.92918 346.71564L115.92918 346.325ZM121.2573 348.5125L121.41355 349.4344Q120.96043 349.52814 120.61668 349.52814Q120.03855 349.52814 119.72605 349.35626Q119.41355 349.16876 119.27293 348.8719Q119.14793 348.575 119.14793 347.6219L119.14793 344.04376L118.3823 344.04376L118.3823 343.23126L119.14793 343.23126L119.14793 341.6844L120.1948 341.0594L120.1948 343.23126L121.2573 343.23126L121.2573 344.04376L120.1948 344.04376L120.1948 347.6844Q120.1948 348.1375 120.24168 348.2625Q120.30418 348.3875 120.42918 348.46564Q120.55418 348.54376 120.78855 348.54376Q120.97605 348.54376 121.2573 348.5125ZM129.02292 348.6844Q128.42917 349.1844 127.8823 349.3875Q127.35105 349.59064 126.72605 349.59064Q125.6948 349.59064 125.14793 349.09064Q124.60105 348.59064 124.60105 347.8094Q124.60105 347.35626 124.80418 346.98126Q125.0073 346.59064 125.35105 346.3719Q125.6948 346.1375 126.11668 346.02814Q126.41355 345.9344 127.05418 345.85626Q128.3198 345.71564 128.92917 345.4969Q128.92917 345.27814 128.92917 345.23126Q128.92917 344.575 128.6323 344.3094Q128.22604 343.96564 127.42918 343.96564Q126.6948 343.96564 126.33543 344.23126Q125.97605 344.48126 125.80418 345.1375L124.77293 344.9969Q124.91355 344.34064 125.24168 343.9344Q125.5698 343.52814 126.17918 343.3094Q126.78855 343.09064 127.58543 343.09064Q128.3823 343.09064 128.8823 343.27814Q129.3823 343.46564 129.61667 343.7469Q129.85104 344.02814 129.9448 344.46564Q129.99167 344.73126 129.99167 345.4344L129.99167 346.84064Q129.99167 348.3094 130.05417 348.7Q130.1323 349.09064 130.33542 349.45L129.22604 349.45Q129.0698 349.1219 129.02292 348.6844ZM128.92917 346.325Q128.35104 346.5594 127.21043 346.73126Q126.55418 346.825 126.28855 346.95Q126.02293 347.0594 125.86668 347.27814Q125.72605 347.4969 125.72605 347.77814Q125.72605 348.2 126.03855 348.48126Q126.36668 348.7625 126.97605 348.7625Q127.58543 348.7625 128.05417 348.4969Q128.53854 348.23126 128.7573 347.7625Q128.92917 347.40314 128.92917 346.71564L128.92917 346.325ZM131.92917 349.45L131.92917 340.85626L132.99167 340.85626L132.99167 349.45L131.92917 349.45ZM134.92917 349.45L134.92917 340.85626L135.99167 340.85626L135.99167 349.45L134.92917 349.45Z" fill-rule="nonzero"/><path fill="#000000" d="M188.25365 349.45L188.25365 340.85626L189.4099 340.85626L193.92552 347.60626L193.92552 340.85626L195.01927 340.85626L195.01927 349.45L193.8474 349.45L189.33177 342.7L189.33177 349.45L188.25365 349.45ZM196.73802 346.34064Q196.73802 344.60626 197.69115 343.77814Q198.48802 343.09064 199.64427 343.09064Q200.92552 343.09064 201.73802 343.9344Q202.56615 344.7625 202.56615 346.2469Q202.56615 347.45 202.20677 348.1375Q201.8474 348.825 201.14427 349.21564Q200.45677 349.59064 199.64427 349.59064Q198.3474 349.59064 197.5349 348.7625Q196.73802 347.91876 196.73802 346.34064ZM197.81615 346.34064Q197.81615 347.52814 198.33177 348.1219Q198.86302 348.71564 199.64427 348.71564Q200.44115 348.71564 200.95677 348.1219Q201.4724 347.52814 201.4724 346.3094Q201.4724 345.15314 200.94115 344.5594Q200.42552 343.96564 199.64427 343.96564Q198.86302 343.96564 198.33177 344.5594Q197.81615 345.1375 197.81615 346.34064ZM206.42552 348.5125L206.58177 349.4344Q206.12865 349.52814 205.7849 349.52814Q205.20677 349.52814 204.89427 349.35626Q204.58177 349.16876 204.44115 348.8719Q204.31615 348.575 204.31615 347.6219L204.31615 344.04376L203.55052 344.04376L203.55052 343.23126L204.31615 343.23126L204.31615 341.6844L205.36302 341.0594L205.36302 343.23126L206.42552 343.23126L206.42552 344.04376L205.36302 344.04376L205.36302 347.6844Q205.36302 348.1375 205.4099 348.2625Q205.4724 348.3875 205.5974 348.46564Q205.7224 348.54376 205.95677 348.54376Q206.14427 348.54376 206.42552 348.5125ZM210.11302 349.45L210.11302 343.23126L211.06615 343.23126L211.06615 344.16876Q211.42552 343.5125 211.7224 343.3094Q212.0349 343.09064 212.4099 343.09064Q212.94115 343.09064 213.48802 343.41876L213.12865 344.40314Q212.73802 344.16876 212.36302 344.16876Q212.00365 344.16876 211.7224 344.3875Q211.45677 344.59064 211.3474 344.96564Q211.1599 345.52814 211.1599 346.1844L211.1599 349.45L210.11302 349.45ZM218.37865 347.45L219.4724 347.575Q219.2224 348.52814 218.51927 349.0594Q217.81615 349.59064 216.73802 349.59064Q215.37865 349.59064 214.56615 348.7469Q213.76927 347.90314 213.76927 346.3875Q213.76927 344.825 214.58177 343.96564Q215.39427 343.09064 216.67552 343.09064Q217.92552 343.09064 218.70677 343.9344Q219.50365 344.77814 219.50365 346.325Q219.50365 346.41876 219.50365 346.60626L214.86302 346.60626Q214.92552 347.6375 215.44115 348.1844Q215.95677 348.71564 216.73802 348.71564Q217.31615 348.71564 217.7224 348.41876Q218.14427 348.10626 218.37865 347.45ZM214.92552 345.7469L218.39427 345.7469Q218.33177 344.95 218.00365 344.5594Q217.48802 343.95 216.69115 343.95Q215.95677 343.95 215.45677 344.4344Q214.9724 344.91876 214.92552 345.7469ZM225.19115 348.6844Q224.5974 349.1844 224.05052 349.3875Q223.51927 349.59064 222.89427 349.59064Q221.86302 349.59064 221.31615 349.09064Q220.76927 348.59064 220.76927 347.8094Q220.76927 347.35626 220.9724 346.98126Q221.17552 346.59064 221.51927 346.3719Q221.86302 346.1375 222.2849 346.02814Q222.58177 345.9344 223.2224 345.85626Q224.48802 345.71564 225.0974 345.4969Q225.0974 345.27814 225.0974 345.23126Q225.0974 344.575 224.80052 344.3094Q224.39427 343.96564 223.5974 343.96564Q222.86302 343.96564 222.50365 344.23126Q222.14427 344.48126 221.9724 345.1375L220.94115 344.9969Q221.08177 344.34064 221.4099 343.9344Q221.73802 343.52814 222.3474 343.3094Q222.95677 343.09064 223.75365 343.09064Q224.55052 343.09064 225.05052 343.27814Q225.55052 343.46564 225.7849 343.7469Q226.01927 344.02814 226.11302 344.46564Q226.1599 344.73126 226.1599 345.4344L226.1599 346.84064Q226.1599 348.3094 226.2224 348.7Q226.30052 349.09064 226.50365 349.45L225.39427 349.45Q225.23802 349.1219 225.19115 348.6844ZM225.0974 346.325Q224.51927 346.5594 223.37865 346.73126Q222.7224 346.825 222.45677 346.95Q222.19115 347.0594 222.0349 347.27814Q221.89427 347.4969 221.89427 347.77814Q221.89427 348.2 222.20677 348.48126Q222.5349 348.7625 223.14427 348.7625Q223.75365 348.7625 224.2224 348.4969Q224.70677 348.23126 224.92552 347.7625Q225.0974 347.40314 225.0974 346.71564L225.0974 346.325ZM228.0974 349.45L228.0974 340.85626L229.1599 340.85626L229.1599 349.45L228.0974 349.45ZM231.0974 349.45L231.0974 340.85626L232.1599 340.85626L232.1599 349.45L231.0974 349.45ZM234.08177 351.84064L233.95677 350.85626Q234.30052 350.95 234.56615 350.95Q234.9099 350.95 235.11302 350.825Q235.33177 350.71564 235.4724 350.5125Q235.56615 350.34064 235.80052 349.71564Q235.81615 349.6375 235.89427 349.46564L233.51927 343.23126L234.6599 343.23126L235.95677 346.825Q236.20677 347.5125 236.4099 348.27814Q236.5974 347.54376 236.8474 346.85626L238.17552 343.23126L239.2224 343.23126L236.86302 349.5594Q236.4724 350.575 236.26927 350.96564Q235.98802 351.4969 235.61302 351.73126Q235.25365 351.98126 234.75365 351.98126Q234.45677 351.98126 234.08177 351.84064Z" fill-rule="nonzero"/><path fill="#000000" d="M289.60938 349.45L289.60938 341.8719L286.78125 341.8719L286.78125 340.85626L293.59375 340.85626L293.59375 341.8719L290.75 341.8719L290.75 349.45L289.60938 349.45ZM294.29688 349.45L294.29688 340.85626L295.34375 340.85626L295.34375 343.9344Q296.07812 343.09064 297.20312 343.09064Q297.90625 343.09064 298.40625 343.3719Q298.92188 343.6375 299.14062 344.1219Q299.35938 344.59064 299.35938 345.5125L299.35938 349.45L298.3125 349.45L298.3125 345.5125Q298.3125 344.71564 297.96875 344.35626Q297.625 343.9969 297.0 343.9969Q296.53125 343.9969 296.10938 344.2469Q295.70312 344.48126 295.51562 344.90314Q295.34375 345.3094 295.34375 346.04376L295.34375 349.45L294.29688 349.45ZM305.54688 347.45L306.64062 347.575Q306.39062 348.52814 305.6875 349.0594Q304.98438 349.59064 303.90625 349.59064Q302.54688 349.59064 301.73438 348.7469Q300.9375 347.90314 300.9375 346.3875Q300.9375 344.825 301.75 343.96564Q302.5625 343.09064 303.84375 343.09064Q305.09375 343.09064 305.875 343.9344Q306.67188 344.77814 306.67188 346.325Q306.67188 346.41876 306.67188 346.60626L302.03125 346.60626Q302.09375 347.6375 302.60938 348.1844Q303.125 348.71564 303.90625 348.71564Q304.48438 348.71564 304.89062 348.41876Q305.3125 348.10626 305.54688 347.45ZM302.09375 345.7469L305.5625 345.7469Q305.5 344.95 305.17188 344.5594Q304.65625 343.95 303.85938 343.95Q303.125 343.95 302.625 344.4344Q302.14062 344.91876 302.09375 345.7469ZM310.875 347.59064L311.90625 347.4344Q312.0 348.0594 312.39062 348.3875Q312.79688 348.71564 313.53125 348.71564Q314.25 348.71564 314.59375 348.4344Q314.95312 348.1375 314.95312 347.73126Q314.95312 347.3719 314.64062 347.16876Q314.42188 347.02814 313.5625 346.8094Q312.40625 346.5125 311.95312 346.3094Q311.51562 346.09064 311.28125 345.71564Q311.04688 345.34064 311.04688 344.8719Q311.04688 344.46564 311.23438 344.10626Q311.42188 343.7469 311.75 343.5125Q312.0 343.34064 312.42188 343.21564Q312.84375 343.09064 313.34375 343.09064Q314.0625 343.09064 314.60938 343.3094Q315.17188 343.5125 315.4375 343.8719Q315.70312 344.23126 315.79688 344.825L314.76562 344.96564Q314.70312 344.4969 314.35938 344.23126Q314.03125 343.95 313.40625 343.95Q312.6875 343.95 312.375 344.2Q312.0625 344.4344 312.0625 344.7625Q312.0625 344.96564 312.1875 345.1219Q312.32812 345.29376 312.59375 345.40314Q312.75 345.46564 313.53125 345.66876Q314.65625 345.98126 315.09375 346.16876Q315.53125 346.35626 315.78125 346.71564Q316.03125 347.075 316.03125 347.6219Q316.03125 348.15314 315.71875 348.6219Q315.42188 349.075 314.84375 349.34064Q314.26562 349.59064 313.53125 349.59064Q312.3125 349.59064 311.67188 349.09064Q311.04688 348.575 310.875 347.59064ZM321.35938 348.6844Q320.76562 349.1844 320.21875 349.3875Q319.6875 349.59064 319.0625 349.59064Q318.03125 349.59064 317.48438 349.09064Q316.9375 348.59064 316.9375 347.8094Q316.9375 347.35626 317.14062 346.98126Q317.34375 346.59064 317.6875 346.3719Q318.03125 346.1375 318.45312 346.02814Q318.75 345.9344 319.39062 345.85626Q320.65625 345.71564 321.26562 345.4969Q321.26562 345.27814 321.26562 345.23126Q321.26562 344.575 320.96875 344.3094Q320.5625 343.96564 319.76562 343.96564Q319.03125 343.96564 318.67188 344.23126Q318.3125 344.48126 318.14062 345.1375L317.10938 344.9969Q317.25 344.34064 317.57812 343.9344Q317.90625 343.52814 318.51562 343.3094Q319.125 343.09064 319.92188 343.09064Q320.71875 343.09064 321.21875 343.27814Q321.71875 343.46564 321.95312 343.7469Q322.1875 344.02814 322.28125 344.46564Q322.32812 344.73126 322.32812 345.4344L322.32812 346.84064Q322.32812 348.3094 322.39062 348.7Q322.46875 349.09064 322.67188 349.45L321.5625 349.45Q321.40625 349.1219 321.35938 348.6844ZM321.26562 346.325Q320.6875 346.5594 319.54688 346.73126Q318.89062 346.825 318.625 346.95Q318.35938 347.0594 318.20312 347.27814Q318.0625 347.4969 318.0625 347.77814Q318.0625 348.2 318.375 348.48126Q318.70312 348.7625 319.3125 348.7625Q319.92188 348.7625 320.39062 348.4969Q320.875 348.23126 321.09375 347.7625Q321.26562 347.40314 321.26562 346.71564L321.26562 346.325ZM324.29688 349.45L324.29688 343.23126L325.23438 343.23126L325.23438 344.10626Q325.53125 343.6375 326.01562 343.3719Q326.5 343.09064 327.125 343.09064Q327.8125 343.09064 328.25 343.3719Q328.70312 343.65314 328.875 344.16876Q329.625 343.09064 330.79688 343.09064Q331.73438 343.09064 332.21875 343.60626Q332.71875 344.10626 332.71875 345.1844L332.71875 349.45L331.67188 349.45L331.67188 345.52814Q331.67188 344.90314 331.5625 344.6219Q331.46875 344.34064 331.20312 344.16876Q330.9375 343.9969 330.5625 343.9969Q329.90625 343.9969 329.46875 344.4344Q329.04688 344.8719 329.04688 345.84064L329.04688 349.45L327.98438 349.45L327.98438 345.40314Q327.98438 344.7 327.71875 344.35626Q327.46875 343.9969 326.89062 343.9969Q326.4375 343.9969 326.0625 344.23126Q325.6875 344.46564 325.51562 344.91876Q325.34375 345.3719 325.34375 346.21564L325.34375 349.45L324.29688 349.45ZM338.54688 347.45L339.64062 347.575Q339.39062 348.52814 338.6875 349.0594Q337.98438 349.59064 336.90625 349.59064Q335.54688 349.59064 334.73438 348.7469Q333.9375 347.90314 333.9375 346.3875Q333.9375 344.825 334.75 343.96564Q335.5625 343.09064 336.84375 343.09064Q338.09375 343.09064 338.875 343.9344Q339.67188 344.77814 339.67188 346.325Q339.67188 346.41876 339.67188 346.60626L335.03125 346.60626Q335.09375 347.6375 335.60938 348.1844Q336.125 348.71564 336.90625 348.71564Q337.48438 348.71564 337.89062 348.41876Q338.3125 348.10626 338.54688 347.45ZM335.09375 345.7469L338.5625 345.7469Q338.5 344.95 338.17188 344.5594Q337.65625 343.95 336.85938 343.95Q336.125 343.95 335.625 344.4344Q335.14062 344.91876 335.09375 345.7469Z" fill-rule="nonzero"/><path fill="#000000" d="M370.55884 349.45L370.55884 340.85626L372.2776 340.85626L374.30884 346.9344Q374.5901 347.79376 374.7151 348.21564Q374.8557 347.7469 375.1682 346.84064L377.2307 340.85626L378.76196 340.85626L378.76196 349.45L377.6682 349.45L377.6682 342.2625L375.1682 349.45L374.13696 349.45L371.6526 342.1375L371.6526 349.45L370.55884 349.45ZM380.07446 346.34064Q380.07446 344.60626 381.0276 343.77814Q381.82446 343.09064 382.9807 343.09064Q384.26196 343.09064 385.07446 343.9344Q385.9026 344.7625 385.9026 346.2469Q385.9026 347.45 385.5432 348.1375Q385.18384 348.825 384.4807 349.21564Q383.7932 349.59064 382.9807 349.59064Q381.68384 349.59064 380.87134 348.7625Q380.07446 347.91876 380.07446 346.34064ZM381.1526 346.34064Q381.1526 347.52814 381.6682 348.1219Q382.19946 348.71564 382.9807 348.71564Q383.7776 348.71564 384.2932 348.1219Q384.80884 347.52814 384.80884 346.3094Q384.80884 345.15314 384.2776 344.5594Q383.76196 343.96564 382.9807 343.96564Q382.19946 343.96564 381.6682 344.5594Q381.1526 345.1375 381.1526 346.34064ZM387.44946 349.45L387.44946 343.23126L388.4026 343.23126L388.4026 344.16876Q388.76196 343.5125 389.05884 343.3094Q389.37134 343.09064 389.74634 343.09064Q390.2776 343.09064 390.82446 343.41876L390.4651 344.40314Q390.07446 344.16876 389.69946 344.16876Q389.3401 344.16876 389.05884 344.3875Q388.7932 344.59064 388.68384 344.96564Q388.49634 345.52814 388.49634 346.1844L388.49634 349.45L387.44946 349.45ZM395.7151 347.45L396.80884 347.575Q396.55884 348.52814 395.8557 349.0594Q395.1526 349.59064 394.07446 349.59064Q392.7151 349.59064 391.9026 348.7469Q391.1057 347.90314 391.1057 346.3875Q391.1057 344.825 391.9182 343.96564Q392.7307 343.09064 394.01196 343.09064Q395.26196 343.09064 396.0432 343.9344Q396.8401 344.77814 396.8401 346.325Q396.8401 346.41876 396.8401 346.60626L392.19946 346.60626Q392.26196 347.6375 392.7776 348.1844Q393.2932 348.71564 394.07446 348.71564Q394.6526 348.71564 395.05884 348.41876Q395.4807 348.10626 395.7151 347.45ZM392.26196 345.7469L395.7307 345.7469Q395.6682 344.95 395.3401 344.5594Q394.82446 343.95 394.0276 343.95Q393.2932 343.95 392.7932 344.4344Q392.30884 344.91876 392.26196 345.7469ZM403.76196 348.5125L403.9182 349.4344Q403.4651 349.52814 403.12134 349.52814Q402.5432 349.52814 402.2307 349.35626Q401.9182 349.16876 401.7776 348.8719Q401.6526 348.575 401.6526 347.6219L401.6526 344.04376L400.88696 344.04376L400.88696 343.23126L401.6526 343.23126L401.6526 341.6844L402.69946 341.0594L402.69946 343.23126L403.76196 343.23126L403.76196 344.04376L402.69946 344.04376L402.69946 347.6844Q402.69946 348.1375 402.74634 348.2625Q402.80884 348.3875 402.93384 348.46564Q403.05884 348.54376 403.2932 348.54376Q403.4807 348.54376 403.76196 348.5125ZM404.4651 349.45L404.4651 340.85626L405.51196 340.85626L405.51196 343.9344Q406.24634 343.09064 407.37134 343.09064Q408.07446 343.09064 408.57446 343.3719Q409.0901 343.6375 409.30884 344.1219Q409.5276 344.59064 409.5276 345.5125L409.5276 349.45L408.4807 349.45L408.4807 345.5125Q408.4807 344.71564 408.13696 344.35626Q407.7932 343.9969 407.1682 343.9969Q406.69946 343.9969 406.2776 344.2469Q405.87134 344.48126 405.68384 344.90314Q405.51196 345.3094 405.51196 346.04376L405.51196 349.45L404.4651 349.45ZM415.5276 348.6844Q414.93384 349.1844 414.38696 349.3875Q413.8557 349.59064 413.2307 349.59064Q412.19946 349.59064 411.6526 349.09064Q411.1057 348.59064 411.1057 347.8094Q411.1057 347.35626 411.30884 346.98126Q411.51196 346.59064 411.8557 346.3719Q412.19946 346.1375 412.62134 346.02814Q412.9182 345.9344 413.55884 345.85626Q414.82446 345.71564 415.43384 345.4969Q415.43384 345.27814 415.43384 345.23126Q415.43384 344.575 415.13696 344.3094Q414.7307 343.96564 413.93384 343.96564Q413.19946 343.96564 412.8401 344.23126Q412.4807 344.48126 412.30884 345.1375L411.2776 344.9969Q411.4182 344.34064 411.74634 343.9344Q412.07446 343.52814 412.68384 343.3094Q413.2932 343.09064 414.0901 343.09064Q414.88696 343.09064 415.38696 343.27814Q415.88696 343.46564 416.12134 343.7469Q416.3557 344.02814 416.44946 344.46564Q416.49634 344.73126 416.49634 345.4344L416.49634 346.84064Q416.49634 348.3094 416.55884 348.7Q416.63696 349.09064 416.8401 349.45L415.7307 349.45Q415.57446 349.1219 415.5276 348.6844ZM415.43384 346.325Q414.8557 346.5594 413.7151 346.73126Q413.05884 346.825 412.7932 346.95Q412.5276 347.0594 412.37134 347.27814Q412.2307 347.4969 412.2307 347.77814Q412.2307 348.2 412.5432 348.48126Q412.87134 348.7625 413.4807 348.7625Q414.0901 348.7625 414.55884 348.4969Q415.0432 348.23126 415.26196 347.7625Q415.43384 347.40314 415.43384 346.71564L415.43384 346.325ZM418.4651 349.45L418.4651 343.23126L419.4026 343.23126L419.4026 344.10626Q420.0901 343.09064 421.38696 343.09064Q421.94946 343.09064 422.4182 343.29376Q422.9026 343.4969 423.13696 343.825Q423.37134 344.15314 423.4651 344.59064Q423.51196 344.8875 423.51196 345.6219L423.51196 349.45L422.4651 349.45L422.4651 345.66876Q422.4651 345.0125 422.3401 344.7Q422.2151 344.3875 421.9026 344.2Q421.5901 343.9969 421.1682 343.9969Q420.49634 343.9969 419.99634 344.4344Q419.51196 344.85626 419.51196 346.04376L419.51196 349.45L418.4651 349.45ZM432.5432 349.45L432.5432 348.52814Q431.80884 349.59064 430.55884 349.59064Q430.01196 349.59064 429.5276 349.3875Q429.05884 349.16876 428.82446 348.85626Q428.5901 348.52814 428.49634 348.0594Q428.43384 347.7625 428.43384 347.075L428.43384 343.23126L429.49634 343.23126L429.49634 346.6844Q429.49634 347.4969 429.55884 347.79376Q429.6526 348.2 429.9651 348.45Q430.2932 348.6844 430.7776 348.6844Q431.24634 348.6844 431.6526 348.45Q432.07446 348.2 432.24634 347.77814Q432.43384 347.35626 432.43384 346.5594L432.43384 343.23126L433.4807 343.23126L433.4807 349.45L432.5432 349.45ZM435.0432 347.59064L436.07446 347.4344Q436.1682 348.0594 436.55884 348.3875Q436.9651 348.71564 437.69946 348.71564Q438.4182 348.71564 438.76196 348.4344Q439.12134 348.1375 439.12134 347.73126Q439.12134 347.3719 438.80884 347.16876Q438.5901 347.02814 437.7307 346.8094Q436.57446 346.5125 436.12134 346.3094Q435.68384 346.09064 435.44946 345.71564Q435.2151 345.34064 435.2151 344.8719Q435.2151 344.46564 435.4026 344.10626Q435.5901 343.7469 435.9182 343.5125Q436.1682 343.34064 436.5901 343.21564Q437.01196 343.09064 437.51196 343.09064Q438.2307 343.09064 438.7776 343.3094Q439.3401 343.5125 439.6057 343.8719Q439.87134 344.23126 439.9651 344.825L438.93384 344.96564Q438.87134 344.4969 438.5276 344.23126Q438.19946 343.95 437.57446 343.95Q436.8557 343.95 436.5432 344.2Q436.2307 344.4344 436.2307 344.7625Q436.2307 344.96564 436.3557 345.1219Q436.49634 345.29376 436.76196 345.40314Q436.9182 345.46564 437.69946 345.66876Q438.82446 345.98126 439.26196 346.16876Q439.69946 346.35626 439.94946 346.71564Q440.19946 347.075 440.19946 347.6219Q440.19946 348.15314 439.88696 348.6219Q439.5901 349.075 439.01196 349.34064Q438.43384 349.59064 437.69946 349.59064Q436.4807 349.59064 435.8401 349.09064Q435.2151 348.575 435.0432 347.59064ZM445.5432 349.45L445.5432 348.52814Q444.80884 349.59064 443.55884 349.59064Q443.01196 349.59064 442.5276 349.3875Q442.05884 349.16876 441.82446 348.85626Q441.5901 348.52814 441.49634 348.0594Q441.43384 347.7625 441.43384 347.075L441.43384 343.23126L442.49634 343.23126L442.49634 346.6844Q442.49634 347.4969 442.55884 347.79376Q442.6526 348.2 442.9651 348.45Q443.2932 348.6844 443.7776 348.6844Q444.24634 348.6844 444.6526 348.45Q445.07446 348.2 445.24634 347.77814Q445.43384 347.35626 445.43384 346.5594L445.43384 343.23126L446.4807 343.23126L446.4807 349.45L445.5432 349.45ZM452.5276 348.6844Q451.93384 349.1844 451.38696 349.3875Q450.8557 349.59064 450.2307 349.59064Q449.19946 349.59064 448.6526 349.09064Q448.1057 348.59064 448.1057 347.8094Q448.1057 347.35626 448.30884 346.98126Q448.51196 346.59064 448.8557 346.3719Q449.19946 346.1375 449.62134 346.02814Q449.9182 345.9344 450.55884 345.85626Q451.82446 345.71564 452.43384 345.4969Q452.43384 345.27814 452.43384 345.23126Q452.43384 344.575 452.13696 344.3094Q451.7307 343.96564 450.93384 343.96564Q450.19946 343.96564 449.8401 344.23126Q449.4807 344.48126 449.30884 345.1375L448.2776 344.9969Q448.4182 344.34064 448.74634 343.9344Q449.07446 343.52814 449.68384 343.3094Q450.2932 343.09064 451.0901 343.09064Q451.88696 343.09064 452.38696 343.27814Q452.88696 343.46564 453.12134 343.7469Q453.3557 344.02814 453.44946 344.46564Q453.49634 344.73126 453.49634 345.4344L453.49634 346.84064Q453.49634 348.3094 453.55884 348.7Q453.63696 349.09064 453.8401 349.45L452.7307 349.45Q452.57446 349.1219 452.5276 348.6844ZM452.43384 346.325Q451.8557 346.5594 450.7151 346.73126Q450.05884 346.825 449.7932 346.95Q449.5276 347.0594 449.37134 347.27814Q449.2307 347.4969 449.2307 347.77814Q449.2307 348.2 449.5432 348.48126Q449.87134 348.7625 450.4807 348.7625Q451.0901 348.7625 451.55884 348.4969Q452.0432 348.23126 452.26196 347.7625Q452.43384 347.40314 452.43384 346.71564L452.43384 346.325ZM455.43384 349.45L455.43384 340.85626L456.49634 340.85626L456.49634 349.45L455.43384 349.45Z" fill-rule="nonzero"/><path fill="#000000" d="M501.82083 349.45L505.1177 340.85626L506.33646 340.85626L509.85208 349.45L508.57083 349.45L507.5552 346.84064L503.97708 346.84064L503.02396 349.45L501.82083 349.45ZM504.3052 345.91876L507.21146 345.91876L506.32083 343.54376Q505.89896 342.46564 505.71146 341.7625Q505.53958 342.59064 505.2427 343.40314L504.3052 345.91876ZM513.60205 349.45L513.60205 340.85626L514.66455 340.85626L514.66455 349.45L513.60205 349.45ZM516.2427 346.34064Q516.2427 344.60626 517.1958 343.77814Q517.9927 343.09064 519.1489 343.09064Q520.4302 343.09064 521.2427 343.9344Q522.0708 344.7625 522.0708 346.2469Q522.0708 347.45 521.7114 348.1375Q521.35205 348.825 520.6489 349.21564Q519.9614 349.59064 519.1489 349.59064Q517.85205 349.59064 517.03955 348.7625Q516.2427 347.91876 516.2427 346.34064ZM517.3208 346.34064Q517.3208 347.52814 517.8364 348.1219Q518.3677 348.71564 519.1489 348.71564Q519.9458 348.71564 520.4614 348.1219Q520.97705 347.52814 520.97705 346.3094Q520.97705 345.15314 520.4458 344.5594Q519.9302 343.96564 519.1489 343.96564Q518.3677 343.96564 517.8364 344.5594Q517.3208 345.1375 517.3208 346.34064ZM525.9302 348.5125L526.0864 349.4344Q525.6333 349.52814 525.28955 349.52814Q524.7114 349.52814 524.3989 349.35626Q524.0864 349.16876 523.9458 348.8719Q523.8208 348.575 523.8208 347.6219L523.8208 344.04376L523.0552 344.04376L523.0552 343.23126L523.8208 343.23126L523.8208 341.6844L524.8677 341.0594L524.8677 343.23126L525.9302 343.23126L525.9302 344.04376L524.8677 344.04376L524.8677 347.6844Q524.8677 348.1375 524.91455 348.2625Q524.97705 348.3875 525.10205 348.46564Q525.22705 348.54376 525.4614 348.54376Q525.6489 348.54376 525.9302 348.5125Z" fill-rule="nonzero"/><path fill="#000000" d="M32.46875 37.55L32.46875 23.2375L35.359375 23.2375L35.359375 28.8625L41.015625 28.8625L41.015625 23.2375L43.90625 23.2375L43.90625 37.55L41.015625 37.55L41.015625 31.284374L35.359375 31.284374L35.359375 37.55L32.46875 37.55ZM48.484375 30.346874L46.0 29.89375Q46.421875 28.39375 47.4375 27.675Q48.46875 26.940624 50.484375 26.940624Q52.328125 26.940624 53.21875 27.378124Q54.125 27.815624 54.484375 28.4875Q54.859375 29.14375 54.859375 30.940624L54.828125 34.14375Q54.828125 35.503124 54.953125 36.159374Q55.09375 36.8 55.453125 37.55L52.734375 37.55Q52.625 37.26875 52.46875 36.7375Q52.40625 36.4875 52.375 36.409374Q51.671875 37.096874 50.859375 37.440624Q50.0625 37.784374 49.15625 37.784374Q47.5625 37.784374 46.640625 36.925Q45.71875 36.05 45.71875 34.721874Q45.71875 33.83125 46.125 33.14375Q46.546875 32.45625 47.296875 32.096874Q48.0625 31.721874 49.5 31.45625Q51.421875 31.096874 52.15625 30.784374L52.15625 30.503124Q52.15625 29.721874 51.765625 29.39375Q51.375 29.05 50.296875 29.05Q49.5625 29.05 49.140625 29.33125Q48.734375 29.6125 48.484375 30.346874ZM52.15625 32.565624Q51.625 32.7375 50.484375 32.9875Q49.34375 33.2375 49.0 33.471874Q48.453125 33.846874 48.453125 34.440624Q48.453125 35.003124 48.875 35.425Q49.3125 35.846874 49.984375 35.846874Q50.71875 35.846874 51.390625 35.3625Q51.890625 34.9875 52.046875 34.45625Q52.15625 34.096874 52.15625 33.1125L52.15625 32.565624ZM56.46875 34.596874L59.21875 34.175Q59.40625 34.971874 59.9375 35.39375Q60.46875 35.8 61.4375 35.8Q62.5 35.8 63.046875 35.409374Q63.40625 35.14375 63.40625 34.675Q63.40625 34.3625 63.203125 34.159374Q63.0 33.971874 62.296875 33.8Q58.96875 33.065624 58.078125 32.45625Q56.84375 31.628124 56.84375 30.128124Q56.84375 28.784374 57.90625 27.8625Q58.984375 26.940624 61.21875 26.940624Q63.34375 26.940624 64.375 27.64375Q65.421875 28.33125 65.8125 29.690624L63.21875 30.159374Q63.046875 29.565624 62.578125 29.2375Q62.125 28.909374 61.265625 28.909374Q60.1875 28.909374 59.71875 29.221874Q59.40625 29.440624 59.40625 29.76875Q59.40625 30.065624 59.671875 30.26875Q60.046875 30.55 62.234375 31.05Q64.421875 31.55 65.296875 32.26875Q66.15625 33.003124 66.15625 34.3Q66.15625 35.7375 64.96875 36.76875Q63.78125 37.784374 61.4375 37.784374Q59.328125 37.784374 58.078125 36.925Q56.84375 36.065624 56.46875 34.596874ZM79.1875 27.175L79.1875 29.3625L77.3125 29.3625L77.3125 33.55Q77.3125 34.815624 77.359375 35.034374Q77.421875 35.2375 77.609375 35.378124Q77.8125 35.503124 78.078125 35.503124Q78.453125 35.503124 79.1875 35.2375L79.421875 37.378124Q78.453125 37.784374 77.25 37.784374Q76.5 37.784374 75.90625 37.534374Q75.3125 37.284374 75.03125 36.89375Q74.765625 36.4875 74.65625 35.815624Q74.5625 35.346874 74.5625 33.89375L74.5625 29.3625L73.296875 29.3625L73.296875 27.175L74.5625 27.175L74.5625 25.1125L77.3125 23.51875L77.3125 27.175L79.1875 27.175ZM84.171875 23.2375L84.171875 28.503124Q85.5 26.940624 87.34375 26.940624Q88.296875 26.940624 89.046875 27.3Q89.8125 27.64375 90.203125 28.190624Q90.59375 28.7375 90.734375 29.409374Q90.875 30.065624 90.875 31.471874L90.875 37.55L88.125 37.55L88.125 32.065624Q88.125 30.440624 87.96875 30.003124Q87.8125 29.565624 87.40625 29.315624Q87.015625 29.05 86.421875 29.05Q85.75 29.05 85.203125 29.378124Q84.671875 29.70625 84.421875 30.378124Q84.171875 31.05 84.171875 32.346874L84.171875 37.55L81.421875 37.55L81.421875 23.2375L84.171875 23.2375ZM99.4375 34.253124L102.171875 34.70625Q101.65625 36.20625 100.515625 37.003124Q99.375 37.784374 97.671875 37.784374Q94.953125 37.784374 93.65625 36.01875Q92.640625 34.596874 92.640625 32.440624Q92.640625 29.8625 93.984375 28.409374Q95.328125 26.940624 97.390625 26.940624Q99.703125 26.940624 101.03125 28.471874Q102.375 30.003124 102.328125 33.159374L95.453125 33.159374Q95.484375 34.378124 96.109375 35.065624Q96.75 35.7375 97.6875 35.7375Q98.34375 35.7375 98.78125 35.39375Q99.21875 35.034374 99.4375 34.253124ZM99.59375 31.471874Q99.5625 30.284374 98.96875 29.675Q98.390625 29.05 97.5625 29.05Q96.65625 29.05 96.078125 29.690624Q95.484375 30.346874 95.5 31.471874L99.59375 31.471874ZM119.484375 30.2375L116.78125 30.7375Q116.640625 29.925 116.15625 29.51875Q115.671875 29.096874 114.90625 29.096874Q113.875 29.096874 113.265625 29.815624Q112.65625 30.51875 112.65625 32.175Q112.65625 34.01875 113.265625 34.784374Q113.890625 35.55 114.9375 35.55Q115.71875 35.55 116.21875 35.1125Q116.71875 34.659374 116.921875 33.58125L119.609375 34.034374Q119.203125 35.89375 118.0 36.846874Q116.8125 37.784374 114.8125 37.784374Q112.53125 37.784374 111.171875 36.346874Q109.828125 34.909374 109.828125 32.378124Q109.828125 29.8 111.1875 28.378124Q112.546875 26.940624 114.859375 26.940624Q116.75 26.940624 117.859375 27.76875Q118.984375 28.58125 119.484375 30.2375ZM120.796875 32.221874Q120.796875 30.846874 121.46875 29.565624Q122.15625 28.284374 123.390625 27.6125Q124.625 26.940624 126.140625 26.940624Q128.5 26.940624 130.0 28.471874Q131.5 30.003124 131.5 32.33125Q131.5 34.690624 129.98438 36.2375Q128.46875 37.784374 126.15625 37.784374Q124.734375 37.784374 123.4375 37.14375Q122.15625 36.4875 121.46875 35.253124Q120.796875 34.003124 120.796875 32.221874ZM123.609375 32.3625Q123.609375 33.909374 124.34375 34.7375Q125.078125 35.55 126.15625 35.55Q127.234375 35.55 127.953125 34.7375Q128.6875 33.909374 128.6875 32.346874Q128.6875 30.815624 127.953125 30.003124Q127.234375 29.175 126.15625 29.175Q125.078125 29.175 124.34375 30.003124Q123.609375 30.815624 123.609375 32.3625ZM136.28125 37.55L132.10938 27.175L134.98438 27.175L136.9375 32.471874L137.51562 34.2375Q137.73438 33.565624 137.79688 33.346874Q137.92188 32.909374 138.07812 32.471874L140.0625 27.175L142.875 27.175L138.76562 37.55L136.28125 37.55ZM144.4375 25.76875L144.4375 23.2375L147.1875 23.2375L147.1875 25.76875L144.4375 25.76875ZM144.4375 37.55L144.4375 27.175L147.1875 27.175L147.1875 37.55L144.4375 37.55ZM159.95312 37.55L157.40625 37.55L157.40625 36.01875Q156.76562 36.909374 155.89062 37.346874Q155.03125 37.784374 154.15625 37.784374Q152.375 37.784374 151.09375 36.346874Q149.82812 34.909374 149.82812 32.33125Q149.82812 29.690624 151.0625 28.315624Q152.29688 26.940624 154.20312 26.940624Q155.9375 26.940624 157.20312 28.39375L157.20312 23.2375L159.95312 23.2375L159.95312 37.55ZM152.625 32.14375Q152.625 33.8 153.07812 34.534374Q153.75 35.6125 154.9375 35.6125Q155.89062 35.6125 156.54688 34.815624Q157.21875 34.003124 157.21875 32.409374Q157.21875 30.6125 156.5625 29.83125Q155.92188 29.05 154.92188 29.05Q153.9375 29.05 153.28125 29.83125Q152.625 30.596874 152.625 32.14375ZM162.125 33.7375L162.125 30.9875L167.51562 30.9875L167.51562 33.7375L162.125 33.7375ZM175.875 37.55L173.125 37.55L173.125 27.20625Q171.625 28.6125 169.57812 29.284374L169.57812 26.8Q170.65625 26.440624 171.90625 25.471874Q173.17188 24.4875 173.64062 23.175L175.875 23.175L175.875 37.55ZM179.90625 34.2375L182.5625 33.940624Q182.65625 34.753124 183.0625 35.14375Q183.48438 35.534374 184.15625 35.534374Q185.0 35.534374 185.59375 34.753124Q186.20312 33.971874 186.35938 31.51875Q185.32812 32.721874 183.78125 32.721874Q182.09375 32.721874 180.85938 31.425Q179.64062 30.1125 179.64062 28.01875Q179.64062 25.846874 180.92188 24.51875Q182.21875 23.175 184.21875 23.175Q186.40625 23.175 187.79688 24.8625Q189.20312 26.55 189.20312 30.39375Q189.20312 34.33125 187.73438 36.065624Q186.28125 37.8 183.95312 37.8Q182.26562 37.8 181.23438 36.909374Q180.20312 36.01875 179.90625 34.2375ZM186.125 28.2375Q186.125 26.909374 185.51562 26.190624Q184.90625 25.45625 184.09375 25.45625Q183.34375 25.45625 182.82812 26.05Q182.32812 26.64375 182.32812 28.01875Q182.32812 29.409374 182.875 30.065624Q183.42188 30.70625 184.25 30.70625Q185.03125 30.70625 185.57812 30.08125Q186.125 29.45625 186.125 28.2375ZM197.35938 27.175L199.92188 27.175L199.92188 28.70625Q200.42188 27.925 201.26562 27.440624Q202.10938 26.940624 203.15625 26.940624Q204.95312 26.940624 206.20312 28.3625Q207.46875 29.76875 207.46875 32.3Q207.46875 34.909374 206.20312 36.346874Q204.9375 37.784374 203.125 37.784374Q202.26562 37.784374 201.5625 37.440624Q200.875 37.096874 200.10938 36.26875L200.10938 41.503124L197.35938 41.503124L197.35938 27.175ZM200.07812 32.190624Q200.07812 33.940624 200.76562 34.784374Q201.45312 35.6125 202.45312 35.6125Q203.40625 35.6125 204.04688 34.846874Q204.6875 34.065624 204.6875 32.33125Q204.6875 30.690624 204.03125 29.909374Q203.375 29.1125 202.40625 29.1125Q201.40625 29.1125 200.73438 29.89375Q200.07812 30.659374 200.07812 32.190624ZM211.48438 30.346874L209.0 29.89375Q209.42188 28.39375 210.4375 27.675Q211.46875 26.940624 213.48438 26.940624Q215.32812 26.940624 216.21875 27.378124Q217.125 27.815624 217.48438 28.4875Q217.85938 29.14375 217.85938 30.940624L217.82812 34.14375Q217.82812 35.503124 217.95312 36.159374Q218.09375 36.8 218.45312 37.55L215.73438 37.55Q215.625 37.26875 215.46875 36.7375Q215.40625 36.4875 215.375 36.409374Q214.67188 37.096874 213.85938 37.440624Q213.0625 37.784374 212.15625 37.784374Q210.5625 37.784374 209.64062 36.925Q208.71875 36.05 208.71875 34.721874Q208.71875 33.83125 209.125 33.14375Q209.54688 32.45625 210.29688 32.096874Q211.0625 31.721874 212.5 31.45625Q214.42188 31.096874 215.15625 30.784374L215.15625 30.503124Q215.15625 29.721874 214.76562 29.39375Q214.375 29.05 213.29688 29.05Q212.5625 29.05 212.14062 29.33125Q211.73438 29.6125 211.48438 30.346874ZM215.15625 32.565624Q214.625 32.7375 213.48438 32.9875Q212.34375 33.2375 212.0 33.471874Q211.45312 33.846874 211.45312 34.440624Q211.45312 35.003124 211.875 35.425Q212.3125 35.846874 212.98438 35.846874Q213.71875 35.846874 214.39062 35.3625Q214.89062 34.9875 215.04688 34.45625Q215.15625 34.096874 215.15625 33.1125L215.15625 32.565624ZM229.875 37.55L227.125 37.55L227.125 32.253124Q227.125 30.58125 226.95312 30.096874Q226.78125 29.596874 226.375 29.33125Q225.98438 29.05 225.42188 29.05Q224.71875 29.05 224.14062 29.440624Q223.57812 29.83125 223.35938 30.471874Q223.15625 31.1125 223.15625 32.846874L223.15625 37.55L220.42188 37.55L220.42188 27.175L222.96875 27.175L222.96875 28.70625Q224.32812 26.940624 226.39062 26.940624Q227.29688 26.940624 228.04688 27.26875Q228.79688 27.596874 229.17188 28.1125Q229.5625 28.6125 229.71875 29.26875Q229.875 29.909374 229.875 31.096874L229.875 37.55ZM241.95312 37.55L239.40625 37.55L239.40625 36.01875Q238.76562 36.909374 237.89062 37.346874Q237.03125 37.784374 236.15625 37.784374Q234.375 37.784374 233.09375 36.346874Q231.82812 34.909374 231.82812 32.33125Q231.82812 29.690624 233.0625 28.315624Q234.29688 26.940624 236.20312 26.940624Q237.9375 26.940624 239.20312 28.39375L239.20312 23.2375L241.95312 23.2375L241.95312 37.55ZM234.625 32.14375Q234.625 33.8 235.07812 34.534374Q235.75 35.6125 236.9375 35.6125Q237.89062 35.6125 238.54688 34.815624Q239.21875 34.003124 239.21875 32.409374Q239.21875 30.6125 238.5625 29.83125Q237.92188 29.05 236.92188 29.05Q235.9375 29.05 235.28125 29.83125Q234.625 30.596874 234.625 32.14375ZM250.4375 34.253124L253.17188 34.70625Q252.65625 36.20625 251.51562 37.003124Q250.375 37.784374 248.67188 37.784374Q245.95312 37.784374 244.65625 36.01875Q243.64062 34.596874 243.64062 32.440624Q243.64062 29.8625 244.98438 28.409374Q246.32812 26.940624 248.39062 26.940624Q250.70312 26.940624 252.03125 28.471874Q253.375 30.003124 253.32812 33.159374L246.45312 33.159374Q246.48438 34.378124 247.10938 35.065624Q247.75 35.7375 248.6875 35.7375Q249.34375 35.7375 249.78125 35.39375Q250.21875 35.034374 250.4375 34.253124ZM250.59375 31.471874Q250.5625 30.284374 249.96875 29.675Q249.39062 29.05 248.5625 29.05Q247.65625 29.05 247.07812 29.690624Q246.48438 30.346874 246.5 31.471874L250.59375 31.471874ZM255.23438 27.175L257.76562 27.175L257.76562 28.596874Q259.125 26.940624 261.0 26.940624Q261.98438 26.940624 262.71875 27.3625Q263.45312 27.76875 263.92188 28.596874Q264.60938 27.76875 265.39062 27.3625Q266.1875 26.940624 267.09375 26.940624Q268.23438 26.940624 269.01562 27.409374Q269.8125 27.878124 270.20312 28.76875Q270.48438 29.440624 270.48438 30.925L270.48438 37.55L267.73438 37.55L267.73438 31.628124Q267.73438 30.08125 267.45312 29.628124Q267.07812 29.05 266.28125 29.05Q265.70312 29.05 265.1875 29.409374Q264.6875 29.753124 264.46875 30.425Q264.25 31.096874 264.25 32.565624L264.25 37.55L261.5 37.55L261.5 31.8625Q261.5 30.346874 261.34375 29.909374Q261.20312 29.471874 260.89062 29.26875Q260.59375 29.05 260.0625 29.05Q259.4375 29.05 258.92188 29.39375Q258.42188 29.721874 258.1875 30.378124Q257.96875 31.01875 257.96875 32.503124L257.96875 37.55L255.23438 37.55L255.23438 27.175ZM273.4375 25.76875L273.4375 23.2375L276.1875 23.2375L276.1875 25.76875L273.4375 25.76875ZM273.4375 37.55L273.4375 27.175L276.1875 27.175L276.1875 37.55L273.4375 37.55ZM288.48438 30.2375L285.78125 30.7375Q285.64062 29.925 285.15625 29.51875Q284.67188 29.096874 283.90625 29.096874Q282.875 29.096874 282.26562 29.815624Q281.65625 30.51875 281.65625 32.175Q281.65625 34.01875 282.26562 34.784374Q282.89062 35.55 283.9375 35.55Q284.71875 35.55 285.21875 35.1125Q285.71875 34.659374 285.92188 33.58125L288.60938 34.034374Q288.20312 35.89375 287.0 36.846874Q285.8125 37.784374 283.8125 37.784374Q281.53125 37.784374 280.17188 36.346874Q278.82812 34.909374 278.82812 32.378124Q278.82812 29.8 280.1875 28.378124Q281.54688 26.940624 283.85938 26.940624Q285.75 26.940624 286.85938 27.76875Q287.98438 28.58125 288.48438 30.2375ZM299.17188 23.2375L299.17188 28.503124Q300.5 26.940624 302.34375 26.940624Q303.29688 26.940624 304.04688 27.3Q304.8125 27.64375 305.20312 28.190624Q305.59375 28.7375 305.73438 29.409374Q305.875 30.065624 305.875 31.471874L305.875 37.55L303.125 37.55L303.125 32.065624Q303.125 30.440624 302.96875 30.003124Q302.8125 29.565624 302.40625 29.315624Q302.01562 29.05 301.42188 29.05Q300.75 29.05 300.20312 29.378124Q299.67188 29.70625 299.42188 30.378124Q299.17188 31.05 299.17188 32.346874L299.17188 37.55L296.42188 37.55L296.42188 23.2375L299.17188 23.2375ZM310.48438 30.346874L308.0 29.89375Q308.42188 28.39375 309.4375 27.675Q310.46875 26.940624 312.48438 26.940624Q314.32812 26.940624 315.21875 27.378124Q316.125 27.815624 316.48438 28.4875Q316.85938 29.14375 316.85938 30.940624L316.82812 34.14375Q316.82812 35.503124 316.95312 36.159374Q317.09375 36.8 317.45312 37.55L314.73438 37.55Q314.625 37.26875 314.46875 36.7375Q314.40625 36.4875 314.375 36.409374Q313.67188 37.096874 312.85938 37.440624Q312.0625 37.784374 311.15625 37.784374Q309.5625 37.784374 308.64062 36.925Q307.71875 36.05 307.71875 34.721874Q307.71875 33.83125 308.125 33.14375Q308.54688 32.45625 309.29688 32.096874Q310.0625 31.721874 311.5 31.45625Q313.42188 31.096874 314.15625 30.784374L314.15625 30.503124Q314.15625 29.721874 313.76562 29.39375Q313.375 29.05 312.29688 29.05Q311.5625 29.05 311.14062 29.33125Q310.73438 29.6125 310.48438 30.346874ZM314.15625 32.565624Q313.625 32.7375 312.48438 32.9875Q311.34375 33.2375 311.0 33.471874Q310.45312 33.846874 310.45312 34.440624Q310.45312 35.003124 310.875 35.425Q311.3125 35.846874 311.98438 35.846874Q312.71875 35.846874 313.39062 35.3625Q313.89062 34.9875 314.04688 34.45625Q314.15625 34.096874 314.15625 33.1125L314.15625 32.565624ZM328.95312 37.55L326.40625 37.55L326.40625 36.01875Q325.76562 36.909374 324.89062 37.346874Q324.03125 37.784374 323.15625 37.784374Q321.375 37.784374 320.09375 36.346874Q318.82812 34.909374 318.82812 32.33125Q318.82812 29.690624 320.0625 28.315624Q321.29688 26.940624 323.20312 26.940624Q324.9375 26.940624 326.20312 28.39375L326.20312 23.2375L328.95312 23.2375L328.95312 37.55ZM321.625 32.14375Q321.625 33.8 322.07812 34.534374Q322.75 35.6125 323.9375 35.6125Q324.89062 35.6125 325.54688 34.815624Q326.21875 34.003124 326.21875 32.409374Q326.21875 30.6125 325.5625 29.83125Q324.92188 29.05 323.92188 29.05Q322.9375 29.05 322.28125 29.83125Q321.625 30.596874 321.625 32.14375ZM339.48438 30.346874L337.0 29.89375Q337.42188 28.39375 338.4375 27.675Q339.46875 26.940624 341.48438 26.940624Q343.32812 26.940624 344.21875 27.378124Q345.125 27.815624 345.48438 28.4875Q345.85938 29.14375 345.85938 30.940624L345.82812 34.14375Q345.82812 35.503124 345.95312 36.159374Q346.09375 36.8 346.45312 37.55L343.73438 37.55Q343.625 37.26875 343.46875 36.7375Q343.40625 36.4875 343.375 36.409374Q342.67188 37.096874 341.85938 37.440624Q341.0625 37.784374 340.15625 37.784374Q338.5625 37.784374 337.64062 36.925Q336.71875 36.05 336.71875 34.721874Q336.71875 33.83125 337.125 33.14375Q337.54688 32.45625 338.29688 32.096874Q339.0625 31.721874 340.5 31.45625Q342.42188 31.096874 343.15625 30.784374L343.15625 30.503124Q343.15625 29.721874 342.76562 29.39375Q342.375 29.05 341.29688 29.05Q340.5625 29.05 340.14062 29.33125Q339.73438 29.6125 339.48438 30.346874ZM343.15625 32.565624Q342.625 32.7375 341.48438 32.9875Q340.34375 33.2375 340.0 33.471874Q339.45312 33.846874 339.45312 34.440624Q339.45312 35.003124 339.875 35.425Q340.3125 35.846874 340.98438 35.846874Q341.71875 35.846874 342.39062 35.3625Q342.89062 34.9875 343.04688 34.45625Q343.15625 34.096874 343.15625 33.1125L343.15625 32.565624ZM357.875 37.55L355.125 37.55L355.125 32.253124Q355.125 30.58125 354.95312 30.096874Q354.78125 29.596874 354.375 29.33125Q353.98438 29.05 353.42188 29.05Q352.71875 29.05 352.14062 29.440624Q351.57812 29.83125 351.35938 30.471874Q351.15625 31.1125 351.15625 32.846874L351.15625 37.55L348.42188 37.55L348.42188 27.175L350.96875 27.175L350.96875 28.70625Q352.32812 26.940624 354.39062 26.940624Q355.29688 26.940624 356.04688 27.26875Q356.79688 27.596874 357.17188 28.1125Q357.5625 28.6125 357.71875 29.26875Q357.875 29.909374 357.875 31.096874L357.875 37.55ZM372.4375 34.253124L375.17188 34.70625Q374.65625 36.20625 373.51562 37.003124Q372.375 37.784374 370.67188 37.784374Q367.95312 37.784374 366.65625 36.01875Q365.64062 34.596874 365.64062 32.440624Q365.64062 29.8625 366.98438 28.409374Q368.32812 26.940624 370.39062 26.940624Q372.70312 26.940624 374.03125 28.471874Q375.375 30.003124 375.32812 33.159374L368.45312 33.159374Q368.48438 34.378124 369.10938 35.065624Q369.75 35.7375 370.6875 35.7375Q371.34375 35.7375 371.78125 35.39375Q372.21875 35.034374 372.4375 34.253124ZM372.59375 31.471874Q372.5625 30.284374 371.96875 29.675Q371.39062 29.05 370.5625 29.05Q369.65625 29.05 369.07812 29.690624Q368.48438 30.346874 368.5 31.471874L372.59375 31.471874ZM376.23438 27.175L377.76562 27.175L377.76562 26.39375Q377.76562 25.08125 378.03125 24.440624Q378.3125 23.8 379.0625 23.39375Q379.8125 22.9875 380.95312 22.9875Q382.125 22.9875 383.25 23.346874L382.875 25.253124Q382.21875 25.096874 381.60938 25.096874Q381.01562 25.096874 380.75 25.378124Q380.5 25.659374 380.5 26.440624L380.5 27.175L382.54688 27.175L382.54688 29.33125L380.5 29.33125L380.5 37.55L377.76562 37.55L377.76562 29.33125L376.23438 29.33125L376.23438 27.175ZM383.23438 27.175L384.76562 27.175L384.76562 26.39375Q384.76562 25.08125 385.03125 24.440624Q385.3125 23.8 386.0625 23.39375Q386.8125 22.9875 387.95312 22.9875Q389.125 22.9875 390.25 23.346874L389.875 25.253124Q389.21875 25.096874 388.60938 25.096874Q388.01562 25.096874 387.75 25.378124Q387.5 25.659374 387.5 26.440624L387.5 27.175L389.54688 27.175L389.54688 29.33125L387.5 29.33125L387.5 37.55L384.76562 37.55L384.76562 29.33125L383.23438 29.33125L383.23438 27.175ZM397.4375 34.253124L400.17188 34.70625Q399.65625 36.20625 398.51562 37.003124Q397.375 37.784374 395.67188 37.784374Q392.95312 37.784374 391.65625 36.01875Q390.64062 34.596874 390.64062 32.440624Q390.64062 29.8625 391.98438 28.409374Q393.32812 26.940624 395.39062 26.940624Q397.70312 26.940624 399.03125 28.471874Q400.375 30.003124 400.32812 33.159374L393.45312 33.159374Q393.48438 34.378124 394.10938 35.065624Q394.75 35.7375 395.6875 35.7375Q396.34375 35.7375 396.78125 35.39375Q397.21875 35.034374 397.4375 34.253124ZM397.59375 31.471874Q397.5625 30.284374 396.96875 29.675Q396.39062 29.05 395.5625 29.05Q394.65625 29.05 394.07812 29.690624Q393.48438 30.346874 393.5 31.471874L397.59375 31.471874ZM411.48438 30.2375L408.78125 30.7375Q408.64062 29.925 408.15625 29.51875Q407.67188 29.096874 406.90625 29.096874Q405.875 29.096874 405.26562 29.815624Q404.65625 30.51875 404.65625 32.175Q404.65625 34.01875 405.26562 34.784374Q405.89062 35.55 406.9375 35.55Q407.71875 35.55 408.21875 35.1125Q408.71875 34.659374 408.92188 33.58125L411.60938 34.034374Q411.20312 35.89375 410.0 36.846874Q408.8125 37.784374 406.8125 37.784374Q404.53125 37.784374 403.17188 36.346874Q401.82812 34.909374 401.82812 32.378124Q401.82812 29.8 403.1875 28.378124Q404.54688 26.940624 406.85938 26.940624Q408.75 26.940624 409.85938 27.76875Q410.98438 28.58125 411.48438 30.2375ZM418.1875 27.175L418.1875 29.3625L416.3125 29.3625L416.3125 33.55Q416.3125 34.815624 416.35938 35.034374Q416.42188 35.2375 416.60938 35.378124Q416.8125 35.503124 417.07812 35.503124Q417.45312 35.503124 418.1875 35.2375L418.42188 37.378124Q417.45312 37.784374 416.25 37.784374Q415.5 37.784374 414.90625 37.534374Q414.3125 37.284374 414.03125 36.89375Q413.76562 36.4875 413.65625 35.815624Q413.5625 35.346874 413.5625 33.89375L413.5625 29.3625L412.29688 29.3625L412.29688 27.175L413.5625 27.175L413.5625 25.1125L416.3125 23.51875L416.3125 27.175L418.1875 27.175ZM425.79688 32.221874Q425.79688 30.846874 426.46875 29.565624Q427.15625 28.284374 428.39062 27.6125Q429.625 26.940624 431.14062 26.940624Q433.5 26.940624 435.0 28.471874Q436.5 30.003124 436.5 32.33125Q436.5 34.690624 434.98438 36.2375Q433.46875 37.784374 431.15625 37.784374Q429.73438 37.784374 428.4375 37.14375Q427.15625 36.4875 426.46875 35.253124Q425.79688 34.003124 425.79688 32.221874ZM428.60938 32.3625Q428.60938 33.909374 429.34375 34.7375Q430.07812 35.55 431.15625 35.55Q432.23438 35.55 432.95312 34.7375Q433.6875 33.909374 433.6875 32.346874Q433.6875 30.815624 432.95312 30.003124Q432.23438 29.175 431.15625 29.175Q430.07812 29.175 429.34375 30.003124Q428.60938 30.815624 428.60938 32.3625ZM447.875 37.55L445.125 37.55L445.125 32.253124Q445.125 30.58125 444.95312 30.096874Q444.78125 29.596874 444.375 29.33125Q443.98438 29.05 443.42188 29.05Q442.71875 29.05 442.14062 29.440624Q441.57812 29.83125 441.35938 30.471874Q441.15625 31.1125 441.15625 32.846874L441.15625 37.55L438.42188 37.55L438.42188 27.175L440.96875 27.175L440.96875 28.70625Q442.32812 26.940624 444.39062 26.940624Q445.29688 26.940624 446.04688 27.26875Q446.79688 27.596874 447.17188 28.1125Q447.5625 28.6125 447.71875 29.26875Q447.875 29.909374 447.875 31.096874L447.875 37.55ZM455.14062 27.175L458.0625 27.175L460.53125 34.534374L462.95312 27.175L465.79688 27.175L462.14062 37.159374L461.48438 38.971874Q461.125 39.878124 460.79688 40.346874Q460.46875 40.83125 460.04688 41.128124Q459.625 41.425 459.0 41.58125Q458.375 41.753124 457.59375 41.753124Q456.8125 41.753124 456.04688 41.596874L455.79688 39.440624Q456.45312 39.565624 456.96875 39.565624Q457.92188 39.565624 458.375 39.003124Q458.84375 38.45625 459.07812 37.58125L455.14062 27.175ZM466.79688 32.221874Q466.79688 30.846874 467.46875 29.565624Q468.15625 28.284374 469.39062 27.6125Q470.625 26.940624 472.14062 26.940624Q474.5 26.940624 476.0 28.471874Q477.5 30.003124 477.5 32.33125Q477.5 34.690624 475.98438 36.2375Q474.46875 37.784374 472.15625 37.784374Q470.73438 37.784374 469.4375 37.14375Q468.15625 36.4875 467.46875 35.253124Q466.79688 34.003124 466.79688 32.221874ZM469.60938 32.3625Q469.60938 33.909374 470.34375 34.7375Q471.07812 35.55 472.15625 35.55Q473.23438 35.55 473.95312 34.7375Q474.6875 33.909374 474.6875 32.346874Q474.6875 30.815624 473.95312 30.003124Q473.23438 29.175 472.15625 29.175Q471.07812 29.175 470.34375 30.003124Q469.60938 30.815624 469.60938 32.3625ZM486.26562 37.55L486.26562 36.003124Q485.70312 36.83125 484.76562 37.315624Q483.84375 37.784374 482.82812 37.784374Q481.78125 37.784374 480.95312 37.33125Q480.125 36.8625 479.75 36.034374Q479.375 35.20625 479.375 33.7375L479.375 27.175L482.125 27.175L482.125 31.940624Q482.125 34.128124 482.26562 34.628124Q482.42188 35.1125 482.8125 35.409374Q483.21875 35.690624 483.84375 35.690624Q484.54688 35.690624 485.09375 35.315624Q485.65625 34.925 485.85938 34.3625Q486.0625 33.784374 486.0625 31.55L486.0625 27.175L488.8125 27.175L488.8125 37.55L486.26562 37.55ZM494.0625 37.55L491.3125 37.55L491.3125 27.175L493.875 27.175L493.875 28.659374Q494.51562 27.6125 495.03125 27.284374Q495.5625 26.940624 496.23438 26.940624Q497.17188 26.940624 498.03125 27.45625L497.1875 29.846874Q496.5 29.409374 495.90625 29.409374Q495.32812 29.409374 494.92188 29.721874Q494.51562 30.034374 494.28125 30.878124Q494.0625 31.70625 494.0625 34.346874L494.0625 37.55ZM505.23438 27.175L507.76562 27.175L507.76562 28.596874Q509.125 26.940624 511.0 26.940624Q511.98438 26.940624 512.71875 27.3625Q513.4531 27.76875 513.9219 28.596874Q514.6094 27.76875 515.3906 27.3625Q516.1875 26.940624 517.09375 26.940624Q518.2344 26.940624 519.0156 27.409374Q519.8125 27.878124 520.2031 28.76875Q520.4844 29.440624 520.4844 30.925L520.4844 37.55L517.7344 37.55L517.7344 31.628124Q517.7344 30.08125 517.4531 29.628124Q517.0781 29.05 516.28125 29.05Q515.7031 29.05 515.1875 29.409374Q514.6875 29.753124 514.46875 30.425Q514.25 31.096874 514.25 32.565624L514.25 37.55L511.5 37.55L511.5 31.8625Q511.5 30.346874 511.34375 29.909374Q511.20312 29.471874 510.89062 29.26875Q510.59375 29.05 510.0625 29.05Q509.4375 29.05 508.92188 29.39375Q508.42188 29.721874 508.1875 30.378124Q507.96875 31.01875 507.96875 32.503124L507.96875 37.55L505.23438 37.55L505.23438 27.175ZM529.4375 34.253124L532.1719 34.70625Q531.65625 36.20625 530.5156 37.003124Q529.375 37.784374 527.6719 37.784374Q524.9531 37.784374 523.65625 36.01875Q522.6406 34.596874 522.6406 32.440624Q522.6406 29.8625 523.9844 28.409374Q525.3281 26.940624 527.3906 26.940624Q529.7031 26.940624 531.03125 28.471874Q532.375 30.003124 532.3281 33.159374L525.4531 33.159374Q525.4844 34.378124 526.1094 35.065624Q526.75 35.7375 527.6875 35.7375Q528.34375 35.7375 528.78125 35.39375Q529.21875 35.034374 529.4375 34.253124ZM529.59375 31.471874Q529.5625 30.284374 528.96875 29.675Q528.3906 29.05 527.5625 29.05Q526.65625 29.05 526.0781 29.690624Q525.4844 30.346874 525.5 31.471874L529.59375 31.471874ZM543.875 37.55L541.125 37.55L541.125 32.253124Q541.125 30.58125 540.9531 30.096874Q540.78125 29.596874 540.375 29.33125Q539.9844 29.05 539.4219 29.05Q538.71875 29.05 538.1406 29.440624Q537.5781 29.83125 537.3594 30.471874Q537.15625 31.1125 537.15625 32.846874L537.15625 37.55L534.4219 37.55L534.4219 27.175L536.96875 27.175L536.96875 28.70625Q538.3281 26.940624 540.3906 26.940624Q541.2969 26.940624 542.0469 27.26875Q542.7969 27.596874 543.1719 28.1125Q543.5625 28.6125 543.71875 29.26875Q543.875 29.909374 543.875 31.096874L543.875 37.55ZM551.1875 27.175L551.1875 29.3625L549.3125 29.3625L549.3125 33.55Q549.3125 34.815624 549.3594 35.034374Q549.4219 35.2375 549.6094 35.378124Q549.8125 35.503124 550.0781 35.503124Q550.4531 35.503124 551.1875 35.2375L551.4219 37.378124Q550.4531 37.784374 549.25 37.784374Q548.5 37.784374 547.90625 37.534374Q547.3125 37.284374 547.03125 36.89375Q546.7656 36.4875 546.65625 35.815624Q546.5625 35.346874 546.5625 33.89375L546.5625 29.3625L545.2969 29.3625L545.2969 27.175L546.5625 27.175L546.5625 25.1125L549.3125 23.51875L549.3125 27.175L551.1875 27.175ZM555.4844 30.346874L553.0 29.89375Q553.4219 28.39375 554.4375 27.675Q555.46875 26.940624 557.4844 26.940624Q559.3281 26.940624 560.21875 27.378124Q561.125 27.815624 561.4844 28.4875Q561.8594 29.14375 561.8594 30.940624L561.8281 34.14375Q561.8281 35.503124 561.9531 36.159374Q562.09375 36.8 562.4531 37.55L559.7344 37.55Q559.625 37.26875 559.46875 36.7375Q559.40625 36.4875 559.375 36.409374Q558.6719 37.096874 557.8594 37.440624Q557.0625 37.784374 556.15625 37.784374Q554.5625 37.784374 553.6406 36.925Q552.71875 36.05 552.71875 34.721874Q552.71875 33.83125 553.125 33.14375Q553.5469 32.45625 554.2969 32.096874Q555.0625 31.721874 556.5 31.45625Q558.4219 31.096874 559.15625 30.784374L559.15625 30.503124Q559.15625 29.721874 558.7656 29.39375Q558.375 29.05 557.2969 29.05Q556.5625 29.05 556.1406 29.33125Q555.7344 29.6125 555.4844 30.346874ZM559.15625 32.565624Q558.625 32.7375 557.4844 32.9875Q556.34375 33.2375 556.0 33.471874Q555.4531 33.846874 555.4531 34.440624Q555.4531 35.003124 555.875 35.425Q556.3125 35.846874 556.9844 35.846874Q557.71875 35.846874 558.3906 35.3625Q558.8906 34.9875 559.0469 34.45625Q559.15625 34.096874 559.15625 33.1125L559.15625 32.565624ZM564.4375 37.55L564.4375 23.2375L567.1875 23.2375L567.1875 37.55L564.4375 37.55Z" fill-rule="nonzero"/><path fill="#000000" d="M268.67188 47.2375L268.67188 52.503124Q270.0 50.940624 271.84375 50.940624Q272.79688 50.940624 273.54688 51.3Q274.3125 51.64375 274.70312 52.190624Q275.09375 52.7375 275.23438 53.409374Q275.375 54.065624 275.375 55.471874L275.375 61.55L272.625 61.55L272.625 56.065624Q272.625 54.440624 272.46875 54.003124Q272.3125 53.565624 271.90625 53.315624Q271.51562 53.05 270.92188 53.05Q270.25 53.05 269.70312 53.378124Q269.17188 53.70625 268.92188 54.378124Q268.67188 55.05 268.67188 56.346874L268.67188 61.55L265.92188 61.55L265.92188 47.2375L268.67188 47.2375ZM283.9375 58.253124L286.67188 58.70625Q286.15625 60.20625 285.01562 61.003124Q283.875 61.784374 282.17188 61.784374Q279.45312 61.784374 278.15625 60.01875Q277.14062 58.596874 277.14062 56.440624Q277.14062 53.8625 278.48438 52.409374Q279.82812 50.940624 281.89062 50.940624Q284.20312 50.940624 285.53125 52.471874Q286.875 54.003124 286.82812 57.159374L279.95312 57.159374Q279.98438 58.378124 280.60938 59.065624Q281.25 59.7375 282.1875 59.7375Q282.84375 59.7375 283.28125 59.39375Q283.71875 59.034374 283.9375 58.253124ZM284.09375 55.471874Q284.0625 54.284374 283.46875 53.675Q282.89062 53.05 282.0625 53.05Q281.15625 53.05 280.57812 53.690624Q279.98438 54.346874 280.0 55.471874L284.09375 55.471874ZM290.98438 54.346874L288.5 53.89375Q288.92188 52.39375 289.9375 51.675Q290.96875 50.940624 292.98438 50.940624Q294.82812 50.940624 295.71875 51.378124Q296.625 51.815624 296.98438 52.4875Q297.35938 53.14375 297.35938 54.940624L297.32812 58.14375Q297.32812 59.503124 297.45312 60.159374Q297.59375 60.8 297.95312 61.55L295.23438 61.55Q295.125 61.26875 294.96875 60.7375Q294.90625 60.4875 294.875 60.409374Q294.17188 61.096874 293.35938 61.440624Q292.5625 61.784374 291.65625 61.784374Q290.0625 61.784374 289.14062 60.925Q288.21875 60.05 288.21875 58.721874Q288.21875 57.83125 288.625 57.14375Q289.04688 56.45625 289.79688 56.096874Q290.5625 55.721874 292.0 55.45625Q293.92188 55.096874 294.65625 54.784374L294.65625 54.503124Q294.65625 53.721874 294.26562 53.39375Q293.875 53.05 292.79688 53.05Q292.0625 53.05 291.64062 53.33125Q291.23438 53.6125 290.98438 54.346874ZM294.65625 56.565624Q294.125 56.7375 292.98438 56.9875Q291.84375 57.2375 291.5 57.471874Q290.95312 57.846874 290.95312 58.440624Q290.95312 59.003124 291.375 59.425Q291.8125 59.846874 292.48438 59.846874Q293.21875 59.846874 293.89062 59.3625Q294.39062 58.9875 294.54688 58.45625Q294.65625 58.096874 294.65625 57.1125L294.65625 56.565624ZM299.9375 61.55L299.9375 47.2375L302.6875 47.2375L302.6875 61.55L299.9375 61.55ZM310.6875 51.175L310.6875 53.3625L308.8125 53.3625L308.8125 57.55Q308.8125 58.815624 308.85938 59.034374Q308.92188 59.2375 309.10938 59.378124Q309.3125 59.503124 309.57812 59.503124Q309.95312 59.503124 310.6875 59.2375L310.92188 61.378124Q309.95312 61.784374 308.75 61.784374Q308.0 61.784374 307.40625 61.534374Q306.8125 61.284374 306.53125 60.89375Q306.26562 60.4875 306.15625 59.815624Q306.0625 59.346874 306.0625 57.89375L306.0625 53.3625L304.79688 53.3625L304.79688 51.175L306.0625 51.175L306.0625 49.1125L308.8125 47.51875L308.8125 51.175L310.6875 51.175ZM315.67188 47.2375L315.67188 52.503124Q317.0 50.940624 318.84375 50.940624Q319.79688 50.940624 320.54688 51.3Q321.3125 51.64375 321.70312 52.190624Q322.09375 52.7375 322.23438 53.409374Q322.375 54.065624 322.375 55.471874L322.375 61.55L319.625 61.55L319.625 56.065624Q319.625 54.440624 319.46875 54.003124Q319.3125 53.565624 318.90625 53.315624Q318.51562 53.05 317.92188 53.05Q317.25 53.05 316.70312 53.378124Q316.17188 53.70625 315.92188 54.378124Q315.67188 55.05 315.67188 56.346874L315.67188 61.55L312.92188 61.55L312.92188 47.2375L315.67188 47.2375ZM330.82812 57.8625L328.34375 57.8625Q328.32812 57.315624 328.32812 57.20625Q328.32812 55.9875 328.73438 55.20625Q329.14062 54.425 330.32812 53.45625Q331.53125 52.471874 331.76562 52.175Q332.14062 51.690624 332.14062 51.1125Q332.14062 50.315624 331.5 49.753124Q330.85938 49.175 329.76562 49.175Q328.71875 49.175 328.01562 49.76875Q327.3125 50.3625 327.0625 51.58125L324.53125 51.26875Q324.64062 49.534374 326.01562 48.315624Q327.40625 47.08125 329.65625 47.08125Q332.01562 47.08125 333.40625 48.315624Q334.8125 49.55 334.8125 51.190624Q334.8125 52.1125 334.29688 52.925Q333.78125 53.721874 332.10938 55.128124Q331.23438 55.846874 331.01562 56.284374Q330.8125 56.721874 330.82812 57.8625ZM328.34375 61.55L328.34375 58.8L331.09375 58.8L331.09375 61.55L328.34375 61.55Z" fill-rule="nonzero"/></svg>