<svg version="1.1" viewBox="0.0 0.0 600.0 371.0" fill="none" stroke="none" stroke-linecap="square" stroke-miterlimit="10" width="600" height="371" xmlns:xlink="http://www.w3.org/1999/xlink" xmlns="http://www.w3.org/2000/svg"><path fill="#ffffff" d="M0 0L600.0 0L600.0 371.0L0 371.0L0 0Z" fill-rule="nonzero"/><path stroke="#333333" stroke-width="1.0" stroke-linecap="butt" d="M45.5 318.5L581.5 318.5" fill-rule="nonzero"/><path stroke="#cccccc" stroke-width="1.0" stroke-linecap="butt" d="M45.5 267.5L581.5 267.5" fill-rule="nonzero"/><path stroke="#cccccc" stroke-width="1.0" stroke-linecap="butt" d="M45.5 215.5L581.5 215.5" fill-rule="nonzero"/><path stroke="#cccccc" stroke-width="1.0" stroke-linecap="butt" d="M45.5 164.5L581.5 164.5" fill-rule="nonzero"/><path stroke="#cccccc" stroke-width="1.0" stroke-linecap="butt" d="M45.5 113.5L581.5 113.5" fill-rule="nonzero"/><path stroke="#cccccc" stroke-width="1.0" stroke-linecap="butt" d="M45.5 61.5L581.5 61.5" fill-rule="nonzero"/><clipPath id="id_0"><path d="M45.55 61.916668L581.45 61.916668L581.45 318.45L45.55 318.45L45.55 61.916668Z" clip-rule="nonzero"/></clipPath><path stroke="#000000" stroke-width="2.0" stroke-linecap="butt" stroke-opacity="0.0" clip-path="url(#id_0)" d="M146.0 318.0L81.0 318.0L81.0 105.0C81.0 103.89543 81.89543 103.0 83.0 103.0L144.0 103.0C145.10457 103.0 146.0 103.89543 146.0 105.0Z" fill-rule="nonzero"/><path fill="#4285f4" clip-path="url(#id_0)" d="M146.0 318.0L81.0 318.0L81.0 105.0C81.0 103.89543 81.89543 103.0 83.0 103.0L144.0 103.0C145.10457 103.0 146.0 103.89543 146.0 105.0Z" fill-rule="nonzero"/><path stroke="#000000" stroke-width="2.0" stroke-linecap="butt" stroke-opacity="0.0" clip-path="url(#id_0)" d="M246.0 318.0L181.0 318.0L181.0 177.0C181.0 175.89543 181.89543 175.0 183.0 175.0L244.0 175.0C245.10457 175.0 246.0 175.89543 246.0 177.0Z" fill-rule="nonzero"/><path fill="#ea4335" clip-path="url(#id_0)" d="M246.0 318.0L181.0 318.0L181.0 177.0C181.0 175.89543 181.89543 175.0 183.0 175.0L244.0 175.0C245.10457 175.0 246.0 175.89543 246.0 177.0Z" fill-rule="nonzero"/><path stroke="#000000" stroke-width="2.0" stroke-linecap="butt" stroke-opacity="0.0" clip-path="url(#id_0)" d="M347.0 318.0L282.0 318.0L282.0 269.0C282.0 267.89542 282.89542 267.0 284.0 267.0L345.0 267.0C346.10458 267.0 347.0 267.89542 347.0 269.0Z" fill-rule="nonzero"/><path fill="#38761d" clip-path="url(#id_0)" d="M347.0 318.0L282.0 318.0L282.0 269.0C282.0 267.89542 282.89542 267.0 284.0 267.0L345.0 267.0C346.10458 267.0 347.0 267.89542 347.0 269.0Z" fill-rule="nonzero"/><path stroke="#000000" stroke-width="2.0" stroke-linecap="butt" stroke-opacity="0.0" clip-path="url(#id_0)" d="M447.0 318.0L382.0 318.0L382.0 161.0C382.0 159.89543 382.89542 159.0 384.0 159.0L445.0 159.0C446.10458 159.0 447.0 159.89543 447.0 161.0Z" fill-rule="nonzero"/><path fill="#741b47" clip-path="url(#id_0)" d="M447.0 318.0L382.0 318.0L382.0 161.0C382.0 159.89543 382.89542 159.0 384.0 159.0L445.0 159.0C446.10458 159.0 447.0 159.89543 447.0 161.0Z" fill-rule="nonzero"/><path stroke="#000000" stroke-width="2.0" stroke-linecap="butt" stroke-opacity="0.0" clip-path="url(#id_0)" d="M547.0 318.0L482.0 318.0L482.0 315.0C482.0 313.89542 482.89542 313.0 484.0 313.0L545.0 313.0C546.10455 313.0 547.0 313.89542 547.0 315.0Z" fill-rule="nonzero"/><path fill="#bf9000" clip-path="url(#id_0)" d="M547.0 318.0L482.0 318.0L482.0 315.0C482.0 313.89542 482.89542 313.0 484.0 313.0L545.0 313.0C546.10455 313.0 547.0 313.89542 547.0 315.0Z" fill-rule="nonzero"/><path fill="#000000" d="M33.05 318.21564Q33.05 316.6844 33.3625 315.7625Q33.675 314.825 34.284374 314.325Q34.909374 313.825 35.846874 313.825Q36.534374 313.825 37.05 314.10626Q37.58125 314.3875 37.925 314.91876Q38.26875 315.4344 38.45625 316.1844Q38.64375 316.9344 38.64375 318.21564Q38.64375 319.73126 38.33125 320.65314Q38.034374 321.575 37.409374 322.09064Q36.8 322.59064 35.846874 322.59064Q34.6125 322.59064 33.89375 321.7Q33.05 320.6375 33.05 318.21564ZM34.128124 318.21564Q34.128124 320.325 34.628124 321.02814Q35.128124 321.73126 35.846874 321.73126Q36.58125 321.73126 37.065624 321.02814Q37.565624 320.325 37.565624 318.21564Q37.565624 316.09064 37.065624 315.40314Q36.58125 314.7 35.83125 314.7Q35.1125 314.7 34.675 315.3094Q34.128124 316.09064 34.128124 318.21564Z" fill-rule="nonzero"/><path fill="#000000" d="M30.01875 271.14334L28.971874 271.14334L28.971874 264.4246Q28.58125 264.78397 27.95625 265.15897Q27.346874 265.51834 26.8625 265.69022L26.8625 264.6746Q27.7375 264.25272 28.39375 263.6746Q29.065624 263.08084 29.346874 262.51834L30.01875 262.51834L30.01875 271.14334ZM33.05 266.90897Q33.05 265.37772 33.3625 264.45584Q33.675 263.51834 34.284374 263.01834Q34.909374 262.51834 35.846874 262.51834Q36.534374 262.51834 37.05 262.7996Q37.58125 263.08084 37.925 263.6121Q38.26875 264.12772 38.45625 264.87772Q38.64375 265.62772 38.64375 266.90897Q38.64375 268.4246 38.33125 269.34647Q38.034374 270.26834 37.409374 270.78397Q36.8 271.28397 35.846874 271.28397Q34.6125 271.28397 33.89375 270.39334Q33.05 269.33084 33.05 266.90897ZM34.128124 266.90897Q34.128124 269.01834 34.628124 269.72147Q35.128124 270.4246 35.846874 270.4246Q36.58125 270.4246 37.065624 269.72147Q37.565624 269.01834 37.565624 266.90897Q37.565624 264.78397 37.065624 264.09647Q36.58125 263.39334 35.83125 263.39334Q35.1125 263.39334 34.675 264.00272Q34.128124 264.78397 34.128124 266.90897Z" fill-rule="nonzero"/><path fill="#000000" d="M31.596874 218.82104L31.596874 219.83667L25.909374 219.83667Q25.909374 219.46167 26.034374 219.1023Q26.253124 218.52417 26.721874 217.96167Q27.20625 217.39917 28.1125 216.6648Q29.51875 215.50854 30.003124 214.83667Q30.503124 214.1648 30.503124 213.57104Q30.503124 212.94604 30.05 212.52417Q29.596874 212.08667 28.878124 212.08667Q28.1125 212.08667 27.659374 212.5398Q27.20625 212.99292 27.190624 213.80542L26.1125 213.69604Q26.221874 212.4773 26.940624 211.8523Q27.675 211.21167 28.909374 211.21167Q30.14375 211.21167 30.8625 211.89917Q31.58125 212.58667 31.58125 213.6023Q31.58125 214.11792 31.3625 214.61792Q31.159374 215.1023 30.659374 215.6648Q30.175 216.21167 29.05 217.1648Q28.096874 217.96167 27.815624 218.25854Q27.55 218.5398 27.378124 218.82104L31.596874 218.82104ZM33.05 215.6023Q33.05 214.07104 33.3625 213.14917Q33.675 212.21167 34.284374 211.71167Q34.909374 211.21167 35.846874 211.21167Q36.534374 211.21167 37.05 211.49292Q37.58125 211.77417 37.925 212.30542Q38.26875 212.82104 38.45625 213.57104Q38.64375 214.32104 38.64375 215.6023Q38.64375 217.11792 38.33125 218.0398Q38.034374 218.96167 37.409374 219.4773Q36.8 219.9773 35.846874 219.9773Q34.6125 219.9773 33.89375 219.08667Q33.05 218.02417 33.05 215.6023ZM34.128124 215.6023Q34.128124 217.71167 34.628124 218.4148Q35.128124 219.11792 35.846874 219.11792Q36.58125 219.11792 37.065624 218.4148Q37.565624 217.71167 37.565624 215.6023Q37.565624 213.4773 37.065624 212.7898Q36.58125 212.08667 35.83125 212.08667Q35.1125 212.08667 34.675 212.69604Q34.128124 213.4773 34.128124 215.6023Z" fill-rule="nonzero"/><path fill="#000000" d="M26.05 166.26437L27.1125 166.12375Q27.284374 167.01437 27.721874 167.42062Q28.159374 167.81125 28.784374 167.81125Q29.534374 167.81125 30.05 167.29562Q30.565624 166.78 30.565624 166.01437Q30.565624 165.29562 30.08125 164.82687Q29.6125 164.3425 28.878124 164.3425Q28.58125 164.3425 28.128124 164.4675L28.253124 163.53Q28.3625 163.54562 28.425 163.54562Q29.096874 163.54562 29.628124 163.20187Q30.175 162.8425 30.175 162.10812Q30.175 161.53 29.784374 161.155Q29.39375 160.76437 28.76875 160.76437Q28.159374 160.76437 27.7375 161.155Q27.33125 161.54562 27.221874 162.31125L26.159374 162.12375Q26.346874 161.07687 27.034374 160.49875Q27.721874 159.905 28.7375 159.905Q29.440624 159.905 30.034374 160.2175Q30.628124 160.51437 30.940624 161.03Q31.253124 161.54562 31.253124 162.13937Q31.253124 162.68625 30.95625 163.155Q30.659374 163.60812 30.08125 163.87375Q30.83125 164.04562 31.253124 164.60812Q31.675 165.155 31.675 165.99875Q31.675 167.12375 30.846874 167.905Q30.034374 168.68625 28.784374 168.68625Q27.659374 168.68625 26.909374 168.01437Q26.159374 167.32687 26.05 166.26437ZM33.05 164.29562Q33.05 162.76437 33.3625 161.8425Q33.675 160.905 34.284374 160.405Q34.909374 159.905 35.846874 159.905Q36.534374 159.905 37.05 160.18625Q37.58125 160.4675 37.925 160.99875Q38.26875 161.51437 38.45625 162.26437Q38.64375 163.01437 38.64375 164.29562Q38.64375 165.81125 38.33125 166.73312Q38.034374 167.655 37.409374 168.17062Q36.8 168.67062 35.846874 168.67062Q34.6125 168.67062 33.89375 167.78Q33.05 166.7175 33.05 164.29562ZM34.128124 164.29562Q34.128124 166.405 34.628124 167.10812Q35.128124 167.81125 35.846874 167.81125Q36.58125 167.81125 37.065624 167.10812Q37.565624 166.405 37.565624 164.29562Q37.565624 162.17062 37.065624 161.48312Q36.58125 160.78 35.83125 160.78Q35.1125 160.78 34.675 161.38937Q34.128124 162.17062 34.128124 164.29562Z" fill-rule="nonzero"/><path fill="#000000" d="M29.425 117.223335L29.425 115.160835L25.70625 115.160835L25.70625 114.192085L29.628124 108.629585L30.4875 108.629585L30.4875 114.192085L31.64375 114.192085L31.64375 115.160835L30.4875 115.160835L30.4875 117.223335L29.425 117.223335ZM29.425 114.192085L29.425 110.33271L26.7375 114.192085L29.425 114.192085ZM33.05 112.98896Q33.05 111.45771 33.3625 110.535835Q33.675 109.598335 34.284374 109.098335Q34.909374 108.598335 35.846874 108.598335Q36.534374 108.598335 37.05 108.879585Q37.58125 109.160835 37.925 109.692085Q38.26875 110.20771 38.45625 110.95771Q38.64375 111.70771 38.64375 112.98896Q38.64375 114.504585 38.33125 115.42646Q38.034374 116.348335 37.409374 116.86396Q36.8 117.36396 35.846874 117.36396Q34.6125 117.36396 33.89375 116.473335Q33.05 115.410835 33.05 112.98896ZM34.128124 112.98896Q34.128124 115.098335 34.628124 115.80146Q35.128124 116.504585 35.846874 116.504585Q36.58125 116.504585 37.065624 115.80146Q37.565624 115.098335 37.565624 112.98896Q37.565624 110.86396 37.065624 110.17646Q36.58125 109.473335 35.83125 109.473335Q35.1125 109.473335 34.675 110.08271Q34.128124 110.86396 34.128124 112.98896Z" fill-rule="nonzero"/><path fill="#000000" d="M26.05 63.666664L27.159374 63.572914Q27.284374 64.385414 27.721874 64.791664Q28.175 65.197914 28.815624 65.197914Q29.565624 65.197914 30.096874 64.61979Q30.628124 64.041664 30.628124 63.104164Q30.628124 62.197914 30.1125 61.68229Q29.6125 61.15104 28.784374 61.15104Q28.284374 61.15104 27.8625 61.385414Q27.45625 61.61979 27.221874 61.979164L26.2375 61.854164L27.065624 57.447914L31.346874 57.447914L31.346874 58.447914L27.909374 58.447914L27.45625 60.760414Q28.221874 60.21354 29.065624 60.21354Q30.190624 60.21354 30.95625 60.99479Q31.7375 61.77604 31.7375 63.010414Q31.7375 64.166664 31.065624 65.02604Q30.2375 66.05729 28.815624 66.05729Q27.64375 66.05729 26.89375 65.40104Q26.159374 64.74479 26.05 63.666664ZM33.05 61.68229Q33.05 60.15104 33.3625 59.229164Q33.675 58.291664 34.284374 57.791664Q34.909374 57.291664 35.846874 57.291664Q36.534374 57.291664 37.05 57.572914Q37.58125 57.854164 37.925 58.385414Q38.26875 58.90104 38.45625 59.65104Q38.64375 60.40104 38.64375 61.68229Q38.64375 63.197914 38.33125 64.11979Q38.034374 65.041664 37.409374 65.55729Q36.8 66.05729 35.846874 66.05729Q34.6125 66.05729 33.89375 65.166664Q33.05 64.104164 33.05 61.68229ZM34.128124 61.68229Q34.128124 63.791664 34.628124 64.49479Q35.128124 65.197914 35.846874 65.197914Q36.58125 65.197914 37.065624 64.49479Q37.565624 63.791664 37.565624 61.68229Q37.565624 59.55729 37.065624 58.86979Q36.58125 58.166664 35.83125 58.166664Q35.1125 58.166664 34.675 58.77604Q34.128124 59.55729 34.128124 61.68229Z" fill-rule="nonzero"/><path fill="#000000" d="M76.21043 332.6844L77.27293 332.59064Q77.35105 333.2469 77.6323 333.65314Q77.91355 334.0594 78.49168 334.325Q79.08543 334.575 79.8198 334.575Q80.46043 334.575 80.96043 334.3875Q81.46043 334.1844 81.6948 333.85626Q81.9448 333.5125 81.9448 333.1219Q81.9448 332.71564 81.71043 332.41876Q81.47605 332.10626 80.9448 331.90314Q80.58543 331.7625 79.39793 331.48126Q78.22605 331.2 77.7573 330.95Q77.1323 330.6219 76.83543 330.15314Q76.53855 329.66876 76.53855 329.075Q76.53855 328.4344 76.89793 327.8719Q77.27293 327.29376 77.97605 327.0125Q78.6948 326.71564 79.55418 326.71564Q80.5073 326.71564 81.24168 327.02814Q81.97605 327.325 82.36668 327.9344Q82.7573 328.52814 82.78855 329.27814L81.6948 329.35626Q81.60105 328.54376 81.08543 328.1375Q80.58543 327.71564 79.60105 327.71564Q78.5698 327.71564 78.10105 328.09064Q77.6323 328.46564 77.6323 328.9969Q77.6323 329.46564 77.96043 329.7625Q78.28855 330.0594 79.66355 330.3719Q81.05418 330.6844 81.5698 330.91876Q82.3198 331.27814 82.67918 331.8094Q83.03855 332.325 83.03855 333.02814Q83.03855 333.71564 82.64793 334.325Q82.2573 334.91876 81.52293 335.2625Q80.78855 335.59064 79.86668 335.59064Q78.6948 335.59064 77.89793 335.2625Q77.11668 334.91876 76.66355 334.23126Q76.22605 333.54376 76.21043 332.6844ZM88.52293 333.16876L89.55418 333.3094Q89.3823 334.3719 88.67918 334.98126Q87.97605 335.59064 86.96043 335.59064Q85.67918 335.59064 84.89793 334.7625Q84.1323 333.91876 84.1323 332.35626Q84.1323 331.35626 84.46043 330.60626Q84.80418 329.84064 85.47605 329.46564Q86.16355 329.09064 86.97605 329.09064Q87.97605 329.09064 88.61668 329.60626Q89.27293 330.10626 89.46043 331.0594L88.42918 331.21564Q88.28855 330.59064 87.91355 330.27814Q87.53855 329.95 87.0073 329.95Q86.21043 329.95 85.71043 330.52814Q85.21043 331.09064 85.21043 332.325Q85.21043 333.59064 85.6948 334.15314Q86.17918 334.71564 86.9448 334.71564Q87.5698 334.71564 87.97605 334.34064Q88.39793 333.96564 88.52293 333.16876ZM90.46043 335.45L90.46043 326.85626L91.5073 326.85626L91.5073 329.9344Q92.24168 329.09064 93.36668 329.09064Q94.0698 329.09064 94.5698 329.3719Q95.08543 329.6375 95.30418 330.1219Q95.52293 330.59064 95.52293 331.5125L95.52293 335.45L94.47605 335.45L94.47605 331.5125Q94.47605 330.71564 94.1323 330.35626Q93.78855 329.9969 93.16355 329.9969Q92.6948 329.9969 92.27293 330.2469Q91.86668 330.48126 91.67918 330.90314Q91.5073 331.3094 91.5073 332.04376L91.5073 335.45L90.46043 335.45ZM97.0698 332.34064Q97.0698 330.60626 98.02293 329.77814Q98.8198 329.09064 99.97605 329.09064Q101.2573 329.09064 102.0698 329.9344Q102.89793 330.7625 102.89793 332.2469Q102.89793 333.45 102.53855 334.1375Q102.17918 334.825 101.47605 335.21564Q100.78855 335.59064 99.97605 335.59064Q98.67918 335.59064 97.86668 334.7625Q97.0698 333.91876 97.0698 332.34064ZM98.14793 332.34064Q98.14793 333.52814 98.66355 334.1219Q99.1948 334.71564 99.97605 334.71564Q100.77293 334.71564 101.28855 334.1219Q101.80418 333.52814 101.80418 332.3094Q101.80418 331.15314 101.27293 330.5594Q100.7573 329.96564 99.97605 329.96564Q99.1948 329.96564 98.66355 330.5594Q98.14793 331.1375 98.14793 332.34064ZM104.0698 332.34064Q104.0698 330.60626 105.02293 329.77814Q105.8198 329.09064 106.97605 329.09064Q108.2573 329.09064 109.0698 329.9344Q109.89793 330.7625 109.89793 332.2469Q109.89793 333.45 109.53855 334.1375Q109.17918 334.825 108.47605 335.21564Q107.78855 335.59064 106.97605 335.59064Q105.67918 335.59064 104.86668 334.7625Q104.0698 333.91876 104.0698 332.34064ZM105.14793 332.34064Q105.14793 333.52814 105.66355 334.1219Q106.1948 334.71564 106.97605 334.71564Q107.77293 334.71564 108.28855 334.1219Q108.80418 333.52814 108.80418 332.3094Q108.80418 331.15314 108.27293 330.5594Q107.7573 329.96564 106.97605 329.96564Q106.1948 329.96564 105.66355 330.5594Q105.14793 331.1375 105.14793 332.34064ZM111.42918 335.45L111.42918 326.85626L112.49168 326.85626L112.49168 335.45L111.42918 335.45ZM116.66355 335.59064L119.14793 326.71564L119.99168 326.71564L117.5073 335.59064L116.66355 335.59064ZM125.08543 335.45L122.80418 326.85626L123.97605 326.85626L125.28855 332.4969Q125.49168 333.3719 125.64793 334.2469Q125.97605 332.8719 126.03855 332.65314L127.66355 326.85626L129.03854 326.85626L130.27292 331.2Q130.72604 332.825 130.9448 334.2469Q131.10104 333.4344 131.36667 332.3719L132.71042 326.85626L133.85104 326.85626L131.5073 335.45L130.39792 335.45L128.60104 328.90314Q128.36667 328.09064 128.3198 327.90314Q128.1948 328.48126 128.0698 328.90314L126.2573 335.45L125.08543 335.45ZM134.0698 332.34064Q134.0698 330.60626 135.02292 329.77814Q135.8198 329.09064 136.97604 329.09064Q138.2573 329.09064 139.0698 329.9344Q139.89792 330.7625 139.89792 332.2469Q139.89792 333.45 139.53854 334.1375Q139.17917 334.825 138.47604 335.21564Q137.78854 335.59064 136.97604 335.59064Q135.67917 335.59064 134.86667 334.7625Q134.0698 333.91876 134.0698 332.34064ZM135.14792 332.34064Q135.14792 333.52814 135.66354 334.1219Q136.1948 334.71564 136.97604 334.71564Q137.77292 334.71564 138.28854 334.1219Q138.80417 333.52814 138.80417 332.3094Q138.80417 331.15314 138.27292 330.5594Q137.7573 329.96564 136.97604 329.96564Q136.1948 329.96564 135.66354 330.5594Q135.14792 331.1375 135.14792 332.34064ZM141.4448 335.45L141.4448 329.23126L142.39792 329.23126L142.39792 330.16876Q142.7573 329.5125 143.05417 329.3094Q143.36667 329.09064 143.74167 329.09064Q144.27292 329.09064 144.8198 329.41876L144.46042 330.40314Q144.0698 330.16876 143.6948 330.16876Q143.33542 330.16876 143.05417 330.3875Q142.78854 330.59064 142.67917 330.96564Q142.49167 331.52814 142.49167 332.1844L142.49167 335.45L141.4448 335.45ZM145.46042 335.45L145.46042 326.85626L146.52292 326.85626L146.52292 331.7625L149.0073 329.23126L150.3823 329.23126L147.99167 331.52814L150.61667 335.45L149.3198 335.45L147.2573 332.2625L146.52292 332.98126L146.52292 335.45L145.46042 335.45Z" fill-rule="nonzero"/><path fill="#000000" d="M178.37865 332.6844L179.44115 332.59064Q179.51927 333.2469 179.80052 333.65314Q180.08177 334.0594 180.6599 334.325Q181.25365 334.575 181.98802 334.575Q182.62865 334.575 183.12865 334.3875Q183.62865 334.1844 183.86302 333.85626Q184.11302 333.5125 184.11302 333.1219Q184.11302 332.71564 183.87865 332.41876Q183.64427 332.10626 183.11302 331.90314Q182.75365 331.7625 181.56615 331.48126Q180.39427 331.2 179.92552 330.95Q179.30052 330.6219 179.00365 330.15314Q178.70677 329.66876 178.70677 329.075Q178.70677 328.4344 179.06615 327.8719Q179.44115 327.29376 180.14427 327.0125Q180.86302 326.71564 181.7224 326.71564Q182.67552 326.71564 183.4099 327.02814Q184.14427 327.325 184.5349 327.9344Q184.92552 328.52814 184.95677 329.27814L183.86302 329.35626Q183.76927 328.54376 183.25365 328.1375Q182.75365 327.71564 181.76927 327.71564Q180.73802 327.71564 180.26927 328.09064Q179.80052 328.46564 179.80052 328.9969Q179.80052 329.46564 180.12865 329.7625Q180.45677 330.0594 181.83177 330.3719Q183.2224 330.6844 183.73802 330.91876Q184.48802 331.27814 184.8474 331.8094Q185.20677 332.325 185.20677 333.02814Q185.20677 333.71564 184.81615 334.325Q184.42552 334.91876 183.69115 335.2625Q182.95677 335.59064 182.0349 335.59064Q180.86302 335.59064 180.06615 335.2625Q179.2849 334.91876 178.83177 334.23126Q178.39427 333.54376 178.37865 332.6844ZM186.23802 332.34064Q186.23802 330.60626 187.19115 329.77814Q187.98802 329.09064 189.14427 329.09064Q190.42552 329.09064 191.23802 329.9344Q192.06615 330.7625 192.06615 332.2469Q192.06615 333.45 191.70677 334.1375Q191.3474 334.825 190.64427 335.21564Q189.95677 335.59064 189.14427 335.59064Q187.8474 335.59064 187.0349 334.7625Q186.23802 333.91876 186.23802 332.34064ZM187.31615 332.34064Q187.31615 333.52814 187.83177 334.1219Q188.36302 334.71564 189.14427 334.71564Q189.94115 334.71564 190.45677 334.1219Q190.9724 333.52814 190.9724 332.3094Q190.9724 331.15314 190.44115 330.5594Q189.92552 329.96564 189.14427 329.96564Q188.36302 329.96564 187.83177 330.5594Q187.31615 331.1375 187.31615 332.34064ZM197.69115 333.16876L198.7224 333.3094Q198.55052 334.3719 197.8474 334.98126Q197.14427 335.59064 196.12865 335.59064Q194.8474 335.59064 194.06615 334.7625Q193.30052 333.91876 193.30052 332.35626Q193.30052 331.35626 193.62865 330.60626Q193.9724 329.84064 194.64427 329.46564Q195.33177 329.09064 196.14427 329.09064Q197.14427 329.09064 197.7849 329.60626Q198.44115 330.10626 198.62865 331.0594L197.5974 331.21564Q197.45677 330.59064 197.08177 330.27814Q196.70677 329.95 196.17552 329.95Q195.37865 329.95 194.87865 330.52814Q194.37865 331.09064 194.37865 332.325Q194.37865 333.59064 194.86302 334.15314Q195.3474 334.71564 196.11302 334.71564Q196.73802 334.71564 197.14427 334.34064Q197.56615 333.96564 197.69115 333.16876ZM199.62865 328.075L199.62865 326.85626L200.69115 326.85626L200.69115 328.075L199.62865 328.075ZM199.62865 335.45L199.62865 329.23126L200.69115 329.23126L200.69115 335.45L199.62865 335.45ZM206.69115 334.6844Q206.0974 335.1844 205.55052 335.3875Q205.01927 335.59064 204.39427 335.59064Q203.36302 335.59064 202.81615 335.09064Q202.26927 334.59064 202.26927 333.8094Q202.26927 333.35626 202.4724 332.98126Q202.67552 332.59064 203.01927 332.3719Q203.36302 332.1375 203.7849 332.02814Q204.08177 331.9344 204.7224 331.85626Q205.98802 331.71564 206.5974 331.4969Q206.5974 331.27814 206.5974 331.23126Q206.5974 330.575 206.30052 330.3094Q205.89427 329.96564 205.0974 329.96564Q204.36302 329.96564 204.00365 330.23126Q203.64427 330.48126 203.4724 331.1375L202.44115 330.9969Q202.58177 330.34064 202.9099 329.9344Q203.23802 329.52814 203.8474 329.3094Q204.45677 329.09064 205.25365 329.09064Q206.05052 329.09064 206.55052 329.27814Q207.05052 329.46564 207.2849 329.7469Q207.51927 330.02814 207.61302 330.46564Q207.6599 330.73126 207.6599 331.4344L207.6599 332.84064Q207.6599 334.3094 207.7224 334.7Q207.80052 335.09064 208.00365 335.45L206.89427 335.45Q206.73802 335.1219 206.69115 334.6844ZM206.5974 332.325Q206.01927 332.5594 204.87865 332.73126Q204.2224 332.825 203.95677 332.95Q203.69115 333.0594 203.5349 333.27814Q203.39427 333.4969 203.39427 333.77814Q203.39427 334.2 203.70677 334.48126Q204.0349 334.7625 204.64427 334.7625Q205.25365 334.7625 205.7224 334.4969Q206.20677 334.23126 206.42552 333.7625Q206.5974 333.40314 206.5974 332.71564L206.5974 332.325ZM209.5974 335.45L209.5974 326.85626L210.6599 326.85626L210.6599 335.45L209.5974 335.45ZM215.7224 335.45L215.7224 326.85626L217.44115 326.85626L219.4724 332.9344Q219.75365 333.79376 219.87865 334.21564Q220.01927 333.7469 220.33177 332.84064L222.39427 326.85626L223.92552 326.85626L223.92552 335.45L222.83177 335.45L222.83177 328.2625L220.33177 335.45L219.30052 335.45L216.81615 328.1375L216.81615 335.45L215.7224 335.45ZM229.87865 333.45L230.9724 333.575Q230.7224 334.52814 230.01927 335.0594Q229.31615 335.59064 228.23802 335.59064Q226.87865 335.59064 226.06615 334.7469Q225.26927 333.90314 225.26927 332.3875Q225.26927 330.825 226.08177 329.96564Q226.89427 329.09064 228.17552 329.09064Q229.42552 329.09064 230.20677 329.9344Q231.00365 330.77814 231.00365 332.325Q231.00365 332.41876 231.00365 332.60626L226.36302 332.60626Q226.42552 333.6375 226.94115 334.1844Q227.45677 334.71564 228.23802 334.71564Q228.81615 334.71564 229.2224 334.41876Q229.64427 334.10626 229.87865 333.45ZM226.42552 331.7469L229.89427 331.7469Q229.83177 330.95 229.50365 330.5594Q228.98802 329.95 228.19115 329.95Q227.45677 329.95 226.95677 330.4344Q226.4724 330.91876 226.42552 331.7469ZM236.6599 335.45L236.6599 334.66876Q236.06615 335.59064 234.92552 335.59064Q234.17552 335.59064 233.55052 335.1844Q232.92552 334.7625 232.58177 334.02814Q232.23802 333.29376 232.23802 332.34064Q232.23802 331.41876 232.55052 330.65314Q232.86302 329.8875 233.48802 329.4969Q234.11302 329.09064 234.87865 329.09064Q235.44115 329.09064 235.87865 329.325Q236.31615 329.5594 236.5974 329.9344L236.5974 326.85626L237.64427 326.85626L237.64427 335.45L236.6599 335.45ZM233.33177 332.34064Q233.33177 333.54376 233.83177 334.1375Q234.33177 334.71564 235.01927 334.71564Q235.70677 334.71564 236.19115 334.15314Q236.67552 333.59064 236.67552 332.4344Q236.67552 331.15314 236.17552 330.5594Q235.69115 329.96564 234.9724 329.96564Q234.26927 329.96564 233.80052 330.54376Q233.33177 331.10626 233.33177 332.34064ZM239.62865 328.075L239.62865 326.85626L240.69115 326.85626L240.69115 328.075L239.62865 328.075ZM239.62865 335.45L239.62865 329.23126L240.69115 329.23126L240.69115 335.45L239.62865 335.45ZM246.69115 334.6844Q246.0974 335.1844 245.55052 335.3875Q245.01927 335.59064 244.39427 335.59064Q243.36302 335.59064 242.81615 335.09064Q242.26927 334.59064 242.26927 333.8094Q242.26927 333.35626 242.4724 332.98126Q242.67552 332.59064 243.01927 332.3719Q243.36302 332.1375 243.7849 332.02814Q244.08177 331.9344 244.7224 331.85626Q245.98802 331.71564 246.5974 331.4969Q246.5974 331.27814 246.5974 331.23126Q246.5974 330.575 246.30052 330.3094Q245.89427 329.96564 245.0974 329.96564Q244.36302 329.96564 244.00365 330.23126Q243.64427 330.48126 243.4724 331.1375L242.44115 330.9969Q242.58177 330.34064 242.9099 329.9344Q243.23802 329.52814 243.8474 329.3094Q244.45677 329.09064 245.25365 329.09064Q246.05052 329.09064 246.55052 329.27814Q247.05052 329.46564 247.2849 329.7469Q247.51927 330.02814 247.61302 330.46564Q247.6599 330.73126 247.6599 331.4344L247.6599 332.84064Q247.6599 334.3094 247.7224 334.7Q247.80052 335.09064 248.00365 335.45L246.89427 335.45Q246.73802 335.1219 246.69115 334.6844ZM246.5974 332.325Q246.01927 332.5594 244.87865 332.73126Q244.2224 332.825 243.95677 332.95Q243.69115 333.0594 243.5349 333.27814Q243.39427 333.4969 243.39427 333.77814Q243.39427 334.2 243.70677 334.48126Q244.0349 334.7625 244.64427 334.7625Q245.25365 334.7625 245.7224 334.4969Q246.20677 334.23126 246.42552 333.7625Q246.5974 333.40314 246.5974 332.71564L246.5974 332.325Z" fill-rule="nonzero"/><path fill="#000000" d="M280.875 335.45L277.54688 326.85626L278.78125 326.85626L281.01562 333.10626Q281.28125 333.85626 281.46875 334.5125Q281.67188 333.8094 281.9375 333.10626L284.25 326.85626L285.40625 326.85626L282.04688 335.45L280.875 335.45ZM286.29688 328.075L286.29688 326.85626L287.35938 326.85626L287.35938 328.075L286.29688 328.075ZM286.29688 335.45L286.29688 329.23126L287.35938 329.23126L287.35938 335.45L286.29688 335.45ZM293.32812 335.45L293.32812 334.66876Q292.73438 335.59064 291.59375 335.59064Q290.84375 335.59064 290.21875 335.1844Q289.59375 334.7625 289.25 334.02814Q288.90625 333.29376 288.90625 332.34064Q288.90625 331.41876 289.21875 330.65314Q289.53125 329.8875 290.15625 329.4969Q290.78125 329.09064 291.54688 329.09064Q292.10938 329.09064 292.54688 329.325Q292.98438 329.5594 293.26562 329.9344L293.26562 326.85626L294.3125 326.85626L294.3125 335.45L293.32812 335.45ZM290.0 332.34064Q290.0 333.54376 290.5 334.1375Q291.0 334.71564 291.6875 334.71564Q292.375 334.71564 292.85938 334.15314Q293.34375 333.59064 293.34375 332.4344Q293.34375 331.15314 292.84375 330.5594Q292.35938 329.96564 291.64062 329.96564Q290.9375 329.96564 290.46875 330.54376Q290.0 331.10626 290.0 332.34064ZM300.54688 333.45L301.64062 333.575Q301.39062 334.52814 300.6875 335.0594Q299.98438 335.59064 298.90625 335.59064Q297.54688 335.59064 296.73438 334.7469Q295.9375 333.90314 295.9375 332.3875Q295.9375 330.825 296.75 329.96564Q297.5625 329.09064 298.84375 329.09064Q300.09375 329.09064 300.875 329.9344Q301.67188 330.77814 301.67188 332.325Q301.67188 332.41876 301.67188 332.60626L297.03125 332.60626Q297.09375 333.6375 297.60938 334.1844Q298.125 334.71564 298.90625 334.71564Q299.48438 334.71564 299.89062 334.41876Q300.3125 334.10626 300.54688 333.45ZM297.09375 331.7469L300.5625 331.7469Q300.5 330.95 300.17188 330.5594Q299.65625 329.95 298.85938 329.95Q298.125 329.95 297.625 330.4344Q297.14062 330.91876 297.09375 331.7469ZM302.90625 332.34064Q302.90625 330.60626 303.85938 329.77814Q304.65625 329.09064 305.8125 329.09064Q307.09375 329.09064 307.90625 329.9344Q308.73438 330.7625 308.73438 332.2469Q308.73438 333.45 308.375 334.1375Q308.01562 334.825 307.3125 335.21564Q306.625 335.59064 305.8125 335.59064Q304.51562 335.59064 303.70312 334.7625Q302.90625 333.91876 302.90625 332.34064ZM303.98438 332.34064Q303.98438 333.52814 304.5 334.1219Q305.03125 334.71564 305.8125 334.71564Q306.60938 334.71564 307.125 334.1219Q307.64062 333.52814 307.64062 332.3094Q307.64062 331.15314 307.10938 330.5594Q306.59375 329.96564 305.8125 329.96564Q305.03125 329.96564 304.5 330.5594Q303.98438 331.1375 303.98438 332.34064ZM313.09375 335.96564L314.125 336.1219Q314.1875 336.59064 314.48438 336.8094Q314.875 337.10626 315.54688 337.10626Q316.28125 337.10626 316.67188 336.8094Q317.07812 336.5125 317.21875 335.9969Q317.3125 335.66876 317.29688 334.6375Q316.60938 335.45 315.57812 335.45Q314.29688 335.45 313.59375 334.52814Q312.89062 333.59064 312.89062 332.3094Q312.89062 331.41876 313.20312 330.66876Q313.53125 329.90314 314.14062 329.4969Q314.75 329.09064 315.57812 329.09064Q316.6875 329.09064 317.40625 329.98126L317.40625 329.23126L318.375 329.23126L318.375 334.60626Q318.375 336.0594 318.07812 336.66876Q317.78125 337.27814 317.14062 337.6219Q316.5 337.98126 315.5625 337.98126Q314.45312 337.98126 313.76562 337.48126Q313.07812 336.98126 313.09375 335.96564ZM313.96875 332.23126Q313.96875 333.45 314.45312 334.0125Q314.9375 334.575 315.67188 334.575Q316.40625 334.575 316.89062 334.0125Q317.39062 333.45 317.39062 332.2625Q317.39062 331.1219 316.875 330.54376Q316.375 329.96564 315.65625 329.96564Q314.95312 329.96564 314.45312 330.54376Q313.96875 331.10626 313.96875 332.23126ZM324.35938 334.6844Q323.76562 335.1844 323.21875 335.3875Q322.6875 335.59064 322.0625 335.59064Q321.03125 335.59064 320.48438 335.09064Q319.9375 334.59064 319.9375 333.8094Q319.9375 333.35626 320.14062 332.98126Q320.34375 332.59064 320.6875 332.3719Q321.03125 332.1375 321.45312 332.02814Q321.75 331.9344 322.39062 331.85626Q323.65625 331.71564 324.26562 331.4969Q324.26562 331.27814 324.26562 331.23126Q324.26562 330.575 323.96875 330.3094Q323.5625 329.96564 322.76562 329.96564Q322.03125 329.96564 321.67188 330.23126Q321.3125 330.48126 321.14062 331.1375L320.10938 330.9969Q320.25 330.34064 320.57812 329.9344Q320.90625 329.52814 321.51562 329.3094Q322.125 329.09064 322.92188 329.09064Q323.71875 329.09064 324.21875 329.27814Q324.71875 329.46564 324.95312 329.7469Q325.1875 330.02814 325.28125 330.46564Q325.32812 330.73126 325.32812 331.4344L325.32812 332.84064Q325.32812 334.3094 325.39062 334.7Q325.46875 335.09064 325.67188 335.45L324.5625 335.45Q324.40625 335.1219 324.35938 334.6844ZM324.26562 332.325Q323.6875 332.5594 322.54688 332.73126Q321.89062 332.825 321.625 332.95Q321.35938 333.0594 321.20312 333.27814Q321.0625 333.4969 321.0625 333.77814Q321.0625 334.2 321.375 334.48126Q321.70312 334.7625 322.3125 334.7625Q322.92188 334.7625 323.39062 334.4969Q323.875 334.23126 324.09375 333.7625Q324.26562 333.40314 324.26562 332.71564L324.26562 332.325ZM327.29688 335.45L327.29688 329.23126L328.23438 329.23126L328.23438 330.10626Q328.53125 329.6375 329.01562 329.3719Q329.5 329.09064 330.125 329.09064Q330.8125 329.09064 331.25 329.3719Q331.70312 329.65314 331.875 330.16876Q332.625 329.09064 333.79688 329.09064Q334.73438 329.09064 335.21875 329.60626Q335.71875 330.10626 335.71875 331.1844L335.71875 335.45L334.67188 335.45L334.67188 331.52814Q334.67188 330.90314 334.5625 330.6219Q334.46875 330.34064 334.20312 330.16876Q333.9375 329.9969 333.5625 329.9969Q332.90625 329.9969 332.46875 330.4344Q332.04688 330.8719 332.04688 331.84064L332.04688 335.45L330.98438 335.45L330.98438 331.40314Q330.98438 330.7 330.71875 330.35626Q330.46875 329.9969 329.89062 329.9969Q329.4375 329.9969 329.0625 330.23126Q328.6875 330.46564 328.51562 330.91876Q328.34375 331.3719 328.34375 332.21564L328.34375 335.45L327.29688 335.45ZM341.54688 333.45L342.64062 333.575Q342.39062 334.52814 341.6875 335.0594Q340.98438 335.59064 339.90625 335.59064Q338.54688 335.59064 337.73438 334.7469Q336.9375 333.90314 336.9375 332.3875Q336.9375 330.825 337.75 329.96564Q338.5625 329.09064 339.84375 329.09064Q341.09375 329.09064 341.875 329.9344Q342.67188 330.77814 342.67188 332.325Q342.67188 332.41876 342.67188 332.60626L338.03125 332.60626Q338.09375 333.6375 338.60938 334.1844Q339.125 334.71564 339.90625 334.71564Q340.48438 334.71564 340.89062 334.41876Q341.3125 334.10626 341.54688 333.45ZM338.09375 331.7469L341.5625 331.7469Q341.5 330.95 341.17188 330.5594Q340.65625 329.95 339.85938 329.95Q339.125 329.95 338.625 330.4344Q338.14062 330.91876 338.09375 331.7469ZM343.875 333.59064L344.90625 333.4344Q345.0 334.0594 345.39062 334.3875Q345.79688 334.71564 346.53125 334.71564Q347.25 334.71564 347.59375 334.4344Q347.95312 334.1375 347.95312 333.73126Q347.95312 333.3719 347.64062 333.16876Q347.42188 333.02814 346.5625 332.8094Q345.40625 332.5125 344.95312 332.3094Q344.51562 332.09064 344.28125 331.71564Q344.04688 331.34064 344.04688 330.8719Q344.04688 330.46564 344.23438 330.10626Q344.42188 329.7469 344.75 329.5125Q345.0 329.34064 345.42188 329.21564Q345.84375 329.09064 346.34375 329.09064Q347.0625 329.09064 347.60938 329.3094Q348.17188 329.5125 348.4375 329.8719Q348.70312 330.23126 348.79688 330.825L347.76562 330.96564Q347.70312 330.4969 347.35938 330.23126Q347.03125 329.95 346.40625 329.95Q345.6875 329.95 345.375 330.2Q345.0625 330.4344 345.0625 330.7625Q345.0625 330.96564 345.1875 331.1219Q345.32812 331.29376 345.59375 331.40314Q345.75 331.46564 346.53125 331.66876Q347.65625 331.98126 348.09375 332.16876Q348.53125 332.35626 348.78125 332.71564Q349.03125 333.075 349.03125 333.6219Q349.03125 334.15314 348.71875 334.6219Q348.42188 335.075 347.84375 335.34064Q347.26562 335.59064 346.53125 335.59064Q345.3125 335.59064 344.67188 335.09064Q344.04688 334.575 343.875 333.59064Z" fill-rule="nonzero"/><path fill="#000000" d="M367.7151 332.6844L368.7776 332.59064Q368.8557 333.2469 369.13696 333.65314Q369.4182 334.0594 369.99634 334.325Q370.5901 334.575 371.32446 334.575Q371.9651 334.575 372.4651 334.3875Q372.9651 334.1844 373.19946 333.85626Q373.44946 333.5125 373.44946 333.1219Q373.44946 332.71564 373.2151 332.41876Q372.9807 332.10626 372.44946 331.90314Q372.0901 331.7625 370.9026 331.48126Q369.7307 331.2 369.26196 330.95Q368.63696 330.6219 368.3401 330.15314Q368.0432 329.66876 368.0432 329.075Q368.0432 328.4344 368.4026 327.8719Q368.7776 327.29376 369.4807 327.0125Q370.19946 326.71564 371.05884 326.71564Q372.01196 326.71564 372.74634 327.02814Q373.4807 327.325 373.87134 327.9344Q374.26196 328.52814 374.2932 329.27814L373.19946 329.35626Q373.1057 328.54376 372.5901 328.1375Q372.0901 327.71564 371.1057 327.71564Q370.07446 327.71564 369.6057 328.09064Q369.13696 328.46564 369.13696 328.9969Q369.13696 329.46564 369.4651 329.7625Q369.7932 330.0594 371.1682 330.3719Q372.55884 330.6844 373.07446 330.91876Q373.82446 331.27814 374.18384 331.8094Q374.5432 332.325 374.5432 333.02814Q374.5432 333.71564 374.1526 334.325Q373.76196 334.91876 373.0276 335.2625Q372.2932 335.59064 371.37134 335.59064Q370.19946 335.59064 369.4026 335.2625Q368.62134 334.91876 368.1682 334.23126Q367.7307 333.54376 367.7151 332.6844ZM378.26196 334.5125L378.4182 335.4344Q377.9651 335.52814 377.62134 335.52814Q377.0432 335.52814 376.7307 335.35626Q376.4182 335.16876 376.2776 334.8719Q376.1526 334.575 376.1526 333.6219L376.1526 330.04376L375.38696 330.04376L375.38696 329.23126L376.1526 329.23126L376.1526 327.6844L377.19946 327.0594L377.19946 329.23126L378.26196 329.23126L378.26196 330.04376L377.19946 330.04376L377.19946 333.6844Q377.19946 334.1375 377.24634 334.2625Q377.30884 334.3875 377.43384 334.46564Q377.55884 334.54376 377.7932 334.54376Q377.9807 334.54376 378.26196 334.5125ZM378.94946 335.45L378.94946 329.23126L379.9026 329.23126L379.9026 330.16876Q380.26196 329.5125 380.55884 329.3094Q380.87134 329.09064 381.24634 329.09064Q381.7776 329.09064 382.32446 329.41876L381.9651 330.40314Q381.57446 330.16876 381.19946 330.16876Q380.8401 330.16876 380.55884 330.3875Q380.2932 330.59064 380.18384 330.96564Q379.99634 331.52814 379.99634 332.1844L379.99634 335.45L378.94946 335.45ZM387.2151 333.45L388.30884 333.575Q388.05884 334.52814 387.3557 335.0594Q386.6526 335.59064 385.57446 335.59064Q384.2151 335.59064 383.4026 334.7469Q382.6057 333.90314 382.6057 332.3875Q382.6057 330.825 383.4182 329.96564Q384.2307 329.09064 385.51196 329.09064Q386.76196 329.09064 387.5432 329.9344Q388.3401 330.77814 388.3401 332.325Q388.3401 332.41876 388.3401 332.60626L383.69946 332.60626Q383.76196 333.6375 384.2776 334.1844Q384.7932 334.71564 385.57446 334.71564Q386.1526 334.71564 386.55884 334.41876Q386.9807 334.10626 387.2151 333.45ZM383.76196 331.7469L387.2307 331.7469Q387.1682 330.95 386.8401 330.5594Q386.32446 329.95 385.5276 329.95Q384.7932 329.95 384.2932 330.4344Q383.80884 330.91876 383.76196 331.7469ZM394.0276 334.6844Q393.43384 335.1844 392.88696 335.3875Q392.3557 335.59064 391.7307 335.59064Q390.69946 335.59064 390.1526 335.09064Q389.6057 334.59064 389.6057 333.8094Q389.6057 333.35626 389.80884 332.98126Q390.01196 332.59064 390.3557 332.3719Q390.69946 332.1375 391.12134 332.02814Q391.4182 331.9344 392.05884 331.85626Q393.32446 331.71564 393.93384 331.4969Q393.93384 331.27814 393.93384 331.23126Q393.93384 330.575 393.63696 330.3094Q393.2307 329.96564 392.43384 329.96564Q391.69946 329.96564 391.3401 330.23126Q390.9807 330.48126 390.80884 331.1375L389.7776 330.9969Q389.9182 330.34064 390.24634 329.9344Q390.57446 329.52814 391.18384 329.3094Q391.7932 329.09064 392.5901 329.09064Q393.38696 329.09064 393.88696 329.27814Q394.38696 329.46564 394.62134 329.7469Q394.8557 330.02814 394.94946 330.46564Q394.99634 330.73126 394.99634 331.4344L394.99634 332.84064Q394.99634 334.3094 395.05884 334.7Q395.13696 335.09064 395.3401 335.45L394.2307 335.45Q394.07446 335.1219 394.0276 334.6844ZM393.93384 332.325Q393.3557 332.5594 392.2151 332.73126Q391.55884 332.825 391.2932 332.95Q391.0276 333.0594 390.87134 333.27814Q390.7307 333.4969 390.7307 333.77814Q390.7307 334.2 391.0432 334.48126Q391.37134 334.7625 391.9807 334.7625Q392.5901 334.7625 393.05884 334.4969Q393.5432 334.23126 393.76196 333.7625Q393.93384 333.40314 393.93384 332.71564L393.93384 332.325ZM396.9651 335.45L396.9651 329.23126L397.9026 329.23126L397.9026 330.10626Q398.19946 329.6375 398.68384 329.3719Q399.1682 329.09064 399.7932 329.09064Q400.4807 329.09064 400.9182 329.3719Q401.37134 329.65314 401.5432 330.16876Q402.2932 329.09064 403.4651 329.09064Q404.4026 329.09064 404.88696 329.60626Q405.38696 330.10626 405.38696 331.1844L405.38696 335.45L404.3401 335.45L404.3401 331.52814Q404.3401 330.90314 404.2307 330.6219Q404.13696 330.34064 403.87134 330.16876Q403.6057 329.9969 403.2307 329.9969Q402.57446 329.9969 402.13696 330.4344Q401.7151 330.8719 401.7151 331.84064L401.7151 335.45L400.6526 335.45L400.6526 331.40314Q400.6526 330.7 400.38696 330.35626Q400.13696 329.9969 399.55884 329.9969Q399.1057 329.9969 398.7307 330.23126Q398.3557 330.46564 398.18384 330.91876Q398.01196 331.3719 398.01196 332.21564L398.01196 335.45L396.9651 335.45ZM406.9651 328.075L406.9651 326.85626L408.0276 326.85626L408.0276 328.075L406.9651 328.075ZM406.9651 335.45L406.9651 329.23126L408.0276 329.23126L408.0276 335.45L406.9651 335.45ZM409.9651 335.45L409.9651 329.23126L410.9026 329.23126L410.9026 330.10626Q411.5901 329.09064 412.88696 329.09064Q413.44946 329.09064 413.9182 329.29376Q414.4026 329.4969 414.63696 329.825Q414.87134 330.15314 414.9651 330.59064Q415.01196 330.8875 415.01196 331.6219L415.01196 335.45L413.9651 335.45L413.9651 331.66876Q413.9651 331.0125 413.8401 330.7Q413.7151 330.3875 413.4026 330.2Q413.0901 329.9969 412.6682 329.9969Q411.99634 329.9969 411.49634 330.4344Q411.01196 330.85626 411.01196 332.04376L411.01196 335.45L409.9651 335.45ZM416.76196 335.96564L417.7932 336.1219Q417.8557 336.59064 418.1526 336.8094Q418.5432 337.10626 419.2151 337.10626Q419.94946 337.10626 420.3401 336.8094Q420.74634 336.5125 420.88696 335.9969Q420.9807 335.66876 420.9651 334.6375Q420.2776 335.45 419.24634 335.45Q417.9651 335.45 417.26196 334.52814Q416.55884 333.59064 416.55884 332.3094Q416.55884 331.41876 416.87134 330.66876Q417.19946 329.90314 417.80884 329.4969Q418.4182 329.09064 419.24634 329.09064Q420.3557 329.09064 421.07446 329.98126L421.07446 329.23126L422.0432 329.23126L422.0432 334.60626Q422.0432 336.0594 421.74634 336.66876Q421.44946 337.27814 420.80884 337.6219Q420.1682 337.98126 419.2307 337.98126Q418.12134 337.98126 417.43384 337.48126Q416.74634 336.98126 416.76196 335.96564ZM417.63696 332.23126Q417.63696 333.45 418.12134 334.0125Q418.6057 334.575 419.3401 334.575Q420.07446 334.575 420.55884 334.0125Q421.05884 333.45 421.05884 332.2625Q421.05884 331.1219 420.5432 330.54376Q420.0432 329.96564 419.32446 329.96564Q418.62134 329.96564 418.12134 330.54376Q417.63696 331.10626 417.63696 332.23126ZM426.9651 335.45L426.9651 329.23126L427.9026 329.23126L427.9026 330.10626Q428.19946 329.6375 428.68384 329.3719Q429.1682 329.09064 429.7932 329.09064Q430.4807 329.09064 430.9182 329.3719Q431.37134 329.65314 431.5432 330.16876Q432.2932 329.09064 433.4651 329.09064Q434.4026 329.09064 434.88696 329.60626Q435.38696 330.10626 435.38696 331.1844L435.38696 335.45L434.3401 335.45L434.3401 331.52814Q434.3401 330.90314 434.2307 330.6219Q434.13696 330.34064 433.87134 330.16876Q433.6057 329.9969 433.2307 329.9969Q432.57446 329.9969 432.13696 330.4344Q431.7151 330.8719 431.7151 331.84064L431.7151 335.45L430.6526 335.45L430.6526 331.40314Q430.6526 330.7 430.38696 330.35626Q430.13696 329.9969 429.55884 329.9969Q429.1057 329.9969 428.7307 330.23126Q428.3557 330.46564 428.18384 330.91876Q428.01196 331.3719 428.01196 332.21564L428.01196 335.45L426.9651 335.45ZM441.2151 333.45L442.30884 333.575Q442.05884 334.52814 441.3557 335.0594Q440.6526 335.59064 439.57446 335.59064Q438.2151 335.59064 437.4026 334.7469Q436.6057 333.90314 436.6057 332.3875Q436.6057 330.825 437.4182 329.96564Q438.2307 329.09064 439.51196 329.09064Q440.76196 329.09064 441.5432 329.9344Q442.3401 330.77814 442.3401 332.325Q442.3401 332.41876 442.3401 332.60626L437.69946 332.60626Q437.76196 333.6375 438.2776 334.1844Q438.7932 334.71564 439.57446 334.71564Q440.1526 334.71564 440.55884 334.41876Q440.9807 334.10626 441.2151 333.45ZM437.76196 331.7469L441.2307 331.7469Q441.1682 330.95 440.8401 330.5594Q440.32446 329.95 439.5276 329.95Q438.7932 329.95 438.2932 330.4344Q437.80884 330.91876 437.76196 331.7469ZM447.99634 335.45L447.99634 334.66876Q447.4026 335.59064 446.26196 335.59064Q445.51196 335.59064 444.88696 335.1844Q444.26196 334.7625 443.9182 334.02814Q443.57446 333.29376 443.57446 332.34064Q443.57446 331.41876 443.88696 330.65314Q444.19946 329.8875 444.82446 329.4969Q445.44946 329.09064 446.2151 329.09064Q446.7776 329.09064 447.2151 329.325Q447.6526 329.5594 447.93384 329.9344L447.93384 326.85626L448.9807 326.85626L448.9807 335.45L447.99634 335.45ZM444.6682 332.34064Q444.6682 333.54376 445.1682 334.1375Q445.6682 334.71564 446.3557 334.71564Q447.0432 334.71564 447.5276 334.15314Q448.01196 333.59064 448.01196 332.4344Q448.01196 331.15314 447.51196 330.5594Q447.0276 329.96564 446.30884 329.96564Q445.6057 329.96564 445.13696 330.54376Q444.6682 331.10626 444.6682 332.34064ZM450.9651 328.075L450.9651 326.85626L452.0276 326.85626L452.0276 328.075L450.9651 328.075ZM450.9651 335.45L450.9651 329.23126L452.0276 329.23126L452.0276 335.45L450.9651 335.45ZM458.0276 334.6844Q457.43384 335.1844 456.88696 335.3875Q456.3557 335.59064 455.7307 335.59064Q454.69946 335.59064 454.1526 335.09064Q453.6057 334.59064 453.6057 333.8094Q453.6057 333.35626 453.80884 332.98126Q454.01196 332.59064 454.3557 332.3719Q454.69946 332.1375 455.12134 332.02814Q455.4182 331.9344 456.05884 331.85626Q457.32446 331.71564 457.93384 331.4969Q457.93384 331.27814 457.93384 331.23126Q457.93384 330.575 457.63696 330.3094Q457.2307 329.96564 456.43384 329.96564Q455.69946 329.96564 455.3401 330.23126Q454.9807 330.48126 454.80884 331.1375L453.7776 330.9969Q453.9182 330.34064 454.24634 329.9344Q454.57446 329.52814 455.18384 329.3094Q455.7932 329.09064 456.5901 329.09064Q457.38696 329.09064 457.88696 329.27814Q458.38696 329.46564 458.62134 329.7469Q458.8557 330.02814 458.94946 330.46564Q458.99634 330.73126 458.99634 331.4344L458.99634 332.84064Q458.99634 334.3094 459.05884 334.7Q459.13696 335.09064 459.3401 335.45L458.2307 335.45Q458.07446 335.1219 458.0276 334.6844ZM457.93384 332.325Q457.3557 332.5594 456.2151 332.73126Q455.55884 332.825 455.2932 332.95Q455.0276 333.0594 454.87134 333.27814Q454.7307 333.4969 454.7307 333.77814Q454.7307 334.2 455.0432 334.48126Q455.37134 334.7625 455.9807 334.7625Q456.5901 334.7625 457.05884 334.4969Q457.5432 334.23126 457.76196 333.7625Q457.93384 333.40314 457.93384 332.71564L457.93384 332.325Z" fill-rule="nonzero"/><path fill="#000000" d="M388.9651 351.84064L388.9651 343.23126L389.9182 343.23126L389.9182 344.02814Q390.26196 343.5594 390.68384 343.325Q391.12134 343.09064 391.7307 343.09064Q392.5276 343.09064 393.13696 343.4969Q393.74634 343.90314 394.0432 344.65314Q394.3557 345.40314 394.3557 346.29376Q394.3557 347.2469 394.01196 348.0125Q393.68384 348.77814 393.0276 349.1844Q392.37134 349.59064 391.6526 349.59064Q391.12134 349.59064 390.69946 349.3719Q390.2776 349.1375 390.01196 348.8094L390.01196 351.84064L388.9651 351.84064ZM389.9182 346.3719Q389.9182 347.575 390.4026 348.15314Q390.88696 348.71564 391.57446 348.71564Q392.2776 348.71564 392.7776 348.1219Q393.2776 347.52814 393.2776 346.27814Q393.2776 345.09064 392.7932 344.5125Q392.30884 343.91876 391.62134 343.91876Q390.94946 343.91876 390.43384 344.54376Q389.9182 345.16876 389.9182 346.3719ZM395.94946 349.45L395.94946 343.23126L396.9026 343.23126L396.9026 344.16876Q397.26196 343.5125 397.55884 343.3094Q397.87134 343.09064 398.24634 343.09064Q398.7776 343.09064 399.32446 343.41876L398.9651 344.40314Q398.57446 344.16876 398.19946 344.16876Q397.8401 344.16876 397.55884 344.3875Q397.2932 344.59064 397.18384 344.96564Q396.99634 345.52814 396.99634 346.1844L396.99634 349.45L395.94946 349.45ZM399.57446 346.34064Q399.57446 344.60626 400.5276 343.77814Q401.32446 343.09064 402.4807 343.09064Q403.76196 343.09064 404.57446 343.9344Q405.4026 344.7625 405.4026 346.2469Q405.4026 347.45 405.0432 348.1375Q404.68384 348.825 403.9807 349.21564Q403.2932 349.59064 402.4807 349.59064Q401.18384 349.59064 400.37134 348.7625Q399.57446 347.91876 399.57446 346.34064ZM400.6526 346.34064Q400.6526 347.52814 401.1682 348.1219Q401.69946 348.71564 402.4807 348.71564Q403.2776 348.71564 403.7932 348.1219Q404.30884 347.52814 404.30884 346.3094Q404.30884 345.15314 403.7776 344.5594Q403.26196 343.96564 402.4807 343.96564Q401.69946 343.96564 401.1682 344.5594Q400.6526 345.1375 400.6526 346.34064ZM408.68384 349.45L406.32446 343.23126L407.43384 343.23126L408.7776 346.95Q408.9807 347.5594 409.1682 348.2Q409.30884 347.71564 409.55884 347.02814L410.94946 343.23126L412.0276 343.23126L409.6682 349.45L408.68384 349.45ZM412.9651 342.075L412.9651 340.85626L414.0276 340.85626L414.0276 342.075L412.9651 342.075ZM412.9651 349.45L412.9651 343.23126L414.0276 343.23126L414.0276 349.45L412.9651 349.45ZM419.99634 349.45L419.99634 348.66876Q419.4026 349.59064 418.26196 349.59064Q417.51196 349.59064 416.88696 349.1844Q416.26196 348.7625 415.9182 348.02814Q415.57446 347.29376 415.57446 346.34064Q415.57446 345.41876 415.88696 344.65314Q416.19946 343.8875 416.82446 343.4969Q417.44946 343.09064 418.2151 343.09064Q418.7776 343.09064 419.2151 343.325Q419.6526 343.5594 419.93384 343.9344L419.93384 340.85626L420.9807 340.85626L420.9807 349.45L419.99634 349.45ZM416.6682 346.34064Q416.6682 347.54376 417.1682 348.1375Q417.6682 348.71564 418.3557 348.71564Q419.0432 348.71564 419.5276 348.15314Q420.01196 347.59064 420.01196 346.4344Q420.01196 345.15314 419.51196 344.5594Q419.0276 343.96564 418.30884 343.96564Q417.6057 343.96564 417.13696 344.54376Q416.6682 345.10626 416.6682 346.34064ZM427.2151 347.45L428.30884 347.575Q428.05884 348.52814 427.3557 349.0594Q426.6526 349.59064 425.57446 349.59064Q424.2151 349.59064 423.4026 348.7469Q422.6057 347.90314 422.6057 346.3875Q422.6057 344.825 423.4182 343.96564Q424.2307 343.09064 425.51196 343.09064Q426.76196 343.09064 427.5432 343.9344Q428.3401 344.77814 428.3401 346.325Q428.3401 346.41876 428.3401 346.60626L423.69946 346.60626Q423.76196 347.6375 424.2776 348.1844Q424.7932 348.71564 425.57446 348.71564Q426.1526 348.71564 426.55884 348.41876Q426.9807 348.10626 427.2151 347.45ZM423.76196 345.7469L427.2307 345.7469Q427.1682 344.95 426.8401 344.5594Q426.32446 343.95 425.5276 343.95Q424.7932 343.95 424.2932 344.4344Q423.80884 344.91876 423.76196 345.7469ZM429.94946 349.45L429.94946 343.23126L430.9026 343.23126L430.9026 344.16876Q431.26196 343.5125 431.55884 343.3094Q431.87134 343.09064 432.24634 343.09064Q432.7776 343.09064 433.32446 343.41876L432.9651 344.40314Q432.57446 344.16876 432.19946 344.16876Q431.8401 344.16876 431.55884 344.3875Q431.2932 344.59064 431.18384 344.96564Q430.99634 345.52814 430.99634 346.1844L430.99634 349.45L429.94946 349.45ZM433.5432 347.59064L434.57446 347.4344Q434.6682 348.0594 435.05884 348.3875Q435.4651 348.71564 436.19946 348.71564Q436.9182 348.71564 437.26196 348.4344Q437.62134 348.1375 437.62134 347.73126Q437.62134 347.3719 437.30884 347.16876Q437.0901 347.02814 436.2307 346.8094Q435.07446 346.5125 434.62134 346.3094Q434.18384 346.09064 433.94946 345.71564Q433.7151 345.34064 433.7151 344.8719Q433.7151 344.46564 433.9026 344.10626Q434.0901 343.7469 434.4182 343.5125Q434.6682 343.34064 435.0901 343.21564Q435.51196 343.09064 436.01196 343.09064Q436.7307 343.09064 437.2776 343.3094Q437.8401 343.5125 438.1057 343.8719Q438.37134 344.23126 438.4651 344.825L437.43384 344.96564Q437.37134 344.4969 437.0276 344.23126Q436.69946 343.95 436.07446 343.95Q435.3557 343.95 435.0432 344.2Q434.7307 344.4344 434.7307 344.7625Q434.7307 344.96564 434.8557 345.1219Q434.99634 345.29376 435.26196 345.40314Q435.4182 345.46564 436.19946 345.66876Q437.32446 345.98126 437.76196 346.16876Q438.19946 346.35626 438.44946 346.71564Q438.69946 347.075 438.69946 347.6219Q438.69946 348.15314 438.38696 348.6219Q438.0901 349.075 437.51196 349.34064Q436.93384 349.59064 436.19946 349.59064Q434.9807 349.59064 434.3401 349.09064Q433.7151 348.575 433.5432 347.59064Z" fill-rule="nonzero"/><path fill="#000000" d="M490.25833 335.45L490.25833 326.85626L493.50833 326.85626Q494.35208 326.85626 494.8052 326.9344Q495.44583 327.04376 495.8677 327.34064Q496.3052 327.6375 496.5552 328.16876Q496.82083 328.7 496.82083 329.34064Q496.82083 330.4344 496.1177 331.2Q495.4302 331.95 493.60208 331.95L491.39896 331.95L491.39896 335.45L490.25833 335.45ZM491.39896 330.95L493.6177 330.95Q494.72708 330.95 495.1802 330.54376Q495.64896 330.1219 495.64896 329.3719Q495.64896 328.84064 495.3677 328.46564Q495.10208 328.075 494.66458 327.95Q494.3677 327.8719 493.60208 327.8719L491.39896 327.8719L491.39896 330.95ZM502.38333 333.45L503.47708 333.575Q503.22708 334.52814 502.52396 335.0594Q501.82083 335.59064 500.7427 335.59064Q499.38333 335.59064 498.57083 334.7469Q497.77396 333.90314 497.77396 332.3875Q497.77396 330.825 498.58646 329.96564Q499.39896 329.09064 500.6802 329.09064Q501.9302 329.09064 502.71146 329.9344Q503.50833 330.77814 503.50833 332.325Q503.50833 332.41876 503.50833 332.60626L498.8677 332.60626Q498.9302 333.6375 499.44583 334.1844Q499.96146 334.71564 500.7427 334.71564Q501.32083 334.71564 501.72708 334.41876Q502.14896 334.10626 502.38333 333.45ZM498.9302 331.7469L502.39896 331.7469Q502.33646 330.95 502.00833 330.5594Q501.4927 329.95 500.69583 329.95Q499.96146 329.95 499.46146 330.4344Q498.97708 330.91876 498.9302 331.7469ZM505.1177 335.45L505.1177 329.23126L506.07083 329.23126L506.07083 330.16876Q506.4302 329.5125 506.72708 329.3094Q507.03958 329.09064 507.41458 329.09064Q507.94583 329.09064 508.4927 329.41876L508.13333 330.40314Q507.7427 330.16876 507.3677 330.16876Q507.00833 330.16876 506.72708 330.3875Q506.46146 330.59064 506.35208 330.96564Q506.16458 331.52814 506.16458 332.1844L506.16458 335.45L505.1177 335.45ZM508.71146 333.59064L509.7427 333.4344Q509.83646 334.0594 510.22708 334.3875Q510.63333 334.71564 511.3677 334.71564Q512.0864 334.71564 512.4302 334.4344Q512.78955 334.1375 512.78955 333.73126Q512.78955 333.3719 512.47705 333.16876Q512.2583 333.02814 511.39896 332.8094Q510.2427 332.5125 509.78958 332.3094Q509.35208 332.09064 509.1177 331.71564Q508.88333 331.34064 508.88333 330.8719Q508.88333 330.46564 509.07083 330.10626Q509.25833 329.7469 509.58646 329.5125Q509.83646 329.34064 510.25833 329.21564Q510.6802 329.09064 511.1802 329.09064Q511.89896 329.09064 512.4458 329.3094Q513.0083 329.5125 513.2739 329.8719Q513.53955 330.23126 513.6333 330.825L512.60205 330.96564Q512.53955 330.4969 512.1958 330.23126Q511.8677 329.95 511.2427 329.95Q510.52396 329.95 510.21146 330.2Q509.89896 330.4344 509.89896 330.7625Q509.89896 330.96564 510.02396 331.1219Q510.16458 331.29376 510.4302 331.40314Q510.58646 331.46564 511.3677 331.66876Q512.4927 331.98126 512.9302 332.16876Q513.3677 332.35626 513.6177 332.71564Q513.8677 333.075 513.8677 333.6219Q513.8677 334.15314 513.5552 334.6219Q513.2583 335.075 512.6802 335.34064Q512.10205 335.59064 511.3677 335.59064Q510.14896 335.59064 509.50833 335.09064Q508.88333 334.575 508.71146 333.59064ZM514.7427 332.34064Q514.7427 330.60626 515.6958 329.77814Q516.4927 329.09064 517.6489 329.09064Q518.9302 329.09064 519.7427 329.9344Q520.5708 330.7625 520.5708 332.2469Q520.5708 333.45 520.2114 334.1375Q519.85205 334.825 519.1489 335.21564Q518.4614 335.59064 517.6489 335.59064Q516.35205 335.59064 515.53955 334.7625Q514.7427 333.91876 514.7427 332.34064ZM515.8208 332.34064Q515.8208 333.52814 516.3364 334.1219Q516.8677 334.71564 517.6489 334.71564Q518.4458 334.71564 518.9614 334.1219Q519.47705 333.52814 519.47705 332.3094Q519.47705 331.15314 518.9458 330.5594Q518.4302 329.96564 517.6489 329.96564Q516.8677 329.96564 516.3364 330.5594Q515.8208 331.1375 515.8208 332.34064ZM522.1333 335.45L522.1333 329.23126L523.0708 329.23126L523.0708 330.10626Q523.7583 329.09064 525.0552 329.09064Q525.6177 329.09064 526.0864 329.29376Q526.5708 329.4969 526.8052 329.825Q527.03955 330.15314 527.1333 330.59064Q527.1802 330.8875 527.1802 331.6219L527.1802 335.45L526.1333 335.45L526.1333 331.66876Q526.1333 331.0125 526.0083 330.7Q525.8833 330.3875 525.5708 330.2Q525.2583 329.9969 524.8364 329.9969Q524.16455 329.9969 523.66455 330.4344Q523.1802 330.85626 523.1802 332.04376L523.1802 335.45L522.1333 335.45ZM533.1958 334.6844Q532.60205 335.1844 532.0552 335.3875Q531.5239 335.59064 530.8989 335.59064Q529.8677 335.59064 529.3208 335.09064Q528.7739 334.59064 528.7739 333.8094Q528.7739 333.35626 528.97705 332.98126Q529.1802 332.59064 529.5239 332.3719Q529.8677 332.1375 530.28955 332.02814Q530.5864 331.9344 531.22705 331.85626Q532.4927 331.71564 533.10205 331.4969Q533.10205 331.27814 533.10205 331.23126Q533.10205 330.575 532.8052 330.3094Q532.3989 329.96564 531.60205 329.96564Q530.8677 329.96564 530.5083 330.23126Q530.1489 330.48126 529.97705 331.1375L528.9458 330.9969Q529.0864 330.34064 529.41455 329.9344Q529.7427 329.52814 530.35205 329.3094Q530.9614 329.09064 531.7583 329.09064Q532.5552 329.09064 533.0552 329.27814Q533.5552 329.46564 533.78955 329.7469Q534.0239 330.02814 534.1177 330.46564Q534.16455 330.73126 534.16455 331.4344L534.16455 332.84064Q534.16455 334.3094 534.22705 334.7Q534.3052 335.09064 534.5083 335.45L533.3989 335.45Q533.2427 335.1219 533.1958 334.6844ZM533.10205 332.325Q532.5239 332.5594 531.3833 332.73126Q530.72705 332.825 530.4614 332.95Q530.1958 333.0594 530.03955 333.27814Q529.8989 333.4969 529.8989 333.77814Q529.8989 334.2 530.2114 334.48126Q530.53955 334.7625 531.1489 334.7625Q531.7583 334.7625 532.22705 334.4969Q532.7114 334.23126 532.9302 333.7625Q533.10205 333.40314 533.10205 332.71564L533.10205 332.325ZM536.10205 335.45L536.10205 326.85626L537.16455 326.85626L537.16455 335.45L536.10205 335.45Z" fill-rule="nonzero"/><path fill="#000000" d="M492.63333 349.45L492.63333 340.85626L493.6802 340.85626L493.6802 343.9344Q494.41458 343.09064 495.53958 343.09064Q496.2427 343.09064 496.7427 343.3719Q497.25833 343.6375 497.47708 344.1219Q497.69583 344.59064 497.69583 345.5125L497.69583 349.45L496.64896 349.45L496.64896 345.5125Q496.64896 344.71564 496.3052 344.35626Q495.96146 343.9969 495.33646 343.9969Q494.8677 343.9969 494.44583 344.2469Q494.03958 344.48126 493.85208 344.90314Q493.6802 345.3094 493.6802 346.04376L493.6802 349.45L492.63333 349.45ZM499.2427 346.34064Q499.2427 344.60626 500.19583 343.77814Q500.9927 343.09064 502.14896 343.09064Q503.4302 343.09064 504.2427 343.9344Q505.07083 344.7625 505.07083 346.2469Q505.07083 347.45 504.71146 348.1375Q504.35208 348.825 503.64896 349.21564Q502.96146 349.59064 502.14896 349.59064Q500.85208 349.59064 500.03958 348.7625Q499.2427 347.91876 499.2427 346.34064ZM500.32083 346.34064Q500.32083 347.52814 500.83646 348.1219Q501.3677 348.71564 502.14896 348.71564Q502.94583 348.71564 503.46146 348.1219Q503.97708 347.52814 503.97708 346.3094Q503.97708 345.15314 503.44583 344.5594Q502.9302 343.96564 502.14896 343.96564Q501.3677 343.96564 500.83646 344.5594Q500.32083 345.1375 500.32083 346.34064ZM507.60208 349.45L506.6177 349.45L506.6177 340.85626L507.6802 340.85626L507.6802 343.91876Q508.35208 343.09064 509.38333 343.09064Q509.96146 343.09064 510.46146 343.325Q510.97708 343.54376 511.3052 343.96564Q511.64896 344.3875 511.83646 344.98126Q512.0239 345.575 512.0239 346.2469Q512.0239 347.84064 511.22708 348.71564Q510.4302 349.59064 509.33646 349.59064Q508.22708 349.59064 507.60208 348.66876L507.60208 349.45ZM507.58646 346.29376Q507.58646 347.40314 507.89896 347.90314Q508.39896 348.71564 509.2427 348.71564Q509.9302 348.71564 510.4302 348.1219Q510.94583 347.52814 510.94583 346.325Q510.94583 345.10626 510.46146 344.52814Q509.97708 343.95 509.28958 343.95Q508.60208 343.95 508.08646 344.5594Q507.58646 345.15314 507.58646 346.29376ZM514.60205 349.45L513.6177 349.45L513.6177 340.85626L514.6802 340.85626L514.6802 343.91876Q515.35205 343.09064 516.3833 343.09064Q516.9614 343.09064 517.4614 343.325Q517.97705 343.54376 518.3052 343.96564Q518.6489 344.3875 518.8364 344.98126Q519.0239 345.575 519.0239 346.2469Q519.0239 347.84064 518.22705 348.71564Q517.4302 349.59064 516.3364 349.59064Q515.22705 349.59064 514.60205 348.66876L514.60205 349.45ZM514.5864 346.29376Q514.5864 347.40314 514.8989 347.90314Q515.3989 348.71564 516.2427 348.71564Q516.9302 348.71564 517.4302 348.1219Q517.9458 347.52814 517.9458 346.325Q517.9458 345.10626 517.4614 344.52814Q516.97705 343.95 516.28955 343.95Q515.60205 343.95 515.0864 344.5594Q514.5864 345.15314 514.5864 346.29376ZM520.6333 342.075L520.6333 340.85626L521.6958 340.85626L521.6958 342.075L520.6333 342.075ZM520.6333 349.45L520.6333 343.23126L521.6958 343.23126L521.6958 349.45L520.6333 349.45ZM527.8833 347.45L528.97705 347.575Q528.72705 348.52814 528.0239 349.0594Q527.3208 349.59064 526.2427 349.59064Q524.8833 349.59064 524.0708 348.7469Q523.2739 347.90314 523.2739 346.3875Q523.2739 344.825 524.0864 343.96564Q524.8989 343.09064 526.1802 343.09064Q527.4302 343.09064 528.2114 343.9344Q529.0083 344.77814 529.0083 346.325Q529.0083 346.41876 529.0083 346.60626L524.3677 346.60626Q524.4302 347.6375 524.9458 348.1844Q525.4614 348.71564 526.2427 348.71564Q526.8208 348.71564 527.22705 348.41876Q527.6489 348.10626 527.8833 347.45ZM524.4302 345.7469L527.8989 345.7469Q527.8364 344.95 527.5083 344.5594Q526.9927 343.95 526.1958 343.95Q525.4614 343.95 524.9614 344.4344Q524.47705 344.91876 524.4302 345.7469ZM530.2114 347.59064L531.2427 347.4344Q531.3364 348.0594 531.72705 348.3875Q532.1333 348.71564 532.8677 348.71564Q533.5864 348.71564 533.9302 348.4344Q534.28955 348.1375 534.28955 347.73126Q534.28955 347.3719 533.97705 347.16876Q533.7583 347.02814 532.8989 346.8094Q531.7427 346.5125 531.28955 346.3094Q530.85205 346.09064 530.6177 345.71564Q530.3833 345.34064 530.3833 344.8719Q530.3833 344.46564 530.5708 344.10626Q530.7583 343.7469 531.0864 343.5125Q531.3364 343.34064 531.7583 343.21564Q532.1802 343.09064 532.6802 343.09064Q533.3989 343.09064 533.9458 343.3094Q534.5083 343.5125 534.7739 343.8719Q535.03955 344.23126 535.1333 344.825L534.10205 344.96564Q534.03955 344.4969 533.6958 344.23126Q533.3677 343.95 532.7427 343.95Q532.0239 343.95 531.7114 344.2Q531.3989 344.4344 531.3989 344.7625Q531.3989 344.96564 531.5239 345.1219Q531.66455 345.29376 531.9302 345.40314Q532.0864 345.46564 532.8677 345.66876Q533.9927 345.98126 534.4302 346.16876Q534.8677 346.35626 535.1177 346.71564Q535.3677 347.075 535.3677 347.6219Q535.3677 348.15314 535.0552 348.6219Q534.7583 349.075 534.1802 349.34064Q533.60205 349.59064 532.8677 349.59064Q531.6489 349.59064 531.0083 349.09064Q530.3833 348.575 530.2114 347.59064Z" fill-rule="nonzero"/><path fill="#000000" d="M210.92188 37.55L210.92188 23.2375L215.25 23.2375L217.84375 33.003124L220.40625 23.2375L224.75 23.2375L224.75 37.55L222.0625 37.55L222.0625 26.284374L219.21875 37.55L216.4375 37.55L213.60938 26.284374L213.60938 37.55L210.92188 37.55ZM229.98438 30.346874L227.5 29.89375Q227.92188 28.39375 228.9375 27.675Q229.96875 26.940624 231.98438 26.940624Q233.82812 26.940624 234.71875 27.378124Q235.625 27.815624 235.98438 28.4875Q236.35938 29.14375 236.35938 30.940624L236.32812 34.14375Q236.32812 35.503124 236.45312 36.159374Q236.59375 36.8 236.95312 37.55L234.23438 37.55Q234.125 37.26875 233.96875 36.7375Q233.90625 36.4875 233.875 36.409374Q233.17188 37.096874 232.35938 37.440624Q231.5625 37.784374 230.65625 37.784374Q229.0625 37.784374 228.14062 36.925Q227.21875 36.05 227.21875 34.721874Q227.21875 33.83125 227.625 33.14375Q228.04688 32.45625 228.79688 32.096874Q229.5625 31.721874 231.0 31.45625Q232.92188 31.096874 233.65625 30.784374L233.65625 30.503124Q233.65625 29.721874 233.26562 29.39375Q232.875 29.05 231.79688 29.05Q231.0625 29.05 230.64062 29.33125Q230.23438 29.6125 229.98438 30.346874ZM233.65625 32.565624Q233.125 32.7375 231.98438 32.9875Q230.84375 33.2375 230.5 33.471874Q229.95312 33.846874 229.95312 34.440624Q229.95312 35.003124 230.375 35.425Q230.8125 35.846874 231.48438 35.846874Q232.21875 35.846874 232.89062 35.3625Q233.39062 34.9875 233.54688 34.45625Q233.65625 34.096874 233.65625 33.1125L233.65625 32.565624ZM238.9375 25.76875L238.9375 23.2375L241.6875 23.2375L241.6875 25.76875L238.9375 25.76875ZM238.9375 37.55L238.9375 27.175L241.6875 27.175L241.6875 37.55L238.9375 37.55ZM254.375 37.55L251.625 37.55L251.625 32.253124Q251.625 30.58125 251.45312 30.096874Q251.28125 29.596874 250.875 29.33125Q250.48438 29.05 249.92188 29.05Q249.21875 29.05 248.64062 29.440624Q248.07812 29.83125 247.85938 30.471874Q247.65625 31.1125 247.65625 32.846874L247.65625 37.55L244.92188 37.55L244.92188 27.175L247.46875 27.175L247.46875 28.70625Q248.82812 26.940624 250.89062 26.940624Q251.79688 26.940624 252.54688 27.26875Q253.29688 27.596874 253.67188 28.1125Q254.0625 28.6125 254.21875 29.26875Q254.375 29.909374 254.375 31.096874L254.375 37.55ZM261.96875 34.596874L264.71875 34.175Q264.90625 34.971874 265.4375 35.39375Q265.96875 35.8 266.9375 35.8Q268.0 35.8 268.54688 35.409374Q268.90625 35.14375 268.90625 34.675Q268.90625 34.3625 268.70312 34.159374Q268.5 33.971874 267.79688 33.8Q264.46875 33.065624 263.57812 32.45625Q262.34375 31.628124 262.34375 30.128124Q262.34375 28.784374 263.40625 27.8625Q264.48438 26.940624 266.71875 26.940624Q268.84375 26.940624 269.875 27.64375Q270.92188 28.33125 271.3125 29.690624L268.71875 30.159374Q268.54688 29.565624 268.07812 29.2375Q267.625 28.909374 266.76562 28.909374Q265.6875 28.909374 265.21875 29.221874Q264.90625 29.440624 264.90625 29.76875Q264.90625 30.065624 265.17188 30.26875Q265.54688 30.55 267.73438 31.05Q269.92188 31.55 270.79688 32.26875Q271.65625 33.003124 271.65625 34.3Q271.65625 35.7375 270.46875 36.76875Q269.28125 37.784374 266.9375 37.784374Q264.82812 37.784374 263.57812 36.925Q262.34375 36.065624 261.96875 34.596874ZM282.98438 30.2375L280.28125 30.7375Q280.14062 29.925 279.65625 29.51875Q279.17188 29.096874 278.40625 29.096874Q277.375 29.096874 276.76562 29.815624Q276.15625 30.51875 276.15625 32.175Q276.15625 34.01875 276.76562 34.784374Q277.39062 35.55 278.4375 35.55Q279.21875 35.55 279.71875 35.1125Q280.21875 34.659374 280.42188 33.58125L283.10938 34.034374Q282.70312 35.89375 281.5 36.846874Q280.3125 37.784374 278.3125 37.784374Q276.03125 37.784374 274.67188 36.346874Q273.32812 34.909374 273.32812 32.378124Q273.32812 29.8 274.6875 28.378124Q276.04688 26.940624 278.35938 26.940624Q280.25 26.940624 281.35938 27.76875Q282.48438 28.58125 282.98438 30.2375ZM287.5625 37.55L284.8125 37.55L284.8125 27.175L287.375 27.175L287.375 28.659374Q288.01562 27.6125 288.53125 27.284374Q289.0625 26.940624 289.73438 26.940624Q290.67188 26.940624 291.53125 27.45625L290.6875 29.846874Q290.0 29.409374 289.40625 29.409374Q288.82812 29.409374 288.42188 29.721874Q288.01562 30.034374 287.78125 30.878124Q287.5625 31.70625 287.5625 34.346874L287.5625 37.55ZM298.9375 34.253124L301.67188 34.70625Q301.15625 36.20625 300.01562 37.003124Q298.875 37.784374 297.17188 37.784374Q294.45312 37.784374 293.15625 36.01875Q292.14062 34.596874 292.14062 32.440624Q292.14062 29.8625 293.48438 28.409374Q294.82812 26.940624 296.89062 26.940624Q299.20312 26.940624 300.53125 28.471874Q301.875 30.003124 301.82812 33.159374L294.95312 33.159374Q294.98438 34.378124 295.60938 35.065624Q296.25 35.7375 297.1875 35.7375Q297.84375 35.7375 298.28125 35.39375Q298.71875 35.034374 298.9375 34.253124ZM299.09375 31.471874Q299.0625 30.284374 298.46875 29.675Q297.89062 29.05 297.0625 29.05Q296.15625 29.05 295.57812 29.690624Q294.98438 30.346874 295.0 31.471874L299.09375 31.471874ZM309.9375 34.253124L312.67188 34.70625Q312.15625 36.20625 311.01562 37.003124Q309.875 37.784374 308.17188 37.784374Q305.45312 37.784374 304.15625 36.01875Q303.14062 34.596874 303.14062 32.440624Q303.14062 29.8625 304.48438 28.409374Q305.82812 26.940624 307.89062 26.940624Q310.20312 26.940624 311.53125 28.471874Q312.875 30.003124 312.82812 33.159374L305.95312 33.159374Q305.98438 34.378124 306.60938 35.065624Q307.25 35.7375 308.1875 35.7375Q308.84375 35.7375 309.28125 35.39375Q309.71875 35.034374 309.9375 34.253124ZM310.09375 31.471874Q310.0625 30.284374 309.46875 29.675Q308.89062 29.05 308.0625 29.05Q307.15625 29.05 306.57812 29.690624Q305.98438 30.346874 306.0 31.471874L310.09375 31.471874ZM324.375 37.55L321.625 37.55L321.625 32.253124Q321.625 30.58125 321.45312 30.096874Q321.28125 29.596874 320.875 29.33125Q320.48438 29.05 319.92188 29.05Q319.21875 29.05 318.64062 29.440624Q318.07812 29.83125 317.85938 30.471874Q317.65625 31.1125 317.65625 32.846874L317.65625 37.55L314.92188 37.55L314.92188 27.175L317.46875 27.175L317.46875 28.70625Q318.82812 26.940624 320.89062 26.940624Q321.79688 26.940624 322.54688 27.26875Q323.29688 27.596874 323.67188 28.1125Q324.0625 28.6125 324.21875 29.26875Q324.375 29.909374 324.375 31.096874L324.375 37.55ZM335.67188 23.2375L335.67188 28.503124Q337.0 26.940624 338.84375 26.940624Q339.79688 26.940624 340.54688 27.3Q341.3125 27.64375 341.70312 28.190624Q342.09375 28.7375 342.23438 29.409374Q342.375 30.065624 342.375 31.471874L342.375 37.55L339.625 37.55L339.625 32.065624Q339.625 30.440624 339.46875 30.003124Q339.3125 29.565624 338.90625 29.315624Q338.51562 29.05 337.92188 29.05Q337.25 29.05 336.70312 29.378124Q336.17188 29.70625 335.92188 30.378124Q335.67188 31.05 335.67188 32.346874L335.67188 37.55L332.92188 37.55L332.92188 23.2375L335.67188 23.2375ZM346.98438 30.346874L344.5 29.89375Q344.92188 28.39375 345.9375 27.675Q346.96875 26.940624 348.98438 26.940624Q350.82812 26.940624 351.71875 27.378124Q352.625 27.815624 352.98438 28.4875Q353.35938 29.14375 353.35938 30.940624L353.32812 34.14375Q353.32812 35.503124 353.45312 36.159374Q353.59375 36.8 353.95312 37.55L351.23438 37.55Q351.125 37.26875 350.96875 36.7375Q350.90625 36.4875 350.875 36.409374Q350.17188 37.096874 349.35938 37.440624Q348.5625 37.784374 347.65625 37.784374Q346.0625 37.784374 345.14062 36.925Q344.21875 36.05 344.21875 34.721874Q344.21875 33.83125 344.625 33.14375Q345.04688 32.45625 345.79688 32.096874Q346.5625 31.721874 348.0 31.45625Q349.92188 31.096874 350.65625 30.784374L350.65625 30.503124Q350.65625 29.721874 350.26562 29.39375Q349.875 29.05 348.79688 29.05Q348.0625 29.05 347.64062 29.33125Q347.23438 29.6125 346.98438 30.346874ZM350.65625 32.565624Q350.125 32.7375 348.98438 32.9875Q347.84375 33.2375 347.5 33.471874Q346.95312 33.846874 346.95312 34.440624Q346.95312 35.003124 347.375 35.425Q347.8125 35.846874 348.48438 35.846874Q349.21875 35.846874 349.89062 35.3625Q350.39062 34.9875 350.54688 34.45625Q350.65625 34.096874 350.65625 33.1125L350.65625 32.565624ZM355.8125 37.55L355.8125 23.2375L358.5625 23.2375L358.5625 28.39375Q359.82812 26.940624 361.57812 26.940624Q363.46875 26.940624 364.70312 28.315624Q365.95312 29.690624 365.95312 32.253124Q365.95312 34.909374 364.6875 36.346874Q363.42188 37.784374 361.60938 37.784374Q360.71875 37.784374 359.85938 37.346874Q359.0 36.89375 358.375 36.01875L358.375 37.55L355.8125 37.55ZM358.54688 32.14375Q358.54688 33.753124 359.04688 34.51875Q359.76562 35.6125 360.95312 35.6125Q361.85938 35.6125 362.5 34.846874Q363.14062 34.065624 363.14062 32.39375Q363.14062 30.6125 362.48438 29.83125Q361.84375 29.05 360.84375 29.05Q359.85938 29.05 359.20312 29.815624Q358.54688 30.58125 358.54688 32.14375ZM367.9375 25.76875L367.9375 23.2375L370.6875 23.2375L370.6875 25.76875L367.9375 25.76875ZM367.9375 37.55L367.9375 27.175L370.6875 27.175L370.6875 37.55L367.9375 37.55ZM378.6875 27.175L378.6875 29.3625L376.8125 29.3625L376.8125 33.55Q376.8125 34.815624 376.85938 35.034374Q376.92188 35.2375 377.10938 35.378124Q377.3125 35.503124 377.57812 35.503124Q377.95312 35.503124 378.6875 35.2375L378.92188 37.378124Q377.95312 37.784374 376.75 37.784374Q376.0 37.784374 375.40625 37.534374Q374.8125 37.284374 374.53125 36.89375Q374.26562 36.4875 374.15625 35.815624Q374.0625 35.346874 374.0625 33.89375L374.0625 29.3625L372.79688 29.3625L372.79688 27.175L374.0625 27.175L374.0625 25.1125L376.8125 23.51875L376.8125 27.175L378.6875 27.175ZM379.96875 34.596874L382.71875 34.175Q382.90625 34.971874 383.4375 35.39375Q383.96875 35.8 384.9375 35.8Q386.0 35.8 386.54688 35.409374Q386.90625 35.14375 386.90625 34.675Q386.90625 34.3625 386.70312 34.159374Q386.5 33.971874 385.79688 33.8Q382.46875 33.065624 381.57812 32.45625Q380.34375 31.628124 380.34375 30.128124Q380.34375 28.784374 381.40625 27.8625Q382.48438 26.940624 384.71875 26.940624Q386.84375 26.940624 387.875 27.64375Q388.92188 28.33125 389.3125 29.690624L386.71875 30.159374Q386.54688 29.565624 386.07812 29.2375Q385.625 28.909374 384.76562 28.909374Q383.6875 28.909374 383.21875 29.221874Q382.90625 29.440624 382.90625 29.76875Q382.90625 30.065624 383.17188 30.26875Q383.54688 30.55 385.73438 31.05Q387.92188 31.55 388.79688 32.26875Q389.65625 33.003124 389.65625 34.3Q389.65625 35.7375 388.46875 36.76875Q387.28125 37.784374 384.9375 37.784374Q382.82812 37.784374 381.57812 36.925Q380.34375 36.065624 379.96875 34.596874Z" fill-rule="nonzero"/></svg>