<svg version="1.1" viewBox="0.0 0.0 600.0 371.0" fill="none" stroke="none" stroke-linecap="square" stroke-miterlimit="10" width="600" height="371" xmlns:xlink="http://www.w3.org/1999/xlink" xmlns="http://www.w3.org/2000/svg"><path fill="#ffffff" d="M0 0L600.0 0L600.0 371.0L0 371.0L0 0Z" fill-rule="nonzero"/><path stroke="#333333" stroke-width="1.0" stroke-linecap="butt" d="M45.5 332.5L581.5 332.5" fill-rule="nonzero"/><path stroke="#cccccc" stroke-width="1.0" stroke-linecap="butt" d="M45.5 264.5L581.5 264.5" fill-rule="nonzero"/><path stroke="#cccccc" stroke-width="1.0" stroke-linecap="butt" d="M45.5 197.5L581.5 197.5" fill-rule="nonzero"/><path stroke="#cccccc" stroke-width="1.0" stroke-linecap="butt" d="M45.5 129.5L581.5 129.5" fill-rule="nonzero"/><path stroke="#cccccc" stroke-width="1.0" stroke-linecap="butt" d="M45.5 61.5L581.5 61.5" fill-rule="nonzero"/><clipPath id="id_0"><path d="M45.55 61.916668L581.45 61.916668L581.45 332.45L45.55 332.45L45.55 61.916668Z" clip-rule="nonzero"/></clipPath><path stroke="#000000" stroke-width="2.0" stroke-linecap="butt" stroke-opacity="0.0" clip-path="url(#id_0)" d="M146.0 332.0L81.0 332.0L81.0 240.0C81.0 238.89543 81.89543 238.0 83.0 238.0L144.0 238.0C145.10457 238.0 146.0 238.89543 146.0 240.0Z" fill-rule="nonzero"/><path fill="#4285f4" clip-path="url(#id_0)" d="M146.0 332.0L81.0 332.0L81.0 240.0C81.0 238.89543 81.89543 238.0 83.0 238.0L144.0 238.0C145.10457 238.0 146.0 238.89543 146.0 240.0Z" fill-rule="nonzero"/><path stroke="#000000" stroke-width="2.0" stroke-linecap="butt" stroke-opacity="0.0" clip-path="url(#id_0)" d="M246.0 332.0L181.0 332.0L181.0 145.0C181.0 143.89543 181.89543 143.0 183.0 143.0L244.0 143.0C245.10457 143.0 246.0 143.89543 246.0 145.0Z" fill-rule="nonzero"/><path fill="#134f5c" clip-path="url(#id_0)" d="M246.0 332.0L181.0 332.0L181.0 145.0C181.0 143.89543 181.89543 143.0 183.0 143.0L244.0 143.0C245.10457 143.0 246.0 143.89543 246.0 145.0Z" fill-rule="nonzero"/><path stroke="#000000" stroke-width="2.0" stroke-linecap="butt" stroke-opacity="0.0" clip-path="url(#id_0)" d="M347.0 332.0L282.0 332.0L282.0 77.0C282.0 75.89543 282.89542 75.0 284.0 75.0L345.0 75.0C346.10458 75.0 347.0 75.89543 347.0 77.0Z" fill-rule="nonzero"/><path fill="#38761d" clip-path="url(#id_0)" d="M347.0 332.0L282.0 332.0L282.0 77.0C282.0 75.89543 282.89542 75.0 284.0 75.0L345.0 75.0C346.10458 75.0 347.0 75.89543 347.0 77.0Z" fill-rule="nonzero"/><path stroke="#000000" stroke-width="2.0" stroke-linecap="butt" stroke-opacity="0.0" clip-path="url(#id_0)" d="M447.0 332.0L382.0 332.0L382.0 294.0C382.0 292.89542 382.89542 292.0 384.0 292.0L445.0 292.0C446.10458 292.0 447.0 292.89542 447.0 294.0Z" fill-rule="nonzero"/><path fill="#990000" clip-path="url(#id_0)" d="M447.0 332.0L382.0 332.0L382.0 294.0C382.0 292.89542 382.89542 292.0 384.0 292.0L445.0 292.0C446.10458 292.0 447.0 292.89542 447.0 294.0Z" fill-rule="nonzero"/><path stroke="#000000" stroke-width="2.0" stroke-linecap="butt" stroke-opacity="0.0" clip-path="url(#id_0)" d="M547.0 332.0L482.0 332.0L482.0 307.0C482.0 305.89542 482.89542 305.0 484.0 305.0L545.0 305.0C546.10455 305.0 547.0 305.89542 547.0 307.0Z" fill-rule="nonzero"/><path fill="#741b47" clip-path="url(#id_0)" d="M547.0 332.0L482.0 332.0L482.0 307.0C482.0 305.89542 482.89542 305.0 484.0 305.0L545.0 305.0C546.10455 305.0 547.0 305.89542 547.0 307.0Z" fill-rule="nonzero"/><path fill="#000000" d="M33.05 332.21564Q33.05 330.6844 33.3625 329.7625Q33.675 328.825 34.284374 328.325Q34.909374 327.825 35.846874 327.825Q36.534374 327.825 37.05 328.10626Q37.58125 328.3875 37.925 328.91876Q38.26875 329.4344 38.45625 330.1844Q38.64375 330.9344 38.64375 332.21564Q38.64375 333.73126 38.33125 334.65314Q38.034374 335.575 37.409374 336.09064Q36.8 336.59064 35.846874 336.59064Q34.6125 336.59064 33.89375 335.7Q33.05 334.6375 33.05 332.21564ZM34.128124 332.21564Q34.128124 334.325 34.628124 335.02814Q35.128124 335.73126 35.846874 335.73126Q36.58125 335.73126 37.065624 335.02814Q37.565624 334.325 37.565624 332.21564Q37.565624 330.09064 37.065624 329.40314Q36.58125 328.7 35.83125 328.7Q35.1125 328.7 34.675 329.3094Q34.128124 330.09064 34.128124 332.21564Z" fill-rule="nonzero"/><path fill="#000000" d="M33.05 266.56668L34.159374 266.47293Q34.284374 267.28543 34.721874 267.69168Q35.175 268.09793 35.815624 268.09793Q36.565624 268.09793 37.096874 267.5198Q37.628124 266.94168 37.628124 266.00418Q37.628124 265.09793 37.1125 264.5823Q36.6125 264.05106 35.784374 264.05106Q35.284374 264.05106 34.8625 264.28543Q34.45625 264.5198 34.221874 264.87918L33.2375 264.75418L34.065624 260.34793L38.346874 260.34793L38.346874 261.34793L34.909374 261.34793L34.45625 263.66043Q35.221874 263.11356 36.065624 263.11356Q37.190624 263.11356 37.95625 263.8948Q38.7375 264.67606 38.7375 265.91043Q38.7375 267.06668 38.065624 267.92606Q37.2375 268.9573 35.815624 268.9573Q34.64375 268.9573 33.89375 268.30106Q33.159374 267.6448 33.05 266.56668Z" fill-rule="nonzero"/><path fill="#000000" d="M30.01875 201.18333L28.971874 201.18333L28.971874 194.46458Q28.58125 194.82396 27.95625 195.19896Q27.346874 195.55833 26.8625 195.73021L26.8625 194.71458Q27.7375 194.29271 28.39375 193.71458Q29.065624 193.12083 29.346874 192.55833L30.01875 192.55833L30.01875 201.18333ZM33.05 196.94896Q33.05 195.41771 33.3625 194.49583Q33.675 193.55833 34.284374 193.05833Q34.909374 192.55833 35.846874 192.55833Q36.534374 192.55833 37.05 192.83958Q37.58125 193.12083 37.925 193.65208Q38.26875 194.16771 38.45625 194.91771Q38.64375 195.66771 38.64375 196.94896Q38.64375 198.46458 38.33125 199.38646Q38.034374 200.30833 37.409374 200.82396Q36.8 201.32396 35.846874 201.32396Q34.6125 201.32396 33.89375 200.43333Q33.05 199.37083 33.05 196.94896ZM34.128124 196.94896Q34.128124 199.05833 34.628124 199.76146Q35.128124 200.46458 35.846874 200.46458Q36.58125 200.46458 37.065624 199.76146Q37.565624 199.05833 37.565624 196.94896Q37.565624 194.82396 37.065624 194.13646Q36.58125 193.43333 35.83125 193.43333Q35.1125 193.43333 34.675 194.04271Q34.128124 194.82396 34.128124 196.94896Z" fill-rule="nonzero"/><path fill="#000000" d="M30.01875 133.55L28.971874 133.55L28.971874 126.83125Q28.58125 127.19063 27.95625 127.56563Q27.346874 127.925 26.8625 128.09688L26.8625 127.08125Q27.7375 126.65938 28.39375 126.08125Q29.065624 125.4875 29.346874 124.925L30.01875 124.925L30.01875 133.55ZM33.05 131.3L34.159374 131.20625Q34.284374 132.01875 34.721874 132.425Q35.175 132.83125 35.815624 132.83125Q36.565624 132.83125 37.096874 132.25313Q37.628124 131.675 37.628124 130.7375Q37.628124 129.83125 37.1125 129.31563Q36.6125 128.78438 35.784374 128.78438Q35.284374 128.78438 34.8625 129.01875Q34.45625 129.25313 34.221874 129.6125L33.2375 129.4875L34.065624 125.08125L38.346874 125.08125L38.346874 126.08125L34.909374 126.08125L34.45625 128.39375Q35.221874 127.84688 36.065624 127.84688Q37.190624 127.84688 37.95625 128.62813Q38.7375 129.40938 38.7375 130.64375Q38.7375 131.8 38.065624 132.65938Q37.2375 133.69063 35.815624 133.69063Q34.64375 133.69063 33.89375 133.03438Q33.159374 132.37813 33.05 131.3Z" fill-rule="nonzero"/><path fill="#000000" d="M31.596874 64.90104L31.596874 65.916664L25.909374 65.916664Q25.909374 65.541664 26.034374 65.18229Q26.253124 64.604164 26.721874 64.041664Q27.20625 63.479164 28.1125 62.74479Q29.51875 61.58854 30.003124 60.916664Q30.503124 60.24479 30.503124 59.65104Q30.503124 59.02604 30.05 58.604164Q29.596874 58.166664 28.878124 58.166664Q28.1125 58.166664 27.659374 58.61979Q27.20625 59.072914 27.190624 59.885414L26.1125 59.77604Q26.221874 58.55729 26.940624 57.93229Q27.675 57.291664 28.909374 57.291664Q30.14375 57.291664 30.8625 57.979164Q31.58125 58.666664 31.58125 59.68229Q31.58125 60.197914 31.3625 60.697914Q31.159374 61.18229 30.659374 61.74479Q30.175 62.291664 29.05 63.24479Q28.096874 64.041664 27.815624 64.33854Q27.55 64.61979 27.378124 64.90104L31.596874 64.90104ZM33.05 61.68229Q33.05 60.15104 33.3625 59.229164Q33.675 58.291664 34.284374 57.791664Q34.909374 57.291664 35.846874 57.291664Q36.534374 57.291664 37.05 57.572914Q37.58125 57.854164 37.925 58.385414Q38.26875 58.90104 38.45625 59.65104Q38.64375 60.40104 38.64375 61.68229Q38.64375 63.197914 38.33125 64.11979Q38.034374 65.041664 37.409374 65.55729Q36.8 66.05729 35.846874 66.05729Q34.6125 66.05729 33.89375 65.166664Q33.05 64.104164 33.05 61.68229ZM34.128124 61.68229Q34.128124 63.791664 34.628124 64.49479Q35.128124 65.197914 35.846874 65.197914Q36.58125 65.197914 37.065624 64.49479Q37.565624 63.791664 37.565624 61.68229Q37.565624 59.55729 37.065624 58.86979Q36.58125 58.166664 35.83125 58.166664Q35.1125 58.166664 34.675 58.77604Q34.128124 59.55729 34.128124 61.68229Z" fill-rule="nonzero"/><path fill="#000000" d="M101.08543 349.45L101.08543 340.85626L104.33543 340.85626Q105.17918 340.85626 105.6323 340.9344Q106.27293 341.04376 106.6948 341.34064Q107.1323 341.6375 107.3823 342.16876Q107.64793 342.7 107.64793 343.34064Q107.64793 344.4344 106.9448 345.2Q106.2573 345.95 104.42918 345.95L102.22605 345.95L102.22605 349.45L101.08543 349.45ZM102.22605 344.95L104.4448 344.95Q105.55418 344.95 106.0073 344.54376Q106.47605 344.1219 106.47605 343.3719Q106.47605 342.84064 106.1948 342.46564Q105.92918 342.075 105.49168 341.95Q105.1948 341.8719 104.42918 341.8719L102.22605 341.8719L102.22605 344.95ZM108.5698 346.34064Q108.5698 344.60626 109.52293 343.77814Q110.3198 343.09064 111.47605 343.09064Q112.7573 343.09064 113.5698 343.9344Q114.39793 344.7625 114.39793 346.2469Q114.39793 347.45 114.03855 348.1375Q113.67918 348.825 112.97605 349.21564Q112.28855 349.59064 111.47605 349.59064Q110.17918 349.59064 109.36668 348.7625Q108.5698 347.91876 108.5698 346.34064ZM109.64793 346.34064Q109.64793 347.52814 110.16355 348.1219Q110.6948 348.71564 111.47605 348.71564Q112.27293 348.71564 112.78855 348.1219Q113.30418 347.52814 113.30418 346.3094Q113.30418 345.15314 112.77293 344.5594Q112.2573 343.96564 111.47605 343.96564Q110.6948 343.96564 110.16355 344.5594Q109.64793 345.1375 109.64793 346.34064ZM115.5698 346.34064Q115.5698 344.60626 116.52293 343.77814Q117.3198 343.09064 118.47605 343.09064Q119.7573 343.09064 120.5698 343.9344Q121.39793 344.7625 121.39793 346.2469Q121.39793 347.45 121.03855 348.1375Q120.67918 348.825 119.97605 349.21564Q119.28855 349.59064 118.47605 349.59064Q117.17918 349.59064 116.36668 348.7625Q115.5698 347.91876 115.5698 346.34064ZM116.64793 346.34064Q116.64793 347.52814 117.16355 348.1219Q117.6948 348.71564 118.47605 348.71564Q119.27293 348.71564 119.78855 348.1219Q120.30418 347.52814 120.30418 346.3094Q120.30418 345.15314 119.77293 344.5594Q119.2573 343.96564 118.47605 343.96564Q117.6948 343.96564 117.16355 344.5594Q116.64793 345.1375 116.64793 346.34064ZM122.9448 349.45L122.9448 343.23126L123.89793 343.23126L123.89793 344.16876Q124.2573 343.5125 124.55418 343.3094Q124.86668 343.09064 125.24168 343.09064Q125.77293 343.09064 126.3198 343.41876L125.96043 344.40314Q125.5698 344.16876 125.1948 344.16876Q124.83543 344.16876 124.55418 344.3875Q124.28855 344.59064 124.17918 344.96564Q123.99168 345.52814 123.99168 346.1844L123.99168 349.45L122.9448 349.45Z" fill-rule="nonzero"/><path fill="#000000" d="M170.87865 346.6844L171.94115 346.59064Q172.01927 347.2469 172.30052 347.65314Q172.58177 348.0594 173.1599 348.325Q173.75365 348.575 174.48802 348.575Q175.12865 348.575 175.62865 348.3875Q176.12865 348.1844 176.36302 347.85626Q176.61302 347.5125 176.61302 347.1219Q176.61302 346.71564 176.37865 346.41876Q176.14427 346.10626 175.61302 345.90314Q175.25365 345.7625 174.06615 345.48126Q172.89427 345.2 172.42552 344.95Q171.80052 344.6219 171.50365 344.15314Q171.20677 343.66876 171.20677 343.075Q171.20677 342.4344 171.56615 341.8719Q171.94115 341.29376 172.64427 341.0125Q173.36302 340.71564 174.2224 340.71564Q175.17552 340.71564 175.9099 341.02814Q176.64427 341.325 177.0349 341.9344Q177.42552 342.52814 177.45677 343.27814L176.36302 343.35626Q176.26927 342.54376 175.75365 342.1375Q175.25365 341.71564 174.26927 341.71564Q173.23802 341.71564 172.76927 342.09064Q172.30052 342.46564 172.30052 342.9969Q172.30052 343.46564 172.62865 343.7625Q172.95677 344.0594 174.33177 344.3719Q175.7224 344.6844 176.23802 344.91876Q176.98802 345.27814 177.3474 345.8094Q177.70677 346.325 177.70677 347.02814Q177.70677 347.71564 177.31615 348.325Q176.92552 348.91876 176.19115 349.2625Q175.45677 349.59064 174.5349 349.59064Q173.36302 349.59064 172.56615 349.2625Q171.7849 348.91876 171.33177 348.23126Q170.89427 347.54376 170.87865 346.6844ZM178.73802 346.34064Q178.73802 344.60626 179.69115 343.77814Q180.48802 343.09064 181.64427 343.09064Q182.92552 343.09064 183.73802 343.9344Q184.56615 344.7625 184.56615 346.2469Q184.56615 347.45 184.20677 348.1375Q183.8474 348.825 183.14427 349.21564Q182.45677 349.59064 181.64427 349.59064Q180.3474 349.59064 179.5349 348.7625Q178.73802 347.91876 178.73802 346.34064ZM179.81615 346.34064Q179.81615 347.52814 180.33177 348.1219Q180.86302 348.71564 181.64427 348.71564Q182.44115 348.71564 182.95677 348.1219Q183.4724 347.52814 183.4724 346.3094Q183.4724 345.15314 182.94115 344.5594Q182.42552 343.96564 181.64427 343.96564Q180.86302 343.96564 180.33177 344.5594Q179.81615 345.1375 179.81615 346.34064ZM186.12865 349.45L186.12865 343.23126L187.06615 343.23126L187.06615 344.10626Q187.36302 343.6375 187.8474 343.3719Q188.33177 343.09064 188.95677 343.09064Q189.64427 343.09064 190.08177 343.3719Q190.5349 343.65314 190.70677 344.16876Q191.45677 343.09064 192.62865 343.09064Q193.56615 343.09064 194.05052 343.60626Q194.55052 344.10626 194.55052 345.1844L194.55052 349.45L193.50365 349.45L193.50365 345.52814Q193.50365 344.90314 193.39427 344.6219Q193.30052 344.34064 193.0349 344.16876Q192.76927 343.9969 192.39427 343.9969Q191.73802 343.9969 191.30052 344.4344Q190.87865 344.8719 190.87865 345.84064L190.87865 349.45L189.81615 349.45L189.81615 345.40314Q189.81615 344.7 189.55052 344.35626Q189.30052 343.9969 188.7224 343.9969Q188.26927 343.9969 187.89427 344.23126Q187.51927 344.46564 187.3474 344.91876Q187.17552 345.3719 187.17552 346.21564L187.17552 349.45L186.12865 349.45ZM200.37865 347.45L201.4724 347.575Q201.2224 348.52814 200.51927 349.0594Q199.81615 349.59064 198.73802 349.59064Q197.37865 349.59064 196.56615 348.7469Q195.76927 347.90314 195.76927 346.3875Q195.76927 344.825 196.58177 343.96564Q197.39427 343.09064 198.67552 343.09064Q199.92552 343.09064 200.70677 343.9344Q201.50365 344.77814 201.50365 346.325Q201.50365 346.41876 201.50365 346.60626L196.86302 346.60626Q196.92552 347.6375 197.44115 348.1844Q197.95677 348.71564 198.73802 348.71564Q199.31615 348.71564 199.7224 348.41876Q200.14427 348.10626 200.37865 347.45ZM196.92552 345.7469L200.39427 345.7469Q200.33177 344.95 200.00365 344.5594Q199.48802 343.95 198.69115 343.95Q197.95677 343.95 197.45677 344.4344Q196.9724 344.91876 196.92552 345.7469ZM204.26927 349.45L202.36302 343.23126L203.45677 343.23126L204.44115 346.825L204.81615 348.15314Q204.8474 348.0594 205.14427 346.8719L206.12865 343.23126L207.20677 343.23126L208.14427 346.84064L208.45677 348.02814L208.81615 346.825L209.87865 343.23126L210.9099 343.23126L208.95677 349.45L207.86302 349.45L206.87865 345.71564L206.62865 344.66876L205.37865 349.45L204.26927 349.45ZM212.12865 349.45L212.12865 340.85626L213.17552 340.85626L213.17552 343.9344Q213.9099 343.09064 215.0349 343.09064Q215.73802 343.09064 216.23802 343.3719Q216.75365 343.6375 216.9724 344.1219Q217.19115 344.59064 217.19115 345.5125L217.19115 349.45L216.14427 349.45L216.14427 345.5125Q216.14427 344.71564 215.80052 344.35626Q215.45677 343.9969 214.83177 343.9969Q214.36302 343.9969 213.94115 344.2469Q213.5349 344.48126 213.3474 344.90314Q213.17552 345.3094 213.17552 346.04376L213.17552 349.45L212.12865 349.45ZM223.19115 348.6844Q222.5974 349.1844 222.05052 349.3875Q221.51927 349.59064 220.89427 349.59064Q219.86302 349.59064 219.31615 349.09064Q218.76927 348.59064 218.76927 347.8094Q218.76927 347.35626 218.9724 346.98126Q219.17552 346.59064 219.51927 346.3719Q219.86302 346.1375 220.2849 346.02814Q220.58177 345.9344 221.2224 345.85626Q222.48802 345.71564 223.0974 345.4969Q223.0974 345.27814 223.0974 345.23126Q223.0974 344.575 222.80052 344.3094Q222.39427 343.96564 221.5974 343.96564Q220.86302 343.96564 220.50365 344.23126Q220.14427 344.48126 219.9724 345.1375L218.94115 344.9969Q219.08177 344.34064 219.4099 343.9344Q219.73802 343.52814 220.3474 343.3094Q220.95677 343.09064 221.75365 343.09064Q222.55052 343.09064 223.05052 343.27814Q223.55052 343.46564 223.7849 343.7469Q224.01927 344.02814 224.11302 344.46564Q224.1599 344.73126 224.1599 345.4344L224.1599 346.84064Q224.1599 348.3094 224.2224 348.7Q224.30052 349.09064 224.50365 349.45L223.39427 349.45Q223.23802 349.1219 223.19115 348.6844ZM223.0974 346.325Q222.51927 346.5594 221.37865 346.73126Q220.7224 346.825 220.45677 346.95Q220.19115 347.0594 220.0349 347.27814Q219.89427 347.4969 219.89427 347.77814Q219.89427 348.2 220.20677 348.48126Q220.5349 348.7625 221.14427 348.7625Q221.75365 348.7625 222.2224 348.4969Q222.70677 348.23126 222.92552 347.7625Q223.0974 347.40314 223.0974 346.71564L223.0974 346.325ZM228.42552 348.5125L228.58177 349.4344Q228.12865 349.52814 227.7849 349.52814Q227.20677 349.52814 226.89427 349.35626Q226.58177 349.16876 226.44115 348.8719Q226.31615 348.575 226.31615 347.6219L226.31615 344.04376L225.55052 344.04376L225.55052 343.23126L226.31615 343.23126L226.31615 341.6844L227.36302 341.0594L227.36302 343.23126L228.42552 343.23126L228.42552 344.04376L227.36302 344.04376L227.36302 347.6844Q227.36302 348.1375 227.4099 348.2625Q227.4724 348.3875 227.5974 348.46564Q227.7224 348.54376 227.95677 348.54376Q228.14427 348.54376 228.42552 348.5125ZM232.12865 351.84064L232.12865 343.23126L233.08177 343.23126L233.08177 344.02814Q233.42552 343.5594 233.8474 343.325Q234.2849 343.09064 234.89427 343.09064Q235.69115 343.09064 236.30052 343.4969Q236.9099 343.90314 237.20677 344.65314Q237.51927 345.40314 237.51927 346.29376Q237.51927 347.2469 237.17552 348.0125Q236.8474 348.77814 236.19115 349.1844Q235.5349 349.59064 234.81615 349.59064Q234.2849 349.59064 233.86302 349.3719Q233.44115 349.1375 233.17552 348.8094L233.17552 351.84064L232.12865 351.84064ZM233.08177 346.3719Q233.08177 347.575 233.56615 348.15314Q234.05052 348.71564 234.73802 348.71564Q235.44115 348.71564 235.94115 348.1219Q236.44115 347.52814 236.44115 346.27814Q236.44115 345.09064 235.95677 344.5125Q235.4724 343.91876 234.7849 343.91876Q234.11302 343.91876 233.5974 344.54376Q233.08177 345.16876 233.08177 346.3719ZM238.73802 346.34064Q238.73802 344.60626 239.69115 343.77814Q240.48802 343.09064 241.64427 343.09064Q242.92552 343.09064 243.73802 343.9344Q244.56615 344.7625 244.56615 346.2469Q244.56615 347.45 244.20677 348.1375Q243.8474 348.825 243.14427 349.21564Q242.45677 349.59064 241.64427 349.59064Q240.3474 349.59064 239.5349 348.7625Q238.73802 347.91876 238.73802 346.34064ZM239.81615 346.34064Q239.81615 347.52814 240.33177 348.1219Q240.86302 348.71564 241.64427 348.71564Q242.44115 348.71564 242.95677 348.1219Q243.4724 347.52814 243.4724 346.3094Q243.4724 345.15314 242.94115 344.5594Q242.42552 343.96564 241.64427 343.96564Q240.86302 343.96564 240.33177 344.5594Q239.81615 345.1375 239.81615 346.34064ZM245.73802 346.34064Q245.73802 344.60626 246.69115 343.77814Q247.48802 343.09064 248.64427 343.09064Q249.92552 343.09064 250.73802 343.9344Q251.56615 344.7625 251.56615 346.2469Q251.56615 347.45 251.20677 348.1375Q250.8474 348.825 250.14427 349.21564Q249.45677 349.59064 248.64427 349.59064Q247.3474 349.59064 246.5349 348.7625Q245.73802 347.91876 245.73802 346.34064ZM246.81615 346.34064Q246.81615 347.52814 247.33177 348.1219Q247.86302 348.71564 248.64427 348.71564Q249.44115 348.71564 249.95677 348.1219Q250.4724 347.52814 250.4724 346.3094Q250.4724 345.15314 249.94115 344.5594Q249.42552 343.96564 248.64427 343.96564Q247.86302 343.96564 247.33177 344.5594Q246.81615 345.1375 246.81615 346.34064ZM253.11302 349.45L253.11302 343.23126L254.06615 343.23126L254.06615 344.16876Q254.42552 343.5125 254.7224 343.3094Q255.0349 343.09064 255.4099 343.09064Q255.94115 343.09064 256.48804 343.41876L256.12866 344.40314Q255.73802 344.16876 255.36302 344.16876Q255.00365 344.16876 254.7224 344.3875Q254.45677 344.59064 254.3474 344.96564Q254.1599 345.52814 254.1599 346.1844L254.1599 349.45L253.11302 349.45Z" fill-rule="nonzero"/><path fill="#000000" d="M290.48438 349.45L293.78125 340.85626L295.0 340.85626L298.51562 349.45L297.23438 349.45L296.21875 346.84064L292.64062 346.84064L291.6875 349.45L290.48438 349.45ZM292.96875 345.91876L295.875 345.91876L294.98438 343.54376Q294.5625 342.46564 294.375 341.7625Q294.20312 342.59064 293.90625 343.40314L292.96875 345.91876ZM301.01562 349.45L298.65625 343.23126L299.76562 343.23126L301.10938 346.95Q301.3125 347.5594 301.5 348.2Q301.64062 347.71564 301.89062 347.02814L303.28125 343.23126L304.35938 343.23126L302.0 349.45L301.01562 349.45ZM309.54688 347.45L310.64062 347.575Q310.39062 348.52814 309.6875 349.0594Q308.98438 349.59064 307.90625 349.59064Q306.54688 349.59064 305.73438 348.7469Q304.9375 347.90314 304.9375 346.3875Q304.9375 344.825 305.75 343.96564Q306.5625 343.09064 307.84375 343.09064Q309.09375 343.09064 309.875 343.9344Q310.67188 344.77814 310.67188 346.325Q310.67188 346.41876 310.67188 346.60626L306.03125 346.60626Q306.09375 347.6375 306.60938 348.1844Q307.125 348.71564 307.90625 348.71564Q308.48438 348.71564 308.89062 348.41876Q309.3125 348.10626 309.54688 347.45ZM306.09375 345.7469L309.5625 345.7469Q309.5 344.95 309.17188 344.5594Q308.65625 343.95 307.85938 343.95Q307.125 343.95 306.625 344.4344Q306.14062 344.91876 306.09375 345.7469ZM312.28125 349.45L312.28125 343.23126L313.23438 343.23126L313.23438 344.16876Q313.59375 343.5125 313.89062 343.3094Q314.20312 343.09064 314.57812 343.09064Q315.10938 343.09064 315.65625 343.41876L315.29688 344.40314Q314.90625 344.16876 314.53125 344.16876Q314.17188 344.16876 313.89062 344.3875Q313.625 344.59064 313.51562 344.96564Q313.32812 345.52814 313.32812 346.1844L313.32812 349.45L312.28125 349.45ZM320.35938 348.6844Q319.76562 349.1844 319.21875 349.3875Q318.6875 349.59064 318.0625 349.59064Q317.03125 349.59064 316.48438 349.09064Q315.9375 348.59064 315.9375 347.8094Q315.9375 347.35626 316.14062 346.98126Q316.34375 346.59064 316.6875 346.3719Q317.03125 346.1375 317.45312 346.02814Q317.75 345.9344 318.39062 345.85626Q319.65625 345.71564 320.26562 345.4969Q320.26562 345.27814 320.26562 345.23126Q320.26562 344.575 319.96875 344.3094Q319.5625 343.96564 318.76562 343.96564Q318.03125 343.96564 317.67188 344.23126Q317.3125 344.48126 317.14062 345.1375L316.10938 344.9969Q316.25 344.34064 316.57812 343.9344Q316.90625 343.52814 317.51562 343.3094Q318.125 343.09064 318.92188 343.09064Q319.71875 343.09064 320.21875 343.27814Q320.71875 343.46564 320.95312 343.7469Q321.1875 344.02814 321.28125 344.46564Q321.32812 344.73126 321.32812 345.4344L321.32812 346.84064Q321.32812 348.3094 321.39062 348.7Q321.46875 349.09064 321.67188 349.45L320.5625 349.45Q320.40625 349.1219 320.35938 348.6844ZM320.26562 346.325Q319.6875 346.5594 318.54688 346.73126Q317.89062 346.825 317.625 346.95Q317.35938 347.0594 317.20312 347.27814Q317.0625 347.4969 317.0625 347.77814Q317.0625 348.2 317.375 348.48126Q317.70312 348.7625 318.3125 348.7625Q318.92188 348.7625 319.39062 348.4969Q319.875 348.23126 320.09375 347.7625Q320.26562 347.40314 320.26562 346.71564L320.26562 346.325ZM323.09375 349.96564L324.125 350.1219Q324.1875 350.59064 324.48438 350.8094Q324.875 351.10626 325.54688 351.10626Q326.28125 351.10626 326.67188 350.8094Q327.07812 350.5125 327.21875 349.9969Q327.3125 349.66876 327.29688 348.6375Q326.60938 349.45 325.57812 349.45Q324.29688 349.45 323.59375 348.52814Q322.89062 347.59064 322.89062 346.3094Q322.89062 345.41876 323.20312 344.66876Q323.53125 343.90314 324.14062 343.4969Q324.75 343.09064 325.57812 343.09064Q326.6875 343.09064 327.40625 343.98126L327.40625 343.23126L328.375 343.23126L328.375 348.60626Q328.375 350.0594 328.07812 350.66876Q327.78125 351.27814 327.14062 351.6219Q326.5 351.98126 325.5625 351.98126Q324.45312 351.98126 323.76562 351.48126Q323.07812 350.98126 323.09375 349.96564ZM323.96875 346.23126Q323.96875 347.45 324.45312 348.0125Q324.9375 348.575 325.67188 348.575Q326.40625 348.575 326.89062 348.0125Q327.39062 347.45 327.39062 346.2625Q327.39062 345.1219 326.875 344.54376Q326.375 343.96564 325.65625 343.96564Q324.95312 343.96564 324.45312 344.54376Q323.96875 345.10626 323.96875 346.23126ZM334.54688 347.45L335.64062 347.575Q335.39062 348.52814 334.6875 349.0594Q333.98438 349.59064 332.90625 349.59064Q331.54688 349.59064 330.73438 348.7469Q329.9375 347.90314 329.9375 346.3875Q329.9375 344.825 330.75 343.96564Q331.5625 343.09064 332.84375 343.09064Q334.09375 343.09064 334.875 343.9344Q335.67188 344.77814 335.67188 346.325Q335.67188 346.41876 335.67188 346.60626L331.03125 346.60626Q331.09375 347.6375 331.60938 348.1844Q332.125 348.71564 332.90625 348.71564Q333.48438 348.71564 333.89062 348.41876Q334.3125 348.10626 334.54688 347.45ZM331.09375 345.7469L334.5625 345.7469Q334.5 344.95 334.17188 344.5594Q333.65625 343.95 332.85938 343.95Q332.125 343.95 331.625 344.4344Q331.14062 344.91876 331.09375 345.7469Z" fill-rule="nonzero"/><path fill="#000000" d="M369.7151 346.6844L370.7776 346.59064Q370.8557 347.2469 371.13696 347.65314Q371.4182 348.0594 371.99634 348.325Q372.5901 348.575 373.32446 348.575Q373.9651 348.575 374.4651 348.3875Q374.9651 348.1844 375.19946 347.85626Q375.44946 347.5125 375.44946 347.1219Q375.44946 346.71564 375.2151 346.41876Q374.9807 346.10626 374.44946 345.90314Q374.0901 345.7625 372.9026 345.48126Q371.7307 345.2 371.26196 344.95Q370.63696 344.6219 370.3401 344.15314Q370.0432 343.66876 370.0432 343.075Q370.0432 342.4344 370.4026 341.8719Q370.7776 341.29376 371.4807 341.0125Q372.19946 340.71564 373.05884 340.71564Q374.01196 340.71564 374.74634 341.02814Q375.4807 341.325 375.87134 341.9344Q376.26196 342.52814 376.2932 343.27814L375.19946 343.35626Q375.1057 342.54376 374.5901 342.1375Q374.0901 341.71564 373.1057 341.71564Q372.07446 341.71564 371.6057 342.09064Q371.13696 342.46564 371.13696 342.9969Q371.13696 343.46564 371.4651 343.7625Q371.7932 344.0594 373.1682 344.3719Q374.55884 344.6844 375.07446 344.91876Q375.82446 345.27814 376.18384 345.8094Q376.5432 346.325 376.5432 347.02814Q376.5432 347.71564 376.1526 348.325Q375.76196 348.91876 375.0276 349.2625Q374.2932 349.59064 373.37134 349.59064Q372.19946 349.59064 371.4026 349.2625Q370.62134 348.91876 370.1682 348.23126Q369.7307 347.54376 369.7151 346.6844ZM377.57446 346.34064Q377.57446 344.60626 378.5276 343.77814Q379.32446 343.09064 380.4807 343.09064Q381.76196 343.09064 382.57446 343.9344Q383.4026 344.7625 383.4026 346.2469Q383.4026 347.45 383.0432 348.1375Q382.68384 348.825 381.9807 349.21564Q381.2932 349.59064 380.4807 349.59064Q379.18384 349.59064 378.37134 348.7625Q377.57446 347.91876 377.57446 346.34064ZM378.6526 346.34064Q378.6526 347.52814 379.1682 348.1219Q379.69946 348.71564 380.4807 348.71564Q381.2776 348.71564 381.7932 348.1219Q382.30884 347.52814 382.30884 346.3094Q382.30884 345.15314 381.7776 344.5594Q381.26196 343.96564 380.4807 343.96564Q379.69946 343.96564 379.1682 344.5594Q378.6526 345.1375 378.6526 346.34064ZM384.9651 349.45L384.9651 343.23126L385.9026 343.23126L385.9026 344.10626Q386.19946 343.6375 386.68384 343.3719Q387.1682 343.09064 387.7932 343.09064Q388.4807 343.09064 388.9182 343.3719Q389.37134 343.65314 389.5432 344.16876Q390.2932 343.09064 391.4651 343.09064Q392.4026 343.09064 392.88696 343.60626Q393.38696 344.10626 393.38696 345.1844L393.38696 349.45L392.3401 349.45L392.3401 345.52814Q392.3401 344.90314 392.2307 344.6219Q392.13696 344.34064 391.87134 344.16876Q391.6057 343.9969 391.2307 343.9969Q390.57446 343.9969 390.13696 344.4344Q389.7151 344.8719 389.7151 345.84064L389.7151 349.45L388.6526 349.45L388.6526 345.40314Q388.6526 344.7 388.38696 344.35626Q388.13696 343.9969 387.55884 343.9969Q387.1057 343.9969 386.7307 344.23126Q386.3557 344.46564 386.18384 344.91876Q386.01196 345.3719 386.01196 346.21564L386.01196 349.45L384.9651 349.45ZM399.2151 347.45L400.30884 347.575Q400.05884 348.52814 399.3557 349.0594Q398.6526 349.59064 397.57446 349.59064Q396.2151 349.59064 395.4026 348.7469Q394.6057 347.90314 394.6057 346.3875Q394.6057 344.825 395.4182 343.96564Q396.2307 343.09064 397.51196 343.09064Q398.76196 343.09064 399.5432 343.9344Q400.3401 344.77814 400.3401 346.325Q400.3401 346.41876 400.3401 346.60626L395.69946 346.60626Q395.76196 347.6375 396.2776 348.1844Q396.7932 348.71564 397.57446 348.71564Q398.1526 348.71564 398.55884 348.41876Q398.9807 348.10626 399.2151 347.45ZM395.76196 345.7469L399.2307 345.7469Q399.1682 344.95 398.8401 344.5594Q398.32446 343.95 397.5276 343.95Q396.7932 343.95 396.2932 344.4344Q395.80884 344.91876 395.76196 345.7469ZM403.1057 349.45L401.19946 343.23126L402.2932 343.23126L403.2776 346.825L403.6526 348.15314Q403.68384 348.0594 403.9807 346.8719L404.9651 343.23126L406.0432 343.23126L406.9807 346.84064L407.2932 348.02814L407.6526 346.825L408.7151 343.23126L409.74634 343.23126L407.7932 349.45L406.69946 349.45L405.7151 345.71564L405.4651 344.66876L404.2151 349.45L403.1057 349.45ZM410.9651 349.45L410.9651 340.85626L412.01196 340.85626L412.01196 343.9344Q412.74634 343.09064 413.87134 343.09064Q414.57446 343.09064 415.07446 343.3719Q415.5901 343.6375 415.80884 344.1219Q416.0276 344.59064 416.0276 345.5125L416.0276 349.45L414.9807 349.45L414.9807 345.5125Q414.9807 344.71564 414.63696 344.35626Q414.2932 343.9969 413.6682 343.9969Q413.19946 343.9969 412.7776 344.2469Q412.37134 344.48126 412.18384 344.90314Q412.01196 345.3094 412.01196 346.04376L412.01196 349.45L410.9651 349.45ZM422.0276 348.6844Q421.43384 349.1844 420.88696 349.3875Q420.3557 349.59064 419.7307 349.59064Q418.69946 349.59064 418.1526 349.09064Q417.6057 348.59064 417.6057 347.8094Q417.6057 347.35626 417.80884 346.98126Q418.01196 346.59064 418.3557 346.3719Q418.69946 346.1375 419.12134 346.02814Q419.4182 345.9344 420.05884 345.85626Q421.32446 345.71564 421.93384 345.4969Q421.93384 345.27814 421.93384 345.23126Q421.93384 344.575 421.63696 344.3094Q421.2307 343.96564 420.43384 343.96564Q419.69946 343.96564 419.3401 344.23126Q418.9807 344.48126 418.80884 345.1375L417.7776 344.9969Q417.9182 344.34064 418.24634 343.9344Q418.57446 343.52814 419.18384 343.3094Q419.7932 343.09064 420.5901 343.09064Q421.38696 343.09064 421.88696 343.27814Q422.38696 343.46564 422.62134 343.7469Q422.8557 344.02814 422.94946 344.46564Q422.99634 344.73126 422.99634 345.4344L422.99634 346.84064Q422.99634 348.3094 423.05884 348.7Q423.13696 349.09064 423.3401 349.45L422.2307 349.45Q422.07446 349.1219 422.0276 348.6844ZM421.93384 346.325Q421.3557 346.5594 420.2151 346.73126Q419.55884 346.825 419.2932 346.95Q419.0276 347.0594 418.87134 347.27814Q418.7307 347.4969 418.7307 347.77814Q418.7307 348.2 419.0432 348.48126Q419.37134 348.7625 419.9807 348.7625Q420.5901 348.7625 421.05884 348.4969Q421.5432 348.23126 421.76196 347.7625Q421.93384 347.40314 421.93384 346.71564L421.93384 346.325ZM427.26196 348.5125L427.4182 349.4344Q426.9651 349.52814 426.62134 349.52814Q426.0432 349.52814 425.7307 349.35626Q425.4182 349.16876 425.2776 348.8719Q425.1526 348.575 425.1526 347.6219L425.1526 344.04376L424.38696 344.04376L424.38696 343.23126L425.1526 343.23126L425.1526 341.6844L426.19946 341.0594L426.19946 343.23126L427.26196 343.23126L427.26196 344.04376L426.19946 344.04376L426.19946 347.6844Q426.19946 348.1375 426.24634 348.2625Q426.30884 348.3875 426.43384 348.46564Q426.55884 348.54376 426.7932 348.54376Q426.9807 348.54376 427.26196 348.5125ZM430.76196 349.96564L431.7932 350.1219Q431.8557 350.59064 432.1526 350.8094Q432.5432 351.10626 433.2151 351.10626Q433.94946 351.10626 434.3401 350.8094Q434.74634 350.5125 434.88696 349.9969Q434.9807 349.66876 434.9651 348.6375Q434.2776 349.45 433.24634 349.45Q431.9651 349.45 431.26196 348.52814Q430.55884 347.59064 430.55884 346.3094Q430.55884 345.41876 430.87134 344.66876Q431.19946 343.90314 431.80884 343.4969Q432.4182 343.09064 433.24634 343.09064Q434.3557 343.09064 435.07446 343.98126L435.07446 343.23126L436.0432 343.23126L436.0432 348.60626Q436.0432 350.0594 435.74634 350.66876Q435.44946 351.27814 434.80884 351.6219Q434.1682 351.98126 433.2307 351.98126Q432.12134 351.98126 431.43384 351.48126Q430.74634 350.98126 430.76196 349.96564ZM431.63696 346.23126Q431.63696 347.45 432.12134 348.0125Q432.6057 348.575 433.3401 348.575Q434.07446 348.575 434.55884 348.0125Q435.05884 347.45 435.05884 346.2625Q435.05884 345.1219 434.5432 344.54376Q434.0432 343.96564 433.32446 343.96564Q432.62134 343.96564 432.12134 344.54376Q431.63696 345.10626 431.63696 346.23126ZM437.57446 346.34064Q437.57446 344.60626 438.5276 343.77814Q439.32446 343.09064 440.4807 343.09064Q441.76196 343.09064 442.57446 343.9344Q443.4026 344.7625 443.4026 346.2469Q443.4026 347.45 443.0432 348.1375Q442.68384 348.825 441.9807 349.21564Q441.2932 349.59064 440.4807 349.59064Q439.18384 349.59064 438.37134 348.7625Q437.57446 347.91876 437.57446 346.34064ZM438.6526 346.34064Q438.6526 347.52814 439.1682 348.1219Q439.69946 348.71564 440.4807 348.71564Q441.2776 348.71564 441.7932 348.1219Q442.30884 347.52814 442.30884 346.3094Q442.30884 345.15314 441.7776 344.5594Q441.26196 343.96564 440.4807 343.96564Q439.69946 343.96564 439.1682 344.5594Q438.6526 345.1375 438.6526 346.34064ZM444.57446 346.34064Q444.57446 344.60626 445.5276 343.77814Q446.32446 343.09064 447.4807 343.09064Q448.76196 343.09064 449.57446 343.9344Q450.4026 344.7625 450.4026 346.2469Q450.4026 347.45 450.0432 348.1375Q449.68384 348.825 448.9807 349.21564Q448.2932 349.59064 447.4807 349.59064Q446.18384 349.59064 445.37134 348.7625Q444.57446 347.91876 444.57446 346.34064ZM445.6526 346.34064Q445.6526 347.52814 446.1682 348.1219Q446.69946 348.71564 447.4807 348.71564Q448.2776 348.71564 448.7932 348.1219Q449.30884 347.52814 449.30884 346.3094Q449.30884 345.15314 448.7776 344.5594Q448.26196 343.96564 447.4807 343.96564Q446.69946 343.96564 446.1682 344.5594Q445.6526 345.1375 445.6526 346.34064ZM455.99634 349.45L455.99634 348.66876Q455.4026 349.59064 454.26196 349.59064Q453.51196 349.59064 452.88696 349.1844Q452.26196 348.7625 451.9182 348.02814Q451.57446 347.29376 451.57446 346.34064Q451.57446 345.41876 451.88696 344.65314Q452.19946 343.8875 452.82446 343.4969Q453.44946 343.09064 454.2151 343.09064Q454.7776 343.09064 455.2151 343.325Q455.6526 343.5594 455.93384 343.9344L455.93384 340.85626L456.9807 340.85626L456.9807 349.45L455.99634 349.45ZM452.6682 346.34064Q452.6682 347.54376 453.1682 348.1375Q453.6682 348.71564 454.3557 348.71564Q455.0432 348.71564 455.5276 348.15314Q456.01196 347.59064 456.01196 346.4344Q456.01196 345.15314 455.51196 344.5594Q455.0276 343.96564 454.30884 343.96564Q453.6057 343.96564 453.13696 344.54376Q452.6682 345.10626 452.6682 346.34064Z" fill-rule="nonzero"/><path fill="#000000" d="M503.78958 346.075L503.78958 345.075L507.41458 345.0594L507.41458 348.2469Q506.58646 348.91876 505.69583 349.2625Q504.8052 349.59064 503.8677 349.59064Q502.60208 349.59064 501.5552 349.0594Q500.52396 348.5125 499.9927 347.4969Q499.47708 346.46564 499.47708 345.2Q499.47708 343.9344 499.9927 342.85626Q500.52396 341.7625 501.50833 341.2469Q502.4927 340.71564 503.77396 340.71564Q504.71146 340.71564 505.46146 341.0125Q506.21146 341.3094 506.63333 341.85626Q507.07083 342.3875 507.28958 343.2625L506.27396 343.54376Q506.07083 342.8875 505.77396 342.5125Q505.4927 342.1375 504.96146 341.91876Q504.4302 341.6844 503.78958 341.6844Q503.00833 341.6844 502.4302 341.91876Q501.8677 342.15314 501.50833 342.54376Q501.16458 342.9344 500.97708 343.40314Q500.64896 344.2 500.64896 345.1219Q500.64896 346.27814 501.03958 347.0594Q501.44583 347.825 502.19583 348.2Q502.94583 348.575 503.8052 348.575Q504.53958 348.575 505.2427 348.29376Q505.94583 347.9969 506.3052 347.6844L506.3052 346.075L503.78958 346.075ZM508.2427 346.34064Q508.2427 344.60626 509.19583 343.77814Q509.9927 343.09064 511.14896 343.09064Q512.4302 343.09064 513.2427 343.9344Q514.0708 344.7625 514.0708 346.2469Q514.0708 347.45 513.7114 348.1375Q513.35205 348.825 512.6489 349.21564Q511.96146 349.59064 511.14896 349.59064Q509.85208 349.59064 509.03958 348.7625Q508.2427 347.91876 508.2427 346.34064ZM509.32083 346.34064Q509.32083 347.52814 509.83646 348.1219Q510.3677 348.71564 511.14896 348.71564Q511.94583 348.71564 512.4614 348.1219Q512.97705 347.52814 512.97705 346.3094Q512.97705 345.15314 512.4458 344.5594Q511.9302 343.96564 511.14896 343.96564Q510.3677 343.96564 509.83646 344.5594Q509.32083 345.1375 509.32083 346.34064ZM515.2427 346.34064Q515.2427 344.60626 516.1958 343.77814Q516.9927 343.09064 518.1489 343.09064Q519.4302 343.09064 520.2427 343.9344Q521.0708 344.7625 521.0708 346.2469Q521.0708 347.45 520.7114 348.1375Q520.35205 348.825 519.6489 349.21564Q518.9614 349.59064 518.1489 349.59064Q516.85205 349.59064 516.03955 348.7625Q515.2427 347.91876 515.2427 346.34064ZM516.3208 346.34064Q516.3208 347.52814 516.8364 348.1219Q517.3677 348.71564 518.1489 348.71564Q518.9458 348.71564 519.4614 348.1219Q519.97705 347.52814 519.97705 346.3094Q519.97705 345.15314 519.4458 344.5594Q518.9302 343.96564 518.1489 343.96564Q517.3677 343.96564 516.8364 344.5594Q516.3208 345.1375 516.3208 346.34064ZM526.66455 349.45L526.66455 348.66876Q526.0708 349.59064 524.9302 349.59064Q524.1802 349.59064 523.5552 349.1844Q522.9302 348.7625 522.5864 348.02814Q522.2427 347.29376 522.2427 346.34064Q522.2427 345.41876 522.5552 344.65314Q522.8677 343.8875 523.4927 343.4969Q524.1177 343.09064 524.8833 343.09064Q525.4458 343.09064 525.8833 343.325Q526.3208 343.5594 526.60205 343.9344L526.60205 340.85626L527.6489 340.85626L527.6489 349.45L526.66455 349.45ZM523.3364 346.34064Q523.3364 347.54376 523.8364 348.1375Q524.3364 348.71564 525.0239 348.71564Q525.7114 348.71564 526.1958 348.15314Q526.6802 347.59064 526.6802 346.4344Q526.6802 345.15314 526.1802 344.5594Q525.6958 343.96564 524.97705 343.96564Q524.2739 343.96564 523.8052 344.54376Q523.3364 345.10626 523.3364 346.34064Z" fill-rule="nonzero"/><path fill="#000000" d="M190.46875 37.55L190.46875 23.2375L196.54688 23.2375Q198.84375 23.2375 199.875 23.628124Q200.92188 24.003124 201.54688 24.9875Q202.17188 25.971874 202.17188 27.253124Q202.17188 28.8625 201.21875 29.909374Q200.28125 30.95625 198.39062 31.2375Q199.32812 31.784374 199.9375 32.440624Q200.54688 33.08125 201.59375 34.753124L203.34375 37.55L199.875 37.55L197.79688 34.440624Q196.67188 32.76875 196.26562 32.33125Q195.85938 31.89375 195.39062 31.7375Q194.9375 31.565624 193.9375 31.565624L193.35938 31.565624L193.35938 37.55L190.46875 37.55ZM193.35938 29.284374L195.5 29.284374Q197.57812 29.284374 198.09375 29.1125Q198.60938 28.940624 198.90625 28.51875Q199.20312 28.08125 199.20312 27.425Q199.20312 26.70625 198.8125 26.26875Q198.42188 25.815624 197.71875 25.70625Q197.375 25.659374 195.60938 25.659374L193.35938 25.659374L193.35938 29.284374ZM206.48438 30.346874L204.0 29.89375Q204.42188 28.39375 205.4375 27.675Q206.46875 26.940624 208.48438 26.940624Q210.32812 26.940624 211.21875 27.378124Q212.125 27.815624 212.48438 28.4875Q212.85938 29.14375 212.85938 30.940624L212.82812 34.14375Q212.82812 35.503124 212.95312 36.159374Q213.09375 36.8 213.45312 37.55L210.73438 37.55Q210.625 37.26875 210.46875 36.7375Q210.40625 36.4875 210.375 36.409374Q209.67188 37.096874 208.85938 37.440624Q208.0625 37.784374 207.15625 37.784374Q205.5625 37.784374 204.64062 36.925Q203.71875 36.05 203.71875 34.721874Q203.71875 33.83125 204.125 33.14375Q204.54688 32.45625 205.29688 32.096874Q206.0625 31.721874 207.5 31.45625Q209.42188 31.096874 210.15625 30.784374L210.15625 30.503124Q210.15625 29.721874 209.76562 29.39375Q209.375 29.05 208.29688 29.05Q207.5625 29.05 207.14062 29.33125Q206.73438 29.6125 206.48438 30.346874ZM210.15625 32.565624Q209.625 32.7375 208.48438 32.9875Q207.34375 33.2375 207.0 33.471874Q206.45312 33.846874 206.45312 34.440624Q206.45312 35.003124 206.875 35.425Q207.3125 35.846874 207.98438 35.846874Q208.71875 35.846874 209.39062 35.3625Q209.89062 34.9875 210.04688 34.45625Q210.15625 34.096874 210.15625 33.1125L210.15625 32.565624ZM220.1875 27.175L220.1875 29.3625L218.3125 29.3625L218.3125 33.55Q218.3125 34.815624 218.35938 35.034374Q218.42188 35.2375 218.60938 35.378124Q218.8125 35.503124 219.07812 35.503124Q219.45312 35.503124 220.1875 35.2375L220.42188 37.378124Q219.45312 37.784374 218.25 37.784374Q217.5 37.784374 216.90625 37.534374Q216.3125 37.284374 216.03125 36.89375Q215.76562 36.4875 215.65625 35.815624Q215.5625 35.346874 215.5625 33.89375L215.5625 29.3625L214.29688 29.3625L214.29688 27.175L215.5625 27.175L215.5625 25.1125L218.3125 23.51875L218.3125 27.175L220.1875 27.175ZM222.4375 25.76875L222.4375 23.2375L225.1875 23.2375L225.1875 25.76875L222.4375 25.76875ZM222.4375 37.55L222.4375 27.175L225.1875 27.175L225.1875 37.55L222.4375 37.55ZM237.875 37.55L235.125 37.55L235.125 32.253124Q235.125 30.58125 234.95312 30.096874Q234.78125 29.596874 234.375 29.33125Q233.98438 29.05 233.42188 29.05Q232.71875 29.05 232.14062 29.440624Q231.57812 29.83125 231.35938 30.471874Q231.15625 31.1125 231.15625 32.846874L231.15625 37.55L228.42188 37.55L228.42188 27.175L230.96875 27.175L230.96875 28.70625Q232.32812 26.940624 234.39062 26.940624Q235.29688 26.940624 236.04688 27.26875Q236.79688 27.596874 237.17188 28.1125Q237.5625 28.6125 237.71875 29.26875Q237.875 29.909374 237.875 31.096874L237.875 37.55ZM240.1875 38.2375L243.3125 38.6125Q243.39062 39.159374 243.67188 39.3625Q244.0625 39.659374 244.90625 39.659374Q245.98438 39.659374 246.51562 39.33125Q246.875 39.128124 247.0625 38.64375Q247.1875 38.3 247.1875 37.378124L247.1875 35.8625Q245.96875 37.55 244.09375 37.55Q242.0 37.55 240.78125 35.784374Q239.82812 34.378124 239.82812 32.3Q239.82812 29.690624 241.07812 28.315624Q242.32812 26.940624 244.20312 26.940624Q246.125 26.940624 247.375 28.628124L247.375 27.175L249.9375 27.175L249.9375 36.4875Q249.9375 38.315624 249.625 39.221874Q249.32812 40.14375 248.78125 40.659374Q248.23438 41.175 247.3125 41.45625Q246.40625 41.753124 245.01562 41.753124Q242.375 41.753124 241.26562 40.846874Q240.17188 39.95625 240.17188 38.565624Q240.17188 38.425 240.1875 38.2375ZM242.64062 32.14375Q242.64062 33.8 243.26562 34.565624Q243.90625 35.33125 244.84375 35.33125Q245.85938 35.33125 246.54688 34.55Q247.25 33.753124 247.25 32.221874Q247.25 30.6125 246.57812 29.83125Q245.92188 29.05 244.90625 29.05Q243.90625 29.05 243.26562 29.815624Q242.64062 30.58125 242.64062 32.14375ZM257.79688 32.221874Q257.79688 30.846874 258.46875 29.565624Q259.15625 28.284374 260.39062 27.6125Q261.625 26.940624 263.14062 26.940624Q265.5 26.940624 267.0 28.471874Q268.5 30.003124 268.5 32.33125Q268.5 34.690624 266.98438 36.2375Q265.46875 37.784374 263.15625 37.784374Q261.73438 37.784374 260.4375 37.14375Q259.15625 36.4875 258.46875 35.253124Q257.79688 34.003124 257.79688 32.221874ZM260.60938 32.3625Q260.60938 33.909374 261.34375 34.7375Q262.07812 35.55 263.15625 35.55Q264.23438 35.55 264.95312 34.7375Q265.6875 33.909374 265.6875 32.346874Q265.6875 30.815624 264.95312 30.003124Q264.23438 29.175 263.15625 29.175Q262.07812 29.175 261.34375 30.003124Q260.60938 30.815624 260.60938 32.3625ZM269.23438 27.175L270.76562 27.175L270.76562 26.39375Q270.76562 25.08125 271.03125 24.440624Q271.3125 23.8 272.0625 23.39375Q272.8125 22.9875 273.95312 22.9875Q275.125 22.9875 276.25 23.346874L275.875 25.253124Q275.21875 25.096874 274.60938 25.096874Q274.01562 25.096874 273.75 25.378124Q273.5 25.659374 273.5 26.440624L273.5 27.175L275.54688 27.175L275.54688 29.33125L273.5 29.33125L273.5 37.55L270.76562 37.55L270.76562 29.33125L269.23438 29.33125L269.23438 27.175ZM282.46875 34.596874L285.21875 34.175Q285.40625 34.971874 285.9375 35.39375Q286.46875 35.8 287.4375 35.8Q288.5 35.8 289.04688 35.409374Q289.40625 35.14375 289.40625 34.675Q289.40625 34.3625 289.20312 34.159374Q289.0 33.971874 288.29688 33.8Q284.96875 33.065624 284.07812 32.45625Q282.84375 31.628124 282.84375 30.128124Q282.84375 28.784374 283.90625 27.8625Q284.98438 26.940624 287.21875 26.940624Q289.34375 26.940624 290.375 27.64375Q291.42188 28.33125 291.8125 29.690624L289.21875 30.159374Q289.04688 29.565624 288.57812 29.2375Q288.125 28.909374 287.26562 28.909374Q286.1875 28.909374 285.71875 29.221874Q285.40625 29.440624 285.40625 29.76875Q285.40625 30.065624 285.67188 30.26875Q286.04688 30.55 288.23438 31.05Q290.42188 31.55 291.29688 32.26875Q292.15625 33.003124 292.15625 34.3Q292.15625 35.7375 290.96875 36.76875Q289.78125 37.784374 287.4375 37.784374Q285.32812 37.784374 284.07812 36.925Q282.84375 36.065624 282.46875 34.596874ZM303.48438 30.2375L300.78125 30.7375Q300.64062 29.925 300.15625 29.51875Q299.67188 29.096874 298.90625 29.096874Q297.875 29.096874 297.26562 29.815624Q296.65625 30.51875 296.65625 32.175Q296.65625 34.01875 297.26562 34.784374Q297.89062 35.55 298.9375 35.55Q299.71875 35.55 300.21875 35.1125Q300.71875 34.659374 300.92188 33.58125L303.60938 34.034374Q303.20312 35.89375 302.0 36.846874Q300.8125 37.784374 298.8125 37.784374Q296.53125 37.784374 295.17188 36.346874Q293.82812 34.909374 293.82812 32.378124Q293.82812 29.8 295.1875 28.378124Q296.54688 26.940624 298.85938 26.940624Q300.75 26.940624 301.85938 27.76875Q302.98438 28.58125 303.48438 30.2375ZM308.0625 37.55L305.3125 37.55L305.3125 27.175L307.875 27.175L307.875 28.659374Q308.51562 27.6125 309.03125 27.284374Q309.5625 26.940624 310.23438 26.940624Q311.17188 26.940624 312.03125 27.45625L311.1875 29.846874Q310.5 29.409374 309.90625 29.409374Q309.32812 29.409374 308.92188 29.721874Q308.51562 30.034374 308.28125 30.878124Q308.0625 31.70625 308.0625 34.346874L308.0625 37.55ZM319.4375 34.253124L322.17188 34.70625Q321.65625 36.20625 320.51562 37.003124Q319.375 37.784374 317.67188 37.784374Q314.95312 37.784374 313.65625 36.01875Q312.64062 34.596874 312.64062 32.440624Q312.64062 29.8625 313.98438 28.409374Q315.32812 26.940624 317.39062 26.940624Q319.70312 26.940624 321.03125 28.471874Q322.375 30.003124 322.32812 33.159374L315.45312 33.159374Q315.48438 34.378124 316.10938 35.065624Q316.75 35.7375 317.6875 35.7375Q318.34375 35.7375 318.78125 35.39375Q319.21875 35.034374 319.4375 34.253124ZM319.59375 31.471874Q319.5625 30.284374 318.96875 29.675Q318.39062 29.05 317.5625 29.05Q316.65625 29.05 316.07812 29.690624Q315.48438 30.346874 315.5 31.471874L319.59375 31.471874ZM330.4375 34.253124L333.17188 34.70625Q332.65625 36.20625 331.51562 37.003124Q330.375 37.784374 328.67188 37.784374Q325.95312 37.784374 324.65625 36.01875Q323.64062 34.596874 323.64062 32.440624Q323.64062 29.8625 324.98438 28.409374Q326.32812 26.940624 328.39062 26.940624Q330.70312 26.940624 332.03125 28.471874Q333.375 30.003124 333.32812 33.159374L326.45312 33.159374Q326.48438 34.378124 327.10938 35.065624Q327.75 35.7375 328.6875 35.7375Q329.34375 35.7375 329.78125 35.39375Q330.21875 35.034374 330.4375 34.253124ZM330.59375 31.471874Q330.5625 30.284374 329.96875 29.675Q329.39062 29.05 328.5625 29.05Q327.65625 29.05 327.07812 29.690624Q326.48438 30.346874 326.5 31.471874L330.59375 31.471874ZM344.875 37.55L342.125 37.55L342.125 32.253124Q342.125 30.58125 341.95312 30.096874Q341.78125 29.596874 341.375 29.33125Q340.98438 29.05 340.42188 29.05Q339.71875 29.05 339.14062 29.440624Q338.57812 29.83125 338.35938 30.471874Q338.15625 31.1125 338.15625 32.846874L338.15625 37.55L335.42188 37.55L335.42188 27.175L337.96875 27.175L337.96875 28.70625Q339.32812 26.940624 341.39062 26.940624Q342.29688 26.940624 343.04688 27.26875Q343.79688 27.596874 344.17188 28.1125Q344.5625 28.6125 344.71875 29.26875Q344.875 29.909374 344.875 31.096874L344.875 37.55ZM356.17188 23.2375L356.17188 28.503124Q357.5 26.940624 359.34375 26.940624Q360.29688 26.940624 361.04688 27.3Q361.8125 27.64375 362.20312 28.190624Q362.59375 28.7375 362.73438 29.409374Q362.875 30.065624 362.875 31.471874L362.875 37.55L360.125 37.55L360.125 32.065624Q360.125 30.440624 359.96875 30.003124Q359.8125 29.565624 359.40625 29.315624Q359.01562 29.05 358.42188 29.05Q357.75 29.05 357.20312 29.378124Q356.67188 29.70625 356.42188 30.378124Q356.17188 31.05 356.17188 32.346874L356.17188 37.55L353.42188 37.55L353.42188 23.2375L356.17188 23.2375ZM367.48438 30.346874L365.0 29.89375Q365.42188 28.39375 366.4375 27.675Q367.46875 26.940624 369.48438 26.940624Q371.32812 26.940624 372.21875 27.378124Q373.125 27.815624 373.48438 28.4875Q373.85938 29.14375 373.85938 30.940624L373.82812 34.14375Q373.82812 35.503124 373.95312 36.159374Q374.09375 36.8 374.45312 37.55L371.73438 37.55Q371.625 37.26875 371.46875 36.7375Q371.40625 36.4875 371.375 36.409374Q370.67188 37.096874 369.85938 37.440624Q369.0625 37.784374 368.15625 37.784374Q366.5625 37.784374 365.64062 36.925Q364.71875 36.05 364.71875 34.721874Q364.71875 33.83125 365.125 33.14375Q365.54688 32.45625 366.29688 32.096874Q367.0625 31.721874 368.5 31.45625Q370.42188 31.096874 371.15625 30.784374L371.15625 30.503124Q371.15625 29.721874 370.76562 29.39375Q370.375 29.05 369.29688 29.05Q368.5625 29.05 368.14062 29.33125Q367.73438 29.6125 367.48438 30.346874ZM371.15625 32.565624Q370.625 32.7375 369.48438 32.9875Q368.34375 33.2375 368.0 33.471874Q367.45312 33.846874 367.45312 34.440624Q367.45312 35.003124 367.875 35.425Q368.3125 35.846874 368.98438 35.846874Q369.71875 35.846874 370.39062 35.3625Q370.89062 34.9875 371.04688 34.45625Q371.15625 34.096874 371.15625 33.1125L371.15625 32.565624ZM376.3125 37.55L376.3125 23.2375L379.0625 23.2375L379.0625 28.39375Q380.32812 26.940624 382.07812 26.940624Q383.96875 26.940624 385.20312 28.315624Q386.45312 29.690624 386.45312 32.253124Q386.45312 34.909374 385.1875 36.346874Q383.92188 37.784374 382.10938 37.784374Q381.21875 37.784374 380.35938 37.346874Q379.5 36.89375 378.875 36.01875L378.875 37.55L376.3125 37.55ZM379.04688 32.14375Q379.04688 33.753124 379.54688 34.51875Q380.26562 35.6125 381.45312 35.6125Q382.35938 35.6125 383.0 34.846874Q383.64062 34.065624 383.64062 32.39375Q383.64062 30.6125 382.98438 29.83125Q382.34375 29.05 381.34375 29.05Q380.35938 29.05 379.70312 29.815624Q379.04688 30.58125 379.04688 32.14375ZM388.4375 25.76875L388.4375 23.2375L391.1875 23.2375L391.1875 25.76875L388.4375 25.76875ZM388.4375 37.55L388.4375 27.175L391.1875 27.175L391.1875 37.55L388.4375 37.55ZM399.1875 27.175L399.1875 29.3625L397.3125 29.3625L397.3125 33.55Q397.3125 34.815624 397.35938 35.034374Q397.42188 35.2375 397.60938 35.378124Q397.8125 35.503124 398.07812 35.503124Q398.45312 35.503124 399.1875 35.2375L399.42188 37.378124Q398.45312 37.784374 397.25 37.784374Q396.5 37.784374 395.90625 37.534374Q395.3125 37.284374 395.03125 36.89375Q394.76562 36.4875 394.65625 35.815624Q394.5625 35.346874 394.5625 33.89375L394.5625 29.3625L393.29688 29.3625L393.29688 27.175L394.5625 27.175L394.5625 25.1125L397.3125 23.51875L397.3125 27.175L399.1875 27.175ZM400.46875 34.596874L403.21875 34.175Q403.40625 34.971874 403.9375 35.39375Q404.46875 35.8 405.4375 35.8Q406.5 35.8 407.04688 35.409374Q407.40625 35.14375 407.40625 34.675Q407.40625 34.3625 407.20312 34.159374Q407.0 33.971874 406.29688 33.8Q402.96875 33.065624 402.07812 32.45625Q400.84375 31.628124 400.84375 30.128124Q400.84375 28.784374 401.90625 27.8625Q402.98438 26.940624 405.21875 26.940624Q407.34375 26.940624 408.375 27.64375Q409.42188 28.33125 409.8125 29.690624L407.21875 30.159374Q407.04688 29.565624 406.57812 29.2375Q406.125 28.909374 405.26562 28.909374Q404.1875 28.909374 403.71875 29.221874Q403.40625 29.440624 403.40625 29.76875Q403.40625 30.065624 403.67188 30.26875Q404.04688 30.55 406.23438 31.05Q408.42188 31.55 409.29688 32.26875Q410.15625 33.003124 410.15625 34.3Q410.15625 35.7375 408.96875 36.76875Q407.78125 37.784374 405.4375 37.784374Q403.32812 37.784374 402.07812 36.925Q400.84375 36.065624 400.46875 34.596874Z" fill-rule="nonzero"/></svg>