<svg version="1.1" viewBox="0.0 0.0 600.0 371.0" fill="none" stroke="none" stroke-linecap="square" stroke-miterlimit="10" width="600" height="371" xmlns:xlink="http://www.w3.org/1999/xlink" xmlns="http://www.w3.org/2000/svg"><path fill="#ffffff" d="M0 0L600.0 0L600.0 371.0L0 371.0L0 0Z" fill-rule="nonzero"/><path stroke="#333333" stroke-width="1.0" stroke-linecap="butt" d="M45.5 318.5L581.5 318.5" fill-rule="nonzero"/><path stroke="#cccccc" stroke-width="1.0" stroke-linecap="butt" d="M45.5 232.5L581.5 232.5" fill-rule="nonzero"/><path stroke="#cccccc" stroke-width="1.0" stroke-linecap="butt" d="M45.5 147.5L581.5 147.5" fill-rule="nonzero"/><path stroke="#cccccc" stroke-width="1.0" stroke-linecap="butt" d="M45.5 61.5L581.5 61.5" fill-rule="nonzero"/><clipPath id="id_0"><path d="M45.55 61.916668L581.45 61.916668L581.45 318.45L45.55 318.45L45.55 61.916668Z" clip-rule="nonzero"/></clipPath><path stroke="#000000" stroke-width="2.0" stroke-linecap="butt" stroke-opacity="0.0" clip-path="url(#id_0)" d="M169.0 318.0L89.0 318.0L89.0 132.0C89.0 130.89543 89.89543 130.0 91.0 130.0L167.0 130.0C168.10457 130.0 169.0 130.89543 169.0 132.0Z" fill-rule="nonzero"/><path fill="#fbbc04" clip-path="url(#id_0)" d="M169.0 318.0L89.0 318.0L89.0 132.0C89.0 130.89543 89.89543 130.0 91.0 130.0L167.0 130.0C168.10457 130.0 169.0 130.89543 169.0 132.0Z" fill-rule="nonzero"/><path stroke="#000000" stroke-width="2.0" stroke-linecap="butt" stroke-opacity="0.0" clip-path="url(#id_0)" d="M292.0 318.0L212.0 318.0L212.0 64.0C212.0 62.89543 212.89543 62.0 214.0 62.0L290.0 62.0C291.10458 62.0 292.0 62.89543 292.0 64.0Z" fill-rule="nonzero"/><path fill="#ea4335" clip-path="url(#id_0)" d="M292.0 318.0L212.0 318.0L212.0 64.0C212.0 62.89543 212.89543 62.0 214.0 62.0L290.0 62.0C291.10458 62.0 292.0 62.89543 292.0 64.0Z" fill-rule="nonzero"/><path stroke="#000000" stroke-width="2.0" stroke-linecap="butt" stroke-opacity="0.0" clip-path="url(#id_0)" d="M415.0 318.0L335.0 318.0L335.0 184.0C335.0 182.89543 335.89542 182.0 337.0 182.0L413.0 182.0C414.10458 182.0 415.0 182.89543 415.0 184.0Z" fill-rule="nonzero"/><path fill="#4c1130" clip-path="url(#id_0)" d="M415.0 318.0L335.0 318.0L335.0 184.0C335.0 182.89543 335.89542 182.0 337.0 182.0L413.0 182.0C414.10458 182.0 415.0 182.89543 415.0 184.0Z" fill-rule="nonzero"/><path stroke="#000000" stroke-width="2.0" stroke-linecap="butt" stroke-opacity="0.0" clip-path="url(#id_0)" d="M538.0 318.0L458.0 318.0L458.0 286.0C458.0 284.89542 458.89542 284.0 460.0 284.0L536.0 284.0C537.10455 284.0 538.0 284.89542 538.0 286.0Z" fill-rule="nonzero"/><path fill="#000000" clip-path="url(#id_0)" d="M538.0 318.0L458.0 318.0L458.0 286.0C458.0 284.89542 458.89542 284.0 460.0 284.0L536.0 284.0C537.10455 284.0 538.0 284.89542 538.0 286.0Z" fill-rule="nonzero"/><path fill="#000000" d="M33.05 318.21564Q33.05 316.6844 33.3625 315.7625Q33.675 314.825 34.284374 314.325Q34.909374 313.825 35.846874 313.825Q36.534374 313.825 37.05 314.10626Q37.58125 314.3875 37.925 314.91876Q38.26875 315.4344 38.45625 316.1844Q38.64375 316.9344 38.64375 318.21564Q38.64375 319.73126 38.33125 320.65314Q38.034374 321.575 37.409374 322.09064Q36.8 322.59064 35.846874 322.59064Q34.6125 322.59064 33.89375 321.7Q33.05 320.6375 33.05 318.21564ZM34.128124 318.21564Q34.128124 320.325 34.628124 321.02814Q35.128124 321.73126 35.846874 321.73126Q36.58125 321.73126 37.065624 321.02814Q37.565624 320.325 37.565624 318.21564Q37.565624 316.09064 37.065624 315.40314Q36.58125 314.7 35.83125 314.7Q35.1125 314.7 34.675 315.3094Q34.128124 316.09064 34.128124 318.21564Z" fill-rule="nonzero"/><path fill="#000000" d="M30.01875 236.93889L28.971874 236.93889L28.971874 230.22014Q28.58125 230.57951 27.95625 230.95451Q27.346874 231.31389 26.8625 231.48576L26.8625 230.47014Q27.7375 230.04826 28.39375 229.47014Q29.065624 228.87639 29.346874 228.31389L30.01875 228.31389L30.01875 236.93889ZM33.05 232.70451Q33.05 231.17326 33.3625 230.25139Q33.675 229.31389 34.284374 228.81389Q34.909374 228.31389 35.846874 228.31389Q36.534374 228.31389 37.05 228.59514Q37.58125 228.87639 37.925 229.40764Q38.26875 229.92326 38.45625 230.67326Q38.64375 231.42326 38.64375 232.70451Q38.64375 234.22014 38.33125 235.14201Q38.034374 236.06389 37.409374 236.57951Q36.8 237.07951 35.846874 237.07951Q34.6125 237.07951 33.89375 236.18889Q33.05 235.12639 33.05 232.70451ZM34.128124 232.70451Q34.128124 234.81389 34.628124 235.51701Q35.128124 236.22014 35.846874 236.22014Q36.58125 236.22014 37.065624 235.51701Q37.565624 234.81389 37.565624 232.70451Q37.565624 230.57951 37.065624 229.89201Q36.58125 229.18889 35.83125 229.18889Q35.1125 229.18889 34.675 229.79826Q34.128124 230.57951 34.128124 232.70451Z" fill-rule="nonzero"/><path fill="#000000" d="M31.596874 150.41216L31.596874 151.42778L25.909374 151.42778Q25.909374 151.05278 26.034374 150.6934Q26.253124 150.11528 26.721874 149.55278Q27.20625 148.99028 28.1125 148.2559Q29.51875 147.09966 30.003124 146.42778Q30.503124 145.7559 30.503124 145.16216Q30.503124 144.53716 30.05 144.11528Q29.596874 143.67778 28.878124 143.67778Q28.1125 143.67778 27.659374 144.1309Q27.20625 144.58403 27.190624 145.39653L26.1125 145.28716Q26.221874 144.0684 26.940624 143.4434Q27.675 142.80278 28.909374 142.80278Q30.14375 142.80278 30.8625 143.49028Q31.58125 144.17778 31.58125 145.1934Q31.58125 145.70903 31.3625 146.20903Q31.159374 146.6934 30.659374 147.2559Q30.175 147.80278 29.05 148.7559Q28.096874 149.55278 27.815624 149.84966Q27.55 150.1309 27.378124 150.41216L31.596874 150.41216ZM33.05 147.1934Q33.05 145.66216 33.3625 144.74028Q33.675 143.80278 34.284374 143.30278Q34.909374 142.80278 35.846874 142.80278Q36.534374 142.80278 37.05 143.08403Q37.58125 143.36528 37.925 143.89653Q38.26875 144.41216 38.45625 145.16216Q38.64375 145.91216 38.64375 147.1934Q38.64375 148.70903 38.33125 149.6309Q38.034374 150.55278 37.409374 151.0684Q36.8 151.5684 35.846874 151.5684Q34.6125 151.5684 33.89375 150.67778Q33.05 149.61528 33.05 147.1934ZM34.128124 147.1934Q34.128124 149.30278 34.628124 150.0059Q35.128124 150.70903 35.846874 150.70903Q36.58125 150.70903 37.065624 150.0059Q37.565624 149.30278 37.565624 147.1934Q37.565624 145.0684 37.065624 144.3809Q36.58125 143.67778 35.83125 143.67778Q35.1125 143.67778 34.675 144.28716Q34.128124 145.0684 34.128124 147.1934Z" fill-rule="nonzero"/><path fill="#000000" d="M26.05 63.65104L27.1125 63.510414Q27.284374 64.40104 27.721874 64.80729Q28.159374 65.197914 28.784374 65.197914Q29.534374 65.197914 30.05 64.68229Q30.565624 64.166664 30.565624 63.40104Q30.565624 62.68229 30.08125 62.21354Q29.6125 61.729164 28.878124 61.729164Q28.58125 61.729164 28.128124 61.854164L28.253124 60.916664Q28.3625 60.93229 28.425 60.93229Q29.096874 60.93229 29.628124 60.58854Q30.175 60.229164 30.175 59.49479Q30.175 58.916664 29.784374 58.541664Q29.39375 58.15104 28.76875 58.15104Q28.159374 58.15104 27.7375 58.541664Q27.33125 58.93229 27.221874 59.697914L26.159374 59.510414Q26.346874 58.46354 27.034374 57.885414Q27.721874 57.291664 28.7375 57.291664Q29.440624 57.291664 30.034374 57.604164Q30.628124 57.90104 30.940624 58.416664Q31.253124 58.93229 31.253124 59.52604Q31.253124 60.072914 30.95625 60.541664Q30.659374 60.99479 30.08125 61.260414Q30.83125 61.43229 31.253124 61.99479Q31.675 62.541664 31.675 63.385414Q31.675 64.510414 30.846874 65.291664Q30.034374 66.072914 28.784374 66.072914Q27.659374 66.072914 26.909374 65.40104Q26.159374 64.71354 26.05 63.65104ZM33.05 61.68229Q33.05 60.15104 33.3625 59.229164Q33.675 58.291664 34.284374 57.791664Q34.909374 57.291664 35.846874 57.291664Q36.534374 57.291664 37.05 57.572914Q37.58125 57.854164 37.925 58.385414Q38.26875 58.90104 38.45625 59.65104Q38.64375 60.40104 38.64375 61.68229Q38.64375 63.197914 38.33125 64.11979Q38.034374 65.041664 37.409374 65.55729Q36.8 66.05729 35.846874 66.05729Q34.6125 66.05729 33.89375 65.166664Q33.05 64.104164 33.05 61.68229ZM34.128124 61.68229Q34.128124 63.791664 34.628124 64.49479Q35.128124 65.197914 35.846874 65.197914Q36.58125 65.197914 37.065624 64.49479Q37.565624 63.791664 37.565624 61.68229Q37.565624 59.55729 37.065624 58.86979Q36.58125 58.166664 35.83125 58.166664Q35.1125 58.166664 34.675 58.77604Q34.128124 59.55729 34.128124 61.68229Z" fill-rule="nonzero"/><path fill="#000000" d="M90.12877 335.45L90.12877 326.85626L93.09752 326.85626Q94.09752 326.85626 94.62877 326.98126Q95.363144 327.15314 95.87877 327.59064Q96.56627 328.16876 96.894394 329.075Q97.238144 329.96564 97.238144 331.10626Q97.238144 332.09064 97.00377 332.84064Q96.78502 333.59064 96.425644 334.09064Q96.06627 334.59064 95.62877 334.8719Q95.206894 335.15314 94.613144 335.3094Q94.019394 335.45 93.238144 335.45L90.12877 335.45ZM91.269394 334.4344L93.09752 334.4344Q93.956894 334.4344 94.44127 334.27814Q94.925644 334.1219 95.206894 333.825Q95.613144 333.4344 95.831894 332.7469Q96.06627 332.0594 96.06627 331.09064Q96.06627 329.7469 95.613144 329.02814Q95.175644 328.29376 94.550644 328.04376Q94.081894 327.8719 93.081894 327.8719L91.269394 327.8719L91.269394 334.4344ZM98.613144 332.34064Q98.613144 330.60626 99.56627 329.77814Q100.363144 329.09064 101.519394 329.09064Q102.800644 329.09064 103.613144 329.9344Q104.44127 330.7625 104.44127 332.2469Q104.44127 333.45 104.081894 334.1375Q103.72252 334.825 103.019394 335.21564Q102.331894 335.59064 101.519394 335.59064Q100.22252 335.59064 99.41002 334.7625Q98.613144 333.91876 98.613144 332.34064ZM99.69127 332.34064Q99.69127 333.52814 100.206894 334.1219Q100.738144 334.71564 101.519394 334.71564Q102.31627 334.71564 102.831894 334.1219Q103.34752 333.52814 103.34752 332.3094Q103.34752 331.15314 102.81627 330.5594Q102.300644 329.96564 101.519394 329.96564Q100.738144 329.96564 100.206894 330.5594Q99.69127 331.1375 99.69127 332.34064ZM105.613144 332.34064Q105.613144 330.60626 106.56627 329.77814Q107.363144 329.09064 108.519394 329.09064Q109.800644 329.09064 110.613144 329.9344Q111.44127 330.7625 111.44127 332.2469Q111.44127 333.45 111.081894 334.1375Q110.72252 334.825 110.019394 335.21564Q109.331894 335.59064 108.519394 335.59064Q107.22252 335.59064 106.41002 334.7625Q105.613144 333.91876 105.613144 332.34064ZM106.69127 332.34064Q106.69127 333.52814 107.206894 334.1219Q107.738144 334.71564 108.519394 334.71564Q109.31627 334.71564 109.831894 334.1219Q110.34752 333.52814 110.34752 332.3094Q110.34752 331.15314 109.81627 330.5594Q109.300644 329.96564 108.519394 329.96564Q107.738144 329.96564 107.206894 330.5594Q106.69127 331.1375 106.69127 332.34064ZM113.00377 335.45L113.00377 329.23126L113.94127 329.23126L113.94127 330.10626Q114.238144 329.6375 114.72252 329.3719Q115.206894 329.09064 115.831894 329.09064Q116.519394 329.09064 116.956894 329.3719Q117.41002 329.65314 117.581894 330.16876Q118.331894 329.09064 119.50377 329.09064Q120.44127 329.09064 120.925644 329.60626Q121.425644 330.10626 121.425644 331.1844L121.425644 335.45L120.37877 335.45L120.37877 331.52814Q120.37877 330.90314 120.269394 330.6219Q120.175644 330.34064 119.91002 330.16876Q119.644394 329.9969 119.269394 329.9969Q118.613144 329.9969 118.175644 330.4344Q117.75377 330.8719 117.75377 331.84064L117.75377 335.45L116.69127 335.45L116.69127 331.40314Q116.69127 330.7 116.425644 330.35626Q116.175644 329.9969 115.59752 329.9969Q115.144394 329.9969 114.769394 330.23126Q114.394394 330.46564 114.22252 330.91876Q114.050644 331.3719 114.050644 332.21564L114.050644 335.45L113.00377 335.45ZM122.581894 333.59064L123.613144 333.4344Q123.706894 334.0594 124.09752 334.3875Q124.50377 334.71564 125.238144 334.71564Q125.956894 334.71564 126.300644 334.4344Q126.66002 334.1375 126.66002 333.73126Q126.66002 333.3719 126.34752 333.16876Q126.12877 333.02814 125.269394 332.8094Q124.113144 332.5125 123.66002 332.3094Q123.22252 332.09064 122.988144 331.71564Q122.75377 331.34064 122.75377 330.8719Q122.75377 330.46564 122.94127 330.10626Q123.12877 329.7469 123.456894 329.5125Q123.706894 329.34064 124.12877 329.21564Q124.550644 329.09064 125.050644 329.09064Q125.769394 329.09064 126.31627 329.3094Q126.87877 329.5125 127.144394 329.8719Q127.41002 330.23126 127.50377 330.825L126.47252 330.96564Q126.41002 330.4969 126.06627 330.23126Q125.738144 329.95 125.113144 329.95Q124.394394 329.95 124.081894 330.2Q123.769394 330.4344 123.769394 330.7625Q123.769394 330.96564 123.894394 331.1219Q124.03502 331.29376 124.300644 331.40314Q124.456894 331.46564 125.238144 331.66876Q126.363144 331.98126 126.800644 332.16876Q127.238144 332.35626 127.488144 332.71564Q127.738144 333.075 127.738144 333.6219Q127.738144 334.15314 127.425644 334.6219Q127.12877 335.075 126.550644 335.34064Q125.97252 335.59064 125.238144 335.59064Q124.019394 335.59064 123.37877 335.09064Q122.75377 334.575 122.581894 333.59064ZM133.06627 333.16876L134.09752 333.3094Q133.92564 334.3719 133.22252 334.98126Q132.5194 335.59064 131.50377 335.59064Q130.22252 335.59064 129.44127 334.7625Q128.67564 333.91876 128.67564 332.35626Q128.67564 331.35626 129.00377 330.60626Q129.34752 329.84064 130.0194 329.46564Q130.7069 329.09064 131.5194 329.09064Q132.5194 329.09064 133.16002 329.60626Q133.81627 330.10626 134.00377 331.0594L132.97252 331.21564Q132.8319 330.59064 132.4569 330.27814Q132.0819 329.95 131.55064 329.95Q130.75377 329.95 130.25377 330.52814Q129.75377 331.09064 129.75377 332.325Q129.75377 333.59064 130.23814 334.15314Q130.72252 334.71564 131.48814 334.71564Q132.11314 334.71564 132.5194 334.34064Q132.94127 333.96564 133.06627 333.16876ZM134.98814 335.45L134.98814 329.23126L135.94127 329.23126L135.94127 330.16876Q136.30064 329.5125 136.59752 329.3094Q136.91002 329.09064 137.28502 329.09064Q137.81627 329.09064 138.36314 329.41876L138.00377 330.40314Q137.61314 330.16876 137.23814 330.16876Q136.87877 330.16876 136.59752 330.3875Q136.3319 330.59064 136.22252 330.96564Q136.03502 331.52814 136.03502 332.1844L136.03502 335.45L134.98814 335.45ZM138.61314 332.34064Q138.61314 330.60626 139.56627 329.77814Q140.36314 329.09064 141.5194 329.09064Q142.80064 329.09064 143.61314 329.9344Q144.44127 330.7625 144.44127 332.2469Q144.44127 333.45 144.0819 334.1375Q143.72252 334.825 143.0194 335.21564Q142.3319 335.59064 141.5194 335.59064Q140.22252 335.59064 139.41002 334.7625Q138.61314 333.91876 138.61314 332.34064ZM139.69127 332.34064Q139.69127 333.52814 140.2069 334.1219Q140.73814 334.71564 141.5194 334.71564Q142.31627 334.71564 142.8319 334.1219Q143.34752 333.52814 143.34752 332.3094Q143.34752 331.15314 142.81627 330.5594Q142.30064 329.96564 141.5194 329.96564Q140.73814 329.96564 140.2069 330.5594Q139.69127 331.1375 139.69127 332.34064ZM145.97252 335.45L145.97252 326.85626L147.03502 326.85626L147.03502 335.45L145.97252 335.45ZM148.97252 335.45L148.97252 326.85626L150.03502 326.85626L150.03502 335.45L148.97252 335.45ZM152.00377 328.075L152.00377 326.85626L153.06627 326.85626L153.06627 328.075L152.00377 328.075ZM152.00377 335.45L152.00377 329.23126L153.06627 329.23126L153.06627 335.45L152.00377 335.45ZM155.00377 335.45L155.00377 329.23126L155.94127 329.23126L155.94127 330.10626Q156.62877 329.09064 157.92564 329.09064Q158.48814 329.09064 158.9569 329.29376Q159.44127 329.4969 159.67564 329.825Q159.91002 330.15314 160.00377 330.59064Q160.05064 330.8875 160.05064 331.6219L160.05064 335.45L159.00377 335.45L159.00377 331.66876Q159.00377 331.0125 158.87877 330.7Q158.75377 330.3875 158.44127 330.2Q158.12877 329.9969 157.7069 329.9969Q157.03502 329.9969 156.53502 330.4344Q156.05064 330.85626 156.05064 332.04376L156.05064 335.45L155.00377 335.45ZM161.80064 335.96564L162.8319 336.1219Q162.8944 336.59064 163.19127 336.8094Q163.5819 337.10626 164.25377 337.10626Q164.98814 337.10626 165.37877 336.8094Q165.78502 336.5125 165.92564 335.9969Q166.0194 335.66876 166.00377 334.6375Q165.31627 335.45 164.28502 335.45Q163.00377 335.45 162.30064 334.52814Q161.59752 333.59064 161.59752 332.3094Q161.59752 331.41876 161.91002 330.66876Q162.23814 329.90314 162.84752 329.4969Q163.4569 329.09064 164.28502 329.09064Q165.3944 329.09064 166.11314 329.98126L166.11314 329.23126L167.0819 329.23126L167.0819 334.60626Q167.0819 336.0594 166.78502 336.66876Q166.48814 337.27814 165.84752 337.6219Q165.2069 337.98126 164.2694 337.98126Q163.16002 337.98126 162.47252 337.48126Q161.78502 336.98126 161.80064 335.96564ZM162.67564 332.23126Q162.67564 333.45 163.16002 334.0125Q163.6444 334.575 164.37877 334.575Q165.11314 334.575 165.59752 334.0125Q166.09752 333.45 166.09752 332.2625Q166.09752 331.1219 165.5819 330.54376Q165.0819 329.96564 164.36314 329.96564Q163.66002 329.96564 163.16002 330.54376Q162.67564 331.10626 162.67564 332.23126Z" fill-rule="nonzero"/><path fill="#000000" d="M199.88667 335.45L199.88667 326.85626L205.68355 326.85626L205.68355 327.8719L201.0273 327.8719L201.0273 330.52814L205.05855 330.52814L205.05855 331.54376L201.0273 331.54376L201.0273 335.45L199.88667 335.45ZM210.94917 333.45L212.04292 333.575Q211.79292 334.52814 211.0898 335.0594Q210.38667 335.59064 209.30855 335.59064Q207.94917 335.59064 207.13667 334.7469Q206.3398 333.90314 206.3398 332.3875Q206.3398 330.825 207.1523 329.96564Q207.9648 329.09064 209.24605 329.09064Q210.49605 329.09064 211.2773 329.9344Q212.07417 330.77814 212.07417 332.325Q212.07417 332.41876 212.07417 332.60626L207.43355 332.60626Q207.49605 333.6375 208.01167 334.1844Q208.5273 334.71564 209.30855 334.71564Q209.88667 334.71564 210.29292 334.41876Q210.7148 334.10626 210.94917 333.45ZM207.49605 331.7469L210.9648 331.7469Q210.9023 330.95 210.57417 330.5594Q210.05855 329.95 209.26167 329.95Q208.5273 329.95 208.0273 330.4344Q207.54292 330.91876 207.49605 331.7469ZM217.94917 333.45L219.04292 333.575Q218.79292 334.52814 218.0898 335.0594Q217.38667 335.59064 216.30855 335.59064Q214.94917 335.59064 214.13667 334.7469Q213.3398 333.90314 213.3398 332.3875Q213.3398 330.825 214.1523 329.96564Q214.9648 329.09064 216.24605 329.09064Q217.49605 329.09064 218.2773 329.9344Q219.07417 330.77814 219.07417 332.325Q219.07417 332.41876 219.07417 332.60626L214.43355 332.60626Q214.49605 333.6375 215.01167 334.1844Q215.5273 334.71564 216.30855 334.71564Q216.88667 334.71564 217.29292 334.41876Q217.7148 334.10626 217.94917 333.45ZM214.49605 331.7469L217.9648 331.7469Q217.9023 330.95 217.57417 330.5594Q217.05855 329.95 216.26167 329.95Q215.5273 329.95 215.0273 330.4344Q214.54292 330.91876 214.49605 331.7469ZM220.66792 335.45L220.66792 326.85626L221.73042 326.85626L221.73042 335.45L220.66792 335.45ZM223.69917 328.075L223.69917 326.85626L224.76167 326.85626L224.76167 328.075L223.69917 328.075ZM223.69917 335.45L223.69917 329.23126L224.76167 329.23126L224.76167 335.45L223.69917 335.45ZM226.69917 335.45L226.69917 329.23126L227.63667 329.23126L227.63667 330.10626Q228.32417 329.09064 229.62105 329.09064Q230.18355 329.09064 230.6523 329.29376Q231.13667 329.4969 231.37105 329.825Q231.60542 330.15314 231.69917 330.59064Q231.74605 330.8875 231.74605 331.6219L231.74605 335.45L230.69917 335.45L230.69917 331.66876Q230.69917 331.0125 230.57417 330.7Q230.44917 330.3875 230.13667 330.2Q229.82417 329.9969 229.4023 329.9969Q228.73042 329.9969 228.23042 330.4344Q227.74605 330.85626 227.74605 332.04376L227.74605 335.45L226.69917 335.45ZM233.49605 335.96564L234.5273 336.1219Q234.5898 336.59064 234.88667 336.8094Q235.2773 337.10626 235.94917 337.10626Q236.68355 337.10626 237.07417 336.8094Q237.48042 336.5125 237.62105 335.9969Q237.7148 335.66876 237.69917 334.6375Q237.01167 335.45 235.98042 335.45Q234.69917 335.45 233.99605 334.52814Q233.29292 333.59064 233.29292 332.3094Q233.29292 331.41876 233.60542 330.66876Q233.93355 329.90314 234.54292 329.4969Q235.1523 329.09064 235.98042 329.09064Q237.0898 329.09064 237.80855 329.98126L237.80855 329.23126L238.7773 329.23126L238.7773 334.60626Q238.7773 336.0594 238.48042 336.66876Q238.18355 337.27814 237.54292 337.6219Q236.9023 337.98126 235.9648 337.98126Q234.85542 337.98126 234.16792 337.48126Q233.48042 336.98126 233.49605 335.96564ZM234.37105 332.23126Q234.37105 333.45 234.85542 334.0125Q235.3398 334.575 236.07417 334.575Q236.80855 334.575 237.29292 334.0125Q237.79292 333.45 237.79292 332.2625Q237.79292 331.1219 237.2773 330.54376Q236.7773 329.96564 236.05855 329.96564Q235.35542 329.96564 234.85542 330.54376Q234.37105 331.10626 234.37105 332.23126ZM243.69917 328.075L243.69917 326.85626L244.76167 326.85626L244.76167 328.075L243.69917 328.075ZM243.69917 335.45L243.69917 329.23126L244.76167 329.23126L244.76167 335.45L243.69917 335.45ZM246.2773 333.59064L247.30855 333.4344Q247.4023 334.0594 247.79292 334.3875Q248.19917 334.71564 248.93355 334.71564Q249.6523 334.71564 249.99605 334.4344Q250.35542 334.1375 250.35542 333.73126Q250.35542 333.3719 250.04292 333.16876Q249.82417 333.02814 248.9648 332.8094Q247.80855 332.5125 247.35542 332.3094Q246.91792 332.09064 246.68355 331.71564Q246.44917 331.34064 246.44917 330.8719Q246.44917 330.46564 246.63667 330.10626Q246.82417 329.7469 247.1523 329.5125Q247.4023 329.34064 247.82417 329.21564Q248.24605 329.09064 248.74605 329.09064Q249.4648 329.09064 250.01167 329.3094Q250.57417 329.5125 250.8398 329.8719Q251.10542 330.23126 251.19917 330.825L250.16792 330.96564Q250.10542 330.4969 249.76167 330.23126Q249.43355 329.95 248.80855 329.95Q248.0898 329.95 247.7773 330.2Q247.4648 330.4344 247.4648 330.7625Q247.4648 330.96564 247.5898 331.1219Q247.73042 331.29376 247.99605 331.40314Q248.1523 331.46564 248.93355 331.66876Q250.05855 331.98126 250.49605 332.16876Q250.93355 332.35626 251.18355 332.71564Q251.43355 333.075 251.43355 333.6219Q251.43355 334.15314 251.12105 334.6219Q250.82417 335.075 250.24605 335.34064Q249.66792 335.59064 248.93355 335.59064Q247.7148 335.59064 247.07417 335.09064Q246.44917 334.575 246.2773 333.59064ZM252.30855 332.34064Q252.30855 330.60626 253.26167 329.77814Q254.05855 329.09064 255.2148 329.09064Q256.49603 329.09064 257.30853 329.9344Q258.13666 330.7625 258.13666 332.2469Q258.13666 333.45 257.77728 334.1375Q257.4179 334.825 256.71478 335.21564Q256.02728 335.59064 255.2148 335.59064Q253.91792 335.59064 253.10542 334.7625Q252.30855 333.91876 252.30855 332.34064ZM253.38667 332.34064Q253.38667 333.52814 253.9023 334.1219Q254.43355 334.71564 255.2148 334.71564Q256.01166 334.71564 256.52728 334.1219Q257.0429 333.52814 257.0429 332.3094Q257.0429 331.15314 256.51166 330.5594Q255.99605 329.96564 255.2148 329.96564Q254.43355 329.96564 253.9023 330.5594Q253.38667 331.1375 253.38667 332.34064ZM259.6679 335.45L259.6679 326.85626L260.7304 326.85626L260.7304 335.45L259.6679 335.45ZM266.76166 334.6844Q266.1679 335.1844 265.62103 335.3875Q265.08978 335.59064 264.46478 335.59064Q263.43353 335.59064 262.88666 335.09064Q262.33978 334.59064 262.33978 333.8094Q262.33978 333.35626 262.5429 332.98126Q262.74603 332.59064 263.08978 332.3719Q263.43353 332.1375 263.8554 332.02814Q264.15228 331.9344 264.7929 331.85626Q266.05853 331.71564 266.6679 331.4969Q266.6679 331.27814 266.6679 331.23126Q266.6679 330.575 266.37103 330.3094Q265.96478 329.96564 265.1679 329.96564Q264.43353 329.96564 264.07416 330.23126Q263.71478 330.48126 263.5429 331.1375L262.51166 330.9969Q262.65228 330.34064 262.9804 329.9344Q263.30853 329.52814 263.9179 329.3094Q264.52728 329.09064 265.32416 329.09064Q266.12103 329.09064 266.62103 329.27814Q267.12103 329.46564 267.3554 329.7469Q267.58978 330.02814 267.68353 330.46564Q267.7304 330.73126 267.7304 331.4344L267.7304 332.84064Q267.7304 334.3094 267.7929 334.7Q267.87103 335.09064 268.07416 335.45L266.96478 335.45Q266.80853 335.1219 266.76166 334.6844ZM266.6679 332.325Q266.08978 332.5594 264.94916 332.73126Q264.2929 332.825 264.02728 332.95Q263.76166 333.0594 263.6054 333.27814Q263.46478 333.4969 263.46478 333.77814Q263.46478 334.2 263.77728 334.48126Q264.1054 334.7625 264.71478 334.7625Q265.32416 334.7625 265.7929 334.4969Q266.27728 334.23126 266.49603 333.7625Q266.6679 333.40314 266.6679 332.71564L266.6679 332.325ZM271.99603 334.5125L272.15228 335.4344Q271.69916 335.52814 271.3554 335.52814Q270.77728 335.52814 270.46478 335.35626Q270.15228 335.16876 270.01166 334.8719Q269.88666 334.575 269.88666 333.6219L269.88666 330.04376L269.12103 330.04376L269.12103 329.23126L269.88666 329.23126L269.88666 327.6844L270.93353 327.0594L270.93353 329.23126L271.99603 329.23126L271.99603 330.04376L270.93353 330.04376L270.93353 333.6844Q270.93353 334.1375 270.9804 334.2625Q271.0429 334.3875 271.1679 334.46564Q271.2929 334.54376 271.52728 334.54376Q271.71478 334.54376 271.99603 334.5125ZM276.94916 333.45L278.0429 333.575Q277.7929 334.52814 277.08978 335.0594Q276.38666 335.59064 275.30853 335.59064Q273.94916 335.59064 273.13666 334.7469Q272.33978 333.90314 272.33978 332.3875Q272.33978 330.825 273.15228 329.96564Q273.96478 329.09064 275.24603 329.09064Q276.49603 329.09064 277.27728 329.9344Q278.07416 330.77814 278.07416 332.325Q278.07416 332.41876 278.07416 332.60626L273.43353 332.60626Q273.49603 333.6375 274.01166 334.1844Q274.52728 334.71564 275.30853 334.71564Q275.88666 334.71564 276.2929 334.41876Q276.71478 334.10626 276.94916 333.45ZM273.49603 331.7469L276.96478 331.7469Q276.90228 330.95 276.57416 330.5594Q276.05853 329.95 275.26166 329.95Q274.52728 329.95 274.02728 330.4344Q273.5429 330.91876 273.49603 331.7469ZM283.7304 335.45L283.7304 334.66876Q283.13666 335.59064 281.99603 335.59064Q281.24603 335.59064 280.62103 335.1844Q279.99603 334.7625 279.65228 334.02814Q279.30853 333.29376 279.30853 332.34064Q279.30853 331.41876 279.62103 330.65314Q279.93353 329.8875 280.55853 329.4969Q281.18353 329.09064 281.94916 329.09064Q282.51166 329.09064 282.94916 329.325Q283.38666 329.5594 283.6679 329.9344L283.6679 326.85626L284.71478 326.85626L284.71478 335.45L283.7304 335.45ZM280.40228 332.34064Q280.40228 333.54376 280.90228 334.1375Q281.40228 334.71564 282.08978 334.71564Q282.77728 334.71564 283.26166 334.15314Q283.74603 333.59064 283.74603 332.4344Q283.74603 331.15314 283.24603 330.5594Q282.76166 329.96564 282.0429 329.96564Q281.33978 329.96564 280.87103 330.54376Q280.40228 331.10626 280.40228 332.34064ZM289.65228 337.84064L289.52728 336.85626Q289.87103 336.95 290.13666 336.95Q290.4804 336.95 290.68353 336.825Q290.90228 336.71564 291.0429 336.5125Q291.13666 336.34064 291.37103 335.71564Q291.38666 335.6375 291.46478 335.46564L289.08978 329.23126L290.2304 329.23126L291.52728 332.825Q291.77728 333.5125 291.9804 334.27814Q292.1679 333.54376 292.4179 332.85626L293.74603 329.23126L294.7929 329.23126L292.43353 335.5594Q292.0429 336.575 291.83978 336.96564Q291.55853 337.4969 291.18353 337.73126Q290.82416 337.98126 290.32416 337.98126Q290.02728 337.98126 289.65228 337.84064ZM299.94916 333.45L301.0429 333.575Q300.7929 334.52814 300.08978 335.0594Q299.38666 335.59064 298.30853 335.59064Q296.94916 335.59064 296.13666 334.7469Q295.33978 333.90314 295.33978 332.3875Q295.33978 330.825 296.15228 329.96564Q296.96478 329.09064 298.24603 329.09064Q299.49603 329.09064 300.27728 329.9344Q301.07416 330.77814 301.07416 332.325Q301.07416 332.41876 301.07416 332.60626L296.43353 332.60626Q296.49603 333.6375 297.01166 334.1844Q297.52728 334.71564 298.30853 334.71564Q298.88666 334.71564 299.2929 334.41876Q299.71478 334.10626 299.94916 333.45ZM296.49603 331.7469L299.96478 331.7469Q299.90228 330.95 299.57416 330.5594Q299.05853 329.95 298.26166 329.95Q297.52728 329.95 297.02728 330.4344Q296.5429 330.91876 296.49603 331.7469ZM304.99603 334.5125L305.15228 335.4344Q304.69916 335.52814 304.3554 335.52814Q303.77728 335.52814 303.46478 335.35626Q303.15228 335.16876 303.01166 334.8719Q302.88666 334.575 302.88666 333.6219L302.88666 330.04376L302.12103 330.04376L302.12103 329.23126L302.88666 329.23126L302.88666 327.6844L303.93353 327.0594L303.93353 329.23126L304.99603 329.23126L304.99603 330.04376L303.93353 330.04376L303.93353 333.6844Q303.93353 334.1375 303.9804 334.2625Q304.0429 334.3875 304.1679 334.46564Q304.2929 334.54376 304.52728 334.54376Q304.71478 334.54376 304.99603 334.5125Z" fill-rule="nonzero"/><path fill="#000000" d="M228.26167 347.16876L229.29292 347.3094Q229.12105 348.3719 228.41792 348.98126Q227.7148 349.59064 226.69917 349.59064Q225.41792 349.59064 224.63667 348.7625Q223.87105 347.91876 223.87105 346.35626Q223.87105 345.35626 224.19917 344.60626Q224.54292 343.84064 225.2148 343.46564Q225.9023 343.09064 226.7148 343.09064Q227.7148 343.09064 228.35542 343.60626Q229.01167 344.10626 229.19917 345.0594L228.16792 345.21564Q228.0273 344.59064 227.6523 344.27814Q227.2773 343.95 226.74605 343.95Q225.94917 343.95 225.44917 344.52814Q224.94917 345.09064 224.94917 346.325Q224.94917 347.59064 225.43355 348.15314Q225.91792 348.71564 226.68355 348.71564Q227.30855 348.71564 227.7148 348.34064Q228.13667 347.96564 228.26167 347.16876ZM229.80855 346.34064Q229.80855 344.60626 230.76167 343.77814Q231.55855 343.09064 232.7148 343.09064Q233.99605 343.09064 234.80855 343.9344Q235.63667 344.7625 235.63667 346.2469Q235.63667 347.45 235.2773 348.1375Q234.91792 348.825 234.2148 349.21564Q233.5273 349.59064 232.7148 349.59064Q231.41792 349.59064 230.60542 348.7625Q229.80855 347.91876 229.80855 346.34064ZM230.88667 346.34064Q230.88667 347.52814 231.4023 348.1219Q231.93355 348.71564 232.7148 348.71564Q233.51167 348.71564 234.0273 348.1219Q234.54292 347.52814 234.54292 346.3094Q234.54292 345.15314 234.01167 344.5594Q233.49605 343.96564 232.7148 343.96564Q231.93355 343.96564 231.4023 344.5594Q230.88667 345.1375 230.88667 346.34064ZM237.19917 349.45L237.19917 343.23126L238.13667 343.23126L238.13667 344.10626Q238.82417 343.09064 240.12105 343.09064Q240.68355 343.09064 241.1523 343.29376Q241.63667 343.4969 241.87105 343.825Q242.10542 344.15314 242.19917 344.59064Q242.24605 344.8875 242.24605 345.6219L242.24605 349.45L241.19917 349.45L241.19917 345.66876Q241.19917 345.0125 241.07417 344.7Q240.94917 344.3875 240.63667 344.2Q240.32417 343.9969 239.9023 343.9969Q239.23042 343.9969 238.73042 344.4344Q238.24605 344.85626 238.24605 346.04376L238.24605 349.45L237.19917 349.45ZM244.19917 349.45L244.19917 343.23126L245.13667 343.23126L245.13667 344.10626Q245.82417 343.09064 247.12105 343.09064Q247.68355 343.09064 248.1523 343.29376Q248.63667 343.4969 248.87105 343.825Q249.10542 344.15314 249.19917 344.59064Q249.24605 344.8875 249.24605 345.6219L249.24605 349.45L248.19917 349.45L248.19917 345.66876Q248.19917 345.0125 248.07417 344.7Q247.94917 344.3875 247.63667 344.2Q247.32417 343.9969 246.9023 343.9969Q246.23042 343.9969 245.73042 344.4344Q245.24605 344.85626 245.24605 346.04376L245.24605 349.45L244.19917 349.45ZM255.44917 347.45L256.5429 347.575Q256.2929 348.52814 255.5898 349.0594Q254.88667 349.59064 253.80855 349.59064Q252.44917 349.59064 251.63667 348.7469Q250.8398 347.90314 250.8398 346.3875Q250.8398 344.825 251.6523 343.96564Q252.4648 343.09064 253.74605 343.09064Q254.99605 343.09064 255.7773 343.9344Q256.57416 344.77814 256.57416 346.325Q256.57416 346.41876 256.57416 346.60626L251.93355 346.60626Q251.99605 347.6375 252.51167 348.1844Q253.0273 348.71564 253.80855 348.71564Q254.38667 348.71564 254.79292 348.41876Q255.2148 348.10626 255.44917 347.45ZM251.99605 345.7469L255.4648 345.7469Q255.4023 344.95 255.07417 344.5594Q254.55855 343.95 253.76167 343.95Q253.0273 343.95 252.5273 344.4344Q252.04292 344.91876 251.99605 345.7469ZM262.26166 347.16876L263.2929 347.3094Q263.12103 348.3719 262.4179 348.98126Q261.71478 349.59064 260.69916 349.59064Q259.4179 349.59064 258.63666 348.7625Q257.87103 347.91876 257.87103 346.35626Q257.87103 345.35626 258.19916 344.60626Q258.5429 343.84064 259.21478 343.46564Q259.90228 343.09064 260.71478 343.09064Q261.71478 343.09064 262.3554 343.60626Q263.01166 344.10626 263.19916 345.0594L262.1679 345.21564Q262.02728 344.59064 261.65228 344.27814Q261.27728 343.95 260.74603 343.95Q259.94916 343.95 259.44916 344.52814Q258.94916 345.09064 258.94916 346.325Q258.94916 347.59064 259.43353 348.15314Q259.9179 348.71564 260.68353 348.71564Q261.30853 348.71564 261.71478 348.34064Q262.13666 347.96564 262.26166 347.16876ZM266.49603 348.5125L266.65228 349.4344Q266.19916 349.52814 265.8554 349.52814Q265.27728 349.52814 264.96478 349.35626Q264.65228 349.16876 264.51166 348.8719Q264.38666 348.575 264.38666 347.6219L264.38666 344.04376L263.62103 344.04376L263.62103 343.23126L264.38666 343.23126L264.38666 341.6844L265.43353 341.0594L265.43353 343.23126L266.49603 343.23126L266.49603 344.04376L265.43353 344.04376L265.43353 347.6844Q265.43353 348.1375 265.4804 348.2625Q265.5429 348.3875 265.6679 348.46564Q265.7929 348.54376 266.02728 348.54376Q266.21478 348.54376 266.49603 348.5125ZM271.44916 347.45L272.5429 347.575Q272.2929 348.52814 271.58978 349.0594Q270.88666 349.59064 269.80853 349.59064Q268.44916 349.59064 267.63666 348.7469Q266.83978 347.90314 266.83978 346.3875Q266.83978 344.825 267.65228 343.96564Q268.46478 343.09064 269.74603 343.09064Q270.99603 343.09064 271.77728 343.9344Q272.57416 344.77814 272.57416 346.325Q272.57416 346.41876 272.57416 346.60626L267.93353 346.60626Q267.99603 347.6375 268.51166 348.1844Q269.02728 348.71564 269.80853 348.71564Q270.38666 348.71564 270.7929 348.41876Q271.21478 348.10626 271.44916 347.45ZM267.99603 345.7469L271.46478 345.7469Q271.40228 344.95 271.07416 344.5594Q270.55853 343.95 269.76166 343.95Q269.02728 343.95 268.52728 344.4344Q268.0429 344.91876 267.99603 345.7469ZM278.2304 349.45L278.2304 348.66876Q277.63666 349.59064 276.49603 349.59064Q275.74603 349.59064 275.12103 349.1844Q274.49603 348.7625 274.15228 348.02814Q273.80853 347.29376 273.80853 346.34064Q273.80853 345.41876 274.12103 344.65314Q274.43353 343.8875 275.05853 343.4969Q275.68353 343.09064 276.44916 343.09064Q277.01166 343.09064 277.44916 343.325Q277.88666 343.5594 278.1679 343.9344L278.1679 340.85626L279.21478 340.85626L279.21478 349.45L278.2304 349.45ZM274.90228 346.34064Q274.90228 347.54376 275.40228 348.1375Q275.90228 348.71564 276.58978 348.71564Q277.27728 348.71564 277.76166 348.15314Q278.24603 347.59064 278.24603 346.4344Q278.24603 345.15314 277.74603 344.5594Q277.26166 343.96564 276.5429 343.96564Q275.83978 343.96564 275.37103 344.54376Q274.90228 345.10626 274.90228 346.34064Z" fill-rule="nonzero"/><path fill="#000000" d="M340.14456 332.6844L341.20706 332.59064Q341.2852 333.2469 341.56644 333.65314Q341.8477 334.0594 342.4258 334.325Q343.01956 334.575 343.75394 334.575Q344.39456 334.575 344.89456 334.3875Q345.39456 334.1844 345.62894 333.85626Q345.87894 333.5125 345.87894 333.1219Q345.87894 332.71564 345.64456 332.41876Q345.4102 332.10626 344.87894 331.90314Q344.51956 331.7625 343.33206 331.48126Q342.1602 331.2 341.69144 330.95Q341.06644 330.6219 340.76956 330.15314Q340.4727 329.66876 340.4727 329.075Q340.4727 328.4344 340.83206 327.8719Q341.20706 327.29376 341.9102 327.0125Q342.62894 326.71564 343.4883 326.71564Q344.44144 326.71564 345.1758 327.02814Q345.9102 327.325 346.3008 327.9344Q346.69144 328.52814 346.7227 329.27814L345.62894 329.35626Q345.5352 328.54376 345.01956 328.1375Q344.51956 327.71564 343.5352 327.71564Q342.50394 327.71564 342.0352 328.09064Q341.56644 328.46564 341.56644 328.9969Q341.56644 329.46564 341.89456 329.7625Q342.2227 330.0594 343.5977 330.3719Q344.9883 330.6844 345.50394 330.91876Q346.25394 331.27814 346.6133 331.8094Q346.9727 332.325 346.9727 333.02814Q346.9727 333.71564 346.58206 334.325Q346.19144 334.91876 345.45706 335.2625Q344.7227 335.59064 343.8008 335.59064Q342.62894 335.59064 341.83206 335.2625Q341.0508 334.91876 340.5977 334.23126Q340.1602 333.54376 340.14456 332.6844ZM348.00394 332.34064Q348.00394 330.60626 348.95706 329.77814Q349.75394 329.09064 350.9102 329.09064Q352.19144 329.09064 353.00394 329.9344Q353.83206 330.7625 353.83206 332.2469Q353.83206 333.45 353.4727 334.1375Q353.1133 334.825 352.4102 335.21564Q351.7227 335.59064 350.9102 335.59064Q349.6133 335.59064 348.8008 334.7625Q348.00394 333.91876 348.00394 332.34064ZM349.08206 332.34064Q349.08206 333.52814 349.5977 334.1219Q350.12894 334.71564 350.9102 334.71564Q351.70706 334.71564 352.2227 334.1219Q352.7383 333.52814 352.7383 332.3094Q352.7383 331.15314 352.20706 330.5594Q351.69144 329.96564 350.9102 329.96564Q350.12894 329.96564 349.5977 330.5594Q349.08206 331.1375 349.08206 332.34064ZM359.45706 333.16876L360.4883 333.3094Q360.31644 334.3719 359.6133 334.98126Q358.9102 335.59064 357.89456 335.59064Q356.6133 335.59064 355.83206 334.7625Q355.06644 333.91876 355.06644 332.35626Q355.06644 331.35626 355.39456 330.60626Q355.7383 329.84064 356.4102 329.46564Q357.0977 329.09064 357.9102 329.09064Q358.9102 329.09064 359.5508 329.60626Q360.20706 330.10626 360.39456 331.0594L359.3633 331.21564Q359.2227 330.59064 358.8477 330.27814Q358.4727 329.95 357.94144 329.95Q357.14456 329.95 356.64456 330.52814Q356.14456 331.09064 356.14456 332.325Q356.14456 333.59064 356.62894 334.15314Q357.1133 334.71564 357.87894 334.71564Q358.50394 334.71564 358.9102 334.34064Q359.33206 333.96564 359.45706 333.16876ZM361.39456 328.075L361.39456 326.85626L362.45706 326.85626L362.45706 328.075L361.39456 328.075ZM361.39456 335.45L361.39456 329.23126L362.45706 329.23126L362.45706 335.45L361.39456 335.45ZM368.45706 334.6844Q367.8633 335.1844 367.31644 335.3875Q366.7852 335.59064 366.1602 335.59064Q365.12894 335.59064 364.58206 335.09064Q364.0352 334.59064 364.0352 333.8094Q364.0352 333.35626 364.2383 332.98126Q364.44144 332.59064 364.7852 332.3719Q365.12894 332.1375 365.5508 332.02814Q365.8477 331.9344 366.4883 331.85626Q367.75394 331.71564 368.3633 331.4969Q368.3633 331.27814 368.3633 331.23126Q368.3633 330.575 368.06644 330.3094Q367.6602 329.96564 366.8633 329.96564Q366.12894 329.96564 365.76956 330.23126Q365.4102 330.48126 365.2383 331.1375L364.20706 330.9969Q364.3477 330.34064 364.6758 329.9344Q365.00394 329.52814 365.6133 329.3094Q366.2227 329.09064 367.01956 329.09064Q367.81644 329.09064 368.31644 329.27814Q368.81644 329.46564 369.0508 329.7469Q369.2852 330.02814 369.37894 330.46564Q369.4258 330.73126 369.4258 331.4344L369.4258 332.84064Q369.4258 334.3094 369.4883 334.7Q369.56644 335.09064 369.76956 335.45L368.6602 335.45Q368.50394 335.1219 368.45706 334.6844ZM368.3633 332.325Q367.7852 332.5594 366.64456 332.73126Q365.9883 332.825 365.7227 332.95Q365.45706 333.0594 365.3008 333.27814Q365.1602 333.4969 365.1602 333.77814Q365.1602 334.2 365.4727 334.48126Q365.8008 334.7625 366.4102 334.7625Q367.01956 334.7625 367.4883 334.4969Q367.9727 334.23126 368.19144 333.7625Q368.3633 333.40314 368.3633 332.71564L368.3633 332.325ZM371.3633 335.45L371.3633 326.85626L372.4258 326.85626L372.4258 335.45L371.3633 335.45ZM377.4883 335.45L377.4883 326.85626L379.20706 326.85626L381.2383 332.9344Q381.51956 333.79376 381.64456 334.21564Q381.7852 333.7469 382.0977 332.84064L384.1602 326.85626L385.69144 326.85626L385.69144 335.45L384.5977 335.45L384.5977 328.2625L382.0977 335.45L381.06644 335.45L378.58206 328.1375L378.58206 335.45L377.4883 335.45ZM391.64456 333.45L392.7383 333.575Q392.4883 334.52814 391.7852 335.0594Q391.08206 335.59064 390.00394 335.59064Q388.64456 335.59064 387.83206 334.7469Q387.0352 333.90314 387.0352 332.3875Q387.0352 330.825 387.8477 329.96564Q388.6602 329.09064 389.94144 329.09064Q391.19144 329.09064 391.9727 329.9344Q392.76956 330.77814 392.76956 332.325Q392.76956 332.41876 392.76956 332.60626L388.12894 332.60626Q388.19144 333.6375 388.70706 334.1844Q389.2227 334.71564 390.00394 334.71564Q390.58206 334.71564 390.9883 334.41876Q391.4102 334.10626 391.64456 333.45ZM388.19144 331.7469L391.6602 331.7469Q391.5977 330.95 391.26956 330.5594Q390.75394 329.95 389.95706 329.95Q389.2227 329.95 388.7227 330.4344Q388.2383 330.91876 388.19144 331.7469ZM398.4258 335.45L398.4258 334.66876Q397.83206 335.59064 396.69144 335.59064Q395.94144 335.59064 395.31644 335.1844Q394.69144 334.7625 394.3477 334.02814Q394.00394 333.29376 394.00394 332.34064Q394.00394 331.41876 394.31644 330.65314Q394.62894 329.8875 395.25394 329.4969Q395.87894 329.09064 396.64456 329.09064Q397.20706 329.09064 397.64456 329.325Q398.08206 329.5594 398.3633 329.9344L398.3633 326.85626L399.4102 326.85626L399.4102 335.45L398.4258 335.45ZM395.0977 332.34064Q395.0977 333.54376 395.5977 334.1375Q396.0977 334.71564 396.7852 334.71564Q397.4727 334.71564 397.95706 334.15314Q398.44144 333.59064 398.44144 332.4344Q398.44144 331.15314 397.94144 330.5594Q397.45706 329.96564 396.7383 329.96564Q396.0352 329.96564 395.56644 330.54376Q395.0977 331.10626 395.0977 332.34064ZM401.39456 328.075L401.39456 326.85626L402.45706 326.85626L402.45706 328.075L401.39456 328.075ZM401.39456 335.45L401.39456 329.23126L402.45706 329.23126L402.45706 335.45L401.39456 335.45ZM408.45706 334.6844Q407.8633 335.1844 407.31644 335.3875Q406.7852 335.59064 406.1602 335.59064Q405.12894 335.59064 404.58206 335.09064Q404.0352 334.59064 404.0352 333.8094Q404.0352 333.35626 404.2383 332.98126Q404.44144 332.59064 404.7852 332.3719Q405.12894 332.1375 405.5508 332.02814Q405.8477 331.9344 406.4883 331.85626Q407.75394 331.71564 408.3633 331.4969Q408.3633 331.27814 408.3633 331.23126Q408.3633 330.575 408.06644 330.3094Q407.6602 329.96564 406.8633 329.96564Q406.12894 329.96564 405.76956 330.23126Q405.4102 330.48126 405.2383 331.1375L404.20706 330.9969Q404.3477 330.34064 404.6758 329.9344Q405.00394 329.52814 405.6133 329.3094Q406.2227 329.09064 407.01956 329.09064Q407.81644 329.09064 408.31644 329.27814Q408.81644 329.46564 409.0508 329.7469Q409.2852 330.02814 409.37894 330.46564Q409.4258 330.73126 409.4258 331.4344L409.4258 332.84064Q409.4258 334.3094 409.4883 334.7Q409.56644 335.09064 409.76956 335.45L408.6602 335.45Q408.50394 335.1219 408.45706 334.6844ZM408.3633 332.325Q407.7852 332.5594 406.64456 332.73126Q405.9883 332.825 405.7227 332.95Q405.45706 333.0594 405.3008 333.27814Q405.1602 333.4969 405.1602 333.77814Q405.1602 334.2 405.4727 334.48126Q405.8008 334.7625 406.4102 334.7625Q407.01956 334.7625 407.4883 334.4969Q407.9727 334.23126 408.19144 333.7625Q408.3633 333.40314 408.3633 332.71564L408.3633 332.325Z" fill-rule="nonzero"/><path fill="#000000" d="M483.87122 331.2625Q483.87122 329.1219 485.01184 327.91876Q486.1681 326.7 487.9806 326.7Q489.18372 326.7 490.13684 327.27814Q491.08997 327.84064 491.58997 328.85626Q492.08997 329.8719 492.08997 331.16876Q492.08997 332.46564 491.55872 333.4969Q491.02747 334.52814 490.05872 335.0594Q489.1056 335.59064 487.9806 335.59064Q486.76184 335.59064 485.80872 335.0125Q484.8556 334.41876 484.3556 333.41876Q483.87122 332.40314 483.87122 331.2625ZM485.0431 331.27814Q485.0431 332.84064 485.87122 333.73126Q486.71497 334.6219 487.9806 334.6219Q489.26184 334.6219 490.08997 333.73126Q490.9181 332.825 490.9181 331.15314Q490.9181 330.10626 490.55872 329.325Q490.21497 328.54376 489.52747 328.1219Q488.83997 327.6844 487.99622 327.6844Q486.7931 327.6844 485.9181 328.5125Q485.0431 329.34064 485.0431 331.27814ZM495.38684 334.5125L495.5431 335.4344Q495.08997 335.52814 494.74622 335.52814Q494.1681 335.52814 493.8556 335.35626Q493.5431 335.16876 493.40247 334.8719Q493.27747 334.575 493.27747 333.6219L493.27747 330.04376L492.51184 330.04376L492.51184 329.23126L493.27747 329.23126L493.27747 327.6844L494.32434 327.0594L494.32434 329.23126L495.38684 329.23126L495.38684 330.04376L494.32434 330.04376L494.32434 333.6844Q494.32434 334.1375 494.37122 334.2625Q494.43372 334.3875 494.55872 334.46564Q494.68372 334.54376 494.9181 334.54376Q495.1056 334.54376 495.38684 334.5125ZM496.08997 335.45L496.08997 326.85626L497.13684 326.85626L497.13684 329.9344Q497.87122 329.09064 498.99622 329.09064Q499.69934 329.09064 500.19934 329.3719Q500.71497 329.6375 500.93372 330.1219Q501.15247 330.59064 501.15247 331.5125L501.15247 335.45L500.1056 335.45L500.1056 331.5125Q500.1056 330.71564 499.76184 330.35626Q499.4181 329.9969 498.7931 329.9969Q498.32434 329.9969 497.90247 330.2469Q497.49622 330.48126 497.30872 330.90314Q497.13684 331.3094 497.13684 332.04376L497.13684 335.45L496.08997 335.45ZM507.33997 333.45L508.43372 333.575Q508.18372 334.52814 507.4806 335.0594Q506.77747 335.59064 505.69934 335.59064Q504.33997 335.59064 503.52747 334.7469Q502.7306 333.90314 502.7306 332.3875Q502.7306 330.825 503.5431 329.96564Q504.3556 329.09064 505.63684 329.09064Q506.88684 329.09064 507.6681 329.9344Q508.46497 330.77814 508.46497 332.325Q508.46497 332.41876 508.46497 332.60626L503.82434 332.60626Q503.88684 333.6375 504.40247 334.1844Q504.9181 334.71564 505.69934 334.71564Q506.27747 334.71564 506.68372 334.41876Q507.1056 334.10626 507.33997 333.45ZM503.88684 331.7469L507.3556 331.7469Q507.2931 330.95 506.96497 330.5594Q506.44934 329.95 505.65247 329.95Q504.9181 329.95 504.4181 330.4344Q503.93372 330.91876 503.88684 331.7469ZM510.07434 335.45L510.07434 329.23126L511.02747 329.23126L511.02747 330.16876Q511.38684 329.5125 511.68372 329.3094Q511.99622 329.09064 512.3712 329.09064Q512.90247 329.09064 513.44934 329.41876L513.08997 330.40314Q512.69934 330.16876 512.32434 330.16876Q511.96497 330.16876 511.68372 330.3875Q511.4181 330.59064 511.30872 330.96564Q511.12122 331.52814 511.12122 332.1844L511.12122 335.45L510.07434 335.45Z" fill-rule="nonzero"/><path fill="#000000" d="M118.984375 37.55L115.5625 23.2375L118.53125 23.2375L120.6875 33.065624L123.296875 23.2375L126.734375 23.2375L129.25 33.2375L131.45312 23.2375L134.35938 23.2375L130.875 37.55L127.8125 37.55L124.96875 26.846874L122.125 37.55L118.984375 37.55ZM138.67188 23.2375L138.67188 28.503124Q140.0 26.940624 141.84375 26.940624Q142.79688 26.940624 143.54688 27.3Q144.3125 27.64375 144.70312 28.190624Q145.09375 28.7375 145.23438 29.409374Q145.375 30.065624 145.375 31.471874L145.375 37.55L142.625 37.55L142.625 32.065624Q142.625 30.440624 142.46875 30.003124Q142.3125 29.565624 141.90625 29.315624Q141.51562 29.05 140.92188 29.05Q140.25 29.05 139.70312 29.378124Q139.17188 29.70625 138.92188 30.378124Q138.67188 31.05 138.67188 32.346874L138.67188 37.55L135.92188 37.55L135.92188 23.2375L138.67188 23.2375ZM149.98438 30.346874L147.5 29.89375Q147.92188 28.39375 148.9375 27.675Q149.96875 26.940624 151.98438 26.940624Q153.82812 26.940624 154.71875 27.378124Q155.625 27.815624 155.98438 28.4875Q156.35938 29.14375 156.35938 30.940624L156.32812 34.14375Q156.32812 35.503124 156.45312 36.159374Q156.59375 36.8 156.95312 37.55L154.23438 37.55Q154.125 37.26875 153.96875 36.7375Q153.90625 36.4875 153.875 36.409374Q153.17188 37.096874 152.35938 37.440624Q151.5625 37.784374 150.65625 37.784374Q149.0625 37.784374 148.14062 36.925Q147.21875 36.05 147.21875 34.721874Q147.21875 33.83125 147.625 33.14375Q148.04688 32.45625 148.79688 32.096874Q149.5625 31.721874 151.0 31.45625Q152.92188 31.096874 153.65625 30.784374L153.65625 30.503124Q153.65625 29.721874 153.26562 29.39375Q152.875 29.05 151.79688 29.05Q151.0625 29.05 150.64062 29.33125Q150.23438 29.6125 149.98438 30.346874ZM153.65625 32.565624Q153.125 32.7375 151.98438 32.9875Q150.84375 33.2375 150.5 33.471874Q149.95312 33.846874 149.95312 34.440624Q149.95312 35.003124 150.375 35.425Q150.8125 35.846874 151.48438 35.846874Q152.21875 35.846874 152.89062 35.3625Q153.39062 34.9875 153.54688 34.45625Q153.65625 34.096874 153.65625 33.1125L153.65625 32.565624ZM163.6875 27.175L163.6875 29.3625L161.8125 29.3625L161.8125 33.55Q161.8125 34.815624 161.85938 35.034374Q161.92188 35.2375 162.10938 35.378124Q162.3125 35.503124 162.57812 35.503124Q162.95312 35.503124 163.6875 35.2375L163.92188 37.378124Q162.95312 37.784374 161.75 37.784374Q161.0 37.784374 160.40625 37.534374Q159.8125 37.284374 159.53125 36.89375Q159.26562 36.4875 159.15625 35.815624Q159.0625 35.346874 159.0625 33.89375L159.0625 29.3625L157.79688 29.3625L157.79688 27.175L159.0625 27.175L159.0625 25.1125L161.8125 23.51875L161.8125 27.175L163.6875 27.175ZM174.67188 23.2375L174.67188 28.503124Q176.0 26.940624 177.84375 26.940624Q178.79688 26.940624 179.54688 27.3Q180.3125 27.64375 180.70312 28.190624Q181.09375 28.7375 181.23438 29.409374Q181.375 30.065624 181.375 31.471874L181.375 37.55L178.625 37.55L178.625 32.065624Q178.625 30.440624 178.46875 30.003124Q178.3125 29.565624 177.90625 29.315624Q177.51562 29.05 176.92188 29.05Q176.25 29.05 175.70312 29.378124Q175.17188 29.70625 174.92188 30.378124Q174.67188 31.05 174.67188 32.346874L174.67188 37.55L171.92188 37.55L171.92188 23.2375L174.67188 23.2375ZM185.98438 30.346874L183.5 29.89375Q183.92188 28.39375 184.9375 27.675Q185.96875 26.940624 187.98438 26.940624Q189.82812 26.940624 190.71875 27.378124Q191.625 27.815624 191.98438 28.4875Q192.35938 29.14375 192.35938 30.940624L192.32812 34.14375Q192.32812 35.503124 192.45312 36.159374Q192.59375 36.8 192.95312 37.55L190.23438 37.55Q190.125 37.26875 189.96875 36.7375Q189.90625 36.4875 189.875 36.409374Q189.17188 37.096874 188.35938 37.440624Q187.5625 37.784374 186.65625 37.784374Q185.0625 37.784374 184.14062 36.925Q183.21875 36.05 183.21875 34.721874Q183.21875 33.83125 183.625 33.14375Q184.04688 32.45625 184.79688 32.096874Q185.5625 31.721874 187.0 31.45625Q188.92188 31.096874 189.65625 30.784374L189.65625 30.503124Q189.65625 29.721874 189.26562 29.39375Q188.875 29.05 187.79688 29.05Q187.0625 29.05 186.64062 29.33125Q186.23438 29.6125 185.98438 30.346874ZM189.65625 32.565624Q189.125 32.7375 187.98438 32.9875Q186.84375 33.2375 186.5 33.471874Q185.95312 33.846874 185.95312 34.440624Q185.95312 35.003124 186.375 35.425Q186.8125 35.846874 187.48438 35.846874Q188.21875 35.846874 188.89062 35.3625Q189.39062 34.9875 189.54688 34.45625Q189.65625 34.096874 189.65625 33.1125L189.65625 32.565624ZM193.96875 34.596874L196.71875 34.175Q196.90625 34.971874 197.4375 35.39375Q197.96875 35.8 198.9375 35.8Q200.0 35.8 200.54688 35.409374Q200.90625 35.14375 200.90625 34.675Q200.90625 34.3625 200.70312 34.159374Q200.5 33.971874 199.79688 33.8Q196.46875 33.065624 195.57812 32.45625Q194.34375 31.628124 194.34375 30.128124Q194.34375 28.784374 195.40625 27.8625Q196.48438 26.940624 198.71875 26.940624Q200.84375 26.940624 201.875 27.64375Q202.92188 28.33125 203.3125 29.690624L200.71875 30.159374Q200.54688 29.565624 200.07812 29.2375Q199.625 28.909374 198.76562 28.909374Q197.6875 28.909374 197.21875 29.221874Q196.90625 29.440624 196.90625 29.76875Q196.90625 30.065624 197.17188 30.26875Q197.54688 30.55 199.73438 31.05Q201.92188 31.55 202.79688 32.26875Q203.65625 33.003124 203.65625 34.3Q203.65625 35.7375 202.46875 36.76875Q201.28125 37.784374 198.9375 37.784374Q196.82812 37.784374 195.57812 36.925Q194.34375 36.065624 193.96875 34.596874ZM213.98438 30.346874L211.5 29.89375Q211.92188 28.39375 212.9375 27.675Q213.96875 26.940624 215.98438 26.940624Q217.82812 26.940624 218.71875 27.378124Q219.625 27.815624 219.98438 28.4875Q220.35938 29.14375 220.35938 30.940624L220.32812 34.14375Q220.32812 35.503124 220.45312 36.159374Q220.59375 36.8 220.95312 37.55L218.23438 37.55Q218.125 37.26875 217.96875 36.7375Q217.90625 36.4875 217.875 36.409374Q217.17188 37.096874 216.35938 37.440624Q215.5625 37.784374 214.65625 37.784374Q213.0625 37.784374 212.14062 36.925Q211.21875 36.05 211.21875 34.721874Q211.21875 33.83125 211.625 33.14375Q212.04688 32.45625 212.79688 32.096874Q213.5625 31.721874 215.0 31.45625Q216.92188 31.096874 217.65625 30.784374L217.65625 30.503124Q217.65625 29.721874 217.26562 29.39375Q216.875 29.05 215.79688 29.05Q215.0625 29.05 214.64062 29.33125Q214.23438 29.6125 213.98438 30.346874ZM217.65625 32.565624Q217.125 32.7375 215.98438 32.9875Q214.84375 33.2375 214.5 33.471874Q213.95312 33.846874 213.95312 34.440624Q213.95312 35.003124 214.375 35.425Q214.8125 35.846874 215.48438 35.846874Q216.21875 35.846874 216.89062 35.3625Q217.39062 34.9875 217.54688 34.45625Q217.65625 34.096874 217.65625 33.1125L217.65625 32.565624ZM221.73438 27.175L223.26562 27.175L223.26562 26.39375Q223.26562 25.08125 223.53125 24.440624Q223.8125 23.8 224.5625 23.39375Q225.3125 22.9875 226.45312 22.9875Q227.625 22.9875 228.75 23.346874L228.375 25.253124Q227.71875 25.096874 227.10938 25.096874Q226.51562 25.096874 226.25 25.378124Q226.0 25.659374 226.0 26.440624L226.0 27.175L228.04688 27.175L228.04688 29.33125L226.0 29.33125L226.0 37.55L223.26562 37.55L223.26562 29.33125L221.73438 29.33125L221.73438 27.175ZM228.73438 27.175L230.26562 27.175L230.26562 26.39375Q230.26562 25.08125 230.53125 24.440624Q230.8125 23.8 231.5625 23.39375Q232.3125 22.9875 233.45312 22.9875Q234.625 22.9875 235.75 23.346874L235.375 25.253124Q234.71875 25.096874 234.10938 25.096874Q233.51562 25.096874 233.25 25.378124Q233.0 25.659374 233.0 26.440624L233.0 27.175L235.04688 27.175L235.04688 29.33125L233.0 29.33125L233.0 37.55L230.26562 37.55L230.26562 29.33125L228.73438 29.33125L228.73438 27.175ZM242.9375 34.253124L245.67188 34.70625Q245.15625 36.20625 244.01562 37.003124Q242.875 37.784374 241.17188 37.784374Q238.45312 37.784374 237.15625 36.01875Q236.14062 34.596874 236.14062 32.440624Q236.14062 29.8625 237.48438 28.409374Q238.82812 26.940624 240.89062 26.940624Q243.20312 26.940624 244.53125 28.471874Q245.875 30.003124 245.82812 33.159374L238.95312 33.159374Q238.98438 34.378124 239.60938 35.065624Q240.25 35.7375 241.1875 35.7375Q241.84375 35.7375 242.28125 35.39375Q242.71875 35.034374 242.9375 34.253124ZM243.09375 31.471874Q243.0625 30.284374 242.46875 29.675Q241.89062 29.05 241.0625 29.05Q240.15625 29.05 239.57812 29.690624Q238.98438 30.346874 239.0 31.471874L243.09375 31.471874ZM256.98438 30.2375L254.28125 30.7375Q254.14062 29.925 253.65625 29.51875Q253.17188 29.096874 252.40625 29.096874Q251.375 29.096874 250.76562 29.815624Q250.15625 30.51875 250.15625 32.175Q250.15625 34.01875 250.76562 34.784374Q251.39062 35.55 252.4375 35.55Q253.21875 35.55 253.71875 35.1125Q254.21875 34.659374 254.42188 33.58125L257.10938 34.034374Q256.70312 35.89375 255.5 36.846874Q254.3125 37.784374 252.3125 37.784374Q250.03125 37.784374 248.67188 36.346874Q247.32812 34.909374 247.32812 32.378124Q247.32812 29.8 248.6875 28.378124Q250.04688 26.940624 252.35938 26.940624Q254.25 26.940624 255.35938 27.76875Q256.48438 28.58125 256.98438 30.2375ZM263.6875 27.175L263.6875 29.3625L261.8125 29.3625L261.8125 33.55Q261.8125 34.815624 261.85938 35.034374Q261.92188 35.2375 262.10938 35.378124Q262.3125 35.503124 262.57812 35.503124Q262.95312 35.503124 263.6875 35.2375L263.92188 37.378124Q262.95312 37.784374 261.75 37.784374Q261.0 37.784374 260.40625 37.534374Q259.8125 37.284374 259.53125 36.89375Q259.26562 36.4875 259.15625 35.815624Q259.0625 35.346874 259.0625 33.89375L259.0625 29.3625L257.79688 29.3625L257.79688 27.175L259.0625 27.175L259.0625 25.1125L261.8125 23.51875L261.8125 27.175L263.6875 27.175ZM271.9375 34.253124L274.67188 34.70625Q274.15625 36.20625 273.01562 37.003124Q271.875 37.784374 270.17188 37.784374Q267.45312 37.784374 266.15625 36.01875Q265.14062 34.596874 265.14062 32.440624Q265.14062 29.8625 266.48438 28.409374Q267.82812 26.940624 269.89062 26.940624Q272.20312 26.940624 273.53125 28.471874Q274.875 30.003124 274.82812 33.159374L267.95312 33.159374Q267.98438 34.378124 268.60938 35.065624Q269.25 35.7375 270.1875 35.7375Q270.84375 35.7375 271.28125 35.39375Q271.71875 35.034374 271.9375 34.253124ZM272.09375 31.471874Q272.0625 30.284374 271.46875 29.675Q270.89062 29.05 270.0625 29.05Q269.15625 29.05 268.57812 29.690624Q267.98438 30.346874 268.0 31.471874L272.09375 31.471874ZM286.45312 37.55L283.90625 37.55L283.90625 36.01875Q283.26562 36.909374 282.39062 37.346874Q281.53125 37.784374 280.65625 37.784374Q278.875 37.784374 277.59375 36.346874Q276.32812 34.909374 276.32812 32.33125Q276.32812 29.690624 277.5625 28.315624Q278.79688 26.940624 280.70312 26.940624Q282.4375 26.940624 283.70312 28.39375L283.70312 23.2375L286.45312 23.2375L286.45312 37.55ZM279.125 32.14375Q279.125 33.8 279.57812 34.534374Q280.25 35.6125 281.4375 35.6125Q282.39062 35.6125 283.04688 34.815624Q283.71875 34.003124 283.71875 32.409374Q283.71875 30.6125 283.0625 29.83125Q282.42188 29.05 281.42188 29.05Q280.4375 29.05 279.78125 29.83125Q279.125 30.596874 279.125 32.14375ZM293.64062 27.175L296.5625 27.175L299.03125 34.534374L301.45312 27.175L304.29688 27.175L300.64062 37.159374L299.98438 38.971874Q299.625 39.878124 299.29688 40.346874Q298.96875 40.83125 298.54688 41.128124Q298.125 41.425 297.5 41.58125Q296.875 41.753124 296.09375 41.753124Q295.3125 41.753124 294.54688 41.596874L294.29688 39.440624Q294.95312 39.565624 295.46875 39.565624Q296.42188 39.565624 296.875 39.003124Q297.34375 38.45625 297.57812 37.58125L293.64062 27.175ZM305.29688 32.221874Q305.29688 30.846874 305.96875 29.565624Q306.65625 28.284374 307.89062 27.6125Q309.125 26.940624 310.64062 26.940624Q313.0 26.940624 314.5 28.471874Q316.0 30.003124 316.0 32.33125Q316.0 34.690624 314.48438 36.2375Q312.96875 37.784374 310.65625 37.784374Q309.23438 37.784374 307.9375 37.14375Q306.65625 36.4875 305.96875 35.253124Q305.29688 34.003124 305.29688 32.221874ZM308.10938 32.3625Q308.10938 33.909374 308.84375 34.7375Q309.57812 35.55 310.65625 35.55Q311.73438 35.55 312.45312 34.7375Q313.1875 33.909374 313.1875 32.346874Q313.1875 30.815624 312.45312 30.003124Q311.73438 29.175 310.65625 29.175Q309.57812 29.175 308.84375 30.003124Q308.10938 30.815624 308.10938 32.3625ZM324.76562 37.55L324.76562 36.003124Q324.20312 36.83125 323.26562 37.315624Q322.34375 37.784374 321.32812 37.784374Q320.28125 37.784374 319.45312 37.33125Q318.625 36.8625 318.25 36.034374Q317.875 35.20625 317.875 33.7375L317.875 27.175L320.625 27.175L320.625 31.940624Q320.625 34.128124 320.76562 34.628124Q320.92188 35.1125 321.3125 35.409374Q321.71875 35.690624 322.34375 35.690624Q323.04688 35.690624 323.59375 35.315624Q324.15625 34.925 324.35938 34.3625Q324.5625 33.784374 324.5625 31.55L324.5625 27.175L327.3125 27.175L327.3125 37.55L324.76562 37.55ZM332.5625 37.55L329.8125 37.55L329.8125 27.175L332.375 27.175L332.375 28.659374Q333.01562 27.6125 333.53125 27.284374Q334.0625 26.940624 334.73438 26.940624Q335.67188 26.940624 336.53125 27.45625L335.6875 29.846874Q335.0 29.409374 334.40625 29.409374Q333.82812 29.409374 333.42188 29.721874Q333.01562 30.034374 332.78125 30.878124Q332.5625 31.70625 332.5625 34.346874L332.5625 37.55ZM343.73438 27.175L346.26562 27.175L346.26562 28.596874Q347.625 26.940624 349.5 26.940624Q350.48438 26.940624 351.21875 27.3625Q351.95312 27.76875 352.42188 28.596874Q353.10938 27.76875 353.89062 27.3625Q354.6875 26.940624 355.59375 26.940624Q356.73438 26.940624 357.51562 27.409374Q358.3125 27.878124 358.70312 28.76875Q358.98438 29.440624 358.98438 30.925L358.98438 37.55L356.23438 37.55L356.23438 31.628124Q356.23438 30.08125 355.95312 29.628124Q355.57812 29.05 354.78125 29.05Q354.20312 29.05 353.6875 29.409374Q353.1875 29.753124 352.96875 30.425Q352.75 31.096874 352.75 32.565624L352.75 37.55L350.0 37.55L350.0 31.8625Q350.0 30.346874 349.84375 29.909374Q349.70312 29.471874 349.39062 29.26875Q349.09375 29.05 348.5625 29.05Q347.9375 29.05 347.42188 29.39375Q346.92188 29.721874 346.6875 30.378124Q346.46875 31.01875 346.46875 32.503124L346.46875 37.55L343.73438 37.55L343.73438 27.175ZM367.9375 34.253124L370.67188 34.70625Q370.15625 36.20625 369.01562 37.003124Q367.875 37.784374 366.17188 37.784374Q363.45312 37.784374 362.15625 36.01875Q361.14062 34.596874 361.14062 32.440624Q361.14062 29.8625 362.48438 28.409374Q363.82812 26.940624 365.89062 26.940624Q368.20312 26.940624 369.53125 28.471874Q370.875 30.003124 370.82812 33.159374L363.95312 33.159374Q363.98438 34.378124 364.60938 35.065624Q365.25 35.7375 366.1875 35.7375Q366.84375 35.7375 367.28125 35.39375Q367.71875 35.034374 367.9375 34.253124ZM368.09375 31.471874Q368.0625 30.284374 367.46875 29.675Q366.89062 29.05 366.0625 29.05Q365.15625 29.05 364.57812 29.690624Q363.98438 30.346874 364.0 31.471874L368.09375 31.471874ZM382.375 37.55L379.625 37.55L379.625 32.253124Q379.625 30.58125 379.45312 30.096874Q379.28125 29.596874 378.875 29.33125Q378.48438 29.05 377.92188 29.05Q377.21875 29.05 376.64062 29.440624Q376.07812 29.83125 375.85938 30.471874Q375.65625 31.1125 375.65625 32.846874L375.65625 37.55L372.92188 37.55L372.92188 27.175L375.46875 27.175L375.46875 28.70625Q376.82812 26.940624 378.89062 26.940624Q379.79688 26.940624 380.54688 27.26875Q381.29688 27.596874 381.67188 28.1125Q382.0625 28.6125 382.21875 29.26875Q382.375 29.909374 382.375 31.096874L382.375 37.55ZM389.6875 27.175L389.6875 29.3625L387.8125 29.3625L387.8125 33.55Q387.8125 34.815624 387.85938 35.034374Q387.92188 35.2375 388.10938 35.378124Q388.3125 35.503124 388.57812 35.503124Q388.95312 35.503124 389.6875 35.2375L389.92188 37.378124Q388.95312 37.784374 387.75 37.784374Q387.0 37.784374 386.40625 37.534374Q385.8125 37.284374 385.53125 36.89375Q385.26562 36.4875 385.15625 35.815624Q385.0625 35.346874 385.0625 33.89375L385.0625 29.3625L383.79688 29.3625L383.79688 27.175L385.0625 27.175L385.0625 25.1125L387.8125 23.51875L387.8125 27.175L389.6875 27.175ZM393.98438 30.346874L391.5 29.89375Q391.92188 28.39375 392.9375 27.675Q393.96875 26.940624 395.98438 26.940624Q397.82812 26.940624 398.71875 27.378124Q399.625 27.815624 399.98438 28.4875Q400.35938 29.14375 400.35938 30.940624L400.32812 34.14375Q400.32812 35.503124 400.45312 36.159374Q400.59375 36.8 400.95312 37.55L398.23438 37.55Q398.125 37.26875 397.96875 36.7375Q397.90625 36.4875 397.875 36.409374Q397.17188 37.096874 396.35938 37.440624Q395.5625 37.784374 394.65625 37.784374Q393.0625 37.784374 392.14062 36.925Q391.21875 36.05 391.21875 34.721874Q391.21875 33.83125 391.625 33.14375Q392.04688 32.45625 392.79688 32.096874Q393.5625 31.721874 395.0 31.45625Q396.92188 31.096874 397.65625 30.784374L397.65625 30.503124Q397.65625 29.721874 397.26562 29.39375Q396.875 29.05 395.79688 29.05Q395.0625 29.05 394.64062 29.33125Q394.23438 29.6125 393.98438 30.346874ZM397.65625 32.565624Q397.125 32.7375 395.98438 32.9875Q394.84375 33.2375 394.5 33.471874Q393.95312 33.846874 393.95312 34.440624Q393.95312 35.003124 394.375 35.425Q394.8125 35.846874 395.48438 35.846874Q396.21875 35.846874 396.89062 35.3625Q397.39062 34.9875 397.54688 34.45625Q397.65625 34.096874 397.65625 33.1125L397.65625 32.565624ZM402.9375 37.55L402.9375 23.2375L405.6875 23.2375L405.6875 37.55L402.9375 37.55ZM417.67188 23.2375L417.67188 28.503124Q419.0 26.940624 420.84375 26.940624Q421.79688 26.940624 422.54688 27.3Q423.3125 27.64375 423.70312 28.190624Q424.09375 28.7375 424.23438 29.409374Q424.375 30.065624 424.375 31.471874L424.375 37.55L421.625 37.55L421.625 32.065624Q421.625 30.440624 421.46875 30.003124Q421.3125 29.565624 420.90625 29.315624Q420.51562 29.05 419.92188 29.05Q419.25 29.05 418.70312 29.378124Q418.17188 29.70625 417.92188 30.378124Q417.67188 31.05 417.67188 32.346874L417.67188 37.55L414.92188 37.55L414.92188 23.2375L417.67188 23.2375ZM432.9375 34.253124L435.67188 34.70625Q435.15625 36.20625 434.01562 37.003124Q432.875 37.784374 431.17188 37.784374Q428.45312 37.784374 427.15625 36.01875Q426.14062 34.596874 426.14062 32.440624Q426.14062 29.8625 427.48438 28.409374Q428.82812 26.940624 430.89062 26.940624Q433.20312 26.940624 434.53125 28.471874Q435.875 30.003124 435.82812 33.159374L428.95312 33.159374Q428.98438 34.378124 429.60938 35.065624Q430.25 35.7375 431.1875 35.7375Q431.84375 35.7375 432.28125 35.39375Q432.71875 35.034374 432.9375 34.253124ZM433.09375 31.471874Q433.0625 30.284374 432.46875 29.675Q431.89062 29.05 431.0625 29.05Q430.15625 29.05 429.57812 29.690624Q428.98438 30.346874 429.0 31.471874L433.09375 31.471874ZM439.98438 30.346874L437.5 29.89375Q437.92188 28.39375 438.9375 27.675Q439.96875 26.940624 441.98438 26.940624Q443.82812 26.940624 444.71875 27.378124Q445.625 27.815624 445.98438 28.4875Q446.35938 29.14375 446.35938 30.940624L446.32812 34.14375Q446.32812 35.503124 446.45312 36.159374Q446.59375 36.8 446.95312 37.55L444.23438 37.55Q444.125 37.26875 443.96875 36.7375Q443.90625 36.4875 443.875 36.409374Q443.17188 37.096874 442.35938 37.440624Q441.5625 37.784374 440.65625 37.784374Q439.0625 37.784374 438.14062 36.925Q437.21875 36.05 437.21875 34.721874Q437.21875 33.83125 437.625 33.14375Q438.04688 32.45625 438.79688 32.096874Q439.5625 31.721874 441.0 31.45625Q442.92188 31.096874 443.65625 30.784374L443.65625 30.503124Q443.65625 29.721874 443.26562 29.39375Q442.875 29.05 441.79688 29.05Q441.0625 29.05 440.64062 29.33125Q440.23438 29.6125 439.98438 30.346874ZM443.65625 32.565624Q443.125 32.7375 441.98438 32.9875Q440.84375 33.2375 440.5 33.471874Q439.95312 33.846874 439.95312 34.440624Q439.95312 35.003124 440.375 35.425Q440.8125 35.846874 441.48438 35.846874Q442.21875 35.846874 442.89062 35.3625Q443.39062 34.9875 443.54688 34.45625Q443.65625 34.096874 443.65625 33.1125L443.65625 32.565624ZM448.9375 37.55L448.9375 23.2375L451.6875 23.2375L451.6875 37.55L448.9375 37.55ZM459.6875 27.175L459.6875 29.3625L457.8125 29.3625L457.8125 33.55Q457.8125 34.815624 457.85938 35.034374Q457.92188 35.2375 458.10938 35.378124Q458.3125 35.503124 458.57812 35.503124Q458.95312 35.503124 459.6875 35.2375L459.92188 37.378124Q458.95312 37.784374 457.75 37.784374Q457.0 37.784374 456.40625 37.534374Q455.8125 37.284374 455.53125 36.89375Q455.26562 36.4875 455.15625 35.815624Q455.0625 35.346874 455.0625 33.89375L455.0625 29.3625L453.79688 29.3625L453.79688 27.175L455.0625 27.175L455.0625 25.1125L457.8125 23.51875L457.8125 27.175L459.6875 27.175ZM464.67188 23.2375L464.67188 28.503124Q466.0 26.940624 467.84375 26.940624Q468.79688 26.940624 469.54688 27.3Q470.3125 27.64375 470.70312 28.190624Q471.09375 28.7375 471.23438 29.409374Q471.375 30.065624 471.375 31.471874L471.375 37.55L468.625 37.55L468.625 32.065624Q468.625 30.440624 468.46875 30.003124Q468.3125 29.565624 467.90625 29.315624Q467.51562 29.05 466.92188 29.05Q466.25 29.05 465.70312 29.378124Q465.17188 29.70625 464.92188 30.378124Q464.67188 31.05 464.67188 32.346874L464.67188 37.55L461.92188 37.55L461.92188 23.2375L464.67188 23.2375ZM479.82812 33.8625L477.34375 33.8625Q477.32812 33.315624 477.32812 33.20625Q477.32812 31.9875 477.73438 31.20625Q478.14062 30.425 479.32812 29.45625Q480.53125 28.471874 480.76562 28.175Q481.14062 27.690624 481.14062 27.1125Q481.14062 26.315624 480.5 25.753124Q479.85938 25.175 478.76562 25.175Q477.71875 25.175 477.01562 25.76875Q476.3125 26.3625 476.0625 27.58125L473.53125 27.26875Q473.64062 25.534374 475.01562 24.315624Q476.40625 23.08125 478.65625 23.08125Q481.01562 23.08125 482.40625 24.315624Q483.8125 25.55 483.8125 27.190624Q483.8125 28.1125 483.29688 28.925Q482.78125 29.721874 481.10938 31.128124Q480.23438 31.846874 480.01562 32.284374Q479.8125 32.721874 479.82812 33.8625ZM477.34375 37.55L477.34375 34.8L480.09375 34.8L480.09375 37.55L477.34375 37.55Z" fill-rule="nonzero"/></svg>