<svg version="1.1" viewBox="0.0 0.0 600.0 371.0" fill="none" stroke="none" stroke-linecap="square" stroke-miterlimit="10" width="600" height="371" xmlns:xlink="http://www.w3.org/1999/xlink" xmlns="http://www.w3.org/2000/svg"><path fill="#ffffff" d="M0 0L600.0 0L600.0 371.0L0 371.0L0 0Z" fill-rule="nonzero"/><path stroke="#333333" stroke-width="1.0" stroke-linecap="butt" d="M85.5 54.5L85.5 332.5" fill-rule="nonzero"/><path stroke="#cccccc" stroke-width="1.0" stroke-linecap="butt" d="M184.5 54.5L184.5 332.5" fill-rule="nonzero"/><path stroke="#cccccc" stroke-width="1.0" stroke-linecap="butt" d="M283.5 54.5L283.5 332.5" fill-rule="nonzero"/><path stroke="#cccccc" stroke-width="1.0" stroke-linecap="butt" d="M383.5 54.5L383.5 332.5" fill-rule="nonzero"/><path stroke="#cccccc" stroke-width="1.0" stroke-linecap="butt" d="M482.5 54.5L482.5 332.5" fill-rule="nonzero"/><path stroke="#cccccc" stroke-width="1.0" stroke-linecap="butt" d="M581.5 54.5L581.5 332.5" fill-rule="nonzero"/><clipPath id="id_0"><path d="M85.55 54.916668L581.45 54.916668L581.45 332.45L85.55 332.45L85.55 54.916668Z" clip-rule="nonzero"/></clipPath><path stroke="#000000" stroke-width="2.0" stroke-linecap="butt" stroke-opacity="0.0" clip-path="url(#id_0)" d="M86.0 93.0L86.0 68.0L401.0 68.0C402.10458 68.0 403.0 68.89543 403.0 70.0L403.0 91.0C403.0 92.10457 402.10458 93.0 401.0 93.0Z" fill-rule="nonzero"/><path fill="#ea4335" clip-path="url(#id_0)" d="M86.0 93.0L86.0 68.0L401.0 68.0C402.10458 68.0 403.0 68.89543 403.0 70.0L403.0 91.0C403.0 92.10457 402.10458 93.0 401.0 93.0Z" fill-rule="nonzero"/><path stroke="#000000" stroke-width="2.0" stroke-linecap="butt" stroke-opacity="0.0" clip-path="url(#id_0)" d="M86.0 131.0L86.0 106.0L441.0 106.0C442.10458 106.0 443.0 106.89543 443.0 108.0L443.0 129.0C443.0 130.10457 442.10458 131.0 441.0 131.0Z" fill-rule="nonzero"/><path fill="#fbbc04" clip-path="url(#id_0)" d="M86.0 131.0L86.0 106.0L441.0 106.0C442.10458 106.0 443.0 106.89543 443.0 108.0L443.0 129.0C443.0 130.10457 442.10458 131.0 441.0 131.0Z" fill-rule="nonzero"/><path stroke="#000000" stroke-width="2.0" stroke-linecap="butt" stroke-opacity="0.0" clip-path="url(#id_0)" d="M86.0 169.0L86.0 144.0L490.0 144.0C491.10458 144.0 492.0 144.89543 492.0 146.0L492.0 167.0C492.0 168.10457 491.10458 169.0 490.0 169.0Z" fill-rule="nonzero"/><path fill="#4285f4" clip-path="url(#id_0)" d="M86.0 169.0L86.0 144.0L490.0 144.0C491.10458 144.0 492.0 144.89543 492.0 146.0L492.0 167.0C492.0 168.10457 491.10458 169.0 490.0 169.0Z" fill-rule="nonzero"/><path stroke="#000000" stroke-width="2.0" stroke-linecap="butt" stroke-opacity="0.0" clip-path="url(#id_0)" d="M86.0 207.0L86.0 182.0L312.0 182.0C313.10458 182.0 314.0 182.89543 314.0 184.0L314.0 205.0C314.0 206.10457 313.10458 207.0 312.0 207.0Z" fill-rule="nonzero"/><path fill="#46bdc6" clip-path="url(#id_0)" d="M86.0 207.0L86.0 182.0L312.0 182.0C313.10458 182.0 314.0 182.89543 314.0 184.0L314.0 205.0C314.0 206.10457 313.10458 207.0 312.0 207.0Z" fill-rule="nonzero"/><path stroke="#000000" stroke-width="2.0" stroke-linecap="butt" stroke-opacity="0.0" clip-path="url(#id_0)" d="M86.0 244.0L86.0 219.0L222.0 219.0C223.10457 219.0 224.0 219.89543 224.0 221.0L224.0 242.0C224.0 243.10457 223.10457 244.0 222.0 244.0Z" fill-rule="nonzero"/><path fill="#ff6d01" clip-path="url(#id_0)" d="M86.0 244.0L86.0 219.0L222.0 219.0C223.10457 219.0 224.0 219.89543 224.0 221.0L224.0 242.0C224.0 243.10457 223.10457 244.0 222.0 244.0Z" fill-rule="nonzero"/><path stroke="#000000" stroke-width="2.0" stroke-linecap="butt" stroke-opacity="0.0" clip-path="url(#id_0)" d="M86.0 282.0L86.0 257.0L153.0 257.0C154.10457 257.0 155.0 257.89542 155.0 259.0L155.0 280.0C155.0 281.10458 154.10457 282.0 153.0 282.0Z" fill-rule="nonzero"/><path fill="#0c343d" clip-path="url(#id_0)" d="M86.0 282.0L86.0 257.0L153.0 257.0C154.10457 257.0 155.0 257.89542 155.0 259.0L155.0 280.0C155.0 281.10458 154.10457 282.0 153.0 282.0Z" fill-rule="nonzero"/><path stroke="#000000" stroke-width="2.0" stroke-linecap="butt" stroke-opacity="0.0" clip-path="url(#id_0)" d="M86.0 320.0L86.0 295.0L133.0 295.0C134.10457 295.0 135.0 295.89542 135.0 297.0L135.0 318.0C135.0 319.10458 134.10457 320.0 133.0 320.0Z" fill-rule="nonzero"/><path fill="#000000" clip-path="url(#id_0)" d="M86.0 320.0L86.0 295.0L133.0 295.0C134.10457 295.0 135.0 295.89542 135.0 297.0L135.0 318.0C135.0 319.10458 134.10457 320.0 133.0 320.0Z" fill-rule="nonzero"/><path fill="#000000" d="M26.534374 84.40442L26.534374 75.81067L32.33125 75.81067L32.33125 76.826294L27.675 76.826294L27.675 79.482544L31.70625 79.482544L31.70625 80.49817L27.675 80.49817L27.675 84.40442L26.534374 84.40442ZM37.409374 83.638794Q36.815624 84.138794 36.26875 84.34192Q35.7375 84.545044 35.1125 84.545044Q34.08125 84.545044 33.534374 84.045044Q32.9875 83.545044 32.9875 82.763794Q32.9875 82.31067 33.190624 81.93567Q33.39375 81.545044 33.7375 81.326294Q34.08125 81.09192 34.503124 80.982544Q34.8 80.888794 35.440624 80.81067Q36.70625 80.670044 37.315624 80.451294Q37.315624 80.232544 37.315624 80.18567Q37.315624 79.52942 37.01875 79.263794Q36.6125 78.920044 35.815624 78.920044Q35.08125 78.920044 34.721874 79.18567Q34.3625 79.43567 34.190624 80.09192L33.159374 79.951294Q33.3 79.295044 33.628124 78.888794Q33.95625 78.482544 34.565624 78.263794Q35.175 78.045044 35.971874 78.045044Q36.76875 78.045044 37.26875 78.232544Q37.76875 78.420044 38.003124 78.701294Q38.2375 78.982544 38.33125 79.420044Q38.378124 79.68567 38.378124 80.388794L38.378124 81.795044Q38.378124 83.263794 38.440624 83.65442Q38.51875 84.045044 38.721874 84.40442L37.6125 84.40442Q37.45625 84.076294 37.409374 83.638794ZM37.315624 81.27942Q36.7375 81.513794 35.596874 81.68567Q34.940624 81.77942 34.675 81.90442Q34.409374 82.013794 34.253124 82.232544Q34.1125 82.451294 34.1125 82.732544Q34.1125 83.15442 34.425 83.43567Q34.753124 83.71692 35.3625 83.71692Q35.971874 83.71692 36.440624 83.451294Q36.925 83.18567 37.14375 82.71692Q37.315624 82.357544 37.315624 81.670044L37.315624 81.27942ZM44.409374 82.12317L45.440624 82.263794Q45.26875 83.326294 44.565624 83.93567Q43.8625 84.545044 42.846874 84.545044Q41.565624 84.545044 40.784374 83.71692Q40.01875 82.87317 40.01875 81.31067Q40.01875 80.31067 40.346874 79.56067Q40.690624 78.795044 41.3625 78.420044Q42.05 78.045044 42.8625 78.045044Q43.8625 78.045044 44.503124 78.56067Q45.159374 79.06067 45.346874 80.013794L44.315624 80.170044Q44.175 79.545044 43.8 79.232544Q43.425 78.90442 42.89375 78.90442Q42.096874 78.90442 41.596874 79.482544Q41.096874 80.045044 41.096874 81.27942Q41.096874 82.545044 41.58125 83.107544Q42.065624 83.670044 42.83125 83.670044Q43.45625 83.670044 43.8625 83.295044Q44.284374 82.920044 44.409374 82.12317ZM50.596874 82.40442L51.690624 82.52942Q51.440624 83.482544 50.7375 84.013794Q50.034374 84.545044 48.95625 84.545044Q47.596874 84.545044 46.784374 83.701294Q45.9875 82.857544 45.9875 81.34192Q45.9875 79.77942 46.8 78.920044Q47.6125 78.045044 48.89375 78.045044Q50.14375 78.045044 50.925 78.888794Q51.721874 79.732544 51.721874 81.27942Q51.721874 81.37317 51.721874 81.56067L47.08125 81.56067Q47.14375 82.59192 47.659374 83.138794Q48.175 83.670044 48.95625 83.670044Q49.534374 83.670044 49.940624 83.37317Q50.3625 83.06067 50.596874 82.40442ZM47.14375 80.701294L50.6125 80.701294Q50.55 79.90442 50.221874 79.513794Q49.70625 78.90442 48.909374 78.90442Q48.175 78.90442 47.675 79.388794Q47.190624 79.87317 47.14375 80.701294ZM54.315624 84.40442L53.33125 84.40442L53.33125 75.81067L54.39375 75.81067L54.39375 78.87317Q55.065624 78.045044 56.096874 78.045044Q56.675 78.045044 57.175 78.27942Q57.690624 78.49817 58.01875 78.920044Q58.3625 79.34192 58.55 79.93567Q58.7375 80.52942 58.7375 81.201294Q58.7375 82.795044 57.940624 83.670044Q57.14375 84.545044 56.05 84.545044Q54.940624 84.545044 54.315624 83.62317L54.315624 84.40442ZM54.3 81.24817Q54.3 82.357544 54.6125 82.857544Q55.1125 83.670044 55.95625 83.670044Q56.64375 83.670044 57.14375 83.076294Q57.659374 82.482544 57.659374 81.27942Q57.659374 80.06067 57.175 79.482544Q56.690624 78.90442 56.003124 78.90442Q55.315624 78.90442 54.8 79.513794Q54.3 80.107544 54.3 81.24817ZM59.95625 81.295044Q59.95625 79.56067 60.909374 78.732544Q61.70625 78.045044 62.8625 78.045044Q64.14375 78.045044 64.95625 78.888794Q65.78438 79.71692 65.78438 81.201294Q65.78438 82.40442 65.425 83.09192Q65.06563 83.77942 64.3625 84.170044Q63.675 84.545044 62.8625 84.545044Q61.565624 84.545044 60.753124 83.71692Q59.95625 82.87317 59.95625 81.295044ZM61.034374 81.295044Q61.034374 82.482544 61.55 83.076294Q62.08125 83.670044 62.8625 83.670044Q63.659374 83.670044 64.175 83.076294Q64.69063 82.482544 64.69063 81.263794Q64.69063 80.107544 64.15938 79.513794Q63.64375 78.920044 62.8625 78.920044Q62.08125 78.920044 61.55 79.513794Q61.034374 80.09192 61.034374 81.295044ZM66.95625 81.295044Q66.95625 79.56067 67.90938 78.732544Q68.70625 78.045044 69.8625 78.045044Q71.14375 78.045044 71.95625 78.888794Q72.78438 79.71692 72.78438 81.201294Q72.78438 82.40442 72.425 83.09192Q72.06563 83.77942 71.3625 84.170044Q70.675 84.545044 69.8625 84.545044Q68.56563 84.545044 67.75313 83.71692Q66.95625 82.87317 66.95625 81.295044ZM68.03438 81.295044Q68.03438 82.482544 68.55 83.076294Q69.08125 83.670044 69.8625 83.670044Q70.65938 83.670044 71.175 83.076294Q71.69063 82.482544 71.69063 81.263794Q71.69063 80.107544 71.15938 79.513794Q70.64375 78.920044 69.8625 78.920044Q69.08125 78.920044 68.55 79.513794Q68.03438 80.09192 68.03438 81.295044ZM74.34688 84.40442L74.34688 75.81067L75.40938 75.81067L75.40938 80.71692L77.89375 78.18567L79.26875 78.18567L76.87813 80.482544L79.50313 84.40442L78.20625 84.40442L76.14375 81.21692L75.40938 81.93567L75.40938 84.40442L74.34688 84.40442Z" fill-rule="nonzero"/><path fill="#000000" d="M26.675 122.16406L26.675 113.57031L27.8 113.57031L27.8 122.16406L26.675 122.16406ZM29.346874 122.16406L29.346874 115.94531L30.284374 115.94531L30.284374 116.82031Q30.971874 115.80469 32.26875 115.80469Q32.83125 115.80469 33.3 116.00781Q33.784374 116.21094 34.01875 116.53906Q34.253124 116.86719 34.346874 117.30469Q34.39375 117.60156 34.39375 118.33594L34.39375 122.16406L33.346874 122.16406L33.346874 118.38281Q33.346874 117.72656 33.221874 117.41406Q33.096874 117.10156 32.784374 116.91406Q32.471874 116.71094 32.05 116.71094Q31.378124 116.71094 30.878124 117.14844Q30.39375 117.57031 30.39375 118.75781L30.39375 122.16406L29.346874 122.16406ZM35.925 120.30469L36.95625 120.14844Q37.05 120.77344 37.440624 121.10156Q37.846874 121.42969 38.58125 121.42969Q39.3 121.42969 39.64375 121.14844Q40.003124 120.85156 40.003124 120.44531Q40.003124 120.08594 39.690624 119.88281Q39.471874 119.74219 38.6125 119.52344Q37.45625 119.22656 37.003124 119.02344Q36.565624 118.80469 36.33125 118.42969Q36.096874 118.05469 36.096874 117.58594Q36.096874 117.17969 36.284374 116.82031Q36.471874 116.46094 36.8 116.22656Q37.05 116.05469 37.471874 115.92969Q37.89375 115.80469 38.39375 115.80469Q39.1125 115.80469 39.659374 116.02344Q40.221874 116.22656 40.4875 116.58594Q40.753124 116.94531 40.846874 117.53906L39.815624 117.67969Q39.753124 117.21094 39.409374 116.94531Q39.08125 116.66406 38.45625 116.66406Q37.7375 116.66406 37.425 116.91406Q37.1125 117.14844 37.1125 117.47656Q37.1125 117.67969 37.2375 117.83594Q37.378124 118.00781 37.64375 118.11719Q37.8 118.17969 38.58125 118.38281Q39.70625 118.69531 40.14375 118.88281Q40.58125 119.07031 40.83125 119.42969Q41.08125 119.78906 41.08125 120.33594Q41.08125 120.86719 40.76875 121.33594Q40.471874 121.78906 39.89375 122.05469Q39.315624 122.30469 38.58125 122.30469Q37.3625 122.30469 36.721874 121.80469Q36.096874 121.28906 35.925 120.30469ZM44.64375 121.22656L44.8 122.14844Q44.346874 122.24219 44.003124 122.24219Q43.425 122.24219 43.1125 122.07031Q42.8 121.88281 42.659374 121.58594Q42.534374 121.28906 42.534374 120.33594L42.534374 116.75781L41.76875 116.75781L41.76875 115.94531L42.534374 115.94531L42.534374 114.39844L43.58125 113.77344L43.58125 115.94531L44.64375 115.94531L44.64375 116.75781L43.58125 116.75781L43.58125 120.39844Q43.58125 120.85156 43.628124 120.97656Q43.690624 121.10156 43.815624 121.17969Q43.940624 121.25781 44.175 121.25781Q44.3625 121.25781 44.64375 121.22656ZM49.409374 121.39844Q48.815624 121.89844 48.26875 122.10156Q47.7375 122.30469 47.1125 122.30469Q46.08125 122.30469 45.534374 121.80469Q44.9875 121.30469 44.9875 120.52344Q44.9875 120.07031 45.190624 119.69531Q45.39375 119.30469 45.7375 119.08594Q46.08125 118.85156 46.503124 118.74219Q46.8 118.64844 47.440624 118.57031Q48.70625 118.42969 49.315624 118.21094Q49.315624 117.99219 49.315624 117.94531Q49.315624 117.28906 49.01875 117.02344Q48.6125 116.67969 47.815624 116.67969Q47.08125 116.67969 46.721874 116.94531Q46.3625 117.19531 46.190624 117.85156L45.159374 117.71094Q45.3 117.05469 45.628124 116.64844Q45.95625 116.24219 46.565624 116.02344Q47.175 115.80469 47.971874 115.80469Q48.76875 115.80469 49.26875 115.99219Q49.76875 116.17969 50.003124 116.46094Q50.2375 116.74219 50.33125 117.17969Q50.378124 117.44531 50.378124 118.14844L50.378124 119.55469Q50.378124 121.02344 50.440624 121.41406Q50.51875 121.80469 50.721874 122.16406L49.6125 122.16406Q49.45625 121.83594 49.409374 121.39844ZM49.315624 119.03906Q48.7375 119.27344 47.596874 119.44531Q46.940624 119.53906 46.675 119.66406Q46.409374 119.77344 46.253124 119.99219Q46.1125 120.21094 46.1125 120.49219Q46.1125 120.91406 46.425 121.19531Q46.753124 121.47656 47.3625 121.47656Q47.971874 121.47656 48.440624 121.21094Q48.925 120.94531 49.14375 120.47656Q49.315624 120.11719 49.315624 119.42969L49.315624 119.03906ZM52.14375 122.67969L53.175 122.83594Q53.2375 123.30469 53.534374 123.52344Q53.925 123.82031 54.596874 123.82031Q55.33125 123.82031 55.721874 123.52344Q56.128124 123.22656 56.26875 122.71094Q56.3625 122.38281 56.346874 121.35156Q55.659374 122.16406 54.628124 122.16406Q53.346874 122.16406 52.64375 121.24219Q51.940624 120.30469 51.940624 119.02344Q51.940624 118.13281 52.253124 117.38281Q52.58125 116.61719 53.190624 116.21094Q53.8 115.80469 54.628124 115.80469Q55.7375 115.80469 56.45625 116.69531L56.45625 115.94531L57.425 115.94531L57.425 121.32031Q57.425 122.77344 57.128124 123.38281Q56.83125 123.99219 56.190624 124.33594Q55.55 124.69531 54.6125 124.69531Q53.503124 124.69531 52.815624 124.19531Q52.128124 123.69531 52.14375 122.67969ZM53.01875 118.94531Q53.01875 120.16406 53.503124 120.72656Q53.9875 121.28906 54.721874 121.28906Q55.45625 121.28906 55.940624 120.72656Q56.440624 120.16406 56.440624 118.97656Q56.440624 117.83594 55.925 117.25781Q55.425 116.67969 54.70625 116.67969Q54.003124 116.67969 53.503124 117.25781Q53.01875 117.82031 53.01875 118.94531ZM59.33125 122.16406L59.33125 115.94531L60.284374 115.94531L60.284374 116.88281Q60.64375 116.22656 60.940624 116.02344Q61.253124 115.80469 61.628124 115.80469Q62.159374 115.80469 62.70625 116.13281L62.346874 117.11719Q61.95625 116.88281 61.58125 116.88281Q61.221874 116.88281 60.940624 117.10156Q60.675 117.30469 60.565624 117.67969Q60.378124 118.24219 60.378124 118.89844L60.378124 122.16406L59.33125 122.16406ZM67.40938 121.39844Q66.81563 121.89844 66.26875 122.10156Q65.7375 122.30469 65.1125 122.30469Q64.08125 122.30469 63.534374 121.80469Q62.9875 121.30469 62.9875 120.52344Q62.9875 120.07031 63.190624 119.69531Q63.39375 119.30469 63.7375 119.08594Q64.08125 118.85156 64.50313 118.74219Q64.8 118.64844 65.44063 118.57031Q66.70625 118.42969 67.31563 118.21094Q67.31563 117.99219 67.31563 117.94531Q67.31563 117.28906 67.01875 117.02344Q66.6125 116.67969 65.81563 116.67969Q65.08125 116.67969 64.72188 116.94531Q64.3625 117.19531 64.19063 117.85156L63.159374 117.71094Q63.3 117.05469 63.628124 116.64844Q63.95625 116.24219 64.56563 116.02344Q65.175 115.80469 65.97188 115.80469Q66.76875 115.80469 67.26875 115.99219Q67.76875 116.17969 68.00313 116.46094Q68.2375 116.74219 68.33125 117.17969Q68.37813 117.44531 68.37813 118.14844L68.37813 119.55469Q68.37813 121.02344 68.44063 121.41406Q68.51875 121.80469 68.72188 122.16406L67.6125 122.16406Q67.45625 121.83594 67.40938 121.39844ZM67.31563 119.03906Q66.7375 119.27344 65.59688 119.44531Q64.94063 119.53906 64.675 119.66406Q64.40938 119.77344 64.25313 119.99219Q64.1125 120.21094 64.1125 120.49219Q64.1125 120.91406 64.425 121.19531Q64.75313 121.47656 65.3625 121.47656Q65.97188 121.47656 66.44063 121.21094Q66.925 120.94531 67.14375 120.47656Q67.31563 120.11719 67.31563 119.42969L67.31563 119.03906ZM70.34688 122.16406L70.34688 115.94531L71.28438 115.94531L71.28438 116.82031Q71.58125 116.35156 72.06563 116.08594Q72.55 115.80469 73.175 115.80469Q73.8625 115.80469 74.3 116.08594Q74.75313 116.36719 74.925 116.88281Q75.675 115.80469 76.84688 115.80469Q77.78438 115.80469 78.26875 116.32031Q78.76875 116.82031 78.76875 117.89844L78.76875 122.16406L77.72188 122.16406L77.72188 118.24219Q77.72188 117.61719 77.6125 117.33594Q77.51875 117.05469 77.25313 116.88281Q76.9875 116.71094 76.6125 116.71094Q75.95625 116.71094 75.51875 117.14844Q75.09688 117.58594 75.09688 118.55469L75.09688 122.16406L74.03438 122.16406L74.03438 118.11719Q74.03438 117.41406 73.76875 117.07031Q73.51875 116.71094 72.94063 116.71094Q72.4875 116.71094 72.1125 116.94531Q71.7375 117.17969 71.56563 117.63281Q71.39375 118.08594 71.39375 118.92969L71.39375 122.16406L70.34688 122.16406Z" fill-rule="nonzero"/><path fill="#000000" d="M19.440624 159.92369L19.440624 151.32994L21.159374 151.32994L23.190624 157.40807Q23.471874 158.26744 23.596874 158.68932Q23.7375 158.22057 24.05 157.31432L26.1125 151.32994L27.64375 151.32994L27.64375 159.92369L26.55 159.92369L26.55 152.73619L24.05 159.92369L23.01875 159.92369L20.534374 152.61119L20.534374 159.92369L19.440624 159.92369ZM33.596874 157.92369L34.690624 158.04869Q34.440624 159.00182 33.7375 159.53307Q33.034374 160.06432 31.95625 160.06432Q30.596874 160.06432 29.784374 159.22057Q28.9875 158.37682 28.9875 156.86119Q28.9875 155.29869 29.8 154.43932Q30.6125 153.56432 31.89375 153.56432Q33.14375 153.56432 33.925 154.40807Q34.721874 155.25182 34.721874 156.79869Q34.721874 156.89244 34.721874 157.07994L30.08125 157.07994Q30.14375 158.11119 30.659374 158.65807Q31.175 159.18932 31.95625 159.18932Q32.534374 159.18932 32.940624 158.89244Q33.3625 158.57994 33.596874 157.92369ZM30.14375 156.22057L33.6125 156.22057Q33.55 155.42369 33.221874 155.03307Q32.70625 154.42369 31.909374 154.42369Q31.175 154.42369 30.675 154.90807Q30.190624 155.39244 30.14375 156.22057ZM35.925 158.06432L36.95625 157.90807Q37.05 158.53307 37.440624 158.86119Q37.846874 159.18932 38.58125 159.18932Q39.3 159.18932 39.64375 158.90807Q40.003124 158.61119 40.003124 158.20494Q40.003124 157.84557 39.690624 157.64244Q39.471874 157.50182 38.6125 157.28307Q37.45625 156.98619 37.003124 156.78307Q36.565624 156.56432 36.33125 156.18932Q36.096874 155.81432 36.096874 155.34557Q36.096874 154.93932 36.284374 154.57994Q36.471874 154.22057 36.8 153.98619Q37.05 153.81432 37.471874 153.68932Q37.89375 153.56432 38.39375 153.56432Q39.1125 153.56432 39.659374 153.78307Q40.221874 153.98619 40.4875 154.34557Q40.753124 154.70494 40.846874 155.29869L39.815624 155.43932Q39.753124 154.97057 39.409374 154.70494Q39.08125 154.42369 38.45625 154.42369Q37.7375 154.42369 37.425 154.67369Q37.1125 154.90807 37.1125 155.23619Q37.1125 155.43932 37.2375 155.59557Q37.378124 155.76744 37.64375 155.87682Q37.8 155.93932 38.58125 156.14244Q39.70625 156.45494 40.14375 156.64244Q40.58125 156.82994 40.83125 157.18932Q41.08125 157.54869 41.08125 158.09557Q41.08125 158.62682 40.76875 159.09557Q40.471874 159.54869 39.89375 159.81432Q39.315624 160.06432 38.58125 160.06432Q37.3625 160.06432 36.721874 159.56432Q36.096874 159.04869 35.925 158.06432ZM41.925 158.06432L42.95625 157.90807Q43.05 158.53307 43.440624 158.86119Q43.846874 159.18932 44.58125 159.18932Q45.3 159.18932 45.64375 158.90807Q46.003124 158.61119 46.003124 158.20494Q46.003124 157.84557 45.690624 157.64244Q45.471874 157.50182 44.6125 157.28307Q43.45625 156.98619 43.003124 156.78307Q42.565624 156.56432 42.33125 156.18932Q42.096874 155.81432 42.096874 155.34557Q42.096874 154.93932 42.284374 154.57994Q42.471874 154.22057 42.8 153.98619Q43.05 153.81432 43.471874 153.68932Q43.89375 153.56432 44.39375 153.56432Q45.1125 153.56432 45.659374 153.78307Q46.221874 153.98619 46.4875 154.34557Q46.753124 154.70494 46.846874 155.29869L45.815624 155.43932Q45.753124 154.97057 45.409374 154.70494Q45.08125 154.42369 44.45625 154.42369Q43.7375 154.42369 43.425 154.67369Q43.1125 154.90807 43.1125 155.23619Q43.1125 155.43932 43.2375 155.59557Q43.378124 155.76744 43.64375 155.87682Q43.8 155.93932 44.58125 156.14244Q45.70625 156.45494 46.14375 156.64244Q46.58125 156.82994 46.83125 157.18932Q47.08125 157.54869 47.08125 158.09557Q47.08125 158.62682 46.76875 159.09557Q46.471874 159.54869 45.89375 159.81432Q45.315624 160.06432 44.58125 160.06432Q43.3625 160.06432 42.721874 159.56432Q42.096874 159.04869 41.925 158.06432ZM52.596874 157.92369L53.690624 158.04869Q53.440624 159.00182 52.7375 159.53307Q52.034374 160.06432 50.95625 160.06432Q49.596874 160.06432 48.784374 159.22057Q47.9875 158.37682 47.9875 156.86119Q47.9875 155.29869 48.8 154.43932Q49.6125 153.56432 50.89375 153.56432Q52.14375 153.56432 52.925 154.40807Q53.721874 155.25182 53.721874 156.79869Q53.721874 156.89244 53.721874 157.07994L49.08125 157.07994Q49.14375 158.11119 49.659374 158.65807Q50.175 159.18932 50.95625 159.18932Q51.534374 159.18932 51.940624 158.89244Q52.3625 158.57994 52.596874 157.92369ZM49.14375 156.22057L52.6125 156.22057Q52.55 155.42369 52.221874 155.03307Q51.70625 154.42369 50.909374 154.42369Q50.175 154.42369 49.675 154.90807Q49.190624 155.39244 49.14375 156.22057ZM55.346874 159.92369L55.346874 153.70494L56.284374 153.70494L56.284374 154.57994Q56.971874 153.56432 58.26875 153.56432Q58.83125 153.56432 59.3 153.76744Q59.784374 153.97057 60.01875 154.29869Q60.253124 154.62682 60.346874 155.06432Q60.39375 155.36119 60.39375 156.09557L60.39375 159.92369L59.346874 159.92369L59.346874 156.14244Q59.346874 155.48619 59.221874 155.17369Q59.096874 154.86119 58.784374 154.67369Q58.471874 154.47057 58.05 154.47057Q57.378124 154.47057 56.878124 154.90807Q56.39375 155.32994 56.39375 156.51744L56.39375 159.92369L55.346874 159.92369ZM62.14375 160.43932L63.175 160.59557Q63.2375 161.06432 63.534374 161.28307Q63.925 161.57994 64.59688 161.57994Q65.33125 161.57994 65.72188 161.28307Q66.12813 160.98619 66.26875 160.47057Q66.3625 160.14244 66.34688 159.11119Q65.65938 159.92369 64.62813 159.92369Q63.346874 159.92369 62.64375 159.00182Q61.940624 158.06432 61.940624 156.78307Q61.940624 155.89244 62.253124 155.14244Q62.58125 154.37682 63.190624 153.97057Q63.8 153.56432 64.62813 153.56432Q65.7375 153.56432 66.45625 154.45494L66.45625 153.70494L67.425 153.70494L67.425 159.07994Q67.425 160.53307 67.12813 161.14244Q66.83125 161.75182 66.19063 162.09557Q65.55 162.45494 64.6125 162.45494Q63.503124 162.45494 62.815624 161.95494Q62.128124 161.45494 62.14375 160.43932ZM63.01875 156.70494Q63.01875 157.92369 63.503124 158.48619Q63.9875 159.04869 64.72188 159.04869Q65.45625 159.04869 65.94063 158.48619Q66.44063 157.92369 66.44063 156.73619Q66.44063 155.59557 65.925 155.01744Q65.425 154.43932 64.70625 154.43932Q64.00313 154.43932 63.503124 155.01744Q63.01875 155.57994 63.01875 156.70494ZM73.59688 157.92369L74.69063 158.04869Q74.44063 159.00182 73.7375 159.53307Q73.03438 160.06432 71.95625 160.06432Q70.59688 160.06432 69.78438 159.22057Q68.9875 158.37682 68.9875 156.86119Q68.9875 155.29869 69.8 154.43932Q70.6125 153.56432 71.89375 153.56432Q73.14375 153.56432 73.925 154.40807Q74.72188 155.25182 74.72188 156.79869Q74.72188 156.89244 74.72188 157.07994L70.08125 157.07994Q70.14375 158.11119 70.65938 158.65807Q71.175 159.18932 71.95625 159.18932Q72.53438 159.18932 72.94063 158.89244Q73.3625 158.57994 73.59688 157.92369ZM70.14375 156.22057L73.6125 156.22057Q73.55 155.42369 73.22188 155.03307Q72.70625 154.42369 71.90938 154.42369Q71.175 154.42369 70.675 154.90807Q70.19063 155.39244 70.14375 156.22057ZM76.33125 159.92369L76.33125 153.70494L77.28438 153.70494L77.28438 154.64244Q77.64375 153.98619 77.94063 153.78307Q78.25313 153.56432 78.62813 153.56432Q79.15938 153.56432 79.70625 153.89244L79.34688 154.87682Q78.95625 154.64244 78.58125 154.64244Q78.22188 154.64244 77.94063 154.86119Q77.675 155.06432 77.56563 155.43932Q77.37813 156.00182 77.37813 156.65807L77.37813 159.92369L76.33125 159.92369Z" fill-rule="nonzero"/><path fill="#000000" d="M46.471874 197.68333L46.471874 189.08958L47.628124 189.08958L52.14375 195.83958L52.14375 189.08958L53.2375 189.08958L53.2375 197.68333L52.065624 197.68333L47.55 190.93333L47.55 197.68333L46.471874 197.68333ZM59.596874 195.68333L60.690624 195.80833Q60.440624 196.76146 59.7375 197.29271Q59.034374 197.82396 57.95625 197.82396Q56.596874 197.82396 55.784374 196.98021Q54.9875 196.13646 54.9875 194.62083Q54.9875 193.05833 55.8 192.19896Q56.6125 191.32396 57.89375 191.32396Q59.14375 191.32396 59.925 192.16771Q60.721874 193.01146 60.721874 194.55833Q60.721874 194.65208 60.721874 194.83958L56.08125 194.83958Q56.14375 195.87083 56.659374 196.41771Q57.175 196.94896 57.95625 196.94896Q58.534374 196.94896 58.940624 196.65208Q59.3625 196.33958 59.596874 195.68333ZM56.14375 193.98021L59.6125 193.98021Q59.55 193.18333 59.221874 192.79271Q58.70625 192.18333 57.909374 192.18333Q57.175 192.18333 56.675 192.66771Q56.190624 193.15208 56.14375 193.98021ZM64.64375 196.74583L64.8 197.66771Q64.34688 197.76146 64.00313 197.76146Q63.425 197.76146 63.1125 197.58958Q62.8 197.40208 62.659374 197.10521Q62.534374 196.80833 62.534374 195.85521L62.534374 192.27708L61.76875 192.27708L61.76875 191.46458L62.534374 191.46458L62.534374 189.91771L63.58125 189.29271L63.58125 191.46458L64.64375 191.46458L64.64375 192.27708L63.58125 192.27708L63.58125 195.91771Q63.58125 196.37083 63.628124 196.49583Q63.690624 196.62083 63.815624 196.69896Q63.940624 196.77708 64.175 196.77708Q64.3625 196.77708 64.64375 196.74583ZM65.59688 197.68333L65.59688 192.27708L64.65938 192.27708L64.65938 191.46458L65.59688 191.46458L65.59688 190.79271Q65.59688 190.16771 65.70625 189.87083Q65.8625 189.44896 66.2375 189.19896Q66.62813 188.94896 67.31563 188.94896Q67.76875 188.94896 68.3 189.05833L68.14375 189.96458Q67.81563 189.91771 67.51875 189.91771Q67.03438 189.91771 66.83125 190.12083Q66.64375 190.32396 66.64375 190.88646L66.64375 191.46458L67.8625 191.46458L67.8625 192.27708L66.64375 192.27708L66.64375 197.68333L65.59688 197.68333ZM68.31563 197.68333L68.31563 189.08958L69.37813 189.08958L69.37813 197.68333L68.31563 197.68333ZM71.34688 190.30833L71.34688 189.08958L72.40938 189.08958L72.40938 190.30833L71.34688 190.30833ZM71.34688 197.68333L71.34688 191.46458L72.40938 191.46458L72.40938 197.68333L71.34688 197.68333ZM73.64375 197.68333L75.90938 194.44896L73.81563 191.46458L75.12813 191.46458L76.08125 192.91771Q76.34688 193.33958 76.51875 193.62083Q76.76875 193.23021 76.9875 192.93333L78.03438 191.46458L79.3 191.46458L77.14375 194.38646L79.45625 197.68333L78.175 197.68333L76.89375 195.74583L76.55 195.23021L74.90938 197.68333L73.64375 197.68333Z" fill-rule="nonzero"/><path fill="#000000" d="M46.659374 235.44298L46.659374 227.86485L43.83125 227.86485L43.83125 226.84923L50.64375 226.84923L50.64375 227.86485L47.8 227.86485L47.8 235.44298L46.659374 235.44298ZM51.346874 228.06798L51.346874 226.84923L52.409374 226.84923L52.409374 228.06798L51.346874 228.06798ZM51.346874 235.44298L51.346874 229.22423L52.409374 229.22423L52.409374 235.44298L51.346874 235.44298ZM54.346874 235.44298L54.346874 226.84923L55.409374 226.84923L55.409374 231.75548L57.89375 229.22423L59.26875 229.22423L56.878124 231.5211L59.503124 235.44298L58.20625 235.44298L56.14375 232.25548L55.409374 232.97423L55.409374 235.44298L54.346874 235.44298ZM62.659374 235.44298L62.659374 227.86485L59.83125 227.86485L59.83125 226.84923L66.64375 226.84923L66.64375 227.86485L63.8 227.86485L63.8 235.44298L62.659374 235.44298ZM66.95625 232.3336Q66.95625 230.59923 67.90938 229.7711Q68.70625 229.0836 69.8625 229.0836Q71.14375 229.0836 71.95625 229.92735Q72.78438 230.75548 72.78438 232.23985Q72.78438 233.44298 72.425 234.13048Q72.06563 234.81798 71.3625 235.2086Q70.675 235.5836 69.8625 235.5836Q68.56563 235.5836 67.75313 234.75548Q66.95625 233.91173 66.95625 232.3336ZM68.03438 232.3336Q68.03438 233.5211 68.55 234.11485Q69.08125 234.7086 69.8625 234.7086Q70.65938 234.7086 71.175 234.11485Q71.69063 233.5211 71.69063 232.30235Q71.69063 231.1461 71.15938 230.55235Q70.64375 229.9586 69.8625 229.9586Q69.08125 229.9586 68.55 230.55235Q68.03438 231.13048 68.03438 232.3336ZM74.34688 235.44298L74.34688 226.84923L75.40938 226.84923L75.40938 231.75548L77.89375 229.22423L79.26875 229.22423L76.87813 231.5211L79.50313 235.44298L78.20625 235.44298L76.14375 232.25548L75.40938 232.97423L75.40938 235.44298L74.34688 235.44298Z" fill-rule="nonzero"/><path fill="#000000" d="M46.659374 273.2026L46.659374 265.62448L43.83125 265.62448L43.83125 264.60886L50.64375 264.60886L50.64375 265.62448L47.8 265.62448L47.8 273.2026L46.659374 273.2026ZM52.4875 273.2026L50.58125 266.98386L51.675 266.98386L52.659374 270.5776L53.034374 271.90573Q53.065624 271.81198 53.3625 270.62448L54.346874 266.98386L55.425 266.98386L56.3625 270.59323L56.675 271.78073L57.034374 270.5776L58.096874 266.98386L59.128124 266.98386L57.175 273.2026L56.08125 273.2026L55.096874 269.46823L54.846874 268.42136L53.596874 273.2026L52.4875 273.2026ZM60.346874 265.8276L60.346874 264.60886L61.409374 264.60886L61.409374 265.8276L60.346874 265.8276ZM60.346874 273.2026L60.346874 266.98386L61.409374 266.98386L61.409374 273.2026L60.346874 273.2026ZM65.64375 272.2651L65.8 273.18698Q65.34688 273.28073 65.00313 273.28073Q64.425 273.28073 64.1125 273.10886Q63.8 272.92136 63.659374 272.62448Q63.534374 272.3276 63.534374 271.37448L63.534374 267.79636L62.76875 267.79636L62.76875 266.98386L63.534374 266.98386L63.534374 265.43698L64.58125 264.81198L64.58125 266.98386L65.64375 266.98386L65.64375 267.79636L64.58125 267.79636L64.58125 271.43698Q64.58125 271.8901 64.62813 272.0151Q64.69063 272.1401 64.81563 272.21823Q64.94063 272.29636 65.175 272.29636Q65.3625 272.29636 65.64375 272.2651ZM68.64375 272.2651L68.8 273.18698Q68.34688 273.28073 68.00313 273.28073Q67.425 273.28073 67.1125 273.10886Q66.8 272.92136 66.65938 272.62448Q66.53438 272.3276 66.53438 271.37448L66.53438 267.79636L65.76875 267.79636L65.76875 266.98386L66.53438 266.98386L66.53438 265.43698L67.58125 264.81198L67.58125 266.98386L68.64375 266.98386L68.64375 267.79636L67.58125 267.79636L67.58125 271.43698Q67.58125 271.8901 67.62813 272.0151Q67.69063 272.1401 67.81563 272.21823Q67.94063 272.29636 68.175 272.29636Q68.3625 272.29636 68.64375 272.2651ZM73.59688 271.2026L74.69063 271.3276Q74.44063 272.28073 73.7375 272.81198Q73.03438 273.34323 71.95625 273.34323Q70.59688 273.34323 69.78438 272.49948Q68.9875 271.65573 68.9875 270.1401Q68.9875 268.5776 69.8 267.71823Q70.6125 266.84323 71.89375 266.84323Q73.14375 266.84323 73.925 267.68698Q74.72188 268.53073 74.72188 270.0776Q74.72188 270.17136 74.72188 270.35886L70.08125 270.35886Q70.14375 271.3901 70.65938 271.93698Q71.175 272.46823 71.95625 272.46823Q72.53438 272.46823 72.94063 272.17136Q73.3625 271.85886 73.59688 271.2026ZM70.14375 269.49948L73.6125 269.49948Q73.55 268.7026 73.22188 268.31198Q72.70625 267.7026 71.90938 267.7026Q71.175 267.7026 70.675 268.18698Q70.19063 268.67136 70.14375 269.49948ZM76.33125 273.2026L76.33125 266.98386L77.28438 266.98386L77.28438 267.92136Q77.64375 267.2651 77.94063 267.06198Q78.25313 266.84323 78.62813 266.84323Q79.15938 266.84323 79.70625 267.17136L79.34688 268.15573Q78.95625 267.92136 78.58125 267.92136Q78.22188 267.92136 77.94063 268.1401Q77.675 268.34323 77.56563 268.71823Q77.37813 269.28073 77.37813 269.93698L77.37813 273.2026L76.33125 273.2026Z" fill-rule="nonzero"/><path fill="#000000" d="M50.128124 306.77475Q50.128124 304.63412 51.26875 303.431Q52.425 302.21225 54.2375 302.21225Q55.440624 302.21225 56.39375 302.79037Q57.346874 303.35287 57.846874 304.3685Q58.346874 305.38412 58.346874 306.681Q58.346874 307.97787 57.815624 309.00912Q57.284374 310.04037 56.315624 310.57162Q55.3625 311.10287 54.2375 311.10287Q53.01875 311.10287 52.065624 310.52475Q51.1125 309.931 50.6125 308.931Q50.128124 307.91537 50.128124 306.77475ZM51.3 306.79037Q51.3 308.35287 52.128124 309.2435Q52.971874 310.13412 54.2375 310.13412Q55.51875 310.13412 56.346874 309.2435Q57.175 308.33725 57.175 306.66537Q57.175 305.6185 56.815624 304.83725Q56.471874 304.056 55.784374 303.63412Q55.096874 303.19662 54.253124 303.19662Q53.05 303.19662 52.175 304.02475Q51.3 304.85287 51.3 306.79037ZM61.64375 310.02475L61.8 310.94662Q61.346874 311.04037 61.003124 311.04037Q60.425 311.04037 60.1125 310.8685Q59.8 310.681 59.659374 310.38412Q59.534374 310.08725 59.534374 309.13412L59.534374 305.556L58.76875 305.556L58.76875 304.7435L59.534374 304.7435L59.534374 303.19662L60.58125 302.57162L60.58125 304.7435L61.64375 304.7435L61.64375 305.556L60.58125 305.556L60.58125 309.19662Q60.58125 309.64975 60.628124 309.77475Q60.690624 309.89975 60.815624 309.97787Q60.940624 310.056 61.175 310.056Q61.3625 310.056 61.64375 310.02475ZM62.346874 310.96225L62.346874 302.3685L63.39375 302.3685L63.39375 305.44662Q64.12813 304.60287 65.25313 304.60287Q65.95625 304.60287 66.45625 304.88412Q66.97188 305.14975 67.19063 305.63412Q67.40938 306.10287 67.40938 307.02475L67.40938 310.96225L66.3625 310.96225L66.3625 307.02475Q66.3625 306.22787 66.01875 305.8685Q65.675 305.50912 65.05 305.50912Q64.58125 305.50912 64.15938 305.75912Q63.753124 305.9935 63.565624 306.41537Q63.39375 306.82162 63.39375 307.556L63.39375 310.96225L62.346874 310.96225ZM73.59688 308.96225L74.69063 309.08725Q74.44063 310.04037 73.7375 310.57162Q73.03438 311.10287 71.95625 311.10287Q70.59688 311.10287 69.78438 310.25912Q68.9875 309.41537 68.9875 307.89975Q68.9875 306.33725 69.8 305.47787Q70.6125 304.60287 71.89375 304.60287Q73.14375 304.60287 73.925 305.44662Q74.72188 306.29037 74.72188 307.83725Q74.72188 307.931 74.72188 308.1185L70.08125 308.1185Q70.14375 309.14975 70.65938 309.69662Q71.175 310.22787 71.95625 310.22787Q72.53438 310.22787 72.94063 309.931Q73.3625 309.6185 73.59688 308.96225ZM70.14375 307.25912L73.6125 307.25912Q73.55 306.46225 73.22188 306.07162Q72.70625 305.46225 71.90938 305.46225Q71.175 305.46225 70.675 305.94662Q70.19063 306.431 70.14375 307.25912ZM76.33125 310.96225L76.33125 304.7435L77.28438 304.7435L77.28438 305.681Q77.64375 305.02475 77.94063 304.82162Q78.25313 304.60287 78.62813 304.60287Q79.15938 304.60287 79.70625 304.931L79.34688 305.91537Q78.95625 305.681 78.58125 305.681Q78.22188 305.681 77.94063 305.89975Q77.675 306.10287 77.56563 306.47787Q77.37813 307.04037 77.37813 307.69662L77.37813 310.96225L76.33125 310.96225Z" fill-rule="nonzero"/><path fill="#000000" d="M82.55 345.21564Q82.55 343.6844 82.8625 342.7625Q83.175 341.825 83.78438 341.325Q84.40938 340.825 85.34688 340.825Q86.03438 340.825 86.55 341.10626Q87.08125 341.3875 87.425 341.91876Q87.76875 342.4344 87.95625 343.1844Q88.14375 343.9344 88.14375 345.21564Q88.14375 346.73126 87.83125 347.65314Q87.53438 348.575 86.90938 349.09064Q86.3 349.59064 85.34688 349.59064Q84.1125 349.59064 83.39375 348.7Q82.55 347.6375 82.55 345.21564ZM83.62813 345.21564Q83.62813 347.325 84.12813 348.02814Q84.62813 348.73126 85.34688 348.73126Q86.08125 348.73126 86.56563 348.02814Q87.06563 347.325 87.06563 345.21564Q87.06563 343.09064 86.56563 342.40314Q86.08125 341.7 85.33125 341.7Q84.6125 341.7 84.175 342.3094Q83.62813 343.09064 83.62813 345.21564Z" fill-rule="nonzero"/><path fill="#000000" d="M182.19875 349.45L181.15187 349.45L181.15187 342.73126Q180.76125 343.09064 180.13625 343.46564Q179.52687 343.825 179.0425 343.9969L179.0425 342.98126Q179.9175 342.5594 180.57375 341.98126Q181.24562 341.3875 181.52687 340.825L182.19875 340.825L182.19875 349.45ZM185.23 345.21564Q185.23 343.6844 185.5425 342.7625Q185.855 341.825 186.46437 341.325Q187.08937 340.825 188.02687 340.825Q188.71437 340.825 189.23 341.10626Q189.76125 341.3875 190.105 341.91876Q190.44875 342.4344 190.63625 343.1844Q190.82375 343.9344 190.82375 345.21564Q190.82375 346.73126 190.51125 347.65314Q190.21437 348.575 189.58937 349.09064Q188.98 349.59064 188.02687 349.59064Q186.7925 349.59064 186.07375 348.7Q185.23 347.6375 185.23 345.21564ZM186.30812 345.21564Q186.30812 347.325 186.80812 348.02814Q187.30812 348.73126 188.02687 348.73126Q188.76125 348.73126 189.24562 348.02814Q189.74562 347.325 189.74562 345.21564Q189.74562 343.09064 189.24562 342.40314Q188.76125 341.7 188.01125 341.7Q187.2925 341.7 186.855 342.3094Q186.30812 343.09064 186.30812 345.21564Z" fill-rule="nonzero"/><path fill="#000000" d="M282.95688 348.4344L282.95688 349.45L277.26938 349.45Q277.26938 349.075 277.39438 348.71564Q277.61313 348.1375 278.08188 347.575Q278.56625 347.0125 279.4725 346.27814Q280.87875 345.1219 281.36313 344.45Q281.86313 343.77814 281.86313 343.1844Q281.86313 342.5594 281.41 342.1375Q280.95688 341.7 280.23813 341.7Q279.4725 341.7 279.01938 342.15314Q278.56625 342.60626 278.55063 343.41876L277.4725 343.3094Q277.58188 342.09064 278.30063 341.46564Q279.035 340.825 280.26938 340.825Q281.50375 340.825 282.2225 341.5125Q282.94125 342.2 282.94125 343.21564Q282.94125 343.73126 282.7225 344.23126Q282.51938 344.71564 282.01938 345.27814Q281.535 345.825 280.41 346.77814Q279.45688 347.575 279.17563 347.8719Q278.91 348.15314 278.73813 348.4344L282.95688 348.4344ZM284.41 345.21564Q284.41 343.6844 284.7225 342.7625Q285.035 341.825 285.64438 341.325Q286.26938 340.825 287.20688 340.825Q287.89438 340.825 288.41 341.10626Q288.94125 341.3875 289.285 341.91876Q289.62875 342.4344 289.81625 343.1844Q290.00375 343.9344 290.00375 345.21564Q290.00375 346.73126 289.69125 347.65314Q289.39438 348.575 288.76938 349.09064Q288.16 349.59064 287.20688 349.59064Q285.9725 349.59064 285.25375 348.7Q284.41 347.6375 284.41 345.21564ZM285.48813 345.21564Q285.48813 347.325 285.98813 348.02814Q286.48813 348.73126 287.20688 348.73126Q287.94125 348.73126 288.42563 348.02814Q288.92563 347.325 288.92563 345.21564Q288.92563 343.09064 288.42563 342.40314Q287.94125 341.7 287.19125 341.7Q286.4725 341.7 286.035 342.3094Q285.48813 343.09064 285.48813 345.21564Z" fill-rule="nonzero"/><path fill="#000000" d="M376.59 347.1844L377.6525 347.04376Q377.82437 347.9344 378.26187 348.34064Q378.69937 348.73126 379.32437 348.73126Q380.07437 348.73126 380.59 348.21564Q381.10562 347.7 381.10562 346.9344Q381.10562 346.21564 380.62125 345.7469Q380.1525 345.2625 379.41812 345.2625Q379.12125 345.2625 378.66812 345.3875L378.79312 344.45Q378.9025 344.46564 378.965 344.46564Q379.63687 344.46564 380.16812 344.1219Q380.715 343.7625 380.715 343.02814Q380.715 342.45 380.32437 342.075Q379.93375 341.6844 379.30875 341.6844Q378.69937 341.6844 378.2775 342.075Q377.87125 342.46564 377.76187 343.23126L376.69937 343.04376Q376.88687 341.9969 377.57437 341.41876Q378.26187 340.825 379.2775 340.825Q379.98062 340.825 380.57437 341.1375Q381.16812 341.4344 381.48062 341.95Q381.79312 342.46564 381.79312 343.0594Q381.79312 343.60626 381.49625 344.075Q381.19937 344.52814 380.62125 344.79376Q381.37125 344.96564 381.79312 345.52814Q382.215 346.075 382.215 346.91876Q382.215 348.04376 381.38687 348.825Q380.57437 349.60626 379.32437 349.60626Q378.19937 349.60626 377.44937 348.9344Q376.69937 348.2469 376.59 347.1844ZM383.59 345.21564Q383.59 343.6844 383.9025 342.7625Q384.215 341.825 384.82437 341.325Q385.44937 340.825 386.38687 340.825Q387.07437 340.825 387.59 341.10626Q388.12125 341.3875 388.465 341.91876Q388.80875 342.4344 388.99625 343.1844Q389.18375 343.9344 389.18375 345.21564Q389.18375 346.73126 388.87125 347.65314Q388.57437 348.575 387.94937 349.09064Q387.34 349.59064 386.38687 349.59064Q385.1525 349.59064 384.43375 348.7Q383.59 347.6375 383.59 345.21564ZM384.66812 345.21564Q384.66812 347.325 385.16812 348.02814Q385.66812 348.73126 386.38687 348.73126Q387.12125 348.73126 387.60562 348.02814Q388.10562 347.325 388.10562 345.21564Q388.10562 343.09064 387.60562 342.40314Q387.12125 341.7 386.37125 341.7Q385.6525 341.7 385.215 342.3094Q384.66812 343.09064 384.66812 345.21564Z" fill-rule="nonzero"/><path fill="#000000" d="M479.145 349.45L479.145 347.3875L475.42624 347.3875L475.42624 346.41876L479.3481 340.85626L480.2075 340.85626L480.2075 346.41876L481.36374 346.41876L481.36374 347.3875L480.2075 347.3875L480.2075 349.45L479.145 349.45ZM479.145 346.41876L479.145 342.5594L476.4575 346.41876L479.145 346.41876ZM482.77 345.21564Q482.77 343.6844 483.0825 342.7625Q483.395 341.825 484.00436 341.325Q484.62936 340.825 485.56686 340.825Q486.25436 340.825 486.77 341.10626Q487.30124 341.3875 487.645 341.91876Q487.98874 342.4344 488.17624 343.1844Q488.36374 343.9344 488.36374 345.21564Q488.36374 346.73126 488.05124 347.65314Q487.75436 348.575 487.12936 349.09064Q486.52 349.59064 485.56686 349.59064Q484.3325 349.59064 483.61374 348.7Q482.77 347.6375 482.77 345.21564ZM483.8481 345.21564Q483.8481 347.325 484.3481 348.02814Q484.8481 348.73126 485.56686 348.73126Q486.30124 348.73126 486.7856 348.02814Q487.2856 347.325 487.2856 345.21564Q487.2856 343.09064 486.7856 342.40314Q486.30124 341.7 485.55124 341.7Q484.8325 341.7 484.395 342.3094Q483.8481 343.09064 483.8481 345.21564Z" fill-rule="nonzero"/><path fill="#000000" d="M574.95 347.2L576.0594 347.10626Q576.1844 347.91876 576.6219 348.325Q577.075 348.73126 577.71564 348.73126Q578.46564 348.73126 578.9969 348.15314Q579.52814 347.575 579.52814 346.6375Q579.52814 345.73126 579.0125 345.21564Q578.5125 344.6844 577.6844 344.6844Q577.1844 344.6844 576.7625 344.91876Q576.35626 345.15314 576.1219 345.5125L575.1375 345.3875L575.96564 340.98126L580.2469 340.98126L580.2469 341.98126L576.8094 341.98126L576.35626 344.29376Q577.1219 343.7469 577.96564 343.7469Q579.09064 343.7469 579.85626 344.52814Q580.6375 345.3094 580.6375 346.54376Q580.6375 347.7 579.96564 348.5594Q579.1375 349.59064 577.71564 349.59064Q576.54376 349.59064 575.79376 348.9344Q575.0594 348.27814 574.95 347.2ZM581.95 345.21564Q581.95 343.6844 582.2625 342.7625Q582.575 341.825 583.1844 341.325Q583.8094 340.825 584.7469 340.825Q585.4344 340.825 585.95 341.10626Q586.48126 341.3875 586.825 341.91876Q587.16876 342.4344 587.35626 343.1844Q587.54376 343.9344 587.54376 345.21564Q587.54376 346.73126 587.23126 347.65314Q586.9344 348.575 586.3094 349.09064Q585.7 349.59064 584.7469 349.59064Q583.5125 349.59064 582.79376 348.7Q581.95 347.6375 581.95 345.21564ZM583.02814 345.21564Q583.02814 347.325 583.52814 348.02814Q584.02814 348.73126 584.7469 348.73126Q585.48126 348.73126 585.96564 348.02814Q586.46564 347.325 586.46564 345.21564Q586.46564 343.09064 585.96564 342.40314Q585.48126 341.7 584.73126 341.7Q584.0125 341.7 583.575 342.3094Q583.02814 343.09064 583.02814 345.21564Z" fill-rule="nonzero"/><path fill="#000000" d="M62.484375 37.55L59.0625 23.2375L62.03125 23.2375L64.1875 33.065624L66.796875 23.2375L70.234375 23.2375L72.75 33.2375L74.953125 23.2375L77.859375 23.2375L74.375 37.55L71.3125 37.55L68.46875 26.846874L65.625 37.55L62.484375 37.55ZM82.171875 23.2375L82.171875 28.503124Q83.5 26.940624 85.34375 26.940624Q86.296875 26.940624 87.046875 27.3Q87.8125 27.64375 88.203125 28.190624Q88.59375 28.7375 88.734375 29.409374Q88.875 30.065624 88.875 31.471874L88.875 37.55L86.125 37.55L86.125 32.065624Q86.125 30.440624 85.96875 30.003124Q85.8125 29.565624 85.40625 29.315624Q85.015625 29.05 84.421875 29.05Q83.75 29.05 83.203125 29.378124Q82.671875 29.70625 82.421875 30.378124Q82.171875 31.05 82.171875 32.346874L82.171875 37.55L79.421875 37.55L79.421875 23.2375L82.171875 23.2375ZM91.4375 25.76875L91.4375 23.2375L94.1875 23.2375L94.1875 25.76875L91.4375 25.76875ZM91.4375 37.55L91.4375 27.175L94.1875 27.175L94.1875 37.55L91.4375 37.55ZM106.484375 30.2375L103.78125 30.7375Q103.640625 29.925 103.15625 29.51875Q102.671875 29.096874 101.90625 29.096874Q100.875 29.096874 100.265625 29.815624Q99.65625 30.51875 99.65625 32.175Q99.65625 34.01875 100.265625 34.784374Q100.890625 35.55 101.9375 35.55Q102.71875 35.55 103.21875 35.1125Q103.71875 34.659374 103.921875 33.58125L106.609375 34.034374Q106.203125 35.89375 105.0 36.846874Q103.8125 37.784374 101.8125 37.784374Q99.53125 37.784374 98.171875 36.346874Q96.828125 34.909374 96.828125 32.378124Q96.828125 29.8 98.1875 28.378124Q99.546875 26.940624 101.859375 26.940624Q103.75 26.940624 104.859375 27.76875Q105.984375 28.58125 106.484375 30.2375ZM111.171875 23.2375L111.171875 28.503124Q112.5 26.940624 114.34375 26.940624Q115.296875 26.940624 116.046875 27.3Q116.8125 27.64375 117.203125 28.190624Q117.59375 28.7375 117.734375 29.409374Q117.875 30.065624 117.875 31.471874L117.875 37.55L115.125 37.55L115.125 32.065624Q115.125 30.440624 114.96875 30.003124Q114.8125 29.565624 114.40625 29.315624Q114.015625 29.05 113.421875 29.05Q112.75 29.05 112.203125 29.378124Q111.671875 29.70625 111.421875 30.378124Q111.171875 31.05 111.171875 32.346874L111.171875 37.55L108.421875 37.55L108.421875 23.2375L111.171875 23.2375ZM125.796875 32.221874Q125.796875 30.846874 126.46875 29.565624Q127.15625 28.284374 128.39062 27.6125Q129.625 26.940624 131.14062 26.940624Q133.5 26.940624 135.0 28.471874Q136.5 30.003124 136.5 32.33125Q136.5 34.690624 134.98438 36.2375Q133.46875 37.784374 131.15625 37.784374Q129.73438 37.784374 128.4375 37.14375Q127.15625 36.4875 126.46875 35.253124Q125.796875 34.003124 125.796875 32.221874ZM128.60938 32.3625Q128.60938 33.909374 129.34375 34.7375Q130.07812 35.55 131.15625 35.55Q132.23438 35.55 132.95312 34.7375Q133.6875 33.909374 133.6875 32.346874Q133.6875 30.815624 132.95312 30.003124Q132.23438 29.175 131.15625 29.175Q130.07812 29.175 129.34375 30.003124Q128.60938 30.815624 128.60938 32.3625ZM137.23438 27.175L138.76562 27.175L138.76562 26.39375Q138.76562 25.08125 139.03125 24.440624Q139.3125 23.8 140.0625 23.39375Q140.8125 22.9875 141.95312 22.9875Q143.125 22.9875 144.25 23.346874L143.875 25.253124Q143.21875 25.096874 142.60938 25.096874Q142.01562 25.096874 141.75 25.378124Q141.5 25.659374 141.5 26.440624L141.5 27.175L143.54688 27.175L143.54688 29.33125L141.5 29.33125L141.5 37.55L138.76562 37.55L138.76562 29.33125L137.23438 29.33125L137.23438 27.175ZM156.1875 27.175L156.1875 29.3625L154.3125 29.3625L154.3125 33.55Q154.3125 34.815624 154.35938 35.034374Q154.42188 35.2375 154.60938 35.378124Q154.8125 35.503124 155.07812 35.503124Q155.45312 35.503124 156.1875 35.2375L156.42188 37.378124Q155.45312 37.784374 154.25 37.784374Q153.5 37.784374 152.90625 37.534374Q152.3125 37.284374 152.03125 36.89375Q151.76562 36.4875 151.65625 35.815624Q151.5625 35.346874 151.5625 33.89375L151.5625 29.3625L150.29688 29.3625L150.29688 27.175L151.5625 27.175L151.5625 25.1125L154.3125 23.51875L154.3125 27.175L156.1875 27.175ZM161.17188 23.2375L161.17188 28.503124Q162.5 26.940624 164.34375 26.940624Q165.29688 26.940624 166.04688 27.3Q166.8125 27.64375 167.20312 28.190624Q167.59375 28.7375 167.73438 29.409374Q167.875 30.065624 167.875 31.471874L167.875 37.55L165.125 37.55L165.125 32.065624Q165.125 30.440624 164.96875 30.003124Q164.8125 29.565624 164.40625 29.315624Q164.01562 29.05 163.42188 29.05Q162.75 29.05 162.20312 29.378124Q161.67188 29.70625 161.42188 30.378124Q161.17188 31.05 161.17188 32.346874L161.17188 37.55L158.42188 37.55L158.42188 23.2375L161.17188 23.2375ZM176.4375 34.253124L179.17188 34.70625Q178.65625 36.20625 177.51562 37.003124Q176.375 37.784374 174.67188 37.784374Q171.95312 37.784374 170.65625 36.01875Q169.64062 34.596874 169.64062 32.440624Q169.64062 29.8625 170.98438 28.409374Q172.32812 26.940624 174.39062 26.940624Q176.70312 26.940624 178.03125 28.471874Q179.375 30.003124 179.32812 33.159374L172.45312 33.159374Q172.48438 34.378124 173.10938 35.065624Q173.75 35.7375 174.6875 35.7375Q175.34375 35.7375 175.78125 35.39375Q176.21875 35.034374 176.4375 34.253124ZM176.59375 31.471874Q176.5625 30.284374 175.96875 29.675Q175.39062 29.05 174.5625 29.05Q173.65625 29.05 173.07812 29.690624Q172.48438 30.346874 172.5 31.471874L176.59375 31.471874ZM186.23438 27.175L187.76562 27.175L187.76562 26.39375Q187.76562 25.08125 188.03125 24.440624Q188.3125 23.8 189.0625 23.39375Q189.8125 22.9875 190.95312 22.9875Q192.125 22.9875 193.25 23.346874L192.875 25.253124Q192.21875 25.096874 191.60938 25.096874Q191.01562 25.096874 190.75 25.378124Q190.5 25.659374 190.5 26.440624L190.5 27.175L192.54688 27.175L192.54688 29.33125L190.5 29.33125L190.5 37.55L187.76562 37.55L187.76562 29.33125L186.23438 29.33125L186.23438 27.175ZM193.79688 32.221874Q193.79688 30.846874 194.46875 29.565624Q195.15625 28.284374 196.39062 27.6125Q197.625 26.940624 199.14062 26.940624Q201.5 26.940624 203.0 28.471874Q204.5 30.003124 204.5 32.33125Q204.5 34.690624 202.98438 36.2375Q201.46875 37.784374 199.15625 37.784374Q197.73438 37.784374 196.4375 37.14375Q195.15625 36.4875 194.46875 35.253124Q193.79688 34.003124 193.79688 32.221874ZM196.60938 32.3625Q196.60938 33.909374 197.34375 34.7375Q198.07812 35.55 199.15625 35.55Q200.23438 35.55 200.95312 34.7375Q201.6875 33.909374 201.6875 32.346874Q201.6875 30.815624 200.95312 30.003124Q200.23438 29.175 199.15625 29.175Q198.07812 29.175 197.34375 30.003124Q196.60938 30.815624 196.60938 32.3625ZM206.4375 37.55L206.4375 23.2375L209.1875 23.2375L209.1875 37.55L206.4375 37.55ZM212.4375 37.55L212.4375 23.2375L215.1875 23.2375L215.1875 37.55L212.4375 37.55ZM217.79688 32.221874Q217.79688 30.846874 218.46875 29.565624Q219.15625 28.284374 220.39062 27.6125Q221.625 26.940624 223.14062 26.940624Q225.5 26.940624 227.0 28.471874Q228.5 30.003124 228.5 32.33125Q228.5 34.690624 226.98438 36.2375Q225.46875 37.784374 223.15625 37.784374Q221.73438 37.784374 220.4375 37.14375Q219.15625 36.4875 218.46875 35.253124Q217.79688 34.003124 217.79688 32.221874ZM220.60938 32.3625Q220.60938 33.909374 221.34375 34.7375Q222.07812 35.55 223.15625 35.55Q224.23438 35.55 224.95312 34.7375Q225.6875 33.909374 225.6875 32.346874Q225.6875 30.815624 224.95312 30.003124Q224.23438 29.175 223.15625 29.175Q222.07812 29.175 221.34375 30.003124Q220.60938 30.815624 220.60938 32.3625ZM232.375 37.55L229.09375 27.175L231.75 27.175L233.70312 33.971874L235.48438 27.175L238.125 27.175L239.85938 33.971874L241.84375 27.175L244.54688 27.175L241.21875 37.55L238.57812 37.55L236.79688 30.878124L235.03125 37.55L232.375 37.55ZM246.4375 25.76875L246.4375 23.2375L249.1875 23.2375L249.1875 25.76875L246.4375 25.76875ZM246.4375 37.55L246.4375 27.175L249.1875 27.175L249.1875 37.55L246.4375 37.55ZM261.875 37.55L259.125 37.55L259.125 32.253124Q259.125 30.58125 258.95312 30.096874Q258.78125 29.596874 258.375 29.33125Q257.98438 29.05 257.42188 29.05Q256.71875 29.05 256.14062 29.440624Q255.57812 29.83125 255.35938 30.471874Q255.15625 31.1125 255.15625 32.846874L255.15625 37.55L252.42188 37.55L252.42188 27.175L254.96875 27.175L254.96875 28.70625Q256.32812 26.940624 258.39062 26.940624Q259.29688 26.940624 260.04688 27.26875Q260.79688 27.596874 261.17188 28.1125Q261.5625 28.6125 261.71875 29.26875Q261.875 29.909374 261.875 31.096874L261.875 37.55ZM264.1875 38.2375L267.3125 38.6125Q267.39062 39.159374 267.67188 39.3625Q268.0625 39.659374 268.90625 39.659374Q269.98438 39.659374 270.51562 39.33125Q270.875 39.128124 271.0625 38.64375Q271.1875 38.3 271.1875 37.378124L271.1875 35.8625Q269.96875 37.55 268.09375 37.55Q266.0 37.55 264.78125 35.784374Q263.82812 34.378124 263.82812 32.3Q263.82812 29.690624 265.07812 28.315624Q266.32812 26.940624 268.20312 26.940624Q270.125 26.940624 271.375 28.628124L271.375 27.175L273.9375 27.175L273.9375 36.4875Q273.9375 38.315624 273.625 39.221874Q273.32812 40.14375 272.78125 40.659374Q272.23438 41.175 271.3125 41.45625Q270.40625 41.753124 269.01562 41.753124Q266.375 41.753124 265.26562 40.846874Q264.17188 39.95625 264.17188 38.565624Q264.17188 38.425 264.1875 38.2375ZM266.64062 32.14375Q266.64062 33.8 267.26562 34.565624Q267.90625 35.33125 268.84375 35.33125Q269.85938 35.33125 270.54688 34.55Q271.25 33.753124 271.25 32.221874Q271.25 30.6125 270.57812 29.83125Q269.92188 29.05 268.90625 29.05Q267.90625 29.05 267.26562 29.815624Q266.64062 30.58125 266.64062 32.14375ZM284.48438 30.346874L282.0 29.89375Q282.42188 28.39375 283.4375 27.675Q284.46875 26.940624 286.48438 26.940624Q288.32812 26.940624 289.21875 27.378124Q290.125 27.815624 290.48438 28.4875Q290.85938 29.14375 290.85938 30.940624L290.82812 34.14375Q290.82812 35.503124 290.95312 36.159374Q291.09375 36.8 291.45312 37.55L288.73438 37.55Q288.625 37.26875 288.46875 36.7375Q288.40625 36.4875 288.375 36.409374Q287.67188 37.096874 286.85938 37.440624Q286.0625 37.784374 285.15625 37.784374Q283.5625 37.784374 282.64062 36.925Q281.71875 36.05 281.71875 34.721874Q281.71875 33.83125 282.125 33.14375Q282.54688 32.45625 283.29688 32.096874Q284.0625 31.721874 285.5 31.45625Q287.42188 31.096874 288.15625 30.784374L288.15625 30.503124Q288.15625 29.721874 287.76562 29.39375Q287.375 29.05 286.29688 29.05Q285.5625 29.05 285.14062 29.33125Q284.73438 29.6125 284.48438 30.346874ZM288.15625 32.565624Q287.625 32.7375 286.48438 32.9875Q285.34375 33.2375 285.0 33.471874Q284.45312 33.846874 284.45312 34.440624Q284.45312 35.003124 284.875 35.425Q285.3125 35.846874 285.98438 35.846874Q286.71875 35.846874 287.39062 35.3625Q287.89062 34.9875 288.04688 34.45625Q288.15625 34.096874 288.15625 33.1125L288.15625 32.565624ZM293.35938 27.175L295.92188 27.175L295.92188 28.70625Q296.42188 27.925 297.26562 27.440624Q298.10938 26.940624 299.15625 26.940624Q300.95312 26.940624 302.20312 28.3625Q303.46875 29.76875 303.46875 32.3Q303.46875 34.909374 302.20312 36.346874Q300.9375 37.784374 299.125 37.784374Q298.26562 37.784374 297.5625 37.440624Q296.875 37.096874 296.10938 36.26875L296.10938 41.503124L293.35938 41.503124L293.35938 27.175ZM296.07812 32.190624Q296.07812 33.940624 296.76562 34.784374Q297.45312 35.6125 298.45312 35.6125Q299.40625 35.6125 300.04688 34.846874Q300.6875 34.065624 300.6875 32.33125Q300.6875 30.690624 300.03125 29.909374Q299.375 29.1125 298.40625 29.1125Q297.40625 29.1125 296.73438 29.89375Q296.07812 30.659374 296.07812 32.190624ZM305.35938 27.175L307.92188 27.175L307.92188 28.70625Q308.42188 27.925 309.26562 27.440624Q310.10938 26.940624 311.15625 26.940624Q312.95312 26.940624 314.20312 28.3625Q315.46875 29.76875 315.46875 32.3Q315.46875 34.909374 314.20312 36.346874Q312.9375 37.784374 311.125 37.784374Q310.26562 37.784374 309.5625 37.440624Q308.875 37.096874 308.10938 36.26875L308.10938 41.503124L305.35938 41.503124L305.35938 27.175ZM308.07812 32.190624Q308.07812 33.940624 308.76562 34.784374Q309.45312 35.6125 310.45312 35.6125Q311.40625 35.6125 312.04688 34.846874Q312.6875 34.065624 312.6875 32.33125Q312.6875 30.690624 312.03125 29.909374Q311.375 29.1125 310.40625 29.1125Q309.40625 29.1125 308.73438 29.89375Q308.07812 30.659374 308.07812 32.190624ZM316.46875 34.596874L319.21875 34.175Q319.40625 34.971874 319.9375 35.39375Q320.46875 35.8 321.4375 35.8Q322.5 35.8 323.04688 35.409374Q323.40625 35.14375 323.40625 34.675Q323.40625 34.3625 323.20312 34.159374Q323.0 33.971874 322.29688 33.8Q318.96875 33.065624 318.07812 32.45625Q316.84375 31.628124 316.84375 30.128124Q316.84375 28.784374 317.90625 27.8625Q318.98438 26.940624 321.21875 26.940624Q323.34375 26.940624 324.375 27.64375Q325.42188 28.33125 325.8125 29.690624L323.21875 30.159374Q323.04688 29.565624 322.57812 29.2375Q322.125 28.909374 321.26562 28.909374Q320.1875 28.909374 319.71875 29.221874Q319.40625 29.440624 319.40625 29.76875Q319.40625 30.065624 319.67188 30.26875Q320.04688 30.55 322.23438 31.05Q324.42188 31.55 325.29688 32.26875Q326.15625 33.003124 326.15625 34.3Q326.15625 35.7375 324.96875 36.76875Q323.78125 37.784374 321.4375 37.784374Q319.32812 37.784374 318.07812 36.925Q316.84375 36.065624 316.46875 34.596874ZM343.95312 37.55L341.40625 37.55L341.40625 36.01875Q340.76562 36.909374 339.89062 37.346874Q339.03125 37.784374 338.15625 37.784374Q336.375 37.784374 335.09375 36.346874Q333.82812 34.909374 333.82812 32.33125Q333.82812 29.690624 335.0625 28.315624Q336.29688 26.940624 338.20312 26.940624Q339.9375 26.940624 341.20312 28.39375L341.20312 23.2375L343.95312 23.2375L343.95312 37.55ZM336.625 32.14375Q336.625 33.8 337.07812 34.534374Q337.75 35.6125 338.9375 35.6125Q339.89062 35.6125 340.54688 34.815624Q341.21875 34.003124 341.21875 32.409374Q341.21875 30.6125 340.5625 29.83125Q339.92188 29.05 338.92188 29.05Q337.9375 29.05 337.28125 29.83125Q336.625 30.596874 336.625 32.14375ZM345.79688 32.221874Q345.79688 30.846874 346.46875 29.565624Q347.15625 28.284374 348.39062 27.6125Q349.625 26.940624 351.14062 26.940624Q353.5 26.940624 355.0 28.471874Q356.5 30.003124 356.5 32.33125Q356.5 34.690624 354.98438 36.2375Q353.46875 37.784374 351.15625 37.784374Q349.73438 37.784374 348.4375 37.14375Q347.15625 36.4875 346.46875 35.253124Q345.79688 34.003124 345.79688 32.221874ZM348.60938 32.3625Q348.60938 33.909374 349.34375 34.7375Q350.07812 35.55 351.15625 35.55Q352.23438 35.55 352.95312 34.7375Q353.6875 33.909374 353.6875 32.346874Q353.6875 30.815624 352.95312 30.003124Q352.23438 29.175 351.15625 29.175Q350.07812 29.175 349.34375 30.003124Q348.60938 30.815624 348.60938 32.3625ZM363.14062 27.175L366.0625 27.175L368.53125 34.534374L370.95312 27.175L373.79688 27.175L370.14062 37.159374L369.48438 38.971874Q369.125 39.878124 368.79688 40.346874Q368.46875 40.83125 368.04688 41.128124Q367.625 41.425 367.0 41.58125Q366.375 41.753124 365.59375 41.753124Q364.8125 41.753124 364.04688 41.596874L363.79688 39.440624Q364.45312 39.565624 364.96875 39.565624Q365.92188 39.565624 366.375 39.003124Q366.84375 38.45625 367.07812 37.58125L363.14062 27.175ZM374.79688 32.221874Q374.79688 30.846874 375.46875 29.565624Q376.15625 28.284374 377.39062 27.6125Q378.625 26.940624 380.14062 26.940624Q382.5 26.940624 384.0 28.471874Q385.5 30.003124 385.5 32.33125Q385.5 34.690624 383.98438 36.2375Q382.46875 37.784374 380.15625 37.784374Q378.73438 37.784374 377.4375 37.14375Q376.15625 36.4875 375.46875 35.253124Q374.79688 34.003124 374.79688 32.221874ZM377.60938 32.3625Q377.60938 33.909374 378.34375 34.7375Q379.07812 35.55 380.15625 35.55Q381.23438 35.55 381.95312 34.7375Q382.6875 33.909374 382.6875 32.346874Q382.6875 30.815624 381.95312 30.003124Q381.23438 29.175 380.15625 29.175Q379.07812 29.175 378.34375 30.003124Q377.60938 30.815624 377.60938 32.3625ZM394.26562 37.55L394.26562 36.003124Q393.70312 36.83125 392.76562 37.315624Q391.84375 37.784374 390.82812 37.784374Q389.78125 37.784374 388.95312 37.33125Q388.125 36.8625 387.75 36.034374Q387.375 35.20625 387.375 33.7375L387.375 27.175L390.125 27.175L390.125 31.940624Q390.125 34.128124 390.26562 34.628124Q390.42188 35.1125 390.8125 35.409374Q391.21875 35.690624 391.84375 35.690624Q392.54688 35.690624 393.09375 35.315624Q393.65625 34.925 393.85938 34.3625Q394.0625 33.784374 394.0625 31.55L394.0625 27.175L396.8125 27.175L396.8125 37.55L394.26562 37.55ZM412.26562 37.55L412.26562 36.003124Q411.70312 36.83125 410.76562 37.315624Q409.84375 37.784374 408.82812 37.784374Q407.78125 37.784374 406.95312 37.33125Q406.125 36.8625 405.75 36.034374Q405.375 35.20625 405.375 33.7375L405.375 27.175L408.125 27.175L408.125 31.940624Q408.125 34.128124 408.26562 34.628124Q408.42188 35.1125 408.8125 35.409374Q409.21875 35.690624 409.84375 35.690624Q410.54688 35.690624 411.09375 35.315624Q411.65625 34.925 411.85938 34.3625Q412.0625 33.784374 412.0625 31.55L412.0625 27.175L414.8125 27.175L414.8125 37.55L412.26562 37.55ZM416.46875 34.596874L419.21875 34.175Q419.40625 34.971874 419.9375 35.39375Q420.46875 35.8 421.4375 35.8Q422.5 35.8 423.04688 35.409374Q423.40625 35.14375 423.40625 34.675Q423.40625 34.3625 423.20312 34.159374Q423.0 33.971874 422.29688 33.8Q418.96875 33.065624 418.07812 32.45625Q416.84375 31.628124 416.84375 30.128124Q416.84375 28.784374 417.90625 27.8625Q418.98438 26.940624 421.21875 26.940624Q423.34375 26.940624 424.375 27.64375Q425.42188 28.33125 425.8125 29.690624L423.21875 30.159374Q423.04688 29.565624 422.57812 29.2375Q422.125 28.909374 421.26562 28.909374Q420.1875 28.909374 419.71875 29.221874Q419.40625 29.440624 419.40625 29.76875Q419.40625 30.065624 419.67188 30.26875Q420.04688 30.55 422.23438 31.05Q424.42188 31.55 425.29688 32.26875Q426.15625 33.003124 426.15625 34.3Q426.15625 35.7375 424.96875 36.76875Q423.78125 37.784374 421.4375 37.784374Q419.32812 37.784374 418.07812 36.925Q416.84375 36.065624 416.46875 34.596874ZM434.4375 34.253124L437.17188 34.70625Q436.65625 36.20625 435.51562 37.003124Q434.375 37.784374 432.67188 37.784374Q429.95312 37.784374 428.65625 36.01875Q427.64062 34.596874 427.64062 32.440624Q427.64062 29.8625 428.98438 28.409374Q430.32812 26.940624 432.39062 26.940624Q434.70312 26.940624 436.03125 28.471874Q437.375 30.003124 437.32812 33.159374L430.45312 33.159374Q430.48438 34.378124 431.10938 35.065624Q431.75 35.7375 432.6875 35.7375Q433.34375 35.7375 433.78125 35.39375Q434.21875 35.034374 434.4375 34.253124ZM434.59375 31.471874Q434.5625 30.284374 433.96875 29.675Q433.39062 29.05 432.5625 29.05Q431.65625 29.05 431.07812 29.690624Q430.48438 30.346874 430.5 31.471874L434.59375 31.471874ZM448.0625 37.55L445.3125 37.55L445.3125 27.175L447.875 27.175L447.875 28.659374Q448.51562 27.6125 449.03125 27.284374Q449.5625 26.940624 450.23438 26.940624Q451.17188 26.940624 452.03125 27.45625L451.1875 29.846874Q450.5 29.409374 449.90625 29.409374Q449.32812 29.409374 448.92188 29.721874Q448.51562 30.034374 448.28125 30.878124Q448.0625 31.70625 448.0625 34.346874L448.0625 37.55ZM459.4375 34.253124L462.17188 34.70625Q461.65625 36.20625 460.51562 37.003124Q459.375 37.784374 457.67188 37.784374Q454.95312 37.784374 453.65625 36.01875Q452.64062 34.596874 452.64062 32.440624Q452.64062 29.8625 453.98438 28.409374Q455.32812 26.940624 457.39062 26.940624Q459.70312 26.940624 461.03125 28.471874Q462.375 30.003124 462.32812 33.159374L455.45312 33.159374Q455.48438 34.378124 456.10938 35.065624Q456.75 35.7375 457.6875 35.7375Q458.34375 35.7375 458.78125 35.39375Q459.21875 35.034374 459.4375 34.253124ZM459.59375 31.471874Q459.5625 30.284374 458.96875 29.675Q458.39062 29.05 457.5625 29.05Q456.65625 29.05 456.07812 29.690624Q455.48438 30.346874 455.5 31.471874L459.59375 31.471874ZM464.1875 38.2375L467.3125 38.6125Q467.39062 39.159374 467.67188 39.3625Q468.0625 39.659374 468.90625 39.659374Q469.98438 39.659374 470.51562 39.33125Q470.875 39.128124 471.0625 38.64375Q471.1875 38.3 471.1875 37.378124L471.1875 35.8625Q469.96875 37.55 468.09375 37.55Q466.0 37.55 464.78125 35.784374Q463.82812 34.378124 463.82812 32.3Q463.82812 29.690624 465.07812 28.315624Q466.32812 26.940624 468.20312 26.940624Q470.125 26.940624 471.375 28.628124L471.375 27.175L473.9375 27.175L473.9375 36.4875Q473.9375 38.315624 473.625 39.221874Q473.32812 40.14375 472.78125 40.659374Q472.23438 41.175 471.3125 41.45625Q470.40625 41.753124 469.01562 41.753124Q466.375 41.753124 465.26562 40.846874Q464.17188 39.95625 464.17188 38.565624Q464.17188 38.425 464.1875 38.2375ZM466.64062 32.14375Q466.64062 33.8 467.26562 34.565624Q467.90625 35.33125 468.84375 35.33125Q469.85938 35.33125 470.54688 34.55Q471.25 33.753124 471.25 32.221874Q471.25 30.6125 470.57812 29.83125Q469.92188 29.05 468.90625 29.05Q467.90625 29.05 467.26562 29.815624Q466.64062 30.58125 466.64062 32.14375ZM483.26562 37.55L483.26562 36.003124Q482.70312 36.83125 481.76562 37.315624Q480.84375 37.784374 479.82812 37.784374Q478.78125 37.784374 477.95312 37.33125Q477.125 36.8625 476.75 36.034374Q476.375 35.20625 476.375 33.7375L476.375 27.175L479.125 27.175L479.125 31.940624Q479.125 34.128124 479.26562 34.628124Q479.42188 35.1125 479.8125 35.409374Q480.21875 35.690624 480.84375 35.690624Q481.54688 35.690624 482.09375 35.315624Q482.65625 34.925 482.85938 34.3625Q483.0625 33.784374 483.0625 31.55L483.0625 27.175L485.8125 27.175L485.8125 37.55L483.26562 37.55ZM488.4375 37.55L488.4375 23.2375L491.1875 23.2375L491.1875 37.55L488.4375 37.55ZM496.48438 30.346874L494.0 29.89375Q494.42188 28.39375 495.4375 27.675Q496.46875 26.940624 498.48438 26.940624Q500.32812 26.940624 501.21875 27.378124Q502.125 27.815624 502.48438 28.4875Q502.85938 29.14375 502.85938 30.940624L502.82812 34.14375Q502.82812 35.503124 502.95312 36.159374Q503.09375 36.8 503.45312 37.55L500.73438 37.55Q500.625 37.26875 500.46875 36.7375Q500.40625 36.4875 500.375 36.409374Q499.67188 37.096874 498.85938 37.440624Q498.0625 37.784374 497.15625 37.784374Q495.5625 37.784374 494.64062 36.925Q493.71875 36.05 493.71875 34.721874Q493.71875 33.83125 494.125 33.14375Q494.54688 32.45625 495.29688 32.096874Q496.0625 31.721874 497.5 31.45625Q499.42188 31.096874 500.15625 30.784374L500.15625 30.503124Q500.15625 29.721874 499.76562 29.39375Q499.375 29.05 498.29688 29.05Q497.5625 29.05 497.14062 29.33125Q496.73438 29.6125 496.48438 30.346874ZM500.15625 32.565624Q499.625 32.7375 498.48438 32.9875Q497.34375 33.2375 497.0 33.471874Q496.45312 33.846874 496.45312 34.440624Q496.45312 35.003124 496.875 35.425Q497.3125 35.846874 497.98438 35.846874Q498.71875 35.846874 499.39062 35.3625Q499.89062 34.9875 500.04688 34.45625Q500.15625 34.096874 500.15625 33.1125L500.15625 32.565624ZM508.0625 37.55L505.3125 37.55L505.3125 27.175L507.875 27.175L507.875 28.659374Q508.51562 27.6125 509.03125 27.284374Q509.5625 26.940624 510.23438 26.940624Q511.17188 26.940624 512.03125 27.45625L511.1875 29.846874Q510.5 29.409374 509.90625 29.409374Q509.32812 29.409374 508.92188 29.721874Q508.51562 30.034374 508.28125 30.878124Q508.0625 31.70625 508.0625 34.346874L508.0625 37.55ZM513.4375 37.55L513.4375 23.2375L516.1875 23.2375L516.1875 37.55L513.4375 37.55ZM518.1406 27.175L521.0625 27.175L523.53125 34.534374L525.9531 27.175L528.7969 27.175L525.1406 37.159374L524.4844 38.971874Q524.125 39.878124 523.7969 40.346874Q523.46875 40.83125 523.0469 41.128124Q522.625 41.425 522.0 41.58125Q521.375 41.753124 520.59375 41.753124Q519.8125 41.753124 519.0469 41.596874L518.7969 39.440624Q519.4531 39.565624 519.96875 39.565624Q520.9219 39.565624 521.375 39.003124Q521.84375 38.45625 522.0781 37.58125L518.1406 27.175ZM536.3281 33.8625L533.84375 33.8625Q533.8281 33.315624 533.8281 33.20625Q533.8281 31.9875 534.2344 31.20625Q534.6406 30.425 535.8281 29.45625Q537.03125 28.471874 537.2656 28.175Q537.6406 27.690624 537.6406 27.1125Q537.6406 26.315624 537.0 25.753124Q536.3594 25.175 535.2656 25.175Q534.21875 25.175 533.5156 25.76875Q532.8125 26.3625 532.5625 27.58125L530.03125 27.26875Q530.1406 25.534374 531.5156 24.315624Q532.90625 23.08125 535.15625 23.08125Q537.5156 23.08125 538.90625 24.315624Q540.3125 25.55 540.3125 27.190624Q540.3125 28.1125 539.7969 28.925Q539.28125 29.721874 537.6094 31.128124Q536.7344 31.846874 536.5156 32.284374Q536.3125 32.721874 536.3281 33.8625ZM533.84375 37.55L533.84375 34.8L536.59375 34.8L536.59375 37.55L533.84375 37.55Z" fill-rule="nonzero"/></svg>